M48
INCH,TZ
T1C0.012
T2C0.039
T3C0.040
T4C0.091
T5C0.106
T6C0.028
%
G90
G05
T1
X28898Y-33583
X29094Y-31024
X29291Y-31496
X30118Y-30472
X30394Y-28031
X30433Y-29606
X30551Y-29331
X30709Y-28583
X31732Y-28189
X31850Y-27598
X31929Y-26772
X31929Y-28268
X31958Y-27953
X32008Y-27441
X32520Y-30236
X32903Y-33071
X32916Y-29213
X32953Y-34567
X32992Y-32441
X33031Y-29488
X33031Y-29724
X33038Y-33497
X33150Y-34921
X33238Y-28946
X33248Y-28078
X33316Y-27392
X33386Y-29528
X33386Y-31262
X33386Y-32441
X33465Y-27747
X33701Y-28386
X33740Y-26063
X33740Y-33346
X33740Y-33661
X33878Y-28228
X33898Y-26890
X33898Y-28976
X33898Y-31113
X33976Y-30157
X34016Y-29488
X34016Y-31654
X34016Y-33661
X34017Y-28045
X34025Y-27598
X34094Y-34567
X34134Y-25825
X34173Y-26890
X34173Y-30984
X34252Y-28387
X34272Y-26364
X34331Y-28583
X34528Y-32638
X34567Y-30433
X34724Y-26181
X34724Y-34134
X34725Y-30591
X34843Y-34331
X34884Y-30787
X35039Y-34803
X35042Y-30945
X35048Y-32874
X35157Y-28583
X35197Y-29213
X35197Y-29724
X35236Y-31045
X35354Y-31654
X35512Y-27835
X35551Y-32638
X35630Y-29094
X35709Y-25591
X35709Y-27008
X35709Y-35906
X36220Y-26693
X36417Y-31969
X36732Y-25591
X37717Y-33307
X38071Y-29350
X38110Y-25748
X38189Y-35748
X38386Y-25748
X38465Y-28150
X38465Y-34724
X38701Y-27087
X38780Y-29053
X38858Y-30787
X38976Y-28701
X39016Y-27323
X39016Y-29213
X39017Y-30590
X39606Y-25669
X39803Y-31890
X39841Y-33946
X39921Y-31378
X40000Y-33819
X40354Y-26299
X40472Y-31535
X40669Y-32677
X40748Y-33228
X41024Y-25118
X41063Y-32244
X41102Y-33189
X41457Y-23386
X41614Y-31417
X41732Y-26535
X42008Y-23386
T2
X42634Y-28150
X42634Y-29134
X42634Y-29921
X42634Y-30906
T3
X28386Y-25984
X28386Y-26984
X28386Y-27984
X28386Y-28984
X28386Y-29984
X28386Y-30984
X28386Y-31984
X28386Y-32984
X29803Y-25984
X29803Y-26984
X29803Y-27984
X29803Y-28984
X29803Y-29984
X29803Y-30984
X29803Y-31976
X29803Y-32976
X29803Y-33976
X29803Y-34976
X31220Y-25984
X31220Y-26984
X31220Y-27984
X31220Y-28984
X31220Y-29984
X31220Y-30984
X31220Y-31976
X31220Y-32976
X31220Y-33976
X31220Y-34976
X40575Y-34882
X40575Y-35882
X41575Y-34882
X41575Y-35882
X42575Y-34882
X42575Y-35882
T4
X43701Y-26941
X43701Y-32114
T5
X27756Y-24016
X27756Y-35236
X44685Y-24016
X44685Y-35236
T6
X41732Y-23071
X41732Y-23780
T0
M30
