G04 #@! TF.FileFunction,Copper,L3,Inr,Signal*
%FSLAX46Y46*%
G04 Gerber Fmt 4.6, Leading zero omitted, Abs format (unit mm)*
G04 Created by KiCad (PCBNEW 4.0.5) date 02/11/17 17:41:13*
%MOMM*%
%LPD*%
G01*
G04 APERTURE LIST*
%ADD10C,0.100000*%
%ADD11C,0.250000*%
%ADD12C,5.400000*%
%ADD13R,2.032000X1.727200*%
%ADD14O,2.032000X1.727200*%
%ADD15R,1.727200X1.727200*%
%ADD16O,1.727200X1.727200*%
%ADD17C,1.501140*%
%ADD18C,2.999740*%
%ADD19C,0.401600*%
%ADD20C,0.400000*%
%ADD21C,0.254000*%
G04 APERTURE END LIST*
D10*
D11*
X76566667Y-91288095D02*
X77371429Y-91288095D01*
X76938096Y-91783333D01*
X77123810Y-91783333D01*
X77247620Y-91845238D01*
X77309524Y-91907143D01*
X77371429Y-92030952D01*
X77371429Y-92340476D01*
X77309524Y-92464286D01*
X77247620Y-92526190D01*
X77123810Y-92588095D01*
X76752382Y-92588095D01*
X76628572Y-92526190D01*
X76566667Y-92464286D01*
D12*
X70500000Y-61000000D03*
D13*
X79300000Y-66000000D03*
D14*
X79300000Y-68540000D03*
X79300000Y-71080000D03*
X79300000Y-73620000D03*
X79300000Y-76160000D03*
X79300000Y-78700000D03*
D13*
X75700000Y-66000000D03*
D14*
X75700000Y-68540000D03*
X75700000Y-71080000D03*
X75700000Y-73620000D03*
X75700000Y-76160000D03*
X75700000Y-78700000D03*
D13*
X72100000Y-66000000D03*
D14*
X72100000Y-68540000D03*
X72100000Y-71080000D03*
X72100000Y-73620000D03*
X72100000Y-76160000D03*
X72100000Y-78700000D03*
X72100000Y-81240000D03*
X72100000Y-83780000D03*
D13*
X79300000Y-88840000D03*
D14*
X79300000Y-86300000D03*
X79300000Y-83760000D03*
X79300000Y-81220000D03*
D13*
X75700000Y-88840000D03*
D14*
X75700000Y-86300000D03*
X75700000Y-83760000D03*
X75700000Y-81220000D03*
D15*
X108140000Y-88600000D03*
D16*
X108140000Y-91140000D03*
X105600000Y-88600000D03*
X105600000Y-91140000D03*
X103060000Y-88600000D03*
X103060000Y-91140000D03*
D17*
X108290000Y-71500000D03*
X108290000Y-74000000D03*
X108290000Y-76000000D03*
X108290000Y-78500000D03*
D18*
X111000000Y-68430000D03*
X111000000Y-81570000D03*
D12*
X70500000Y-89500000D03*
X113500000Y-89500000D03*
X113500000Y-61000000D03*
D19*
X105300000Y-59400000D03*
X106700000Y-59400000D03*
X93300000Y-65000000D03*
X85000000Y-70478390D03*
X81172590Y-71000000D03*
D20*
X99000000Y-72900000D03*
X84200000Y-88700000D03*
X86400000Y-85500000D03*
X90200000Y-70700000D03*
X90700000Y-65000000D03*
X100600000Y-65200000D03*
X106000000Y-67400000D03*
X101400000Y-79700000D03*
X105700000Y-79800000D03*
X104300000Y-81900000D03*
X104400000Y-84300000D03*
X103500000Y-84400000D03*
X97000000Y-90800000D03*
X97700000Y-88200000D03*
X95800000Y-84600000D03*
X90300000Y-82900000D03*
X92500000Y-81200000D03*
X90700000Y-68600000D03*
X82600000Y-76800000D03*
X84800000Y-82400000D03*
X85700000Y-85500000D03*
X83800000Y-82400000D03*
X90700000Y-91200000D03*
D19*
X87200000Y-72600000D03*
X90500000Y-73900000D03*
D20*
X89800000Y-80400000D03*
X101100000Y-81000000D03*
X102800000Y-80100000D03*
X103300000Y-83000000D03*
X86600000Y-87800000D03*
X85700000Y-84700000D03*
X88200000Y-66500000D03*
X92000000Y-67800000D03*
D19*
X83572590Y-84000000D03*
X83700000Y-87800000D03*
X98300000Y-68800000D03*
X99100000Y-69400000D03*
X101196797Y-86222590D03*
X98700000Y-78200000D03*
X98500000Y-73795189D03*
X101600000Y-85900000D03*
X99102562Y-77698079D03*
X99100000Y-74200000D03*
X83900000Y-74900000D03*
X84800000Y-79404820D03*
X84800000Y-75000000D03*
X81100000Y-68000000D03*
X83900000Y-75500000D03*
X89500000Y-78854820D03*
X89400000Y-75500000D03*
X81300000Y-69700000D03*
X89007096Y-78600000D03*
X89022590Y-83500000D03*
X74400000Y-80000000D03*
X83606902Y-74200000D03*
X96700000Y-74550009D03*
X89400000Y-74200000D03*
X80900000Y-70100000D03*
X73400000Y-85300000D03*
X88604686Y-78200001D03*
X88500000Y-87200000D03*
X83916869Y-85083131D03*
X73900000Y-78800000D03*
X88202410Y-77702410D03*
X88200000Y-86700000D03*
X84423770Y-73523770D03*
X76500000Y-77400000D03*
X87800000Y-77300000D03*
X87700000Y-82900000D03*
X80600000Y-71600000D03*
X84622565Y-69575025D03*
X84450009Y-71316869D03*
X81100000Y-71800000D03*
X86800000Y-68300000D03*
X86800000Y-78700000D03*
X78000000Y-72600000D03*
X77600000Y-74500000D03*
X77300000Y-75200000D03*
X77200000Y-71200000D03*
X86400000Y-74900000D03*
X86300000Y-76600000D03*
X86400000Y-80400000D03*
X86100000Y-73600000D03*
X86100000Y-79027410D03*
X96800000Y-65400000D03*
X97500000Y-65400000D03*
X86422590Y-70100000D03*
X86402410Y-71233210D03*
X86100000Y-68300000D03*
X86050009Y-71700000D03*
X87050009Y-66965453D03*
X89300000Y-72600000D03*
X97700000Y-71500000D03*
X89000000Y-88400000D03*
X86700000Y-65595980D03*
X87000000Y-72104020D03*
X85600000Y-72100000D03*
X85700000Y-66200000D03*
X104200000Y-63800000D03*
X102500000Y-66800000D03*
D21*
G36*
X105586463Y-57979927D02*
X105380650Y-58185381D01*
X105269127Y-58453957D01*
X105268874Y-58744767D01*
X105299215Y-58818199D01*
X105184781Y-58818099D01*
X104970867Y-58906486D01*
X104807062Y-59070007D01*
X104718301Y-59283765D01*
X104718099Y-59515219D01*
X104806486Y-59729133D01*
X104970007Y-59892938D01*
X105183765Y-59981699D01*
X105384163Y-59981874D01*
X105380650Y-59985381D01*
X105269127Y-60253957D01*
X105268874Y-60544767D01*
X105379927Y-60813537D01*
X105585381Y-61019350D01*
X105853957Y-61130873D01*
X106144767Y-61131126D01*
X106413537Y-61020073D01*
X106619350Y-60814619D01*
X106730873Y-60546043D01*
X106731126Y-60255233D01*
X106620073Y-59986463D01*
X106615345Y-59981727D01*
X106815219Y-59981901D01*
X107029133Y-59893514D01*
X107192938Y-59729993D01*
X107281699Y-59516235D01*
X107281901Y-59284781D01*
X107193514Y-59070867D01*
X107029993Y-58907062D01*
X106816235Y-58818301D01*
X106700911Y-58818200D01*
X106730873Y-58746043D01*
X106731126Y-58455233D01*
X106620073Y-58186463D01*
X106414619Y-57980650D01*
X106355255Y-57956000D01*
X112799003Y-57956000D01*
X111757034Y-58386533D01*
X110889579Y-59252475D01*
X110419536Y-60384463D01*
X110418467Y-61610160D01*
X110886533Y-62742966D01*
X111752475Y-63610421D01*
X112884463Y-64080464D01*
X114110160Y-64081533D01*
X115242966Y-63613467D01*
X116110421Y-62747525D01*
X116544000Y-61703352D01*
X116544000Y-88799003D01*
X116113467Y-87757034D01*
X115247525Y-86889579D01*
X114115537Y-86419536D01*
X112889840Y-86418467D01*
X111757034Y-86886533D01*
X110889579Y-87752475D01*
X110419536Y-88884463D01*
X110418467Y-90110160D01*
X110886533Y-91242966D01*
X111752475Y-92110421D01*
X112796648Y-92544000D01*
X108513002Y-92544000D01*
X108513002Y-92426884D01*
X108735463Y-92515218D01*
X109182687Y-92216424D01*
X109515247Y-91735467D01*
X109432717Y-91513000D01*
X108513000Y-91513000D01*
X108513000Y-91533000D01*
X107767000Y-91533000D01*
X107767000Y-91513000D01*
X107747000Y-91513000D01*
X107747000Y-90767000D01*
X107767000Y-90767000D01*
X107767000Y-90747000D01*
X108513000Y-90747000D01*
X108513000Y-90767000D01*
X109432717Y-90767000D01*
X109515247Y-90544533D01*
X109182687Y-90063576D01*
X108866104Y-89852064D01*
X109003600Y-89852064D01*
X109144790Y-89825497D01*
X109274465Y-89742054D01*
X109361459Y-89614734D01*
X109392064Y-89463600D01*
X109392064Y-87736400D01*
X109365497Y-87595210D01*
X109282054Y-87465535D01*
X109154734Y-87378541D01*
X109003600Y-87347936D01*
X107276400Y-87347936D01*
X107135210Y-87374503D01*
X107005535Y-87457946D01*
X106918541Y-87585266D01*
X106887936Y-87736400D01*
X106887936Y-89463600D01*
X106914503Y-89604790D01*
X106997946Y-89734465D01*
X107125266Y-89821459D01*
X107276400Y-89852064D01*
X107413896Y-89852064D01*
X107097313Y-90063576D01*
X106764753Y-90544533D01*
X106847282Y-90766998D01*
X106775255Y-90766998D01*
X106749860Y-90639329D01*
X106480065Y-90235552D01*
X106076288Y-89965757D01*
X105600000Y-89871017D01*
X105123712Y-89965757D01*
X104719935Y-90235552D01*
X104450140Y-90639329D01*
X104355400Y-91115617D01*
X104355400Y-91164383D01*
X104450140Y-91640671D01*
X104719935Y-92044448D01*
X105123712Y-92314243D01*
X105600000Y-92408983D01*
X106076288Y-92314243D01*
X106480065Y-92044448D01*
X106749860Y-91640671D01*
X106775255Y-91513002D01*
X106847282Y-91513002D01*
X106764753Y-91735467D01*
X107097313Y-92216424D01*
X107544537Y-92515218D01*
X107766998Y-92426884D01*
X107766998Y-92544000D01*
X79527000Y-92544000D01*
X79527000Y-91315061D01*
X90118900Y-91315061D01*
X90207165Y-91528680D01*
X90370460Y-91692260D01*
X90583925Y-91780898D01*
X90815061Y-91781100D01*
X91028680Y-91692835D01*
X91192260Y-91529540D01*
X91280898Y-91316075D01*
X91281100Y-91084939D01*
X91210909Y-90915061D01*
X96418900Y-90915061D01*
X96507165Y-91128680D01*
X96670460Y-91292260D01*
X96883925Y-91380898D01*
X97115061Y-91381100D01*
X97328680Y-91292835D01*
X97492260Y-91129540D01*
X97498041Y-91115617D01*
X101815400Y-91115617D01*
X101815400Y-91164383D01*
X101910140Y-91640671D01*
X102179935Y-92044448D01*
X102583712Y-92314243D01*
X103060000Y-92408983D01*
X103536288Y-92314243D01*
X103940065Y-92044448D01*
X104209860Y-91640671D01*
X104304600Y-91164383D01*
X104304600Y-91115617D01*
X104209860Y-90639329D01*
X103940065Y-90235552D01*
X103536288Y-89965757D01*
X103060000Y-89871017D01*
X102583712Y-89965757D01*
X102179935Y-90235552D01*
X101910140Y-90639329D01*
X101815400Y-91115617D01*
X97498041Y-91115617D01*
X97580898Y-90916075D01*
X97581100Y-90684939D01*
X97492835Y-90471320D01*
X97329540Y-90307740D01*
X97116075Y-90219102D01*
X96884939Y-90218900D01*
X96671320Y-90307165D01*
X96507740Y-90470460D01*
X96419102Y-90683925D01*
X96418900Y-90915061D01*
X91210909Y-90915061D01*
X91192835Y-90871320D01*
X91029540Y-90707740D01*
X90816075Y-90619102D01*
X90584939Y-90618900D01*
X90371320Y-90707165D01*
X90207740Y-90870460D01*
X90119102Y-91083925D01*
X90118900Y-91315061D01*
X79527000Y-91315061D01*
X79527000Y-90700000D01*
X79516994Y-90650590D01*
X79488553Y-90608965D01*
X79446159Y-90581685D01*
X79400000Y-90573000D01*
X73390509Y-90573000D01*
X73580464Y-90115537D01*
X73581533Y-88889840D01*
X73204108Y-87976400D01*
X74295536Y-87976400D01*
X74295536Y-89703600D01*
X74322103Y-89844790D01*
X74405546Y-89974465D01*
X74532866Y-90061459D01*
X74684000Y-90092064D01*
X76716000Y-90092064D01*
X76857190Y-90065497D01*
X76986865Y-89982054D01*
X77073859Y-89854734D01*
X77104464Y-89703600D01*
X77104464Y-87976400D01*
X77895536Y-87976400D01*
X77895536Y-89703600D01*
X77922103Y-89844790D01*
X78005546Y-89974465D01*
X78132866Y-90061459D01*
X78284000Y-90092064D01*
X80316000Y-90092064D01*
X80457190Y-90065497D01*
X80586865Y-89982054D01*
X80673859Y-89854734D01*
X80704464Y-89703600D01*
X80704464Y-87976400D01*
X80692952Y-87915219D01*
X83118099Y-87915219D01*
X83206486Y-88129133D01*
X83370007Y-88292938D01*
X83583765Y-88381699D01*
X83703030Y-88381803D01*
X83619102Y-88583925D01*
X83618900Y-88815061D01*
X83707165Y-89028680D01*
X83870460Y-89192260D01*
X84083925Y-89280898D01*
X84315061Y-89281100D01*
X84528680Y-89192835D01*
X84692260Y-89029540D01*
X84780898Y-88816075D01*
X84781100Y-88584939D01*
X84752293Y-88515219D01*
X88418099Y-88515219D01*
X88506486Y-88729133D01*
X88670007Y-88892938D01*
X88883765Y-88981699D01*
X89115219Y-88981901D01*
X89329133Y-88893514D01*
X89492938Y-88729993D01*
X89581699Y-88516235D01*
X89581874Y-88315061D01*
X97118900Y-88315061D01*
X97207165Y-88528680D01*
X97370460Y-88692260D01*
X97583925Y-88780898D01*
X97815061Y-88781100D01*
X98028680Y-88692835D01*
X98146102Y-88575617D01*
X101815400Y-88575617D01*
X101815400Y-88624383D01*
X101910140Y-89100671D01*
X102179935Y-89504448D01*
X102583712Y-89774243D01*
X103060000Y-89868983D01*
X103536288Y-89774243D01*
X103940065Y-89504448D01*
X104209860Y-89100671D01*
X104304600Y-88624383D01*
X104304600Y-88575617D01*
X104355400Y-88575617D01*
X104355400Y-88624383D01*
X104450140Y-89100671D01*
X104719935Y-89504448D01*
X105123712Y-89774243D01*
X105600000Y-89868983D01*
X106076288Y-89774243D01*
X106480065Y-89504448D01*
X106749860Y-89100671D01*
X106844600Y-88624383D01*
X106844600Y-88575617D01*
X106749860Y-88099329D01*
X106480065Y-87695552D01*
X106076288Y-87425757D01*
X105600000Y-87331017D01*
X105123712Y-87425757D01*
X104719935Y-87695552D01*
X104450140Y-88099329D01*
X104355400Y-88575617D01*
X104304600Y-88575617D01*
X104209860Y-88099329D01*
X103940065Y-87695552D01*
X103536288Y-87425757D01*
X103060000Y-87331017D01*
X102583712Y-87425757D01*
X102179935Y-87695552D01*
X101910140Y-88099329D01*
X101815400Y-88575617D01*
X98146102Y-88575617D01*
X98192260Y-88529540D01*
X98280898Y-88316075D01*
X98281100Y-88084939D01*
X98192835Y-87871320D01*
X98029540Y-87707740D01*
X97816075Y-87619102D01*
X97584939Y-87618900D01*
X97371320Y-87707165D01*
X97207740Y-87870460D01*
X97119102Y-88083925D01*
X97118900Y-88315061D01*
X89581874Y-88315061D01*
X89581901Y-88284781D01*
X89493514Y-88070867D01*
X89329993Y-87907062D01*
X89116235Y-87818301D01*
X88884781Y-87818099D01*
X88670867Y-87906486D01*
X88507062Y-88070007D01*
X88418301Y-88283765D01*
X88418099Y-88515219D01*
X84752293Y-88515219D01*
X84692835Y-88371320D01*
X84529540Y-88207740D01*
X84316075Y-88119102D01*
X84197503Y-88118998D01*
X84281699Y-87916235D01*
X84281901Y-87684781D01*
X84193514Y-87470867D01*
X84029993Y-87307062D01*
X83816235Y-87218301D01*
X83584781Y-87218099D01*
X83370867Y-87306486D01*
X83207062Y-87470007D01*
X83118301Y-87683765D01*
X83118099Y-87915219D01*
X80692952Y-87915219D01*
X80677897Y-87835210D01*
X80594454Y-87705535D01*
X80467134Y-87618541D01*
X80316000Y-87587936D01*
X78284000Y-87587936D01*
X78142810Y-87614503D01*
X78013135Y-87697946D01*
X77926141Y-87825266D01*
X77895536Y-87976400D01*
X77104464Y-87976400D01*
X77077897Y-87835210D01*
X76994454Y-87705535D01*
X76867134Y-87618541D01*
X76716000Y-87587936D01*
X74684000Y-87587936D01*
X74542810Y-87614503D01*
X74413135Y-87697946D01*
X74326141Y-87825266D01*
X74295536Y-87976400D01*
X73204108Y-87976400D01*
X73113467Y-87757034D01*
X72247525Y-86889579D01*
X71115537Y-86419536D01*
X69889840Y-86418467D01*
X68757034Y-86886533D01*
X67889579Y-87752475D01*
X67456000Y-88796648D01*
X67456000Y-86300000D01*
X74275631Y-86300000D01*
X74370371Y-86776288D01*
X74640166Y-87180065D01*
X75043943Y-87449860D01*
X75520231Y-87544600D01*
X75879769Y-87544600D01*
X76356057Y-87449860D01*
X76759834Y-87180065D01*
X77029629Y-86776288D01*
X77124369Y-86300000D01*
X77875631Y-86300000D01*
X77970371Y-86776288D01*
X78240166Y-87180065D01*
X78643943Y-87449860D01*
X79120231Y-87544600D01*
X79479769Y-87544600D01*
X79956057Y-87449860D01*
X80359834Y-87180065D01*
X80603616Y-86815219D01*
X87618099Y-86815219D01*
X87706486Y-87029133D01*
X87870007Y-87192938D01*
X87918188Y-87212945D01*
X87918099Y-87315219D01*
X88006486Y-87529133D01*
X88170007Y-87692938D01*
X88383765Y-87781699D01*
X88615219Y-87781901D01*
X88829133Y-87693514D01*
X88992938Y-87529993D01*
X89081699Y-87316235D01*
X89081901Y-87084781D01*
X88993514Y-86870867D01*
X88829993Y-86707062D01*
X88781812Y-86687055D01*
X88781901Y-86584781D01*
X88693514Y-86370867D01*
X88660514Y-86337809D01*
X100614896Y-86337809D01*
X100703283Y-86551723D01*
X100866804Y-86715528D01*
X101080562Y-86804289D01*
X101312016Y-86804491D01*
X101525930Y-86716104D01*
X101689735Y-86552583D01*
X101719886Y-86479973D01*
X101929133Y-86393514D01*
X102092938Y-86229993D01*
X102181699Y-86016235D01*
X102181901Y-85784781D01*
X102093514Y-85570867D01*
X101929993Y-85407062D01*
X101716235Y-85318301D01*
X101484781Y-85318099D01*
X101270867Y-85406486D01*
X101107062Y-85570007D01*
X101076911Y-85642617D01*
X100867664Y-85729076D01*
X100703859Y-85892597D01*
X100615098Y-86106355D01*
X100614896Y-86337809D01*
X88660514Y-86337809D01*
X88529993Y-86207062D01*
X88316235Y-86118301D01*
X88084781Y-86118099D01*
X87870867Y-86206486D01*
X87707062Y-86370007D01*
X87618301Y-86583765D01*
X87618099Y-86815219D01*
X80603616Y-86815219D01*
X80629629Y-86776288D01*
X80724369Y-86300000D01*
X80629629Y-85823712D01*
X80359834Y-85419935D01*
X79956057Y-85150140D01*
X79479769Y-85055400D01*
X79120231Y-85055400D01*
X78643943Y-85150140D01*
X78240166Y-85419935D01*
X77970371Y-85823712D01*
X77875631Y-86300000D01*
X77124369Y-86300000D01*
X77029629Y-85823712D01*
X76759834Y-85419935D01*
X76356057Y-85150140D01*
X75879769Y-85055400D01*
X75520231Y-85055400D01*
X75043943Y-85150140D01*
X74640166Y-85419935D01*
X74370371Y-85823712D01*
X74275631Y-86300000D01*
X67456000Y-86300000D01*
X67456000Y-85415219D01*
X72818099Y-85415219D01*
X72906486Y-85629133D01*
X73070007Y-85792938D01*
X73283765Y-85881699D01*
X73515219Y-85881901D01*
X73729133Y-85793514D01*
X73892938Y-85629993D01*
X73981699Y-85416235D01*
X73981901Y-85184781D01*
X73893514Y-84970867D01*
X73729993Y-84807062D01*
X73516235Y-84718301D01*
X73284781Y-84718099D01*
X73070867Y-84806486D01*
X72907062Y-84970007D01*
X72818301Y-85183765D01*
X72818099Y-85415219D01*
X67456000Y-85415219D01*
X67456000Y-83780000D01*
X70675631Y-83780000D01*
X70770371Y-84256288D01*
X71040166Y-84660065D01*
X71443943Y-84929860D01*
X71920231Y-85024600D01*
X72279769Y-85024600D01*
X72756057Y-84929860D01*
X73159834Y-84660065D01*
X73429629Y-84256288D01*
X73524369Y-83780000D01*
X73520391Y-83760000D01*
X74275631Y-83760000D01*
X74370371Y-84236288D01*
X74640166Y-84640065D01*
X75043943Y-84909860D01*
X75520231Y-85004600D01*
X75879769Y-85004600D01*
X76356057Y-84909860D01*
X76759834Y-84640065D01*
X77029629Y-84236288D01*
X77124369Y-83760000D01*
X77875631Y-83760000D01*
X77970371Y-84236288D01*
X78240166Y-84640065D01*
X78643943Y-84909860D01*
X79120231Y-85004600D01*
X79479769Y-85004600D01*
X79956057Y-84909860D01*
X80359834Y-84640065D01*
X80629629Y-84236288D01*
X80653711Y-84115219D01*
X82990689Y-84115219D01*
X83079076Y-84329133D01*
X83242597Y-84492938D01*
X83456355Y-84581699D01*
X83606582Y-84581830D01*
X83587736Y-84589617D01*
X83423931Y-84753138D01*
X83335170Y-84966896D01*
X83334968Y-85198350D01*
X83423355Y-85412264D01*
X83586876Y-85576069D01*
X83800634Y-85664830D01*
X84032088Y-85665032D01*
X84153027Y-85615061D01*
X85118900Y-85615061D01*
X85207165Y-85828680D01*
X85370460Y-85992260D01*
X85583925Y-86080898D01*
X85815061Y-86081100D01*
X86028680Y-85992835D01*
X86049894Y-85971658D01*
X86070460Y-85992260D01*
X86283925Y-86080898D01*
X86515061Y-86081100D01*
X86728680Y-85992835D01*
X86892260Y-85829540D01*
X86980898Y-85616075D01*
X86981100Y-85384939D01*
X86892835Y-85171320D01*
X86729540Y-85007740D01*
X86516075Y-84919102D01*
X86284939Y-84918900D01*
X86071320Y-85007165D01*
X86050106Y-85028342D01*
X86029540Y-85007740D01*
X85816075Y-84919102D01*
X85584939Y-84918900D01*
X85371320Y-85007165D01*
X85207740Y-85170460D01*
X85119102Y-85383925D01*
X85118900Y-85615061D01*
X84153027Y-85615061D01*
X84246002Y-85576645D01*
X84409807Y-85413124D01*
X84498568Y-85199366D01*
X84498770Y-84967912D01*
X84410383Y-84753998D01*
X84371514Y-84715061D01*
X95218900Y-84715061D01*
X95307165Y-84928680D01*
X95470460Y-85092260D01*
X95683925Y-85180898D01*
X95915061Y-85181100D01*
X96128680Y-85092835D01*
X96292260Y-84929540D01*
X96380898Y-84716075D01*
X96381073Y-84515061D01*
X102918900Y-84515061D01*
X103007165Y-84728680D01*
X103170460Y-84892260D01*
X103383925Y-84980898D01*
X103615061Y-84981100D01*
X103828680Y-84892835D01*
X103992260Y-84729540D01*
X103996840Y-84718511D01*
X104070460Y-84792260D01*
X104283925Y-84880898D01*
X104515061Y-84881100D01*
X104728680Y-84792835D01*
X104892260Y-84629540D01*
X104980898Y-84416075D01*
X104981100Y-84184939D01*
X104892835Y-83971320D01*
X104729540Y-83807740D01*
X104516075Y-83719102D01*
X104284939Y-83718900D01*
X104071320Y-83807165D01*
X103907740Y-83970460D01*
X103903160Y-83981489D01*
X103829540Y-83907740D01*
X103616075Y-83819102D01*
X103384939Y-83818900D01*
X103171320Y-83907165D01*
X103007740Y-84070460D01*
X102919102Y-84283925D01*
X102918900Y-84515061D01*
X96381073Y-84515061D01*
X96381100Y-84484939D01*
X96292835Y-84271320D01*
X96129540Y-84107740D01*
X95916075Y-84019102D01*
X95684939Y-84018900D01*
X95471320Y-84107165D01*
X95307740Y-84270460D01*
X95219102Y-84483925D01*
X95218900Y-84715061D01*
X84371514Y-84715061D01*
X84246862Y-84590193D01*
X84033104Y-84501432D01*
X83882877Y-84501301D01*
X83901723Y-84493514D01*
X84065528Y-84329993D01*
X84154289Y-84116235D01*
X84154491Y-83884781D01*
X84066104Y-83670867D01*
X84010553Y-83615219D01*
X88440689Y-83615219D01*
X88529076Y-83829133D01*
X88692597Y-83992938D01*
X88906355Y-84081699D01*
X89137809Y-84081901D01*
X89351723Y-83993514D01*
X89515528Y-83829993D01*
X89604289Y-83616235D01*
X89604491Y-83384781D01*
X89516104Y-83170867D01*
X89360569Y-83015061D01*
X89718900Y-83015061D01*
X89807165Y-83228680D01*
X89970460Y-83392260D01*
X90183925Y-83480898D01*
X90415061Y-83481100D01*
X90628680Y-83392835D01*
X90792260Y-83229540D01*
X90880898Y-83016075D01*
X90881100Y-82784939D01*
X90792835Y-82571320D01*
X90629540Y-82407740D01*
X90416075Y-82319102D01*
X90184939Y-82318900D01*
X89971320Y-82407165D01*
X89807740Y-82570460D01*
X89719102Y-82783925D01*
X89718900Y-83015061D01*
X89360569Y-83015061D01*
X89352583Y-83007062D01*
X89138825Y-82918301D01*
X88907371Y-82918099D01*
X88693457Y-83006486D01*
X88529652Y-83170007D01*
X88440891Y-83383765D01*
X88440689Y-83615219D01*
X84010553Y-83615219D01*
X83902583Y-83507062D01*
X83688825Y-83418301D01*
X83457371Y-83418099D01*
X83243457Y-83506486D01*
X83079652Y-83670007D01*
X82990891Y-83883765D01*
X82990689Y-84115219D01*
X80653711Y-84115219D01*
X80724369Y-83760000D01*
X80629629Y-83283712D01*
X80450228Y-83015219D01*
X87118099Y-83015219D01*
X87206486Y-83229133D01*
X87370007Y-83392938D01*
X87583765Y-83481699D01*
X87815219Y-83481901D01*
X88029133Y-83393514D01*
X88192938Y-83229993D01*
X88281699Y-83016235D01*
X88281901Y-82784781D01*
X88193514Y-82570867D01*
X88029993Y-82407062D01*
X87816235Y-82318301D01*
X87584781Y-82318099D01*
X87370867Y-82406486D01*
X87207062Y-82570007D01*
X87118301Y-82783765D01*
X87118099Y-83015219D01*
X80450228Y-83015219D01*
X80359834Y-82879935D01*
X79956057Y-82610140D01*
X79479769Y-82515400D01*
X79120231Y-82515400D01*
X78643943Y-82610140D01*
X78240166Y-82879935D01*
X77970371Y-83283712D01*
X77875631Y-83760000D01*
X77124369Y-83760000D01*
X77029629Y-83283712D01*
X76759834Y-82879935D01*
X76356057Y-82610140D01*
X75879769Y-82515400D01*
X75520231Y-82515400D01*
X75043943Y-82610140D01*
X74640166Y-82879935D01*
X74370371Y-83283712D01*
X74275631Y-83760000D01*
X73520391Y-83760000D01*
X73429629Y-83303712D01*
X73159834Y-82899935D01*
X72756057Y-82630140D01*
X72279769Y-82535400D01*
X71920231Y-82535400D01*
X71443943Y-82630140D01*
X71040166Y-82899935D01*
X70770371Y-83303712D01*
X70675631Y-83780000D01*
X67456000Y-83780000D01*
X67456000Y-82515061D01*
X83218900Y-82515061D01*
X83307165Y-82728680D01*
X83470460Y-82892260D01*
X83683925Y-82980898D01*
X83915061Y-82981100D01*
X84128680Y-82892835D01*
X84292260Y-82729540D01*
X84299909Y-82711119D01*
X84307165Y-82728680D01*
X84470460Y-82892260D01*
X84683925Y-82980898D01*
X84915061Y-82981100D01*
X85128680Y-82892835D01*
X85292260Y-82729540D01*
X85380898Y-82516075D01*
X85381100Y-82284939D01*
X85292835Y-82071320D01*
X85236675Y-82015061D01*
X103718900Y-82015061D01*
X103807165Y-82228680D01*
X103970460Y-82392260D01*
X104183925Y-82480898D01*
X104415061Y-82481100D01*
X104628680Y-82392835D01*
X104792260Y-82229540D01*
X104880898Y-82016075D01*
X104880962Y-81942487D01*
X109118805Y-81942487D01*
X109404547Y-82634035D01*
X109933182Y-83163594D01*
X110624231Y-83450542D01*
X111372487Y-83451195D01*
X112064035Y-83165453D01*
X112593594Y-82636818D01*
X112880542Y-81945769D01*
X112881195Y-81197513D01*
X112595453Y-80505965D01*
X112066818Y-79976406D01*
X111375769Y-79689458D01*
X110627513Y-79688805D01*
X109935965Y-79974547D01*
X109406406Y-80503182D01*
X109119458Y-81194231D01*
X109118805Y-81942487D01*
X104880962Y-81942487D01*
X104881100Y-81784939D01*
X104792835Y-81571320D01*
X104629540Y-81407740D01*
X104416075Y-81319102D01*
X104184939Y-81318900D01*
X103971320Y-81407165D01*
X103807740Y-81570460D01*
X103719102Y-81783925D01*
X103718900Y-82015061D01*
X85236675Y-82015061D01*
X85129540Y-81907740D01*
X84916075Y-81819102D01*
X84684939Y-81818900D01*
X84471320Y-81907165D01*
X84307740Y-82070460D01*
X84300091Y-82088881D01*
X84292835Y-82071320D01*
X84129540Y-81907740D01*
X83916075Y-81819102D01*
X83684939Y-81818900D01*
X83471320Y-81907165D01*
X83307740Y-82070460D01*
X83219102Y-82283925D01*
X83218900Y-82515061D01*
X67456000Y-82515061D01*
X67456000Y-81240000D01*
X70675631Y-81240000D01*
X70770371Y-81716288D01*
X71040166Y-82120065D01*
X71443943Y-82389860D01*
X71920231Y-82484600D01*
X72279769Y-82484600D01*
X72756057Y-82389860D01*
X73159834Y-82120065D01*
X73429629Y-81716288D01*
X73524369Y-81240000D01*
X73429629Y-80763712D01*
X73159834Y-80359935D01*
X72756057Y-80090140D01*
X72279769Y-79995400D01*
X71920231Y-79995400D01*
X71443943Y-80090140D01*
X71040166Y-80359935D01*
X70770371Y-80763712D01*
X70675631Y-81240000D01*
X67456000Y-81240000D01*
X67456000Y-78700000D01*
X70675631Y-78700000D01*
X70770371Y-79176288D01*
X71040166Y-79580065D01*
X71443943Y-79849860D01*
X71920231Y-79944600D01*
X72279769Y-79944600D01*
X72756057Y-79849860D01*
X73159834Y-79580065D01*
X73429629Y-79176288D01*
X73433605Y-79156299D01*
X73570007Y-79292938D01*
X73783765Y-79381699D01*
X74015219Y-79381901D01*
X74229133Y-79293514D01*
X74366427Y-79156458D01*
X74370371Y-79176288D01*
X74538163Y-79427406D01*
X74516235Y-79418301D01*
X74284781Y-79418099D01*
X74070867Y-79506486D01*
X73907062Y-79670007D01*
X73818301Y-79883765D01*
X73818099Y-80115219D01*
X73906486Y-80329133D01*
X74070007Y-80492938D01*
X74283765Y-80581699D01*
X74478511Y-80581869D01*
X74370371Y-80743712D01*
X74275631Y-81220000D01*
X74370371Y-81696288D01*
X74640166Y-82100065D01*
X75043943Y-82369860D01*
X75520231Y-82464600D01*
X75879769Y-82464600D01*
X76356057Y-82369860D01*
X76759834Y-82100065D01*
X77029629Y-81696288D01*
X77124369Y-81220000D01*
X77875631Y-81220000D01*
X77970371Y-81696288D01*
X78240166Y-82100065D01*
X78643943Y-82369860D01*
X79120231Y-82464600D01*
X79479769Y-82464600D01*
X79956057Y-82369860D01*
X80359834Y-82100065D01*
X80629629Y-81696288D01*
X80705460Y-81315061D01*
X91918900Y-81315061D01*
X92007165Y-81528680D01*
X92170460Y-81692260D01*
X92383925Y-81780898D01*
X92615061Y-81781100D01*
X92828680Y-81692835D01*
X92992260Y-81529540D01*
X93080898Y-81316075D01*
X93081100Y-81084939D01*
X92992835Y-80871320D01*
X92829540Y-80707740D01*
X92616075Y-80619102D01*
X92384939Y-80618900D01*
X92171320Y-80707165D01*
X92007740Y-80870460D01*
X91919102Y-81083925D01*
X91918900Y-81315061D01*
X80705460Y-81315061D01*
X80724369Y-81220000D01*
X80629629Y-80743712D01*
X80476955Y-80515219D01*
X85818099Y-80515219D01*
X85906486Y-80729133D01*
X86070007Y-80892938D01*
X86283765Y-80981699D01*
X86515219Y-80981901D01*
X86729133Y-80893514D01*
X86892938Y-80729993D01*
X86981699Y-80516235D01*
X86981901Y-80284781D01*
X86893514Y-80070867D01*
X86729993Y-79907062D01*
X86516235Y-79818301D01*
X86284781Y-79818099D01*
X86070867Y-79906486D01*
X85907062Y-80070007D01*
X85818301Y-80283765D01*
X85818099Y-80515219D01*
X80476955Y-80515219D01*
X80359834Y-80339935D01*
X79956057Y-80070140D01*
X79479769Y-79975400D01*
X79120231Y-79975400D01*
X78643943Y-80070140D01*
X78240166Y-80339935D01*
X77970371Y-80743712D01*
X77875631Y-81220000D01*
X77124369Y-81220000D01*
X77029629Y-80743712D01*
X76759834Y-80339935D01*
X76356057Y-80070140D01*
X75879769Y-79975400D01*
X75520231Y-79975400D01*
X75043943Y-80070140D01*
X74981703Y-80111727D01*
X74981901Y-79884781D01*
X74938308Y-79779277D01*
X75043943Y-79849860D01*
X75520231Y-79944600D01*
X75879769Y-79944600D01*
X76356057Y-79849860D01*
X76759834Y-79580065D01*
X77029629Y-79176288D01*
X77124369Y-78700000D01*
X77875631Y-78700000D01*
X77970371Y-79176288D01*
X78240166Y-79580065D01*
X78643943Y-79849860D01*
X79120231Y-79944600D01*
X79479769Y-79944600D01*
X79956057Y-79849860D01*
X80359834Y-79580065D01*
X80399942Y-79520039D01*
X84218099Y-79520039D01*
X84306486Y-79733953D01*
X84470007Y-79897758D01*
X84683765Y-79986519D01*
X84915219Y-79986721D01*
X85129133Y-79898334D01*
X85212550Y-79815061D01*
X100818900Y-79815061D01*
X100907165Y-80028680D01*
X101070460Y-80192260D01*
X101283925Y-80280898D01*
X101515061Y-80281100D01*
X101728680Y-80192835D01*
X101892260Y-80029540D01*
X101939795Y-79915061D01*
X105118900Y-79915061D01*
X105207165Y-80128680D01*
X105370460Y-80292260D01*
X105583925Y-80380898D01*
X105815061Y-80381100D01*
X106028680Y-80292835D01*
X106192260Y-80129540D01*
X106280898Y-79916075D01*
X106281100Y-79684939D01*
X106192835Y-79471320D01*
X106029540Y-79307740D01*
X105816075Y-79219102D01*
X105584939Y-79218900D01*
X105371320Y-79307165D01*
X105207740Y-79470460D01*
X105119102Y-79683925D01*
X105118900Y-79915061D01*
X101939795Y-79915061D01*
X101980898Y-79816075D01*
X101981100Y-79584939D01*
X101892835Y-79371320D01*
X101729540Y-79207740D01*
X101516075Y-79119102D01*
X101284939Y-79118900D01*
X101071320Y-79207165D01*
X100907740Y-79370460D01*
X100819102Y-79583925D01*
X100818900Y-79815061D01*
X85212550Y-79815061D01*
X85292938Y-79734813D01*
X85381699Y-79521055D01*
X85381901Y-79289601D01*
X85321174Y-79142629D01*
X85518099Y-79142629D01*
X85606486Y-79356543D01*
X85770007Y-79520348D01*
X85983765Y-79609109D01*
X86215219Y-79609311D01*
X86429133Y-79520924D01*
X86592938Y-79357403D01*
X86633108Y-79260664D01*
X86683765Y-79281699D01*
X86915219Y-79281901D01*
X87129133Y-79193514D01*
X87292938Y-79029993D01*
X87381699Y-78816235D01*
X87381901Y-78584781D01*
X87293514Y-78370867D01*
X87129993Y-78207062D01*
X86916235Y-78118301D01*
X86684781Y-78118099D01*
X86470867Y-78206486D01*
X86307062Y-78370007D01*
X86266892Y-78466746D01*
X86216235Y-78445711D01*
X85984781Y-78445509D01*
X85770867Y-78533896D01*
X85607062Y-78697417D01*
X85518301Y-78911175D01*
X85518099Y-79142629D01*
X85321174Y-79142629D01*
X85293514Y-79075687D01*
X85129993Y-78911882D01*
X84916235Y-78823121D01*
X84684781Y-78822919D01*
X84470867Y-78911306D01*
X84307062Y-79074827D01*
X84218301Y-79288585D01*
X84218099Y-79520039D01*
X80399942Y-79520039D01*
X80629629Y-79176288D01*
X80724369Y-78700000D01*
X80629629Y-78223712D01*
X80359834Y-77819935D01*
X79956057Y-77550140D01*
X79479769Y-77455400D01*
X79120231Y-77455400D01*
X78643943Y-77550140D01*
X78240166Y-77819935D01*
X77970371Y-78223712D01*
X77875631Y-78700000D01*
X77124369Y-78700000D01*
X77029629Y-78223712D01*
X76813354Y-77900034D01*
X76829133Y-77893514D01*
X76992938Y-77729993D01*
X77081699Y-77516235D01*
X77081787Y-77415219D01*
X87218099Y-77415219D01*
X87306486Y-77629133D01*
X87470007Y-77792938D01*
X87639364Y-77863262D01*
X87708896Y-78031543D01*
X87872417Y-78195348D01*
X88022835Y-78257808D01*
X88022785Y-78315220D01*
X88111172Y-78529134D01*
X88274693Y-78692939D01*
X88445253Y-78763762D01*
X88513582Y-78929133D01*
X88677103Y-79092938D01*
X88890861Y-79181699D01*
X89005596Y-79181799D01*
X89006486Y-79183953D01*
X89170007Y-79347758D01*
X89383765Y-79436519D01*
X89615219Y-79436721D01*
X89829133Y-79348334D01*
X89992938Y-79184813D01*
X90081699Y-78971055D01*
X90081901Y-78739601D01*
X89993514Y-78525687D01*
X89829993Y-78361882D01*
X89717618Y-78315219D01*
X98118099Y-78315219D01*
X98206486Y-78529133D01*
X98370007Y-78692938D01*
X98583765Y-78781699D01*
X98815219Y-78781901D01*
X98955118Y-78724096D01*
X107158234Y-78724096D01*
X107330142Y-79140146D01*
X107648180Y-79458739D01*
X108063929Y-79631373D01*
X108514096Y-79631766D01*
X108930146Y-79459858D01*
X109248739Y-79141820D01*
X109421373Y-78726071D01*
X109421766Y-78275904D01*
X109249858Y-77859854D01*
X108931820Y-77541261D01*
X108516071Y-77368627D01*
X108065904Y-77368234D01*
X107649854Y-77540142D01*
X107331261Y-77858180D01*
X107158627Y-78273929D01*
X107158234Y-78724096D01*
X98955118Y-78724096D01*
X99029133Y-78693514D01*
X99192938Y-78529993D01*
X99281699Y-78316235D01*
X99281754Y-78253547D01*
X99431695Y-78191593D01*
X99595500Y-78028072D01*
X99684261Y-77814314D01*
X99684463Y-77582860D01*
X99596076Y-77368946D01*
X99432555Y-77205141D01*
X99218797Y-77116380D01*
X98987343Y-77116178D01*
X98773429Y-77204565D01*
X98609624Y-77368086D01*
X98520863Y-77581844D01*
X98520808Y-77644532D01*
X98370867Y-77706486D01*
X98207062Y-77870007D01*
X98118301Y-78083765D01*
X98118099Y-78315219D01*
X89717618Y-78315219D01*
X89616235Y-78273121D01*
X89501500Y-78273021D01*
X89500610Y-78270867D01*
X89337089Y-78107062D01*
X89166529Y-78036239D01*
X89098200Y-77870868D01*
X88934679Y-77707063D01*
X88784261Y-77644603D01*
X88784311Y-77587191D01*
X88695924Y-77373277D01*
X88532403Y-77209472D01*
X88363046Y-77139148D01*
X88293514Y-76970867D01*
X88129993Y-76807062D01*
X87916235Y-76718301D01*
X87684781Y-76718099D01*
X87470867Y-76806486D01*
X87307062Y-76970007D01*
X87218301Y-77183765D01*
X87218099Y-77415219D01*
X77081787Y-77415219D01*
X77081901Y-77284781D01*
X76993514Y-77070867D01*
X76841201Y-76918290D01*
X77029629Y-76636288D01*
X77124369Y-76160000D01*
X77875631Y-76160000D01*
X77970371Y-76636288D01*
X78240166Y-77040065D01*
X78643943Y-77309860D01*
X79120231Y-77404600D01*
X79479769Y-77404600D01*
X79956057Y-77309860D01*
X80359834Y-77040065D01*
X80443358Y-76915061D01*
X82018900Y-76915061D01*
X82107165Y-77128680D01*
X82270460Y-77292260D01*
X82483925Y-77380898D01*
X82715061Y-77381100D01*
X82928680Y-77292835D01*
X83092260Y-77129540D01*
X83180898Y-76916075D01*
X83181073Y-76715219D01*
X85718099Y-76715219D01*
X85806486Y-76929133D01*
X85970007Y-77092938D01*
X86183765Y-77181699D01*
X86415219Y-77181901D01*
X86629133Y-77093514D01*
X86792938Y-76929993D01*
X86881699Y-76716235D01*
X86881901Y-76484781D01*
X86793514Y-76270867D01*
X86629993Y-76107062D01*
X86416235Y-76018301D01*
X86184781Y-76018099D01*
X85970867Y-76106486D01*
X85807062Y-76270007D01*
X85718301Y-76483765D01*
X85718099Y-76715219D01*
X83181073Y-76715219D01*
X83181100Y-76684939D01*
X83092835Y-76471320D01*
X82929540Y-76307740D01*
X82716075Y-76219102D01*
X82484939Y-76218900D01*
X82271320Y-76307165D01*
X82107740Y-76470460D01*
X82019102Y-76683925D01*
X82018900Y-76915061D01*
X80443358Y-76915061D01*
X80629629Y-76636288D01*
X80724369Y-76160000D01*
X80629629Y-75683712D01*
X80359834Y-75279935D01*
X79956057Y-75010140D01*
X79479769Y-74915400D01*
X79120231Y-74915400D01*
X78643943Y-75010140D01*
X78240166Y-75279935D01*
X77970371Y-75683712D01*
X77875631Y-76160000D01*
X77124369Y-76160000D01*
X77036997Y-75720755D01*
X77183765Y-75781699D01*
X77415219Y-75781901D01*
X77629133Y-75693514D01*
X77792938Y-75529993D01*
X77881699Y-75316235D01*
X77881901Y-75084781D01*
X77856578Y-75023493D01*
X77929133Y-74993514D01*
X78092938Y-74829993D01*
X78181699Y-74616235D01*
X78181877Y-74412829D01*
X78240166Y-74500065D01*
X78643943Y-74769860D01*
X79120231Y-74864600D01*
X79479769Y-74864600D01*
X79956057Y-74769860D01*
X80359834Y-74500065D01*
X80483344Y-74315219D01*
X83025001Y-74315219D01*
X83113388Y-74529133D01*
X83276909Y-74692938D01*
X83344382Y-74720956D01*
X83318301Y-74783765D01*
X83318099Y-75015219D01*
X83394528Y-75200192D01*
X83318301Y-75383765D01*
X83318099Y-75615219D01*
X83406486Y-75829133D01*
X83570007Y-75992938D01*
X83783765Y-76081699D01*
X84015219Y-76081901D01*
X84229133Y-75993514D01*
X84392938Y-75829993D01*
X84481699Y-75616235D01*
X84481699Y-75615219D01*
X88818099Y-75615219D01*
X88906486Y-75829133D01*
X89070007Y-75992938D01*
X89283765Y-76081699D01*
X89515219Y-76081901D01*
X89729133Y-75993514D01*
X89892938Y-75829993D01*
X89981699Y-75616235D01*
X89981901Y-75384781D01*
X89893514Y-75170867D01*
X89729993Y-75007062D01*
X89516235Y-74918301D01*
X89284781Y-74918099D01*
X89070867Y-75006486D01*
X88907062Y-75170007D01*
X88818301Y-75383765D01*
X88818099Y-75615219D01*
X84481699Y-75615219D01*
X84481802Y-75497836D01*
X84683765Y-75581699D01*
X84915219Y-75581901D01*
X85129133Y-75493514D01*
X85292938Y-75329993D01*
X85381699Y-75116235D01*
X85381787Y-75015219D01*
X85818099Y-75015219D01*
X85906486Y-75229133D01*
X86070007Y-75392938D01*
X86283765Y-75481699D01*
X86515219Y-75481901D01*
X86729133Y-75393514D01*
X86892938Y-75229993D01*
X86981699Y-75016235D01*
X86981901Y-74784781D01*
X86893514Y-74570867D01*
X86729993Y-74407062D01*
X86516235Y-74318301D01*
X86284781Y-74318099D01*
X86070867Y-74406486D01*
X85907062Y-74570007D01*
X85818301Y-74783765D01*
X85818099Y-75015219D01*
X85381787Y-75015219D01*
X85381901Y-74884781D01*
X85293514Y-74670867D01*
X85129993Y-74507062D01*
X84916235Y-74418301D01*
X84684781Y-74418099D01*
X84470867Y-74506486D01*
X84397269Y-74579956D01*
X84393514Y-74570867D01*
X84229993Y-74407062D01*
X84162520Y-74379044D01*
X84188601Y-74316235D01*
X84188601Y-74315219D01*
X88818099Y-74315219D01*
X88906486Y-74529133D01*
X89070007Y-74692938D01*
X89283765Y-74781699D01*
X89515219Y-74781901D01*
X89729133Y-74693514D01*
X89757468Y-74665228D01*
X96118099Y-74665228D01*
X96206486Y-74879142D01*
X96370007Y-75042947D01*
X96583765Y-75131708D01*
X96815219Y-75131910D01*
X97029133Y-75043523D01*
X97192938Y-74880002D01*
X97281699Y-74666244D01*
X97281901Y-74434790D01*
X97193514Y-74220876D01*
X97029993Y-74057071D01*
X96816235Y-73968310D01*
X96584781Y-73968108D01*
X96370867Y-74056495D01*
X96207062Y-74220016D01*
X96118301Y-74433774D01*
X96118099Y-74665228D01*
X89757468Y-74665228D01*
X89892938Y-74529993D01*
X89981699Y-74316235D01*
X89981901Y-74084781D01*
X89909852Y-73910408D01*
X97918099Y-73910408D01*
X98006486Y-74124322D01*
X98170007Y-74288127D01*
X98383765Y-74376888D01*
X98543638Y-74377028D01*
X98606486Y-74529133D01*
X98770007Y-74692938D01*
X98983765Y-74781699D01*
X99215219Y-74781901D01*
X99429133Y-74693514D01*
X99592938Y-74529993D01*
X99681699Y-74316235D01*
X99681779Y-74224096D01*
X107158234Y-74224096D01*
X107330142Y-74640146D01*
X107648180Y-74958739D01*
X107747277Y-74999888D01*
X107649854Y-75040142D01*
X107331261Y-75358180D01*
X107158627Y-75773929D01*
X107158234Y-76224096D01*
X107330142Y-76640146D01*
X107648180Y-76958739D01*
X108063929Y-77131373D01*
X108514096Y-77131766D01*
X108930146Y-76959858D01*
X109248739Y-76641820D01*
X109421373Y-76226071D01*
X109421766Y-75775904D01*
X109249858Y-75359854D01*
X108931820Y-75041261D01*
X108832723Y-75000112D01*
X108930146Y-74959858D01*
X109248739Y-74641820D01*
X109421373Y-74226071D01*
X109421766Y-73775904D01*
X109249858Y-73359854D01*
X108931820Y-73041261D01*
X108516071Y-72868627D01*
X108065904Y-72868234D01*
X107649854Y-73040142D01*
X107331261Y-73358180D01*
X107158627Y-73773929D01*
X107158234Y-74224096D01*
X99681779Y-74224096D01*
X99681901Y-74084781D01*
X99593514Y-73870867D01*
X99429993Y-73707062D01*
X99216235Y-73618301D01*
X99056362Y-73618161D01*
X98999688Y-73480999D01*
X99115061Y-73481100D01*
X99328680Y-73392835D01*
X99492260Y-73229540D01*
X99580898Y-73016075D01*
X99581100Y-72784939D01*
X99492835Y-72571320D01*
X99329540Y-72407740D01*
X99116075Y-72319102D01*
X98884939Y-72318900D01*
X98671320Y-72407165D01*
X98507740Y-72570460D01*
X98419102Y-72783925D01*
X98418900Y-73015061D01*
X98500847Y-73213389D01*
X98384781Y-73213288D01*
X98170867Y-73301675D01*
X98007062Y-73465196D01*
X97918301Y-73678954D01*
X97918099Y-73910408D01*
X89909852Y-73910408D01*
X89893514Y-73870867D01*
X89729993Y-73707062D01*
X89516235Y-73618301D01*
X89284781Y-73618099D01*
X89070867Y-73706486D01*
X88907062Y-73870007D01*
X88818301Y-74083765D01*
X88818099Y-74315219D01*
X84188601Y-74315219D01*
X84188803Y-74084781D01*
X84174531Y-74050240D01*
X84307535Y-74105469D01*
X84538989Y-74105671D01*
X84752903Y-74017284D01*
X84916708Y-73853763D01*
X84974237Y-73715219D01*
X85518099Y-73715219D01*
X85606486Y-73929133D01*
X85770007Y-74092938D01*
X85983765Y-74181699D01*
X86215219Y-74181901D01*
X86429133Y-74093514D01*
X86592938Y-73929993D01*
X86681699Y-73716235D01*
X86681901Y-73484781D01*
X86593514Y-73270867D01*
X86429993Y-73107062D01*
X86216235Y-73018301D01*
X85984781Y-73018099D01*
X85770867Y-73106486D01*
X85607062Y-73270007D01*
X85518301Y-73483765D01*
X85518099Y-73715219D01*
X84974237Y-73715219D01*
X85005469Y-73640005D01*
X85005671Y-73408551D01*
X84917284Y-73194637D01*
X84753763Y-73030832D01*
X84540005Y-72942071D01*
X84308551Y-72941869D01*
X84094637Y-73030256D01*
X83930832Y-73193777D01*
X83842071Y-73407535D01*
X83841869Y-73638989D01*
X83856141Y-73673530D01*
X83723137Y-73618301D01*
X83491683Y-73618099D01*
X83277769Y-73706486D01*
X83113964Y-73870007D01*
X83025203Y-74083765D01*
X83025001Y-74315219D01*
X80483344Y-74315219D01*
X80629629Y-74096288D01*
X80724369Y-73620000D01*
X80629629Y-73143712D01*
X80359834Y-72739935D01*
X80322844Y-72715219D01*
X88718099Y-72715219D01*
X88806486Y-72929133D01*
X88970007Y-73092938D01*
X89183765Y-73181699D01*
X89415219Y-73181901D01*
X89629133Y-73093514D01*
X89792938Y-72929993D01*
X89881699Y-72716235D01*
X89881901Y-72484781D01*
X89793514Y-72270867D01*
X89629993Y-72107062D01*
X89416235Y-72018301D01*
X89184781Y-72018099D01*
X88970867Y-72106486D01*
X88807062Y-72270007D01*
X88718301Y-72483765D01*
X88718099Y-72715219D01*
X80322844Y-72715219D01*
X79956057Y-72470140D01*
X79479769Y-72375400D01*
X79120231Y-72375400D01*
X78643943Y-72470140D01*
X78581878Y-72511611D01*
X78581901Y-72484781D01*
X78493514Y-72270867D01*
X78329993Y-72107062D01*
X78116235Y-72018301D01*
X77884781Y-72018099D01*
X77670867Y-72106486D01*
X77507062Y-72270007D01*
X77418301Y-72483765D01*
X77418099Y-72715219D01*
X77506486Y-72929133D01*
X77670007Y-73092938D01*
X77883765Y-73181699D01*
X77962801Y-73181768D01*
X77875631Y-73620000D01*
X77958254Y-74035372D01*
X77929993Y-74007062D01*
X77716235Y-73918301D01*
X77484781Y-73918099D01*
X77270867Y-74006486D01*
X77107062Y-74170007D01*
X77018301Y-74383765D01*
X77018099Y-74615219D01*
X77043422Y-74676507D01*
X76970867Y-74706486D01*
X76807062Y-74870007D01*
X76718301Y-75083765D01*
X76718154Y-75252085D01*
X76356057Y-75010140D01*
X75879769Y-74915400D01*
X75520231Y-74915400D01*
X75043943Y-75010140D01*
X74640166Y-75279935D01*
X74370371Y-75683712D01*
X74275631Y-76160000D01*
X74370371Y-76636288D01*
X74640166Y-77040065D01*
X75043943Y-77309860D01*
X75520231Y-77404600D01*
X75879769Y-77404600D01*
X75918202Y-77396955D01*
X75918145Y-77463033D01*
X75879769Y-77455400D01*
X75520231Y-77455400D01*
X75043943Y-77550140D01*
X74640166Y-77819935D01*
X74370371Y-78223712D01*
X74333222Y-78410471D01*
X74229993Y-78307062D01*
X74016235Y-78218301D01*
X73784781Y-78218099D01*
X73570867Y-78306486D01*
X73466765Y-78410407D01*
X73429629Y-78223712D01*
X73159834Y-77819935D01*
X72756057Y-77550140D01*
X72279769Y-77455400D01*
X71920231Y-77455400D01*
X71443943Y-77550140D01*
X71040166Y-77819935D01*
X70770371Y-78223712D01*
X70675631Y-78700000D01*
X67456000Y-78700000D01*
X67456000Y-76160000D01*
X70675631Y-76160000D01*
X70770371Y-76636288D01*
X71040166Y-77040065D01*
X71443943Y-77309860D01*
X71920231Y-77404600D01*
X72279769Y-77404600D01*
X72756057Y-77309860D01*
X73159834Y-77040065D01*
X73429629Y-76636288D01*
X73524369Y-76160000D01*
X73429629Y-75683712D01*
X73159834Y-75279935D01*
X72756057Y-75010140D01*
X72279769Y-74915400D01*
X71920231Y-74915400D01*
X71443943Y-75010140D01*
X71040166Y-75279935D01*
X70770371Y-75683712D01*
X70675631Y-76160000D01*
X67456000Y-76160000D01*
X67456000Y-73620000D01*
X70675631Y-73620000D01*
X70770371Y-74096288D01*
X71040166Y-74500065D01*
X71443943Y-74769860D01*
X71920231Y-74864600D01*
X72279769Y-74864600D01*
X72756057Y-74769860D01*
X73159834Y-74500065D01*
X73429629Y-74096288D01*
X73524369Y-73620000D01*
X74275631Y-73620000D01*
X74370371Y-74096288D01*
X74640166Y-74500065D01*
X75043943Y-74769860D01*
X75520231Y-74864600D01*
X75879769Y-74864600D01*
X76356057Y-74769860D01*
X76759834Y-74500065D01*
X77029629Y-74096288D01*
X77124369Y-73620000D01*
X77029629Y-73143712D01*
X76759834Y-72739935D01*
X76356057Y-72470140D01*
X75879769Y-72375400D01*
X75520231Y-72375400D01*
X75043943Y-72470140D01*
X74640166Y-72739935D01*
X74370371Y-73143712D01*
X74275631Y-73620000D01*
X73524369Y-73620000D01*
X73429629Y-73143712D01*
X73159834Y-72739935D01*
X72756057Y-72470140D01*
X72279769Y-72375400D01*
X71920231Y-72375400D01*
X71443943Y-72470140D01*
X71040166Y-72739935D01*
X70770371Y-73143712D01*
X70675631Y-73620000D01*
X67456000Y-73620000D01*
X67456000Y-71080000D01*
X70675631Y-71080000D01*
X70770371Y-71556288D01*
X71040166Y-71960065D01*
X71443943Y-72229860D01*
X71920231Y-72324600D01*
X72279769Y-72324600D01*
X72756057Y-72229860D01*
X73159834Y-71960065D01*
X73429629Y-71556288D01*
X73524369Y-71080000D01*
X74275631Y-71080000D01*
X74370371Y-71556288D01*
X74640166Y-71960065D01*
X75043943Y-72229860D01*
X75520231Y-72324600D01*
X75879769Y-72324600D01*
X76356057Y-72229860D01*
X76759834Y-71960065D01*
X76923485Y-71715144D01*
X77083765Y-71781699D01*
X77315219Y-71781901D01*
X77529133Y-71693514D01*
X77692938Y-71529993D01*
X77781699Y-71316235D01*
X77781901Y-71084781D01*
X77779926Y-71080000D01*
X77875631Y-71080000D01*
X77970371Y-71556288D01*
X78240166Y-71960065D01*
X78643943Y-72229860D01*
X79120231Y-72324600D01*
X79479769Y-72324600D01*
X79956057Y-72229860D01*
X80226380Y-72049236D01*
X80270007Y-72092938D01*
X80483765Y-72181699D01*
X80659114Y-72181852D01*
X80770007Y-72292938D01*
X80983765Y-72381699D01*
X81215219Y-72381901D01*
X81429133Y-72293514D01*
X81507563Y-72215219D01*
X85018099Y-72215219D01*
X85106486Y-72429133D01*
X85270007Y-72592938D01*
X85483765Y-72681699D01*
X85715219Y-72681901D01*
X85929133Y-72593514D01*
X86092938Y-72429993D01*
X86154436Y-72281892D01*
X86165228Y-72281901D01*
X86379142Y-72193514D01*
X86418155Y-72154568D01*
X86418099Y-72219239D01*
X86506486Y-72433153D01*
X86670007Y-72596958D01*
X86883765Y-72685719D01*
X87115219Y-72685921D01*
X87329133Y-72597534D01*
X87492938Y-72434013D01*
X87581699Y-72220255D01*
X87581901Y-71988801D01*
X87493514Y-71774887D01*
X87334123Y-71615219D01*
X97118099Y-71615219D01*
X97206486Y-71829133D01*
X97370007Y-71992938D01*
X97583765Y-72081699D01*
X97815219Y-72081901D01*
X98029133Y-71993514D01*
X98192938Y-71829993D01*
X98236910Y-71724096D01*
X107158234Y-71724096D01*
X107330142Y-72140146D01*
X107648180Y-72458739D01*
X108063929Y-72631373D01*
X108514096Y-72631766D01*
X108930146Y-72459858D01*
X109248739Y-72141820D01*
X109421373Y-71726071D01*
X109421766Y-71275904D01*
X109249858Y-70859854D01*
X108931820Y-70541261D01*
X108516071Y-70368627D01*
X108065904Y-70368234D01*
X107649854Y-70540142D01*
X107331261Y-70858180D01*
X107158627Y-71273929D01*
X107158234Y-71724096D01*
X98236910Y-71724096D01*
X98281699Y-71616235D01*
X98281901Y-71384781D01*
X98193514Y-71170867D01*
X98029993Y-71007062D01*
X97816235Y-70918301D01*
X97584781Y-70918099D01*
X97370867Y-71006486D01*
X97207062Y-71170007D01*
X97118301Y-71383765D01*
X97118099Y-71615219D01*
X87334123Y-71615219D01*
X87329993Y-71611082D01*
X87116235Y-71522321D01*
X86912398Y-71522143D01*
X86984109Y-71349445D01*
X86984311Y-71117991D01*
X86895924Y-70904077D01*
X86807063Y-70815061D01*
X89618900Y-70815061D01*
X89707165Y-71028680D01*
X89870460Y-71192260D01*
X90083925Y-71280898D01*
X90315061Y-71281100D01*
X90528680Y-71192835D01*
X90692260Y-71029540D01*
X90780898Y-70816075D01*
X90781100Y-70584939D01*
X90692835Y-70371320D01*
X90529540Y-70207740D01*
X90316075Y-70119102D01*
X90084939Y-70118900D01*
X89871320Y-70207165D01*
X89707740Y-70370460D01*
X89619102Y-70583925D01*
X89618900Y-70815061D01*
X86807063Y-70815061D01*
X86732403Y-70740272D01*
X86564887Y-70670713D01*
X86751723Y-70593514D01*
X86915528Y-70429993D01*
X87004289Y-70216235D01*
X87004491Y-69984781D01*
X86916104Y-69770867D01*
X86752583Y-69607062D01*
X86538825Y-69518301D01*
X86307371Y-69518099D01*
X86093457Y-69606486D01*
X85929652Y-69770007D01*
X85840891Y-69983765D01*
X85840689Y-70215219D01*
X85929076Y-70429133D01*
X86092597Y-70592938D01*
X86260113Y-70662497D01*
X86073277Y-70739696D01*
X85909472Y-70903217D01*
X85820711Y-71116975D01*
X85820669Y-71165253D01*
X85720876Y-71206486D01*
X85557071Y-71370007D01*
X85495573Y-71518108D01*
X85484781Y-71518099D01*
X85270867Y-71606486D01*
X85107062Y-71770007D01*
X85018301Y-71983765D01*
X85018099Y-72215219D01*
X81507563Y-72215219D01*
X81592938Y-72129993D01*
X81681699Y-71916235D01*
X81681901Y-71684781D01*
X81593514Y-71470867D01*
X81559022Y-71436315D01*
X81563256Y-71432088D01*
X83868108Y-71432088D01*
X83956495Y-71646002D01*
X84120016Y-71809807D01*
X84333774Y-71898568D01*
X84565228Y-71898770D01*
X84779142Y-71810383D01*
X84942947Y-71646862D01*
X85031708Y-71433104D01*
X85031910Y-71201650D01*
X84973451Y-71060167D01*
X85115219Y-71060291D01*
X85329133Y-70971904D01*
X85492938Y-70808383D01*
X85581699Y-70594625D01*
X85581901Y-70363171D01*
X85493514Y-70149257D01*
X85329993Y-69985452D01*
X85118560Y-69897656D01*
X85204264Y-69691260D01*
X85204466Y-69459806D01*
X85116079Y-69245892D01*
X84952558Y-69082087D01*
X84738800Y-68993326D01*
X84507346Y-68993124D01*
X84293432Y-69081511D01*
X84129627Y-69245032D01*
X84040866Y-69458790D01*
X84040664Y-69690244D01*
X84129051Y-69904158D01*
X84292572Y-70067963D01*
X84504005Y-70155759D01*
X84418301Y-70362155D01*
X84418099Y-70593609D01*
X84476558Y-70735092D01*
X84334790Y-70734968D01*
X84120876Y-70823355D01*
X83957071Y-70986876D01*
X83868310Y-71200634D01*
X83868108Y-71432088D01*
X81563256Y-71432088D01*
X81665528Y-71329993D01*
X81754289Y-71116235D01*
X81754491Y-70884781D01*
X81666104Y-70670867D01*
X81502583Y-70507062D01*
X81370625Y-70452268D01*
X81392938Y-70429993D01*
X81462553Y-70262343D01*
X81629133Y-70193514D01*
X81792938Y-70029993D01*
X81881699Y-69816235D01*
X81881901Y-69584781D01*
X81793514Y-69370867D01*
X81629993Y-69207062D01*
X81416235Y-69118301D01*
X81184781Y-69118099D01*
X80970867Y-69206486D01*
X80807062Y-69370007D01*
X80737447Y-69537657D01*
X80570867Y-69606486D01*
X80407062Y-69770007D01*
X80318301Y-69983765D01*
X80318137Y-70172074D01*
X79956057Y-69930140D01*
X79479769Y-69835400D01*
X79120231Y-69835400D01*
X78643943Y-69930140D01*
X78240166Y-70199935D01*
X77970371Y-70603712D01*
X77875631Y-71080000D01*
X77779926Y-71080000D01*
X77693514Y-70870867D01*
X77529993Y-70707062D01*
X77316235Y-70618301D01*
X77084781Y-70618099D01*
X77036462Y-70638064D01*
X77029629Y-70603712D01*
X76759834Y-70199935D01*
X76356057Y-69930140D01*
X75879769Y-69835400D01*
X75520231Y-69835400D01*
X75043943Y-69930140D01*
X74640166Y-70199935D01*
X74370371Y-70603712D01*
X74275631Y-71080000D01*
X73524369Y-71080000D01*
X73429629Y-70603712D01*
X73159834Y-70199935D01*
X72756057Y-69930140D01*
X72279769Y-69835400D01*
X71920231Y-69835400D01*
X71443943Y-69930140D01*
X71040166Y-70199935D01*
X70770371Y-70603712D01*
X70675631Y-71080000D01*
X67456000Y-71080000D01*
X67456000Y-68540000D01*
X70675631Y-68540000D01*
X70770371Y-69016288D01*
X71040166Y-69420065D01*
X71443943Y-69689860D01*
X71920231Y-69784600D01*
X72279769Y-69784600D01*
X72756057Y-69689860D01*
X73159834Y-69420065D01*
X73429629Y-69016288D01*
X73524369Y-68540000D01*
X74275631Y-68540000D01*
X74370371Y-69016288D01*
X74640166Y-69420065D01*
X75043943Y-69689860D01*
X75520231Y-69784600D01*
X75879769Y-69784600D01*
X76356057Y-69689860D01*
X76759834Y-69420065D01*
X77029629Y-69016288D01*
X77124369Y-68540000D01*
X77875631Y-68540000D01*
X77970371Y-69016288D01*
X78240166Y-69420065D01*
X78643943Y-69689860D01*
X79120231Y-69784600D01*
X79479769Y-69784600D01*
X79956057Y-69689860D01*
X80359834Y-69420065D01*
X80629629Y-69016288D01*
X80724369Y-68540000D01*
X80701322Y-68424133D01*
X80770007Y-68492938D01*
X80983765Y-68581699D01*
X81215219Y-68581901D01*
X81429133Y-68493514D01*
X81507563Y-68415219D01*
X85518099Y-68415219D01*
X85606486Y-68629133D01*
X85770007Y-68792938D01*
X85983765Y-68881699D01*
X86215219Y-68881901D01*
X86429133Y-68793514D01*
X86449893Y-68772790D01*
X86470007Y-68792938D01*
X86683765Y-68881699D01*
X86915219Y-68881901D01*
X87129133Y-68793514D01*
X87207722Y-68715061D01*
X90118900Y-68715061D01*
X90207165Y-68928680D01*
X90370460Y-69092260D01*
X90583925Y-69180898D01*
X90815061Y-69181100D01*
X91028680Y-69092835D01*
X91192260Y-68929540D01*
X91198206Y-68915219D01*
X97718099Y-68915219D01*
X97806486Y-69129133D01*
X97970007Y-69292938D01*
X98183765Y-69381699D01*
X98415219Y-69381901D01*
X98518253Y-69339329D01*
X98518099Y-69515219D01*
X98606486Y-69729133D01*
X98770007Y-69892938D01*
X98983765Y-69981699D01*
X99215219Y-69981901D01*
X99429133Y-69893514D01*
X99592938Y-69729993D01*
X99681699Y-69516235D01*
X99681901Y-69284781D01*
X99593514Y-69070867D01*
X99429993Y-68907062D01*
X99216235Y-68818301D01*
X98984781Y-68818099D01*
X98881747Y-68860671D01*
X98881797Y-68802487D01*
X109118805Y-68802487D01*
X109404547Y-69494035D01*
X109933182Y-70023594D01*
X110624231Y-70310542D01*
X111372487Y-70311195D01*
X112064035Y-70025453D01*
X112593594Y-69496818D01*
X112880542Y-68805769D01*
X112881195Y-68057513D01*
X112595453Y-67365965D01*
X112066818Y-66836406D01*
X111375769Y-66549458D01*
X110627513Y-66548805D01*
X109935965Y-66834547D01*
X109406406Y-67363182D01*
X109119458Y-68054231D01*
X109118805Y-68802487D01*
X98881797Y-68802487D01*
X98881901Y-68684781D01*
X98793514Y-68470867D01*
X98629993Y-68307062D01*
X98416235Y-68218301D01*
X98184781Y-68218099D01*
X97970867Y-68306486D01*
X97807062Y-68470007D01*
X97718301Y-68683765D01*
X97718099Y-68915219D01*
X91198206Y-68915219D01*
X91280898Y-68716075D01*
X91281100Y-68484939D01*
X91192835Y-68271320D01*
X91029540Y-68107740D01*
X90816075Y-68019102D01*
X90584939Y-68018900D01*
X90371320Y-68107165D01*
X90207740Y-68270460D01*
X90119102Y-68483925D01*
X90118900Y-68715061D01*
X87207722Y-68715061D01*
X87292938Y-68629993D01*
X87381699Y-68416235D01*
X87381901Y-68184781D01*
X87293514Y-67970867D01*
X87129993Y-67807062D01*
X86916235Y-67718301D01*
X86684781Y-67718099D01*
X86470867Y-67806486D01*
X86450107Y-67827210D01*
X86429993Y-67807062D01*
X86216235Y-67718301D01*
X85984781Y-67718099D01*
X85770867Y-67806486D01*
X85607062Y-67970007D01*
X85518301Y-68183765D01*
X85518099Y-68415219D01*
X81507563Y-68415219D01*
X81592938Y-68329993D01*
X81681699Y-68116235D01*
X81681901Y-67884781D01*
X81593514Y-67670867D01*
X81429993Y-67507062D01*
X81216235Y-67418301D01*
X80984781Y-67418099D01*
X80770867Y-67506486D01*
X80607062Y-67670007D01*
X80518301Y-67883765D01*
X80518289Y-67897080D01*
X80359834Y-67659935D01*
X79956057Y-67390140D01*
X79479769Y-67295400D01*
X79120231Y-67295400D01*
X78643943Y-67390140D01*
X78240166Y-67659935D01*
X77970371Y-68063712D01*
X77875631Y-68540000D01*
X77124369Y-68540000D01*
X77029629Y-68063712D01*
X76759834Y-67659935D01*
X76356057Y-67390140D01*
X75879769Y-67295400D01*
X75520231Y-67295400D01*
X75043943Y-67390140D01*
X74640166Y-67659935D01*
X74370371Y-68063712D01*
X74275631Y-68540000D01*
X73524369Y-68540000D01*
X73429629Y-68063712D01*
X73159834Y-67659935D01*
X72756057Y-67390140D01*
X72279769Y-67295400D01*
X71920231Y-67295400D01*
X71443943Y-67390140D01*
X71040166Y-67659935D01*
X70770371Y-68063712D01*
X70675631Y-68540000D01*
X67456000Y-68540000D01*
X67456000Y-65136400D01*
X70695536Y-65136400D01*
X70695536Y-66863600D01*
X70722103Y-67004790D01*
X70805546Y-67134465D01*
X70932866Y-67221459D01*
X71084000Y-67252064D01*
X73116000Y-67252064D01*
X73257190Y-67225497D01*
X73386865Y-67142054D01*
X73473859Y-67014734D01*
X73504464Y-66863600D01*
X73504464Y-65136400D01*
X74295536Y-65136400D01*
X74295536Y-66863600D01*
X74322103Y-67004790D01*
X74405546Y-67134465D01*
X74532866Y-67221459D01*
X74684000Y-67252064D01*
X76716000Y-67252064D01*
X76857190Y-67225497D01*
X76986865Y-67142054D01*
X77073859Y-67014734D01*
X77104464Y-66863600D01*
X77104464Y-65136400D01*
X77895536Y-65136400D01*
X77895536Y-66863600D01*
X77922103Y-67004790D01*
X78005546Y-67134465D01*
X78132866Y-67221459D01*
X78284000Y-67252064D01*
X80316000Y-67252064D01*
X80457190Y-67225497D01*
X80586865Y-67142054D01*
X80628805Y-67080672D01*
X86468108Y-67080672D01*
X86556495Y-67294586D01*
X86720016Y-67458391D01*
X86933774Y-67547152D01*
X87165228Y-67547354D01*
X87243383Y-67515061D01*
X105418900Y-67515061D01*
X105507165Y-67728680D01*
X105670460Y-67892260D01*
X105883925Y-67980898D01*
X106115061Y-67981100D01*
X106328680Y-67892835D01*
X106492260Y-67729540D01*
X106580898Y-67516075D01*
X106581100Y-67284939D01*
X106492835Y-67071320D01*
X106329540Y-66907740D01*
X106116075Y-66819102D01*
X105884939Y-66818900D01*
X105671320Y-66907165D01*
X105507740Y-67070460D01*
X105419102Y-67283925D01*
X105418900Y-67515061D01*
X87243383Y-67515061D01*
X87379142Y-67458967D01*
X87542947Y-67295446D01*
X87631708Y-67081688D01*
X87631853Y-66915219D01*
X101918099Y-66915219D01*
X102006486Y-67129133D01*
X102170007Y-67292938D01*
X102383765Y-67381699D01*
X102615219Y-67381901D01*
X102829133Y-67293514D01*
X102992938Y-67129993D01*
X103081699Y-66916235D01*
X103081901Y-66684781D01*
X102993514Y-66470867D01*
X102829993Y-66307062D01*
X102616235Y-66218301D01*
X102384781Y-66218099D01*
X102170867Y-66306486D01*
X102007062Y-66470007D01*
X101918301Y-66683765D01*
X101918099Y-66915219D01*
X87631853Y-66915219D01*
X87631910Y-66850234D01*
X87543523Y-66636320D01*
X87380002Y-66472515D01*
X87166244Y-66383754D01*
X86934790Y-66383552D01*
X86720876Y-66471939D01*
X86557071Y-66635460D01*
X86468310Y-66849218D01*
X86468108Y-67080672D01*
X80628805Y-67080672D01*
X80673859Y-67014734D01*
X80704464Y-66863600D01*
X80704464Y-66315219D01*
X85118099Y-66315219D01*
X85206486Y-66529133D01*
X85370007Y-66692938D01*
X85583765Y-66781699D01*
X85815219Y-66781901D01*
X86029133Y-66693514D01*
X86192938Y-66529993D01*
X86281699Y-66316235D01*
X86281901Y-66084781D01*
X86222596Y-65941251D01*
X86370007Y-66088918D01*
X86583765Y-66177679D01*
X86815219Y-66177881D01*
X87029133Y-66089494D01*
X87192938Y-65925973D01*
X87281699Y-65712215D01*
X87281901Y-65480761D01*
X87193514Y-65266847D01*
X87041992Y-65115061D01*
X90118900Y-65115061D01*
X90207165Y-65328680D01*
X90370460Y-65492260D01*
X90583925Y-65580898D01*
X90815061Y-65581100D01*
X91028680Y-65492835D01*
X91192260Y-65329540D01*
X91280898Y-65116075D01*
X91280898Y-65115219D01*
X92718099Y-65115219D01*
X92806486Y-65329133D01*
X92970007Y-65492938D01*
X93183765Y-65581699D01*
X93415219Y-65581901D01*
X93576602Y-65515219D01*
X96218099Y-65515219D01*
X96306486Y-65729133D01*
X96470007Y-65892938D01*
X96683765Y-65981699D01*
X96915219Y-65981901D01*
X97129133Y-65893514D01*
X97149893Y-65872790D01*
X97170007Y-65892938D01*
X97383765Y-65981699D01*
X97615219Y-65981901D01*
X97829133Y-65893514D01*
X97992938Y-65729993D01*
X98081699Y-65516235D01*
X98081874Y-65315061D01*
X100018900Y-65315061D01*
X100107165Y-65528680D01*
X100270460Y-65692260D01*
X100483925Y-65780898D01*
X100715061Y-65781100D01*
X100928680Y-65692835D01*
X101092260Y-65529540D01*
X101180898Y-65316075D01*
X101181100Y-65084939D01*
X101092835Y-64871320D01*
X100929540Y-64707740D01*
X100716075Y-64619102D01*
X100484939Y-64618900D01*
X100271320Y-64707165D01*
X100107740Y-64870460D01*
X100019102Y-65083925D01*
X100018900Y-65315061D01*
X98081874Y-65315061D01*
X98081901Y-65284781D01*
X97993514Y-65070867D01*
X97829993Y-64907062D01*
X97616235Y-64818301D01*
X97384781Y-64818099D01*
X97170867Y-64906486D01*
X97150107Y-64927210D01*
X97129993Y-64907062D01*
X96916235Y-64818301D01*
X96684781Y-64818099D01*
X96470867Y-64906486D01*
X96307062Y-65070007D01*
X96218301Y-65283765D01*
X96218099Y-65515219D01*
X93576602Y-65515219D01*
X93629133Y-65493514D01*
X93792938Y-65329993D01*
X93881699Y-65116235D01*
X93881901Y-64884781D01*
X93793514Y-64670867D01*
X93629993Y-64507062D01*
X93416235Y-64418301D01*
X93184781Y-64418099D01*
X92970867Y-64506486D01*
X92807062Y-64670007D01*
X92718301Y-64883765D01*
X92718099Y-65115219D01*
X91280898Y-65115219D01*
X91281100Y-64884939D01*
X91192835Y-64671320D01*
X91029540Y-64507740D01*
X90816075Y-64419102D01*
X90584939Y-64418900D01*
X90371320Y-64507165D01*
X90207740Y-64670460D01*
X90119102Y-64883925D01*
X90118900Y-65115061D01*
X87041992Y-65115061D01*
X87029993Y-65103042D01*
X86816235Y-65014281D01*
X86584781Y-65014079D01*
X86370867Y-65102466D01*
X86207062Y-65265987D01*
X86118301Y-65479745D01*
X86118099Y-65711199D01*
X86177404Y-65854729D01*
X86029993Y-65707062D01*
X85816235Y-65618301D01*
X85584781Y-65618099D01*
X85370867Y-65706486D01*
X85207062Y-65870007D01*
X85118301Y-66083765D01*
X85118099Y-66315219D01*
X80704464Y-66315219D01*
X80704464Y-65136400D01*
X80677897Y-64995210D01*
X80594454Y-64865535D01*
X80467134Y-64778541D01*
X80316000Y-64747936D01*
X78284000Y-64747936D01*
X78142810Y-64774503D01*
X78013135Y-64857946D01*
X77926141Y-64985266D01*
X77895536Y-65136400D01*
X77104464Y-65136400D01*
X77077897Y-64995210D01*
X76994454Y-64865535D01*
X76867134Y-64778541D01*
X76716000Y-64747936D01*
X74684000Y-64747936D01*
X74542810Y-64774503D01*
X74413135Y-64857946D01*
X74326141Y-64985266D01*
X74295536Y-65136400D01*
X73504464Y-65136400D01*
X73477897Y-64995210D01*
X73394454Y-64865535D01*
X73267134Y-64778541D01*
X73116000Y-64747936D01*
X71084000Y-64747936D01*
X70942810Y-64774503D01*
X70813135Y-64857946D01*
X70726141Y-64985266D01*
X70695536Y-65136400D01*
X67456000Y-65136400D01*
X67456000Y-61700997D01*
X67886533Y-62742966D01*
X68752475Y-63610421D01*
X69884463Y-64080464D01*
X71110160Y-64081533D01*
X71512670Y-63915219D01*
X103618099Y-63915219D01*
X103706486Y-64129133D01*
X103870007Y-64292938D01*
X104083765Y-64381699D01*
X104315219Y-64381901D01*
X104529133Y-64293514D01*
X104692938Y-64129993D01*
X104781699Y-63916235D01*
X104781901Y-63684781D01*
X104693514Y-63470867D01*
X104529993Y-63307062D01*
X104316235Y-63218301D01*
X104084781Y-63218099D01*
X103870867Y-63306486D01*
X103707062Y-63470007D01*
X103618301Y-63683765D01*
X103618099Y-63915219D01*
X71512670Y-63915219D01*
X72242966Y-63613467D01*
X73110421Y-62747525D01*
X73580464Y-61615537D01*
X73581533Y-60389840D01*
X73113467Y-59257034D01*
X72247525Y-58389579D01*
X71203352Y-57956000D01*
X105644371Y-57956000D01*
X105586463Y-57979927D01*
X105586463Y-57979927D01*
G37*
X105586463Y-57979927D02*
X105380650Y-58185381D01*
X105269127Y-58453957D01*
X105268874Y-58744767D01*
X105299215Y-58818199D01*
X105184781Y-58818099D01*
X104970867Y-58906486D01*
X104807062Y-59070007D01*
X104718301Y-59283765D01*
X104718099Y-59515219D01*
X104806486Y-59729133D01*
X104970007Y-59892938D01*
X105183765Y-59981699D01*
X105384163Y-59981874D01*
X105380650Y-59985381D01*
X105269127Y-60253957D01*
X105268874Y-60544767D01*
X105379927Y-60813537D01*
X105585381Y-61019350D01*
X105853957Y-61130873D01*
X106144767Y-61131126D01*
X106413537Y-61020073D01*
X106619350Y-60814619D01*
X106730873Y-60546043D01*
X106731126Y-60255233D01*
X106620073Y-59986463D01*
X106615345Y-59981727D01*
X106815219Y-59981901D01*
X107029133Y-59893514D01*
X107192938Y-59729993D01*
X107281699Y-59516235D01*
X107281901Y-59284781D01*
X107193514Y-59070867D01*
X107029993Y-58907062D01*
X106816235Y-58818301D01*
X106700911Y-58818200D01*
X106730873Y-58746043D01*
X106731126Y-58455233D01*
X106620073Y-58186463D01*
X106414619Y-57980650D01*
X106355255Y-57956000D01*
X112799003Y-57956000D01*
X111757034Y-58386533D01*
X110889579Y-59252475D01*
X110419536Y-60384463D01*
X110418467Y-61610160D01*
X110886533Y-62742966D01*
X111752475Y-63610421D01*
X112884463Y-64080464D01*
X114110160Y-64081533D01*
X115242966Y-63613467D01*
X116110421Y-62747525D01*
X116544000Y-61703352D01*
X116544000Y-88799003D01*
X116113467Y-87757034D01*
X115247525Y-86889579D01*
X114115537Y-86419536D01*
X112889840Y-86418467D01*
X111757034Y-86886533D01*
X110889579Y-87752475D01*
X110419536Y-88884463D01*
X110418467Y-90110160D01*
X110886533Y-91242966D01*
X111752475Y-92110421D01*
X112796648Y-92544000D01*
X108513002Y-92544000D01*
X108513002Y-92426884D01*
X108735463Y-92515218D01*
X109182687Y-92216424D01*
X109515247Y-91735467D01*
X109432717Y-91513000D01*
X108513000Y-91513000D01*
X108513000Y-91533000D01*
X107767000Y-91533000D01*
X107767000Y-91513000D01*
X107747000Y-91513000D01*
X107747000Y-90767000D01*
X107767000Y-90767000D01*
X107767000Y-90747000D01*
X108513000Y-90747000D01*
X108513000Y-90767000D01*
X109432717Y-90767000D01*
X109515247Y-90544533D01*
X109182687Y-90063576D01*
X108866104Y-89852064D01*
X109003600Y-89852064D01*
X109144790Y-89825497D01*
X109274465Y-89742054D01*
X109361459Y-89614734D01*
X109392064Y-89463600D01*
X109392064Y-87736400D01*
X109365497Y-87595210D01*
X109282054Y-87465535D01*
X109154734Y-87378541D01*
X109003600Y-87347936D01*
X107276400Y-87347936D01*
X107135210Y-87374503D01*
X107005535Y-87457946D01*
X106918541Y-87585266D01*
X106887936Y-87736400D01*
X106887936Y-89463600D01*
X106914503Y-89604790D01*
X106997946Y-89734465D01*
X107125266Y-89821459D01*
X107276400Y-89852064D01*
X107413896Y-89852064D01*
X107097313Y-90063576D01*
X106764753Y-90544533D01*
X106847282Y-90766998D01*
X106775255Y-90766998D01*
X106749860Y-90639329D01*
X106480065Y-90235552D01*
X106076288Y-89965757D01*
X105600000Y-89871017D01*
X105123712Y-89965757D01*
X104719935Y-90235552D01*
X104450140Y-90639329D01*
X104355400Y-91115617D01*
X104355400Y-91164383D01*
X104450140Y-91640671D01*
X104719935Y-92044448D01*
X105123712Y-92314243D01*
X105600000Y-92408983D01*
X106076288Y-92314243D01*
X106480065Y-92044448D01*
X106749860Y-91640671D01*
X106775255Y-91513002D01*
X106847282Y-91513002D01*
X106764753Y-91735467D01*
X107097313Y-92216424D01*
X107544537Y-92515218D01*
X107766998Y-92426884D01*
X107766998Y-92544000D01*
X79527000Y-92544000D01*
X79527000Y-91315061D01*
X90118900Y-91315061D01*
X90207165Y-91528680D01*
X90370460Y-91692260D01*
X90583925Y-91780898D01*
X90815061Y-91781100D01*
X91028680Y-91692835D01*
X91192260Y-91529540D01*
X91280898Y-91316075D01*
X91281100Y-91084939D01*
X91210909Y-90915061D01*
X96418900Y-90915061D01*
X96507165Y-91128680D01*
X96670460Y-91292260D01*
X96883925Y-91380898D01*
X97115061Y-91381100D01*
X97328680Y-91292835D01*
X97492260Y-91129540D01*
X97498041Y-91115617D01*
X101815400Y-91115617D01*
X101815400Y-91164383D01*
X101910140Y-91640671D01*
X102179935Y-92044448D01*
X102583712Y-92314243D01*
X103060000Y-92408983D01*
X103536288Y-92314243D01*
X103940065Y-92044448D01*
X104209860Y-91640671D01*
X104304600Y-91164383D01*
X104304600Y-91115617D01*
X104209860Y-90639329D01*
X103940065Y-90235552D01*
X103536288Y-89965757D01*
X103060000Y-89871017D01*
X102583712Y-89965757D01*
X102179935Y-90235552D01*
X101910140Y-90639329D01*
X101815400Y-91115617D01*
X97498041Y-91115617D01*
X97580898Y-90916075D01*
X97581100Y-90684939D01*
X97492835Y-90471320D01*
X97329540Y-90307740D01*
X97116075Y-90219102D01*
X96884939Y-90218900D01*
X96671320Y-90307165D01*
X96507740Y-90470460D01*
X96419102Y-90683925D01*
X96418900Y-90915061D01*
X91210909Y-90915061D01*
X91192835Y-90871320D01*
X91029540Y-90707740D01*
X90816075Y-90619102D01*
X90584939Y-90618900D01*
X90371320Y-90707165D01*
X90207740Y-90870460D01*
X90119102Y-91083925D01*
X90118900Y-91315061D01*
X79527000Y-91315061D01*
X79527000Y-90700000D01*
X79516994Y-90650590D01*
X79488553Y-90608965D01*
X79446159Y-90581685D01*
X79400000Y-90573000D01*
X73390509Y-90573000D01*
X73580464Y-90115537D01*
X73581533Y-88889840D01*
X73204108Y-87976400D01*
X74295536Y-87976400D01*
X74295536Y-89703600D01*
X74322103Y-89844790D01*
X74405546Y-89974465D01*
X74532866Y-90061459D01*
X74684000Y-90092064D01*
X76716000Y-90092064D01*
X76857190Y-90065497D01*
X76986865Y-89982054D01*
X77073859Y-89854734D01*
X77104464Y-89703600D01*
X77104464Y-87976400D01*
X77895536Y-87976400D01*
X77895536Y-89703600D01*
X77922103Y-89844790D01*
X78005546Y-89974465D01*
X78132866Y-90061459D01*
X78284000Y-90092064D01*
X80316000Y-90092064D01*
X80457190Y-90065497D01*
X80586865Y-89982054D01*
X80673859Y-89854734D01*
X80704464Y-89703600D01*
X80704464Y-87976400D01*
X80692952Y-87915219D01*
X83118099Y-87915219D01*
X83206486Y-88129133D01*
X83370007Y-88292938D01*
X83583765Y-88381699D01*
X83703030Y-88381803D01*
X83619102Y-88583925D01*
X83618900Y-88815061D01*
X83707165Y-89028680D01*
X83870460Y-89192260D01*
X84083925Y-89280898D01*
X84315061Y-89281100D01*
X84528680Y-89192835D01*
X84692260Y-89029540D01*
X84780898Y-88816075D01*
X84781100Y-88584939D01*
X84752293Y-88515219D01*
X88418099Y-88515219D01*
X88506486Y-88729133D01*
X88670007Y-88892938D01*
X88883765Y-88981699D01*
X89115219Y-88981901D01*
X89329133Y-88893514D01*
X89492938Y-88729993D01*
X89581699Y-88516235D01*
X89581874Y-88315061D01*
X97118900Y-88315061D01*
X97207165Y-88528680D01*
X97370460Y-88692260D01*
X97583925Y-88780898D01*
X97815061Y-88781100D01*
X98028680Y-88692835D01*
X98146102Y-88575617D01*
X101815400Y-88575617D01*
X101815400Y-88624383D01*
X101910140Y-89100671D01*
X102179935Y-89504448D01*
X102583712Y-89774243D01*
X103060000Y-89868983D01*
X103536288Y-89774243D01*
X103940065Y-89504448D01*
X104209860Y-89100671D01*
X104304600Y-88624383D01*
X104304600Y-88575617D01*
X104355400Y-88575617D01*
X104355400Y-88624383D01*
X104450140Y-89100671D01*
X104719935Y-89504448D01*
X105123712Y-89774243D01*
X105600000Y-89868983D01*
X106076288Y-89774243D01*
X106480065Y-89504448D01*
X106749860Y-89100671D01*
X106844600Y-88624383D01*
X106844600Y-88575617D01*
X106749860Y-88099329D01*
X106480065Y-87695552D01*
X106076288Y-87425757D01*
X105600000Y-87331017D01*
X105123712Y-87425757D01*
X104719935Y-87695552D01*
X104450140Y-88099329D01*
X104355400Y-88575617D01*
X104304600Y-88575617D01*
X104209860Y-88099329D01*
X103940065Y-87695552D01*
X103536288Y-87425757D01*
X103060000Y-87331017D01*
X102583712Y-87425757D01*
X102179935Y-87695552D01*
X101910140Y-88099329D01*
X101815400Y-88575617D01*
X98146102Y-88575617D01*
X98192260Y-88529540D01*
X98280898Y-88316075D01*
X98281100Y-88084939D01*
X98192835Y-87871320D01*
X98029540Y-87707740D01*
X97816075Y-87619102D01*
X97584939Y-87618900D01*
X97371320Y-87707165D01*
X97207740Y-87870460D01*
X97119102Y-88083925D01*
X97118900Y-88315061D01*
X89581874Y-88315061D01*
X89581901Y-88284781D01*
X89493514Y-88070867D01*
X89329993Y-87907062D01*
X89116235Y-87818301D01*
X88884781Y-87818099D01*
X88670867Y-87906486D01*
X88507062Y-88070007D01*
X88418301Y-88283765D01*
X88418099Y-88515219D01*
X84752293Y-88515219D01*
X84692835Y-88371320D01*
X84529540Y-88207740D01*
X84316075Y-88119102D01*
X84197503Y-88118998D01*
X84281699Y-87916235D01*
X84281901Y-87684781D01*
X84193514Y-87470867D01*
X84029993Y-87307062D01*
X83816235Y-87218301D01*
X83584781Y-87218099D01*
X83370867Y-87306486D01*
X83207062Y-87470007D01*
X83118301Y-87683765D01*
X83118099Y-87915219D01*
X80692952Y-87915219D01*
X80677897Y-87835210D01*
X80594454Y-87705535D01*
X80467134Y-87618541D01*
X80316000Y-87587936D01*
X78284000Y-87587936D01*
X78142810Y-87614503D01*
X78013135Y-87697946D01*
X77926141Y-87825266D01*
X77895536Y-87976400D01*
X77104464Y-87976400D01*
X77077897Y-87835210D01*
X76994454Y-87705535D01*
X76867134Y-87618541D01*
X76716000Y-87587936D01*
X74684000Y-87587936D01*
X74542810Y-87614503D01*
X74413135Y-87697946D01*
X74326141Y-87825266D01*
X74295536Y-87976400D01*
X73204108Y-87976400D01*
X73113467Y-87757034D01*
X72247525Y-86889579D01*
X71115537Y-86419536D01*
X69889840Y-86418467D01*
X68757034Y-86886533D01*
X67889579Y-87752475D01*
X67456000Y-88796648D01*
X67456000Y-86300000D01*
X74275631Y-86300000D01*
X74370371Y-86776288D01*
X74640166Y-87180065D01*
X75043943Y-87449860D01*
X75520231Y-87544600D01*
X75879769Y-87544600D01*
X76356057Y-87449860D01*
X76759834Y-87180065D01*
X77029629Y-86776288D01*
X77124369Y-86300000D01*
X77875631Y-86300000D01*
X77970371Y-86776288D01*
X78240166Y-87180065D01*
X78643943Y-87449860D01*
X79120231Y-87544600D01*
X79479769Y-87544600D01*
X79956057Y-87449860D01*
X80359834Y-87180065D01*
X80603616Y-86815219D01*
X87618099Y-86815219D01*
X87706486Y-87029133D01*
X87870007Y-87192938D01*
X87918188Y-87212945D01*
X87918099Y-87315219D01*
X88006486Y-87529133D01*
X88170007Y-87692938D01*
X88383765Y-87781699D01*
X88615219Y-87781901D01*
X88829133Y-87693514D01*
X88992938Y-87529993D01*
X89081699Y-87316235D01*
X89081901Y-87084781D01*
X88993514Y-86870867D01*
X88829993Y-86707062D01*
X88781812Y-86687055D01*
X88781901Y-86584781D01*
X88693514Y-86370867D01*
X88660514Y-86337809D01*
X100614896Y-86337809D01*
X100703283Y-86551723D01*
X100866804Y-86715528D01*
X101080562Y-86804289D01*
X101312016Y-86804491D01*
X101525930Y-86716104D01*
X101689735Y-86552583D01*
X101719886Y-86479973D01*
X101929133Y-86393514D01*
X102092938Y-86229993D01*
X102181699Y-86016235D01*
X102181901Y-85784781D01*
X102093514Y-85570867D01*
X101929993Y-85407062D01*
X101716235Y-85318301D01*
X101484781Y-85318099D01*
X101270867Y-85406486D01*
X101107062Y-85570007D01*
X101076911Y-85642617D01*
X100867664Y-85729076D01*
X100703859Y-85892597D01*
X100615098Y-86106355D01*
X100614896Y-86337809D01*
X88660514Y-86337809D01*
X88529993Y-86207062D01*
X88316235Y-86118301D01*
X88084781Y-86118099D01*
X87870867Y-86206486D01*
X87707062Y-86370007D01*
X87618301Y-86583765D01*
X87618099Y-86815219D01*
X80603616Y-86815219D01*
X80629629Y-86776288D01*
X80724369Y-86300000D01*
X80629629Y-85823712D01*
X80359834Y-85419935D01*
X79956057Y-85150140D01*
X79479769Y-85055400D01*
X79120231Y-85055400D01*
X78643943Y-85150140D01*
X78240166Y-85419935D01*
X77970371Y-85823712D01*
X77875631Y-86300000D01*
X77124369Y-86300000D01*
X77029629Y-85823712D01*
X76759834Y-85419935D01*
X76356057Y-85150140D01*
X75879769Y-85055400D01*
X75520231Y-85055400D01*
X75043943Y-85150140D01*
X74640166Y-85419935D01*
X74370371Y-85823712D01*
X74275631Y-86300000D01*
X67456000Y-86300000D01*
X67456000Y-85415219D01*
X72818099Y-85415219D01*
X72906486Y-85629133D01*
X73070007Y-85792938D01*
X73283765Y-85881699D01*
X73515219Y-85881901D01*
X73729133Y-85793514D01*
X73892938Y-85629993D01*
X73981699Y-85416235D01*
X73981901Y-85184781D01*
X73893514Y-84970867D01*
X73729993Y-84807062D01*
X73516235Y-84718301D01*
X73284781Y-84718099D01*
X73070867Y-84806486D01*
X72907062Y-84970007D01*
X72818301Y-85183765D01*
X72818099Y-85415219D01*
X67456000Y-85415219D01*
X67456000Y-83780000D01*
X70675631Y-83780000D01*
X70770371Y-84256288D01*
X71040166Y-84660065D01*
X71443943Y-84929860D01*
X71920231Y-85024600D01*
X72279769Y-85024600D01*
X72756057Y-84929860D01*
X73159834Y-84660065D01*
X73429629Y-84256288D01*
X73524369Y-83780000D01*
X73520391Y-83760000D01*
X74275631Y-83760000D01*
X74370371Y-84236288D01*
X74640166Y-84640065D01*
X75043943Y-84909860D01*
X75520231Y-85004600D01*
X75879769Y-85004600D01*
X76356057Y-84909860D01*
X76759834Y-84640065D01*
X77029629Y-84236288D01*
X77124369Y-83760000D01*
X77875631Y-83760000D01*
X77970371Y-84236288D01*
X78240166Y-84640065D01*
X78643943Y-84909860D01*
X79120231Y-85004600D01*
X79479769Y-85004600D01*
X79956057Y-84909860D01*
X80359834Y-84640065D01*
X80629629Y-84236288D01*
X80653711Y-84115219D01*
X82990689Y-84115219D01*
X83079076Y-84329133D01*
X83242597Y-84492938D01*
X83456355Y-84581699D01*
X83606582Y-84581830D01*
X83587736Y-84589617D01*
X83423931Y-84753138D01*
X83335170Y-84966896D01*
X83334968Y-85198350D01*
X83423355Y-85412264D01*
X83586876Y-85576069D01*
X83800634Y-85664830D01*
X84032088Y-85665032D01*
X84153027Y-85615061D01*
X85118900Y-85615061D01*
X85207165Y-85828680D01*
X85370460Y-85992260D01*
X85583925Y-86080898D01*
X85815061Y-86081100D01*
X86028680Y-85992835D01*
X86049894Y-85971658D01*
X86070460Y-85992260D01*
X86283925Y-86080898D01*
X86515061Y-86081100D01*
X86728680Y-85992835D01*
X86892260Y-85829540D01*
X86980898Y-85616075D01*
X86981100Y-85384939D01*
X86892835Y-85171320D01*
X86729540Y-85007740D01*
X86516075Y-84919102D01*
X86284939Y-84918900D01*
X86071320Y-85007165D01*
X86050106Y-85028342D01*
X86029540Y-85007740D01*
X85816075Y-84919102D01*
X85584939Y-84918900D01*
X85371320Y-85007165D01*
X85207740Y-85170460D01*
X85119102Y-85383925D01*
X85118900Y-85615061D01*
X84153027Y-85615061D01*
X84246002Y-85576645D01*
X84409807Y-85413124D01*
X84498568Y-85199366D01*
X84498770Y-84967912D01*
X84410383Y-84753998D01*
X84371514Y-84715061D01*
X95218900Y-84715061D01*
X95307165Y-84928680D01*
X95470460Y-85092260D01*
X95683925Y-85180898D01*
X95915061Y-85181100D01*
X96128680Y-85092835D01*
X96292260Y-84929540D01*
X96380898Y-84716075D01*
X96381073Y-84515061D01*
X102918900Y-84515061D01*
X103007165Y-84728680D01*
X103170460Y-84892260D01*
X103383925Y-84980898D01*
X103615061Y-84981100D01*
X103828680Y-84892835D01*
X103992260Y-84729540D01*
X103996840Y-84718511D01*
X104070460Y-84792260D01*
X104283925Y-84880898D01*
X104515061Y-84881100D01*
X104728680Y-84792835D01*
X104892260Y-84629540D01*
X104980898Y-84416075D01*
X104981100Y-84184939D01*
X104892835Y-83971320D01*
X104729540Y-83807740D01*
X104516075Y-83719102D01*
X104284939Y-83718900D01*
X104071320Y-83807165D01*
X103907740Y-83970460D01*
X103903160Y-83981489D01*
X103829540Y-83907740D01*
X103616075Y-83819102D01*
X103384939Y-83818900D01*
X103171320Y-83907165D01*
X103007740Y-84070460D01*
X102919102Y-84283925D01*
X102918900Y-84515061D01*
X96381073Y-84515061D01*
X96381100Y-84484939D01*
X96292835Y-84271320D01*
X96129540Y-84107740D01*
X95916075Y-84019102D01*
X95684939Y-84018900D01*
X95471320Y-84107165D01*
X95307740Y-84270460D01*
X95219102Y-84483925D01*
X95218900Y-84715061D01*
X84371514Y-84715061D01*
X84246862Y-84590193D01*
X84033104Y-84501432D01*
X83882877Y-84501301D01*
X83901723Y-84493514D01*
X84065528Y-84329993D01*
X84154289Y-84116235D01*
X84154491Y-83884781D01*
X84066104Y-83670867D01*
X84010553Y-83615219D01*
X88440689Y-83615219D01*
X88529076Y-83829133D01*
X88692597Y-83992938D01*
X88906355Y-84081699D01*
X89137809Y-84081901D01*
X89351723Y-83993514D01*
X89515528Y-83829993D01*
X89604289Y-83616235D01*
X89604491Y-83384781D01*
X89516104Y-83170867D01*
X89360569Y-83015061D01*
X89718900Y-83015061D01*
X89807165Y-83228680D01*
X89970460Y-83392260D01*
X90183925Y-83480898D01*
X90415061Y-83481100D01*
X90628680Y-83392835D01*
X90792260Y-83229540D01*
X90880898Y-83016075D01*
X90881100Y-82784939D01*
X90792835Y-82571320D01*
X90629540Y-82407740D01*
X90416075Y-82319102D01*
X90184939Y-82318900D01*
X89971320Y-82407165D01*
X89807740Y-82570460D01*
X89719102Y-82783925D01*
X89718900Y-83015061D01*
X89360569Y-83015061D01*
X89352583Y-83007062D01*
X89138825Y-82918301D01*
X88907371Y-82918099D01*
X88693457Y-83006486D01*
X88529652Y-83170007D01*
X88440891Y-83383765D01*
X88440689Y-83615219D01*
X84010553Y-83615219D01*
X83902583Y-83507062D01*
X83688825Y-83418301D01*
X83457371Y-83418099D01*
X83243457Y-83506486D01*
X83079652Y-83670007D01*
X82990891Y-83883765D01*
X82990689Y-84115219D01*
X80653711Y-84115219D01*
X80724369Y-83760000D01*
X80629629Y-83283712D01*
X80450228Y-83015219D01*
X87118099Y-83015219D01*
X87206486Y-83229133D01*
X87370007Y-83392938D01*
X87583765Y-83481699D01*
X87815219Y-83481901D01*
X88029133Y-83393514D01*
X88192938Y-83229993D01*
X88281699Y-83016235D01*
X88281901Y-82784781D01*
X88193514Y-82570867D01*
X88029993Y-82407062D01*
X87816235Y-82318301D01*
X87584781Y-82318099D01*
X87370867Y-82406486D01*
X87207062Y-82570007D01*
X87118301Y-82783765D01*
X87118099Y-83015219D01*
X80450228Y-83015219D01*
X80359834Y-82879935D01*
X79956057Y-82610140D01*
X79479769Y-82515400D01*
X79120231Y-82515400D01*
X78643943Y-82610140D01*
X78240166Y-82879935D01*
X77970371Y-83283712D01*
X77875631Y-83760000D01*
X77124369Y-83760000D01*
X77029629Y-83283712D01*
X76759834Y-82879935D01*
X76356057Y-82610140D01*
X75879769Y-82515400D01*
X75520231Y-82515400D01*
X75043943Y-82610140D01*
X74640166Y-82879935D01*
X74370371Y-83283712D01*
X74275631Y-83760000D01*
X73520391Y-83760000D01*
X73429629Y-83303712D01*
X73159834Y-82899935D01*
X72756057Y-82630140D01*
X72279769Y-82535400D01*
X71920231Y-82535400D01*
X71443943Y-82630140D01*
X71040166Y-82899935D01*
X70770371Y-83303712D01*
X70675631Y-83780000D01*
X67456000Y-83780000D01*
X67456000Y-82515061D01*
X83218900Y-82515061D01*
X83307165Y-82728680D01*
X83470460Y-82892260D01*
X83683925Y-82980898D01*
X83915061Y-82981100D01*
X84128680Y-82892835D01*
X84292260Y-82729540D01*
X84299909Y-82711119D01*
X84307165Y-82728680D01*
X84470460Y-82892260D01*
X84683925Y-82980898D01*
X84915061Y-82981100D01*
X85128680Y-82892835D01*
X85292260Y-82729540D01*
X85380898Y-82516075D01*
X85381100Y-82284939D01*
X85292835Y-82071320D01*
X85236675Y-82015061D01*
X103718900Y-82015061D01*
X103807165Y-82228680D01*
X103970460Y-82392260D01*
X104183925Y-82480898D01*
X104415061Y-82481100D01*
X104628680Y-82392835D01*
X104792260Y-82229540D01*
X104880898Y-82016075D01*
X104880962Y-81942487D01*
X109118805Y-81942487D01*
X109404547Y-82634035D01*
X109933182Y-83163594D01*
X110624231Y-83450542D01*
X111372487Y-83451195D01*
X112064035Y-83165453D01*
X112593594Y-82636818D01*
X112880542Y-81945769D01*
X112881195Y-81197513D01*
X112595453Y-80505965D01*
X112066818Y-79976406D01*
X111375769Y-79689458D01*
X110627513Y-79688805D01*
X109935965Y-79974547D01*
X109406406Y-80503182D01*
X109119458Y-81194231D01*
X109118805Y-81942487D01*
X104880962Y-81942487D01*
X104881100Y-81784939D01*
X104792835Y-81571320D01*
X104629540Y-81407740D01*
X104416075Y-81319102D01*
X104184939Y-81318900D01*
X103971320Y-81407165D01*
X103807740Y-81570460D01*
X103719102Y-81783925D01*
X103718900Y-82015061D01*
X85236675Y-82015061D01*
X85129540Y-81907740D01*
X84916075Y-81819102D01*
X84684939Y-81818900D01*
X84471320Y-81907165D01*
X84307740Y-82070460D01*
X84300091Y-82088881D01*
X84292835Y-82071320D01*
X84129540Y-81907740D01*
X83916075Y-81819102D01*
X83684939Y-81818900D01*
X83471320Y-81907165D01*
X83307740Y-82070460D01*
X83219102Y-82283925D01*
X83218900Y-82515061D01*
X67456000Y-82515061D01*
X67456000Y-81240000D01*
X70675631Y-81240000D01*
X70770371Y-81716288D01*
X71040166Y-82120065D01*
X71443943Y-82389860D01*
X71920231Y-82484600D01*
X72279769Y-82484600D01*
X72756057Y-82389860D01*
X73159834Y-82120065D01*
X73429629Y-81716288D01*
X73524369Y-81240000D01*
X73429629Y-80763712D01*
X73159834Y-80359935D01*
X72756057Y-80090140D01*
X72279769Y-79995400D01*
X71920231Y-79995400D01*
X71443943Y-80090140D01*
X71040166Y-80359935D01*
X70770371Y-80763712D01*
X70675631Y-81240000D01*
X67456000Y-81240000D01*
X67456000Y-78700000D01*
X70675631Y-78700000D01*
X70770371Y-79176288D01*
X71040166Y-79580065D01*
X71443943Y-79849860D01*
X71920231Y-79944600D01*
X72279769Y-79944600D01*
X72756057Y-79849860D01*
X73159834Y-79580065D01*
X73429629Y-79176288D01*
X73433605Y-79156299D01*
X73570007Y-79292938D01*
X73783765Y-79381699D01*
X74015219Y-79381901D01*
X74229133Y-79293514D01*
X74366427Y-79156458D01*
X74370371Y-79176288D01*
X74538163Y-79427406D01*
X74516235Y-79418301D01*
X74284781Y-79418099D01*
X74070867Y-79506486D01*
X73907062Y-79670007D01*
X73818301Y-79883765D01*
X73818099Y-80115219D01*
X73906486Y-80329133D01*
X74070007Y-80492938D01*
X74283765Y-80581699D01*
X74478511Y-80581869D01*
X74370371Y-80743712D01*
X74275631Y-81220000D01*
X74370371Y-81696288D01*
X74640166Y-82100065D01*
X75043943Y-82369860D01*
X75520231Y-82464600D01*
X75879769Y-82464600D01*
X76356057Y-82369860D01*
X76759834Y-82100065D01*
X77029629Y-81696288D01*
X77124369Y-81220000D01*
X77875631Y-81220000D01*
X77970371Y-81696288D01*
X78240166Y-82100065D01*
X78643943Y-82369860D01*
X79120231Y-82464600D01*
X79479769Y-82464600D01*
X79956057Y-82369860D01*
X80359834Y-82100065D01*
X80629629Y-81696288D01*
X80705460Y-81315061D01*
X91918900Y-81315061D01*
X92007165Y-81528680D01*
X92170460Y-81692260D01*
X92383925Y-81780898D01*
X92615061Y-81781100D01*
X92828680Y-81692835D01*
X92992260Y-81529540D01*
X93080898Y-81316075D01*
X93081100Y-81084939D01*
X92992835Y-80871320D01*
X92829540Y-80707740D01*
X92616075Y-80619102D01*
X92384939Y-80618900D01*
X92171320Y-80707165D01*
X92007740Y-80870460D01*
X91919102Y-81083925D01*
X91918900Y-81315061D01*
X80705460Y-81315061D01*
X80724369Y-81220000D01*
X80629629Y-80743712D01*
X80476955Y-80515219D01*
X85818099Y-80515219D01*
X85906486Y-80729133D01*
X86070007Y-80892938D01*
X86283765Y-80981699D01*
X86515219Y-80981901D01*
X86729133Y-80893514D01*
X86892938Y-80729993D01*
X86981699Y-80516235D01*
X86981901Y-80284781D01*
X86893514Y-80070867D01*
X86729993Y-79907062D01*
X86516235Y-79818301D01*
X86284781Y-79818099D01*
X86070867Y-79906486D01*
X85907062Y-80070007D01*
X85818301Y-80283765D01*
X85818099Y-80515219D01*
X80476955Y-80515219D01*
X80359834Y-80339935D01*
X79956057Y-80070140D01*
X79479769Y-79975400D01*
X79120231Y-79975400D01*
X78643943Y-80070140D01*
X78240166Y-80339935D01*
X77970371Y-80743712D01*
X77875631Y-81220000D01*
X77124369Y-81220000D01*
X77029629Y-80743712D01*
X76759834Y-80339935D01*
X76356057Y-80070140D01*
X75879769Y-79975400D01*
X75520231Y-79975400D01*
X75043943Y-80070140D01*
X74981703Y-80111727D01*
X74981901Y-79884781D01*
X74938308Y-79779277D01*
X75043943Y-79849860D01*
X75520231Y-79944600D01*
X75879769Y-79944600D01*
X76356057Y-79849860D01*
X76759834Y-79580065D01*
X77029629Y-79176288D01*
X77124369Y-78700000D01*
X77875631Y-78700000D01*
X77970371Y-79176288D01*
X78240166Y-79580065D01*
X78643943Y-79849860D01*
X79120231Y-79944600D01*
X79479769Y-79944600D01*
X79956057Y-79849860D01*
X80359834Y-79580065D01*
X80399942Y-79520039D01*
X84218099Y-79520039D01*
X84306486Y-79733953D01*
X84470007Y-79897758D01*
X84683765Y-79986519D01*
X84915219Y-79986721D01*
X85129133Y-79898334D01*
X85212550Y-79815061D01*
X100818900Y-79815061D01*
X100907165Y-80028680D01*
X101070460Y-80192260D01*
X101283925Y-80280898D01*
X101515061Y-80281100D01*
X101728680Y-80192835D01*
X101892260Y-80029540D01*
X101939795Y-79915061D01*
X105118900Y-79915061D01*
X105207165Y-80128680D01*
X105370460Y-80292260D01*
X105583925Y-80380898D01*
X105815061Y-80381100D01*
X106028680Y-80292835D01*
X106192260Y-80129540D01*
X106280898Y-79916075D01*
X106281100Y-79684939D01*
X106192835Y-79471320D01*
X106029540Y-79307740D01*
X105816075Y-79219102D01*
X105584939Y-79218900D01*
X105371320Y-79307165D01*
X105207740Y-79470460D01*
X105119102Y-79683925D01*
X105118900Y-79915061D01*
X101939795Y-79915061D01*
X101980898Y-79816075D01*
X101981100Y-79584939D01*
X101892835Y-79371320D01*
X101729540Y-79207740D01*
X101516075Y-79119102D01*
X101284939Y-79118900D01*
X101071320Y-79207165D01*
X100907740Y-79370460D01*
X100819102Y-79583925D01*
X100818900Y-79815061D01*
X85212550Y-79815061D01*
X85292938Y-79734813D01*
X85381699Y-79521055D01*
X85381901Y-79289601D01*
X85321174Y-79142629D01*
X85518099Y-79142629D01*
X85606486Y-79356543D01*
X85770007Y-79520348D01*
X85983765Y-79609109D01*
X86215219Y-79609311D01*
X86429133Y-79520924D01*
X86592938Y-79357403D01*
X86633108Y-79260664D01*
X86683765Y-79281699D01*
X86915219Y-79281901D01*
X87129133Y-79193514D01*
X87292938Y-79029993D01*
X87381699Y-78816235D01*
X87381901Y-78584781D01*
X87293514Y-78370867D01*
X87129993Y-78207062D01*
X86916235Y-78118301D01*
X86684781Y-78118099D01*
X86470867Y-78206486D01*
X86307062Y-78370007D01*
X86266892Y-78466746D01*
X86216235Y-78445711D01*
X85984781Y-78445509D01*
X85770867Y-78533896D01*
X85607062Y-78697417D01*
X85518301Y-78911175D01*
X85518099Y-79142629D01*
X85321174Y-79142629D01*
X85293514Y-79075687D01*
X85129993Y-78911882D01*
X84916235Y-78823121D01*
X84684781Y-78822919D01*
X84470867Y-78911306D01*
X84307062Y-79074827D01*
X84218301Y-79288585D01*
X84218099Y-79520039D01*
X80399942Y-79520039D01*
X80629629Y-79176288D01*
X80724369Y-78700000D01*
X80629629Y-78223712D01*
X80359834Y-77819935D01*
X79956057Y-77550140D01*
X79479769Y-77455400D01*
X79120231Y-77455400D01*
X78643943Y-77550140D01*
X78240166Y-77819935D01*
X77970371Y-78223712D01*
X77875631Y-78700000D01*
X77124369Y-78700000D01*
X77029629Y-78223712D01*
X76813354Y-77900034D01*
X76829133Y-77893514D01*
X76992938Y-77729993D01*
X77081699Y-77516235D01*
X77081787Y-77415219D01*
X87218099Y-77415219D01*
X87306486Y-77629133D01*
X87470007Y-77792938D01*
X87639364Y-77863262D01*
X87708896Y-78031543D01*
X87872417Y-78195348D01*
X88022835Y-78257808D01*
X88022785Y-78315220D01*
X88111172Y-78529134D01*
X88274693Y-78692939D01*
X88445253Y-78763762D01*
X88513582Y-78929133D01*
X88677103Y-79092938D01*
X88890861Y-79181699D01*
X89005596Y-79181799D01*
X89006486Y-79183953D01*
X89170007Y-79347758D01*
X89383765Y-79436519D01*
X89615219Y-79436721D01*
X89829133Y-79348334D01*
X89992938Y-79184813D01*
X90081699Y-78971055D01*
X90081901Y-78739601D01*
X89993514Y-78525687D01*
X89829993Y-78361882D01*
X89717618Y-78315219D01*
X98118099Y-78315219D01*
X98206486Y-78529133D01*
X98370007Y-78692938D01*
X98583765Y-78781699D01*
X98815219Y-78781901D01*
X98955118Y-78724096D01*
X107158234Y-78724096D01*
X107330142Y-79140146D01*
X107648180Y-79458739D01*
X108063929Y-79631373D01*
X108514096Y-79631766D01*
X108930146Y-79459858D01*
X109248739Y-79141820D01*
X109421373Y-78726071D01*
X109421766Y-78275904D01*
X109249858Y-77859854D01*
X108931820Y-77541261D01*
X108516071Y-77368627D01*
X108065904Y-77368234D01*
X107649854Y-77540142D01*
X107331261Y-77858180D01*
X107158627Y-78273929D01*
X107158234Y-78724096D01*
X98955118Y-78724096D01*
X99029133Y-78693514D01*
X99192938Y-78529993D01*
X99281699Y-78316235D01*
X99281754Y-78253547D01*
X99431695Y-78191593D01*
X99595500Y-78028072D01*
X99684261Y-77814314D01*
X99684463Y-77582860D01*
X99596076Y-77368946D01*
X99432555Y-77205141D01*
X99218797Y-77116380D01*
X98987343Y-77116178D01*
X98773429Y-77204565D01*
X98609624Y-77368086D01*
X98520863Y-77581844D01*
X98520808Y-77644532D01*
X98370867Y-77706486D01*
X98207062Y-77870007D01*
X98118301Y-78083765D01*
X98118099Y-78315219D01*
X89717618Y-78315219D01*
X89616235Y-78273121D01*
X89501500Y-78273021D01*
X89500610Y-78270867D01*
X89337089Y-78107062D01*
X89166529Y-78036239D01*
X89098200Y-77870868D01*
X88934679Y-77707063D01*
X88784261Y-77644603D01*
X88784311Y-77587191D01*
X88695924Y-77373277D01*
X88532403Y-77209472D01*
X88363046Y-77139148D01*
X88293514Y-76970867D01*
X88129993Y-76807062D01*
X87916235Y-76718301D01*
X87684781Y-76718099D01*
X87470867Y-76806486D01*
X87307062Y-76970007D01*
X87218301Y-77183765D01*
X87218099Y-77415219D01*
X77081787Y-77415219D01*
X77081901Y-77284781D01*
X76993514Y-77070867D01*
X76841201Y-76918290D01*
X77029629Y-76636288D01*
X77124369Y-76160000D01*
X77875631Y-76160000D01*
X77970371Y-76636288D01*
X78240166Y-77040065D01*
X78643943Y-77309860D01*
X79120231Y-77404600D01*
X79479769Y-77404600D01*
X79956057Y-77309860D01*
X80359834Y-77040065D01*
X80443358Y-76915061D01*
X82018900Y-76915061D01*
X82107165Y-77128680D01*
X82270460Y-77292260D01*
X82483925Y-77380898D01*
X82715061Y-77381100D01*
X82928680Y-77292835D01*
X83092260Y-77129540D01*
X83180898Y-76916075D01*
X83181073Y-76715219D01*
X85718099Y-76715219D01*
X85806486Y-76929133D01*
X85970007Y-77092938D01*
X86183765Y-77181699D01*
X86415219Y-77181901D01*
X86629133Y-77093514D01*
X86792938Y-76929993D01*
X86881699Y-76716235D01*
X86881901Y-76484781D01*
X86793514Y-76270867D01*
X86629993Y-76107062D01*
X86416235Y-76018301D01*
X86184781Y-76018099D01*
X85970867Y-76106486D01*
X85807062Y-76270007D01*
X85718301Y-76483765D01*
X85718099Y-76715219D01*
X83181073Y-76715219D01*
X83181100Y-76684939D01*
X83092835Y-76471320D01*
X82929540Y-76307740D01*
X82716075Y-76219102D01*
X82484939Y-76218900D01*
X82271320Y-76307165D01*
X82107740Y-76470460D01*
X82019102Y-76683925D01*
X82018900Y-76915061D01*
X80443358Y-76915061D01*
X80629629Y-76636288D01*
X80724369Y-76160000D01*
X80629629Y-75683712D01*
X80359834Y-75279935D01*
X79956057Y-75010140D01*
X79479769Y-74915400D01*
X79120231Y-74915400D01*
X78643943Y-75010140D01*
X78240166Y-75279935D01*
X77970371Y-75683712D01*
X77875631Y-76160000D01*
X77124369Y-76160000D01*
X77036997Y-75720755D01*
X77183765Y-75781699D01*
X77415219Y-75781901D01*
X77629133Y-75693514D01*
X77792938Y-75529993D01*
X77881699Y-75316235D01*
X77881901Y-75084781D01*
X77856578Y-75023493D01*
X77929133Y-74993514D01*
X78092938Y-74829993D01*
X78181699Y-74616235D01*
X78181877Y-74412829D01*
X78240166Y-74500065D01*
X78643943Y-74769860D01*
X79120231Y-74864600D01*
X79479769Y-74864600D01*
X79956057Y-74769860D01*
X80359834Y-74500065D01*
X80483344Y-74315219D01*
X83025001Y-74315219D01*
X83113388Y-74529133D01*
X83276909Y-74692938D01*
X83344382Y-74720956D01*
X83318301Y-74783765D01*
X83318099Y-75015219D01*
X83394528Y-75200192D01*
X83318301Y-75383765D01*
X83318099Y-75615219D01*
X83406486Y-75829133D01*
X83570007Y-75992938D01*
X83783765Y-76081699D01*
X84015219Y-76081901D01*
X84229133Y-75993514D01*
X84392938Y-75829993D01*
X84481699Y-75616235D01*
X84481699Y-75615219D01*
X88818099Y-75615219D01*
X88906486Y-75829133D01*
X89070007Y-75992938D01*
X89283765Y-76081699D01*
X89515219Y-76081901D01*
X89729133Y-75993514D01*
X89892938Y-75829993D01*
X89981699Y-75616235D01*
X89981901Y-75384781D01*
X89893514Y-75170867D01*
X89729993Y-75007062D01*
X89516235Y-74918301D01*
X89284781Y-74918099D01*
X89070867Y-75006486D01*
X88907062Y-75170007D01*
X88818301Y-75383765D01*
X88818099Y-75615219D01*
X84481699Y-75615219D01*
X84481802Y-75497836D01*
X84683765Y-75581699D01*
X84915219Y-75581901D01*
X85129133Y-75493514D01*
X85292938Y-75329993D01*
X85381699Y-75116235D01*
X85381787Y-75015219D01*
X85818099Y-75015219D01*
X85906486Y-75229133D01*
X86070007Y-75392938D01*
X86283765Y-75481699D01*
X86515219Y-75481901D01*
X86729133Y-75393514D01*
X86892938Y-75229993D01*
X86981699Y-75016235D01*
X86981901Y-74784781D01*
X86893514Y-74570867D01*
X86729993Y-74407062D01*
X86516235Y-74318301D01*
X86284781Y-74318099D01*
X86070867Y-74406486D01*
X85907062Y-74570007D01*
X85818301Y-74783765D01*
X85818099Y-75015219D01*
X85381787Y-75015219D01*
X85381901Y-74884781D01*
X85293514Y-74670867D01*
X85129993Y-74507062D01*
X84916235Y-74418301D01*
X84684781Y-74418099D01*
X84470867Y-74506486D01*
X84397269Y-74579956D01*
X84393514Y-74570867D01*
X84229993Y-74407062D01*
X84162520Y-74379044D01*
X84188601Y-74316235D01*
X84188601Y-74315219D01*
X88818099Y-74315219D01*
X88906486Y-74529133D01*
X89070007Y-74692938D01*
X89283765Y-74781699D01*
X89515219Y-74781901D01*
X89729133Y-74693514D01*
X89757468Y-74665228D01*
X96118099Y-74665228D01*
X96206486Y-74879142D01*
X96370007Y-75042947D01*
X96583765Y-75131708D01*
X96815219Y-75131910D01*
X97029133Y-75043523D01*
X97192938Y-74880002D01*
X97281699Y-74666244D01*
X97281901Y-74434790D01*
X97193514Y-74220876D01*
X97029993Y-74057071D01*
X96816235Y-73968310D01*
X96584781Y-73968108D01*
X96370867Y-74056495D01*
X96207062Y-74220016D01*
X96118301Y-74433774D01*
X96118099Y-74665228D01*
X89757468Y-74665228D01*
X89892938Y-74529993D01*
X89981699Y-74316235D01*
X89981901Y-74084781D01*
X89909852Y-73910408D01*
X97918099Y-73910408D01*
X98006486Y-74124322D01*
X98170007Y-74288127D01*
X98383765Y-74376888D01*
X98543638Y-74377028D01*
X98606486Y-74529133D01*
X98770007Y-74692938D01*
X98983765Y-74781699D01*
X99215219Y-74781901D01*
X99429133Y-74693514D01*
X99592938Y-74529993D01*
X99681699Y-74316235D01*
X99681779Y-74224096D01*
X107158234Y-74224096D01*
X107330142Y-74640146D01*
X107648180Y-74958739D01*
X107747277Y-74999888D01*
X107649854Y-75040142D01*
X107331261Y-75358180D01*
X107158627Y-75773929D01*
X107158234Y-76224096D01*
X107330142Y-76640146D01*
X107648180Y-76958739D01*
X108063929Y-77131373D01*
X108514096Y-77131766D01*
X108930146Y-76959858D01*
X109248739Y-76641820D01*
X109421373Y-76226071D01*
X109421766Y-75775904D01*
X109249858Y-75359854D01*
X108931820Y-75041261D01*
X108832723Y-75000112D01*
X108930146Y-74959858D01*
X109248739Y-74641820D01*
X109421373Y-74226071D01*
X109421766Y-73775904D01*
X109249858Y-73359854D01*
X108931820Y-73041261D01*
X108516071Y-72868627D01*
X108065904Y-72868234D01*
X107649854Y-73040142D01*
X107331261Y-73358180D01*
X107158627Y-73773929D01*
X107158234Y-74224096D01*
X99681779Y-74224096D01*
X99681901Y-74084781D01*
X99593514Y-73870867D01*
X99429993Y-73707062D01*
X99216235Y-73618301D01*
X99056362Y-73618161D01*
X98999688Y-73480999D01*
X99115061Y-73481100D01*
X99328680Y-73392835D01*
X99492260Y-73229540D01*
X99580898Y-73016075D01*
X99581100Y-72784939D01*
X99492835Y-72571320D01*
X99329540Y-72407740D01*
X99116075Y-72319102D01*
X98884939Y-72318900D01*
X98671320Y-72407165D01*
X98507740Y-72570460D01*
X98419102Y-72783925D01*
X98418900Y-73015061D01*
X98500847Y-73213389D01*
X98384781Y-73213288D01*
X98170867Y-73301675D01*
X98007062Y-73465196D01*
X97918301Y-73678954D01*
X97918099Y-73910408D01*
X89909852Y-73910408D01*
X89893514Y-73870867D01*
X89729993Y-73707062D01*
X89516235Y-73618301D01*
X89284781Y-73618099D01*
X89070867Y-73706486D01*
X88907062Y-73870007D01*
X88818301Y-74083765D01*
X88818099Y-74315219D01*
X84188601Y-74315219D01*
X84188803Y-74084781D01*
X84174531Y-74050240D01*
X84307535Y-74105469D01*
X84538989Y-74105671D01*
X84752903Y-74017284D01*
X84916708Y-73853763D01*
X84974237Y-73715219D01*
X85518099Y-73715219D01*
X85606486Y-73929133D01*
X85770007Y-74092938D01*
X85983765Y-74181699D01*
X86215219Y-74181901D01*
X86429133Y-74093514D01*
X86592938Y-73929993D01*
X86681699Y-73716235D01*
X86681901Y-73484781D01*
X86593514Y-73270867D01*
X86429993Y-73107062D01*
X86216235Y-73018301D01*
X85984781Y-73018099D01*
X85770867Y-73106486D01*
X85607062Y-73270007D01*
X85518301Y-73483765D01*
X85518099Y-73715219D01*
X84974237Y-73715219D01*
X85005469Y-73640005D01*
X85005671Y-73408551D01*
X84917284Y-73194637D01*
X84753763Y-73030832D01*
X84540005Y-72942071D01*
X84308551Y-72941869D01*
X84094637Y-73030256D01*
X83930832Y-73193777D01*
X83842071Y-73407535D01*
X83841869Y-73638989D01*
X83856141Y-73673530D01*
X83723137Y-73618301D01*
X83491683Y-73618099D01*
X83277769Y-73706486D01*
X83113964Y-73870007D01*
X83025203Y-74083765D01*
X83025001Y-74315219D01*
X80483344Y-74315219D01*
X80629629Y-74096288D01*
X80724369Y-73620000D01*
X80629629Y-73143712D01*
X80359834Y-72739935D01*
X80322844Y-72715219D01*
X88718099Y-72715219D01*
X88806486Y-72929133D01*
X88970007Y-73092938D01*
X89183765Y-73181699D01*
X89415219Y-73181901D01*
X89629133Y-73093514D01*
X89792938Y-72929993D01*
X89881699Y-72716235D01*
X89881901Y-72484781D01*
X89793514Y-72270867D01*
X89629993Y-72107062D01*
X89416235Y-72018301D01*
X89184781Y-72018099D01*
X88970867Y-72106486D01*
X88807062Y-72270007D01*
X88718301Y-72483765D01*
X88718099Y-72715219D01*
X80322844Y-72715219D01*
X79956057Y-72470140D01*
X79479769Y-72375400D01*
X79120231Y-72375400D01*
X78643943Y-72470140D01*
X78581878Y-72511611D01*
X78581901Y-72484781D01*
X78493514Y-72270867D01*
X78329993Y-72107062D01*
X78116235Y-72018301D01*
X77884781Y-72018099D01*
X77670867Y-72106486D01*
X77507062Y-72270007D01*
X77418301Y-72483765D01*
X77418099Y-72715219D01*
X77506486Y-72929133D01*
X77670007Y-73092938D01*
X77883765Y-73181699D01*
X77962801Y-73181768D01*
X77875631Y-73620000D01*
X77958254Y-74035372D01*
X77929993Y-74007062D01*
X77716235Y-73918301D01*
X77484781Y-73918099D01*
X77270867Y-74006486D01*
X77107062Y-74170007D01*
X77018301Y-74383765D01*
X77018099Y-74615219D01*
X77043422Y-74676507D01*
X76970867Y-74706486D01*
X76807062Y-74870007D01*
X76718301Y-75083765D01*
X76718154Y-75252085D01*
X76356057Y-75010140D01*
X75879769Y-74915400D01*
X75520231Y-74915400D01*
X75043943Y-75010140D01*
X74640166Y-75279935D01*
X74370371Y-75683712D01*
X74275631Y-76160000D01*
X74370371Y-76636288D01*
X74640166Y-77040065D01*
X75043943Y-77309860D01*
X75520231Y-77404600D01*
X75879769Y-77404600D01*
X75918202Y-77396955D01*
X75918145Y-77463033D01*
X75879769Y-77455400D01*
X75520231Y-77455400D01*
X75043943Y-77550140D01*
X74640166Y-77819935D01*
X74370371Y-78223712D01*
X74333222Y-78410471D01*
X74229993Y-78307062D01*
X74016235Y-78218301D01*
X73784781Y-78218099D01*
X73570867Y-78306486D01*
X73466765Y-78410407D01*
X73429629Y-78223712D01*
X73159834Y-77819935D01*
X72756057Y-77550140D01*
X72279769Y-77455400D01*
X71920231Y-77455400D01*
X71443943Y-77550140D01*
X71040166Y-77819935D01*
X70770371Y-78223712D01*
X70675631Y-78700000D01*
X67456000Y-78700000D01*
X67456000Y-76160000D01*
X70675631Y-76160000D01*
X70770371Y-76636288D01*
X71040166Y-77040065D01*
X71443943Y-77309860D01*
X71920231Y-77404600D01*
X72279769Y-77404600D01*
X72756057Y-77309860D01*
X73159834Y-77040065D01*
X73429629Y-76636288D01*
X73524369Y-76160000D01*
X73429629Y-75683712D01*
X73159834Y-75279935D01*
X72756057Y-75010140D01*
X72279769Y-74915400D01*
X71920231Y-74915400D01*
X71443943Y-75010140D01*
X71040166Y-75279935D01*
X70770371Y-75683712D01*
X70675631Y-76160000D01*
X67456000Y-76160000D01*
X67456000Y-73620000D01*
X70675631Y-73620000D01*
X70770371Y-74096288D01*
X71040166Y-74500065D01*
X71443943Y-74769860D01*
X71920231Y-74864600D01*
X72279769Y-74864600D01*
X72756057Y-74769860D01*
X73159834Y-74500065D01*
X73429629Y-74096288D01*
X73524369Y-73620000D01*
X74275631Y-73620000D01*
X74370371Y-74096288D01*
X74640166Y-74500065D01*
X75043943Y-74769860D01*
X75520231Y-74864600D01*
X75879769Y-74864600D01*
X76356057Y-74769860D01*
X76759834Y-74500065D01*
X77029629Y-74096288D01*
X77124369Y-73620000D01*
X77029629Y-73143712D01*
X76759834Y-72739935D01*
X76356057Y-72470140D01*
X75879769Y-72375400D01*
X75520231Y-72375400D01*
X75043943Y-72470140D01*
X74640166Y-72739935D01*
X74370371Y-73143712D01*
X74275631Y-73620000D01*
X73524369Y-73620000D01*
X73429629Y-73143712D01*
X73159834Y-72739935D01*
X72756057Y-72470140D01*
X72279769Y-72375400D01*
X71920231Y-72375400D01*
X71443943Y-72470140D01*
X71040166Y-72739935D01*
X70770371Y-73143712D01*
X70675631Y-73620000D01*
X67456000Y-73620000D01*
X67456000Y-71080000D01*
X70675631Y-71080000D01*
X70770371Y-71556288D01*
X71040166Y-71960065D01*
X71443943Y-72229860D01*
X71920231Y-72324600D01*
X72279769Y-72324600D01*
X72756057Y-72229860D01*
X73159834Y-71960065D01*
X73429629Y-71556288D01*
X73524369Y-71080000D01*
X74275631Y-71080000D01*
X74370371Y-71556288D01*
X74640166Y-71960065D01*
X75043943Y-72229860D01*
X75520231Y-72324600D01*
X75879769Y-72324600D01*
X76356057Y-72229860D01*
X76759834Y-71960065D01*
X76923485Y-71715144D01*
X77083765Y-71781699D01*
X77315219Y-71781901D01*
X77529133Y-71693514D01*
X77692938Y-71529993D01*
X77781699Y-71316235D01*
X77781901Y-71084781D01*
X77779926Y-71080000D01*
X77875631Y-71080000D01*
X77970371Y-71556288D01*
X78240166Y-71960065D01*
X78643943Y-72229860D01*
X79120231Y-72324600D01*
X79479769Y-72324600D01*
X79956057Y-72229860D01*
X80226380Y-72049236D01*
X80270007Y-72092938D01*
X80483765Y-72181699D01*
X80659114Y-72181852D01*
X80770007Y-72292938D01*
X80983765Y-72381699D01*
X81215219Y-72381901D01*
X81429133Y-72293514D01*
X81507563Y-72215219D01*
X85018099Y-72215219D01*
X85106486Y-72429133D01*
X85270007Y-72592938D01*
X85483765Y-72681699D01*
X85715219Y-72681901D01*
X85929133Y-72593514D01*
X86092938Y-72429993D01*
X86154436Y-72281892D01*
X86165228Y-72281901D01*
X86379142Y-72193514D01*
X86418155Y-72154568D01*
X86418099Y-72219239D01*
X86506486Y-72433153D01*
X86670007Y-72596958D01*
X86883765Y-72685719D01*
X87115219Y-72685921D01*
X87329133Y-72597534D01*
X87492938Y-72434013D01*
X87581699Y-72220255D01*
X87581901Y-71988801D01*
X87493514Y-71774887D01*
X87334123Y-71615219D01*
X97118099Y-71615219D01*
X97206486Y-71829133D01*
X97370007Y-71992938D01*
X97583765Y-72081699D01*
X97815219Y-72081901D01*
X98029133Y-71993514D01*
X98192938Y-71829993D01*
X98236910Y-71724096D01*
X107158234Y-71724096D01*
X107330142Y-72140146D01*
X107648180Y-72458739D01*
X108063929Y-72631373D01*
X108514096Y-72631766D01*
X108930146Y-72459858D01*
X109248739Y-72141820D01*
X109421373Y-71726071D01*
X109421766Y-71275904D01*
X109249858Y-70859854D01*
X108931820Y-70541261D01*
X108516071Y-70368627D01*
X108065904Y-70368234D01*
X107649854Y-70540142D01*
X107331261Y-70858180D01*
X107158627Y-71273929D01*
X107158234Y-71724096D01*
X98236910Y-71724096D01*
X98281699Y-71616235D01*
X98281901Y-71384781D01*
X98193514Y-71170867D01*
X98029993Y-71007062D01*
X97816235Y-70918301D01*
X97584781Y-70918099D01*
X97370867Y-71006486D01*
X97207062Y-71170007D01*
X97118301Y-71383765D01*
X97118099Y-71615219D01*
X87334123Y-71615219D01*
X87329993Y-71611082D01*
X87116235Y-71522321D01*
X86912398Y-71522143D01*
X86984109Y-71349445D01*
X86984311Y-71117991D01*
X86895924Y-70904077D01*
X86807063Y-70815061D01*
X89618900Y-70815061D01*
X89707165Y-71028680D01*
X89870460Y-71192260D01*
X90083925Y-71280898D01*
X90315061Y-71281100D01*
X90528680Y-71192835D01*
X90692260Y-71029540D01*
X90780898Y-70816075D01*
X90781100Y-70584939D01*
X90692835Y-70371320D01*
X90529540Y-70207740D01*
X90316075Y-70119102D01*
X90084939Y-70118900D01*
X89871320Y-70207165D01*
X89707740Y-70370460D01*
X89619102Y-70583925D01*
X89618900Y-70815061D01*
X86807063Y-70815061D01*
X86732403Y-70740272D01*
X86564887Y-70670713D01*
X86751723Y-70593514D01*
X86915528Y-70429993D01*
X87004289Y-70216235D01*
X87004491Y-69984781D01*
X86916104Y-69770867D01*
X86752583Y-69607062D01*
X86538825Y-69518301D01*
X86307371Y-69518099D01*
X86093457Y-69606486D01*
X85929652Y-69770007D01*
X85840891Y-69983765D01*
X85840689Y-70215219D01*
X85929076Y-70429133D01*
X86092597Y-70592938D01*
X86260113Y-70662497D01*
X86073277Y-70739696D01*
X85909472Y-70903217D01*
X85820711Y-71116975D01*
X85820669Y-71165253D01*
X85720876Y-71206486D01*
X85557071Y-71370007D01*
X85495573Y-71518108D01*
X85484781Y-71518099D01*
X85270867Y-71606486D01*
X85107062Y-71770007D01*
X85018301Y-71983765D01*
X85018099Y-72215219D01*
X81507563Y-72215219D01*
X81592938Y-72129993D01*
X81681699Y-71916235D01*
X81681901Y-71684781D01*
X81593514Y-71470867D01*
X81559022Y-71436315D01*
X81563256Y-71432088D01*
X83868108Y-71432088D01*
X83956495Y-71646002D01*
X84120016Y-71809807D01*
X84333774Y-71898568D01*
X84565228Y-71898770D01*
X84779142Y-71810383D01*
X84942947Y-71646862D01*
X85031708Y-71433104D01*
X85031910Y-71201650D01*
X84973451Y-71060167D01*
X85115219Y-71060291D01*
X85329133Y-70971904D01*
X85492938Y-70808383D01*
X85581699Y-70594625D01*
X85581901Y-70363171D01*
X85493514Y-70149257D01*
X85329993Y-69985452D01*
X85118560Y-69897656D01*
X85204264Y-69691260D01*
X85204466Y-69459806D01*
X85116079Y-69245892D01*
X84952558Y-69082087D01*
X84738800Y-68993326D01*
X84507346Y-68993124D01*
X84293432Y-69081511D01*
X84129627Y-69245032D01*
X84040866Y-69458790D01*
X84040664Y-69690244D01*
X84129051Y-69904158D01*
X84292572Y-70067963D01*
X84504005Y-70155759D01*
X84418301Y-70362155D01*
X84418099Y-70593609D01*
X84476558Y-70735092D01*
X84334790Y-70734968D01*
X84120876Y-70823355D01*
X83957071Y-70986876D01*
X83868310Y-71200634D01*
X83868108Y-71432088D01*
X81563256Y-71432088D01*
X81665528Y-71329993D01*
X81754289Y-71116235D01*
X81754491Y-70884781D01*
X81666104Y-70670867D01*
X81502583Y-70507062D01*
X81370625Y-70452268D01*
X81392938Y-70429993D01*
X81462553Y-70262343D01*
X81629133Y-70193514D01*
X81792938Y-70029993D01*
X81881699Y-69816235D01*
X81881901Y-69584781D01*
X81793514Y-69370867D01*
X81629993Y-69207062D01*
X81416235Y-69118301D01*
X81184781Y-69118099D01*
X80970867Y-69206486D01*
X80807062Y-69370007D01*
X80737447Y-69537657D01*
X80570867Y-69606486D01*
X80407062Y-69770007D01*
X80318301Y-69983765D01*
X80318137Y-70172074D01*
X79956057Y-69930140D01*
X79479769Y-69835400D01*
X79120231Y-69835400D01*
X78643943Y-69930140D01*
X78240166Y-70199935D01*
X77970371Y-70603712D01*
X77875631Y-71080000D01*
X77779926Y-71080000D01*
X77693514Y-70870867D01*
X77529993Y-70707062D01*
X77316235Y-70618301D01*
X77084781Y-70618099D01*
X77036462Y-70638064D01*
X77029629Y-70603712D01*
X76759834Y-70199935D01*
X76356057Y-69930140D01*
X75879769Y-69835400D01*
X75520231Y-69835400D01*
X75043943Y-69930140D01*
X74640166Y-70199935D01*
X74370371Y-70603712D01*
X74275631Y-71080000D01*
X73524369Y-71080000D01*
X73429629Y-70603712D01*
X73159834Y-70199935D01*
X72756057Y-69930140D01*
X72279769Y-69835400D01*
X71920231Y-69835400D01*
X71443943Y-69930140D01*
X71040166Y-70199935D01*
X70770371Y-70603712D01*
X70675631Y-71080000D01*
X67456000Y-71080000D01*
X67456000Y-68540000D01*
X70675631Y-68540000D01*
X70770371Y-69016288D01*
X71040166Y-69420065D01*
X71443943Y-69689860D01*
X71920231Y-69784600D01*
X72279769Y-69784600D01*
X72756057Y-69689860D01*
X73159834Y-69420065D01*
X73429629Y-69016288D01*
X73524369Y-68540000D01*
X74275631Y-68540000D01*
X74370371Y-69016288D01*
X74640166Y-69420065D01*
X75043943Y-69689860D01*
X75520231Y-69784600D01*
X75879769Y-69784600D01*
X76356057Y-69689860D01*
X76759834Y-69420065D01*
X77029629Y-69016288D01*
X77124369Y-68540000D01*
X77875631Y-68540000D01*
X77970371Y-69016288D01*
X78240166Y-69420065D01*
X78643943Y-69689860D01*
X79120231Y-69784600D01*
X79479769Y-69784600D01*
X79956057Y-69689860D01*
X80359834Y-69420065D01*
X80629629Y-69016288D01*
X80724369Y-68540000D01*
X80701322Y-68424133D01*
X80770007Y-68492938D01*
X80983765Y-68581699D01*
X81215219Y-68581901D01*
X81429133Y-68493514D01*
X81507563Y-68415219D01*
X85518099Y-68415219D01*
X85606486Y-68629133D01*
X85770007Y-68792938D01*
X85983765Y-68881699D01*
X86215219Y-68881901D01*
X86429133Y-68793514D01*
X86449893Y-68772790D01*
X86470007Y-68792938D01*
X86683765Y-68881699D01*
X86915219Y-68881901D01*
X87129133Y-68793514D01*
X87207722Y-68715061D01*
X90118900Y-68715061D01*
X90207165Y-68928680D01*
X90370460Y-69092260D01*
X90583925Y-69180898D01*
X90815061Y-69181100D01*
X91028680Y-69092835D01*
X91192260Y-68929540D01*
X91198206Y-68915219D01*
X97718099Y-68915219D01*
X97806486Y-69129133D01*
X97970007Y-69292938D01*
X98183765Y-69381699D01*
X98415219Y-69381901D01*
X98518253Y-69339329D01*
X98518099Y-69515219D01*
X98606486Y-69729133D01*
X98770007Y-69892938D01*
X98983765Y-69981699D01*
X99215219Y-69981901D01*
X99429133Y-69893514D01*
X99592938Y-69729993D01*
X99681699Y-69516235D01*
X99681901Y-69284781D01*
X99593514Y-69070867D01*
X99429993Y-68907062D01*
X99216235Y-68818301D01*
X98984781Y-68818099D01*
X98881747Y-68860671D01*
X98881797Y-68802487D01*
X109118805Y-68802487D01*
X109404547Y-69494035D01*
X109933182Y-70023594D01*
X110624231Y-70310542D01*
X111372487Y-70311195D01*
X112064035Y-70025453D01*
X112593594Y-69496818D01*
X112880542Y-68805769D01*
X112881195Y-68057513D01*
X112595453Y-67365965D01*
X112066818Y-66836406D01*
X111375769Y-66549458D01*
X110627513Y-66548805D01*
X109935965Y-66834547D01*
X109406406Y-67363182D01*
X109119458Y-68054231D01*
X109118805Y-68802487D01*
X98881797Y-68802487D01*
X98881901Y-68684781D01*
X98793514Y-68470867D01*
X98629993Y-68307062D01*
X98416235Y-68218301D01*
X98184781Y-68218099D01*
X97970867Y-68306486D01*
X97807062Y-68470007D01*
X97718301Y-68683765D01*
X97718099Y-68915219D01*
X91198206Y-68915219D01*
X91280898Y-68716075D01*
X91281100Y-68484939D01*
X91192835Y-68271320D01*
X91029540Y-68107740D01*
X90816075Y-68019102D01*
X90584939Y-68018900D01*
X90371320Y-68107165D01*
X90207740Y-68270460D01*
X90119102Y-68483925D01*
X90118900Y-68715061D01*
X87207722Y-68715061D01*
X87292938Y-68629993D01*
X87381699Y-68416235D01*
X87381901Y-68184781D01*
X87293514Y-67970867D01*
X87129993Y-67807062D01*
X86916235Y-67718301D01*
X86684781Y-67718099D01*
X86470867Y-67806486D01*
X86450107Y-67827210D01*
X86429993Y-67807062D01*
X86216235Y-67718301D01*
X85984781Y-67718099D01*
X85770867Y-67806486D01*
X85607062Y-67970007D01*
X85518301Y-68183765D01*
X85518099Y-68415219D01*
X81507563Y-68415219D01*
X81592938Y-68329993D01*
X81681699Y-68116235D01*
X81681901Y-67884781D01*
X81593514Y-67670867D01*
X81429993Y-67507062D01*
X81216235Y-67418301D01*
X80984781Y-67418099D01*
X80770867Y-67506486D01*
X80607062Y-67670007D01*
X80518301Y-67883765D01*
X80518289Y-67897080D01*
X80359834Y-67659935D01*
X79956057Y-67390140D01*
X79479769Y-67295400D01*
X79120231Y-67295400D01*
X78643943Y-67390140D01*
X78240166Y-67659935D01*
X77970371Y-68063712D01*
X77875631Y-68540000D01*
X77124369Y-68540000D01*
X77029629Y-68063712D01*
X76759834Y-67659935D01*
X76356057Y-67390140D01*
X75879769Y-67295400D01*
X75520231Y-67295400D01*
X75043943Y-67390140D01*
X74640166Y-67659935D01*
X74370371Y-68063712D01*
X74275631Y-68540000D01*
X73524369Y-68540000D01*
X73429629Y-68063712D01*
X73159834Y-67659935D01*
X72756057Y-67390140D01*
X72279769Y-67295400D01*
X71920231Y-67295400D01*
X71443943Y-67390140D01*
X71040166Y-67659935D01*
X70770371Y-68063712D01*
X70675631Y-68540000D01*
X67456000Y-68540000D01*
X67456000Y-65136400D01*
X70695536Y-65136400D01*
X70695536Y-66863600D01*
X70722103Y-67004790D01*
X70805546Y-67134465D01*
X70932866Y-67221459D01*
X71084000Y-67252064D01*
X73116000Y-67252064D01*
X73257190Y-67225497D01*
X73386865Y-67142054D01*
X73473859Y-67014734D01*
X73504464Y-66863600D01*
X73504464Y-65136400D01*
X74295536Y-65136400D01*
X74295536Y-66863600D01*
X74322103Y-67004790D01*
X74405546Y-67134465D01*
X74532866Y-67221459D01*
X74684000Y-67252064D01*
X76716000Y-67252064D01*
X76857190Y-67225497D01*
X76986865Y-67142054D01*
X77073859Y-67014734D01*
X77104464Y-66863600D01*
X77104464Y-65136400D01*
X77895536Y-65136400D01*
X77895536Y-66863600D01*
X77922103Y-67004790D01*
X78005546Y-67134465D01*
X78132866Y-67221459D01*
X78284000Y-67252064D01*
X80316000Y-67252064D01*
X80457190Y-67225497D01*
X80586865Y-67142054D01*
X80628805Y-67080672D01*
X86468108Y-67080672D01*
X86556495Y-67294586D01*
X86720016Y-67458391D01*
X86933774Y-67547152D01*
X87165228Y-67547354D01*
X87243383Y-67515061D01*
X105418900Y-67515061D01*
X105507165Y-67728680D01*
X105670460Y-67892260D01*
X105883925Y-67980898D01*
X106115061Y-67981100D01*
X106328680Y-67892835D01*
X106492260Y-67729540D01*
X106580898Y-67516075D01*
X106581100Y-67284939D01*
X106492835Y-67071320D01*
X106329540Y-66907740D01*
X106116075Y-66819102D01*
X105884939Y-66818900D01*
X105671320Y-66907165D01*
X105507740Y-67070460D01*
X105419102Y-67283925D01*
X105418900Y-67515061D01*
X87243383Y-67515061D01*
X87379142Y-67458967D01*
X87542947Y-67295446D01*
X87631708Y-67081688D01*
X87631853Y-66915219D01*
X101918099Y-66915219D01*
X102006486Y-67129133D01*
X102170007Y-67292938D01*
X102383765Y-67381699D01*
X102615219Y-67381901D01*
X102829133Y-67293514D01*
X102992938Y-67129993D01*
X103081699Y-66916235D01*
X103081901Y-66684781D01*
X102993514Y-66470867D01*
X102829993Y-66307062D01*
X102616235Y-66218301D01*
X102384781Y-66218099D01*
X102170867Y-66306486D01*
X102007062Y-66470007D01*
X101918301Y-66683765D01*
X101918099Y-66915219D01*
X87631853Y-66915219D01*
X87631910Y-66850234D01*
X87543523Y-66636320D01*
X87380002Y-66472515D01*
X87166244Y-66383754D01*
X86934790Y-66383552D01*
X86720876Y-66471939D01*
X86557071Y-66635460D01*
X86468310Y-66849218D01*
X86468108Y-67080672D01*
X80628805Y-67080672D01*
X80673859Y-67014734D01*
X80704464Y-66863600D01*
X80704464Y-66315219D01*
X85118099Y-66315219D01*
X85206486Y-66529133D01*
X85370007Y-66692938D01*
X85583765Y-66781699D01*
X85815219Y-66781901D01*
X86029133Y-66693514D01*
X86192938Y-66529993D01*
X86281699Y-66316235D01*
X86281901Y-66084781D01*
X86222596Y-65941251D01*
X86370007Y-66088918D01*
X86583765Y-66177679D01*
X86815219Y-66177881D01*
X87029133Y-66089494D01*
X87192938Y-65925973D01*
X87281699Y-65712215D01*
X87281901Y-65480761D01*
X87193514Y-65266847D01*
X87041992Y-65115061D01*
X90118900Y-65115061D01*
X90207165Y-65328680D01*
X90370460Y-65492260D01*
X90583925Y-65580898D01*
X90815061Y-65581100D01*
X91028680Y-65492835D01*
X91192260Y-65329540D01*
X91280898Y-65116075D01*
X91280898Y-65115219D01*
X92718099Y-65115219D01*
X92806486Y-65329133D01*
X92970007Y-65492938D01*
X93183765Y-65581699D01*
X93415219Y-65581901D01*
X93576602Y-65515219D01*
X96218099Y-65515219D01*
X96306486Y-65729133D01*
X96470007Y-65892938D01*
X96683765Y-65981699D01*
X96915219Y-65981901D01*
X97129133Y-65893514D01*
X97149893Y-65872790D01*
X97170007Y-65892938D01*
X97383765Y-65981699D01*
X97615219Y-65981901D01*
X97829133Y-65893514D01*
X97992938Y-65729993D01*
X98081699Y-65516235D01*
X98081874Y-65315061D01*
X100018900Y-65315061D01*
X100107165Y-65528680D01*
X100270460Y-65692260D01*
X100483925Y-65780898D01*
X100715061Y-65781100D01*
X100928680Y-65692835D01*
X101092260Y-65529540D01*
X101180898Y-65316075D01*
X101181100Y-65084939D01*
X101092835Y-64871320D01*
X100929540Y-64707740D01*
X100716075Y-64619102D01*
X100484939Y-64618900D01*
X100271320Y-64707165D01*
X100107740Y-64870460D01*
X100019102Y-65083925D01*
X100018900Y-65315061D01*
X98081874Y-65315061D01*
X98081901Y-65284781D01*
X97993514Y-65070867D01*
X97829993Y-64907062D01*
X97616235Y-64818301D01*
X97384781Y-64818099D01*
X97170867Y-64906486D01*
X97150107Y-64927210D01*
X97129993Y-64907062D01*
X96916235Y-64818301D01*
X96684781Y-64818099D01*
X96470867Y-64906486D01*
X96307062Y-65070007D01*
X96218301Y-65283765D01*
X96218099Y-65515219D01*
X93576602Y-65515219D01*
X93629133Y-65493514D01*
X93792938Y-65329993D01*
X93881699Y-65116235D01*
X93881901Y-64884781D01*
X93793514Y-64670867D01*
X93629993Y-64507062D01*
X93416235Y-64418301D01*
X93184781Y-64418099D01*
X92970867Y-64506486D01*
X92807062Y-64670007D01*
X92718301Y-64883765D01*
X92718099Y-65115219D01*
X91280898Y-65115219D01*
X91281100Y-64884939D01*
X91192835Y-64671320D01*
X91029540Y-64507740D01*
X90816075Y-64419102D01*
X90584939Y-64418900D01*
X90371320Y-64507165D01*
X90207740Y-64670460D01*
X90119102Y-64883925D01*
X90118900Y-65115061D01*
X87041992Y-65115061D01*
X87029993Y-65103042D01*
X86816235Y-65014281D01*
X86584781Y-65014079D01*
X86370867Y-65102466D01*
X86207062Y-65265987D01*
X86118301Y-65479745D01*
X86118099Y-65711199D01*
X86177404Y-65854729D01*
X86029993Y-65707062D01*
X85816235Y-65618301D01*
X85584781Y-65618099D01*
X85370867Y-65706486D01*
X85207062Y-65870007D01*
X85118301Y-66083765D01*
X85118099Y-66315219D01*
X80704464Y-66315219D01*
X80704464Y-65136400D01*
X80677897Y-64995210D01*
X80594454Y-64865535D01*
X80467134Y-64778541D01*
X80316000Y-64747936D01*
X78284000Y-64747936D01*
X78142810Y-64774503D01*
X78013135Y-64857946D01*
X77926141Y-64985266D01*
X77895536Y-65136400D01*
X77104464Y-65136400D01*
X77077897Y-64995210D01*
X76994454Y-64865535D01*
X76867134Y-64778541D01*
X76716000Y-64747936D01*
X74684000Y-64747936D01*
X74542810Y-64774503D01*
X74413135Y-64857946D01*
X74326141Y-64985266D01*
X74295536Y-65136400D01*
X73504464Y-65136400D01*
X73477897Y-64995210D01*
X73394454Y-64865535D01*
X73267134Y-64778541D01*
X73116000Y-64747936D01*
X71084000Y-64747936D01*
X70942810Y-64774503D01*
X70813135Y-64857946D01*
X70726141Y-64985266D01*
X70695536Y-65136400D01*
X67456000Y-65136400D01*
X67456000Y-61700997D01*
X67886533Y-62742966D01*
X68752475Y-63610421D01*
X69884463Y-64080464D01*
X71110160Y-64081533D01*
X71512670Y-63915219D01*
X103618099Y-63915219D01*
X103706486Y-64129133D01*
X103870007Y-64292938D01*
X104083765Y-64381699D01*
X104315219Y-64381901D01*
X104529133Y-64293514D01*
X104692938Y-64129993D01*
X104781699Y-63916235D01*
X104781901Y-63684781D01*
X104693514Y-63470867D01*
X104529993Y-63307062D01*
X104316235Y-63218301D01*
X104084781Y-63218099D01*
X103870867Y-63306486D01*
X103707062Y-63470007D01*
X103618301Y-63683765D01*
X103618099Y-63915219D01*
X71512670Y-63915219D01*
X72242966Y-63613467D01*
X73110421Y-62747525D01*
X73580464Y-61615537D01*
X73581533Y-60389840D01*
X73113467Y-59257034D01*
X72247525Y-58389579D01*
X71203352Y-57956000D01*
X105644371Y-57956000D01*
X105586463Y-57979927D01*
M02*
