G04 #@! TF.FileFunction,Soldermask,Bot*
%FSLAX46Y46*%
G04 Gerber Fmt 4.6, Leading zero omitted, Abs format (unit mm)*
G04 Created by KiCad (PCBNEW 4.0.5) date 02/11/17 17:41:13*
%MOMM*%
%LPD*%
G01*
G04 APERTURE LIST*
%ADD10C,0.100000*%
%ADD11C,5.800000*%
%ADD12R,2.432000X2.127200*%
%ADD13O,2.432000X2.127200*%
%ADD14R,2.127200X2.127200*%
%ADD15O,2.127200X2.127200*%
%ADD16R,1.200000X1.150000*%
%ADD17R,1.150000X1.200000*%
%ADD18C,1.901140*%
%ADD19C,3.399740*%
%ADD20R,0.900000X1.300000*%
%ADD21C,1.100000*%
G04 APERTURE END LIST*
D10*
D11*
X70500000Y-61000000D03*
D12*
X79300000Y-66000000D03*
D13*
X79300000Y-68540000D03*
X79300000Y-71080000D03*
X79300000Y-73620000D03*
X79300000Y-76160000D03*
X79300000Y-78700000D03*
D12*
X75700000Y-66000000D03*
D13*
X75700000Y-68540000D03*
X75700000Y-71080000D03*
X75700000Y-73620000D03*
X75700000Y-76160000D03*
X75700000Y-78700000D03*
D12*
X72100000Y-66000000D03*
D13*
X72100000Y-68540000D03*
X72100000Y-71080000D03*
X72100000Y-73620000D03*
X72100000Y-76160000D03*
X72100000Y-78700000D03*
X72100000Y-81240000D03*
X72100000Y-83780000D03*
D12*
X79300000Y-88840000D03*
D13*
X79300000Y-86300000D03*
X79300000Y-83760000D03*
X79300000Y-81220000D03*
D12*
X75700000Y-88840000D03*
D13*
X75700000Y-86300000D03*
X75700000Y-83760000D03*
X75700000Y-81220000D03*
D14*
X108140000Y-88600000D03*
D15*
X108140000Y-91140000D03*
X105600000Y-88600000D03*
X105600000Y-91140000D03*
X103060000Y-88600000D03*
X103060000Y-91140000D03*
D16*
X91850000Y-66800000D03*
X90350000Y-66800000D03*
X88250000Y-65000000D03*
X89750000Y-65000000D03*
D17*
X90200000Y-73150000D03*
X90200000Y-71650000D03*
D16*
X85750000Y-89700000D03*
X84250000Y-89700000D03*
D17*
X87200000Y-84050000D03*
X87200000Y-85550000D03*
D18*
X108290000Y-71500000D03*
X108290000Y-74000000D03*
X108290000Y-76000000D03*
X108290000Y-78500000D03*
D19*
X111000000Y-68430000D03*
X111000000Y-81570000D03*
D20*
X95950000Y-65400000D03*
X94450000Y-65400000D03*
X98150000Y-65400000D03*
X99650000Y-65400000D03*
X104850000Y-79000000D03*
X103350000Y-79000000D03*
X104850000Y-77000000D03*
X103350000Y-77000000D03*
D11*
X70500000Y-89500000D03*
X113500000Y-89500000D03*
X113500000Y-61000000D03*
D21*
X106000000Y-60400000D03*
X106000000Y-58600000D03*
M02*
