G04 #@! TF.FileFunction,Soldermask,Top*
%FSLAX46Y46*%
G04 Gerber Fmt 4.6, Leading zero omitted, Abs format (unit mm)*
G04 Created by KiCad (PCBNEW 4.0.5) date 02/11/17 17:41:13*
%MOMM*%
%LPD*%
G01*
G04 APERTURE LIST*
%ADD10C,0.100000*%
%ADD11C,5.800000*%
%ADD12R,2.432000X2.127200*%
%ADD13O,2.432000X2.127200*%
%ADD14R,1.797000X0.831800*%
%ADD15R,2.127200X2.127200*%
%ADD16O,2.127200X2.127200*%
%ADD17R,1.150000X0.800000*%
%ADD18R,1.150000X0.700000*%
%ADD19R,1.200000X1.150000*%
%ADD20R,1.150000X1.200000*%
%ADD21R,1.400000X1.650000*%
%ADD22R,0.900000X1.300000*%
%ADD23R,1.310000X1.620000*%
%ADD24C,1.901140*%
%ADD25C,3.399740*%
%ADD26R,1.900000X4.600000*%
%ADD27R,2.000000X0.950000*%
%ADD28R,0.950000X2.000000*%
%ADD29R,1.460000X1.050000*%
%ADD30R,1.050000X1.460000*%
%ADD31R,3.000000X2.660000*%
%ADD32R,1.800000X1.450000*%
%ADD33C,1.100000*%
G04 APERTURE END LIST*
D10*
D11*
X70500000Y-61000000D03*
D12*
X79300000Y-66000000D03*
D13*
X79300000Y-68540000D03*
X79300000Y-71080000D03*
X79300000Y-73620000D03*
X79300000Y-76160000D03*
X79300000Y-78700000D03*
D12*
X75700000Y-66000000D03*
D13*
X75700000Y-68540000D03*
X75700000Y-71080000D03*
X75700000Y-73620000D03*
X75700000Y-76160000D03*
X75700000Y-78700000D03*
D12*
X72100000Y-66000000D03*
D13*
X72100000Y-68540000D03*
X72100000Y-71080000D03*
X72100000Y-73620000D03*
X72100000Y-76160000D03*
X72100000Y-78700000D03*
X72100000Y-81240000D03*
X72100000Y-83780000D03*
D12*
X79300000Y-88840000D03*
D13*
X79300000Y-86300000D03*
X79300000Y-83760000D03*
X79300000Y-81220000D03*
D12*
X75700000Y-88840000D03*
D13*
X75700000Y-86300000D03*
X75700000Y-83760000D03*
X75700000Y-81220000D03*
D14*
X82606000Y-66969600D03*
X82606000Y-67604600D03*
X82606000Y-68265000D03*
X82606000Y-68900000D03*
X82606000Y-69560400D03*
X82606000Y-70208100D03*
X82606000Y-70855800D03*
X88194000Y-70855800D03*
X88194000Y-70208100D03*
X88194000Y-69560400D03*
X88194000Y-68900000D03*
X88194000Y-68252300D03*
X88194000Y-67604600D03*
X88194000Y-66956900D03*
X82606000Y-72269600D03*
X82606000Y-72904600D03*
X82606000Y-73565000D03*
X82606000Y-74200000D03*
X82606000Y-74860400D03*
X82606000Y-75508100D03*
X82606000Y-76155800D03*
X88194000Y-76155800D03*
X88194000Y-75508100D03*
X88194000Y-74860400D03*
X88194000Y-74200000D03*
X88194000Y-73552300D03*
X88194000Y-72904600D03*
X88194000Y-72256900D03*
D15*
X108140000Y-88600000D03*
D16*
X108140000Y-91140000D03*
X105600000Y-88600000D03*
X105600000Y-91140000D03*
X103060000Y-88600000D03*
X103060000Y-91140000D03*
D17*
X85675000Y-84000000D03*
D18*
X85675000Y-83450000D03*
X85675000Y-82950000D03*
D17*
X85675000Y-82400000D03*
X82925000Y-84000000D03*
D18*
X82925000Y-82950000D03*
X82925000Y-83450000D03*
D17*
X82925000Y-82400000D03*
D19*
X103550000Y-67400000D03*
X105050000Y-67400000D03*
X103550000Y-78600000D03*
X105050000Y-78600000D03*
D20*
X90300000Y-85350000D03*
X90300000Y-83850000D03*
D19*
X100000000Y-78600000D03*
X101500000Y-78600000D03*
X98350000Y-81200000D03*
X96850000Y-81200000D03*
X100150000Y-88200000D03*
X98650000Y-88200000D03*
D21*
X100100000Y-90800000D03*
X98100000Y-90800000D03*
D19*
X102750000Y-81000000D03*
X104250000Y-81000000D03*
D22*
X102550000Y-64900000D03*
X104050000Y-64900000D03*
D23*
X100135000Y-85400000D03*
X96865000Y-85400000D03*
D24*
X108290000Y-71500000D03*
X108290000Y-74000000D03*
X108290000Y-76000000D03*
X108290000Y-78500000D03*
D25*
X111000000Y-68430000D03*
X111000000Y-81570000D03*
D26*
X92350000Y-89300000D03*
X94980000Y-89300000D03*
D22*
X108050000Y-64900000D03*
X106550000Y-64900000D03*
X98350000Y-83200000D03*
X96850000Y-83200000D03*
X94750000Y-81200000D03*
X93250000Y-81200000D03*
X87150000Y-80400000D03*
X88650000Y-80400000D03*
D27*
X92050000Y-69000000D03*
X92050000Y-69800000D03*
X92050000Y-70600000D03*
X92050000Y-71400000D03*
X92050000Y-72200000D03*
X92050000Y-73000000D03*
X92050000Y-73800000D03*
X92050000Y-74600000D03*
D28*
X93500000Y-76050000D03*
X94300000Y-76050000D03*
X95100000Y-76050000D03*
X95900000Y-76050000D03*
X96700000Y-76050000D03*
X97500000Y-76050000D03*
X98300000Y-76050000D03*
X99100000Y-76050000D03*
D27*
X100550000Y-74600000D03*
X100550000Y-73800000D03*
X100550000Y-73000000D03*
X100550000Y-72200000D03*
X100550000Y-71400000D03*
X100550000Y-70600000D03*
X100550000Y-69800000D03*
X100550000Y-69000000D03*
D28*
X99100000Y-67550000D03*
X98300000Y-67550000D03*
X97500000Y-67550000D03*
X96700000Y-67550000D03*
X95900000Y-67550000D03*
X95100000Y-67550000D03*
X94300000Y-67550000D03*
X93500000Y-67550000D03*
D29*
X94800000Y-85550000D03*
X94800000Y-84600000D03*
X94800000Y-83650000D03*
X92600000Y-83650000D03*
X92600000Y-85550000D03*
D30*
X102550000Y-85400000D03*
X103500000Y-85400000D03*
X104450000Y-85400000D03*
X104450000Y-83200000D03*
X102550000Y-83200000D03*
D17*
X85675000Y-87800000D03*
D18*
X85675000Y-87250000D03*
X85675000Y-86750000D03*
D17*
X85675000Y-86200000D03*
X82925000Y-87800000D03*
D18*
X82925000Y-86750000D03*
X82925000Y-87250000D03*
D17*
X82925000Y-86200000D03*
D31*
X104300000Y-70570000D03*
X104300000Y-75230000D03*
D11*
X70500000Y-89500000D03*
X113500000Y-89500000D03*
X113500000Y-61000000D03*
D32*
X104200000Y-60225000D03*
X107800000Y-60225000D03*
X104200000Y-58775000D03*
X107800000Y-58775000D03*
D33*
X106000000Y-60400000D03*
X106000000Y-58600000D03*
M02*
