G75*
%MOIN*%
%OFA0B0*%
%FSLAX24Y24*%
%IPPOS*%
%LPD*%
%AMOC8*
5,1,8,0,0,1.08239X$1,22.5*
%
%ADD10C,0.0000*%
%ADD11C,0.0520*%
%ADD12C,0.0515*%
%ADD13C,0.0700*%
%ADD14C,0.0600*%
%ADD15OC8,0.0600*%
%ADD16C,0.0560*%
%ADD17C,0.1300*%
%ADD18C,0.0240*%
%ADD19C,0.0241*%
%ADD20C,0.0317*%
%ADD21C,0.0160*%
%ADD22C,0.0100*%
%ADD23C,0.0320*%
%ADD24C,0.0356*%
D10*
X000389Y000891D02*
X000389Y027269D01*
X024011Y027269D01*
X024011Y000891D01*
X000389Y000891D01*
X001333Y005615D02*
X001335Y005665D01*
X001341Y005715D01*
X001351Y005764D01*
X001365Y005812D01*
X001382Y005859D01*
X001403Y005904D01*
X001428Y005948D01*
X001456Y005989D01*
X001488Y006028D01*
X001522Y006065D01*
X001559Y006099D01*
X001599Y006129D01*
X001641Y006156D01*
X001685Y006180D01*
X001731Y006201D01*
X001778Y006217D01*
X001826Y006230D01*
X001876Y006239D01*
X001925Y006244D01*
X001976Y006245D01*
X002026Y006242D01*
X002075Y006235D01*
X002124Y006224D01*
X002172Y006209D01*
X002218Y006191D01*
X002263Y006169D01*
X002306Y006143D01*
X002347Y006114D01*
X002386Y006082D01*
X002422Y006047D01*
X002454Y006009D01*
X002484Y005969D01*
X002511Y005926D01*
X002534Y005882D01*
X002553Y005836D01*
X002569Y005788D01*
X002581Y005739D01*
X002589Y005690D01*
X002593Y005640D01*
X002593Y005590D01*
X002589Y005540D01*
X002581Y005491D01*
X002569Y005442D01*
X002553Y005394D01*
X002534Y005348D01*
X002511Y005304D01*
X002484Y005261D01*
X002454Y005221D01*
X002422Y005183D01*
X002386Y005148D01*
X002347Y005116D01*
X002306Y005087D01*
X002263Y005061D01*
X002218Y005039D01*
X002172Y005021D01*
X002124Y005006D01*
X002075Y004995D01*
X002026Y004988D01*
X001976Y004985D01*
X001925Y004986D01*
X001876Y004991D01*
X001826Y005000D01*
X001778Y005013D01*
X001731Y005029D01*
X001685Y005050D01*
X001641Y005074D01*
X001599Y005101D01*
X001559Y005131D01*
X001522Y005165D01*
X001488Y005202D01*
X001456Y005241D01*
X001428Y005282D01*
X001403Y005326D01*
X001382Y005371D01*
X001365Y005418D01*
X001351Y005466D01*
X001341Y005515D01*
X001335Y005565D01*
X001333Y005615D01*
X001333Y025694D02*
X001335Y025744D01*
X001341Y025794D01*
X001351Y025843D01*
X001365Y025891D01*
X001382Y025938D01*
X001403Y025983D01*
X001428Y026027D01*
X001456Y026068D01*
X001488Y026107D01*
X001522Y026144D01*
X001559Y026178D01*
X001599Y026208D01*
X001641Y026235D01*
X001685Y026259D01*
X001731Y026280D01*
X001778Y026296D01*
X001826Y026309D01*
X001876Y026318D01*
X001925Y026323D01*
X001976Y026324D01*
X002026Y026321D01*
X002075Y026314D01*
X002124Y026303D01*
X002172Y026288D01*
X002218Y026270D01*
X002263Y026248D01*
X002306Y026222D01*
X002347Y026193D01*
X002386Y026161D01*
X002422Y026126D01*
X002454Y026088D01*
X002484Y026048D01*
X002511Y026005D01*
X002534Y025961D01*
X002553Y025915D01*
X002569Y025867D01*
X002581Y025818D01*
X002589Y025769D01*
X002593Y025719D01*
X002593Y025669D01*
X002589Y025619D01*
X002581Y025570D01*
X002569Y025521D01*
X002553Y025473D01*
X002534Y025427D01*
X002511Y025383D01*
X002484Y025340D01*
X002454Y025300D01*
X002422Y025262D01*
X002386Y025227D01*
X002347Y025195D01*
X002306Y025166D01*
X002263Y025140D01*
X002218Y025118D01*
X002172Y025100D01*
X002124Y025085D01*
X002075Y025074D01*
X002026Y025067D01*
X001976Y025064D01*
X001925Y025065D01*
X001876Y025070D01*
X001826Y025079D01*
X001778Y025092D01*
X001731Y025108D01*
X001685Y025129D01*
X001641Y025153D01*
X001599Y025180D01*
X001559Y025210D01*
X001522Y025244D01*
X001488Y025281D01*
X001456Y025320D01*
X001428Y025361D01*
X001403Y025405D01*
X001382Y025450D01*
X001365Y025497D01*
X001351Y025545D01*
X001341Y025594D01*
X001335Y025644D01*
X001333Y025694D01*
X021806Y025694D02*
X021808Y025744D01*
X021814Y025794D01*
X021824Y025843D01*
X021838Y025891D01*
X021855Y025938D01*
X021876Y025983D01*
X021901Y026027D01*
X021929Y026068D01*
X021961Y026107D01*
X021995Y026144D01*
X022032Y026178D01*
X022072Y026208D01*
X022114Y026235D01*
X022158Y026259D01*
X022204Y026280D01*
X022251Y026296D01*
X022299Y026309D01*
X022349Y026318D01*
X022398Y026323D01*
X022449Y026324D01*
X022499Y026321D01*
X022548Y026314D01*
X022597Y026303D01*
X022645Y026288D01*
X022691Y026270D01*
X022736Y026248D01*
X022779Y026222D01*
X022820Y026193D01*
X022859Y026161D01*
X022895Y026126D01*
X022927Y026088D01*
X022957Y026048D01*
X022984Y026005D01*
X023007Y025961D01*
X023026Y025915D01*
X023042Y025867D01*
X023054Y025818D01*
X023062Y025769D01*
X023066Y025719D01*
X023066Y025669D01*
X023062Y025619D01*
X023054Y025570D01*
X023042Y025521D01*
X023026Y025473D01*
X023007Y025427D01*
X022984Y025383D01*
X022957Y025340D01*
X022927Y025300D01*
X022895Y025262D01*
X022859Y025227D01*
X022820Y025195D01*
X022779Y025166D01*
X022736Y025140D01*
X022691Y025118D01*
X022645Y025100D01*
X022597Y025085D01*
X022548Y025074D01*
X022499Y025067D01*
X022449Y025064D01*
X022398Y025065D01*
X022349Y025070D01*
X022299Y025079D01*
X022251Y025092D01*
X022204Y025108D01*
X022158Y025129D01*
X022114Y025153D01*
X022072Y025180D01*
X022032Y025210D01*
X021995Y025244D01*
X021961Y025281D01*
X021929Y025320D01*
X021901Y025361D01*
X021876Y025405D01*
X021855Y025450D01*
X021838Y025497D01*
X021824Y025545D01*
X021814Y025594D01*
X021808Y025644D01*
X021806Y025694D01*
X021806Y002859D02*
X021808Y002909D01*
X021814Y002959D01*
X021824Y003008D01*
X021838Y003056D01*
X021855Y003103D01*
X021876Y003148D01*
X021901Y003192D01*
X021929Y003233D01*
X021961Y003272D01*
X021995Y003309D01*
X022032Y003343D01*
X022072Y003373D01*
X022114Y003400D01*
X022158Y003424D01*
X022204Y003445D01*
X022251Y003461D01*
X022299Y003474D01*
X022349Y003483D01*
X022398Y003488D01*
X022449Y003489D01*
X022499Y003486D01*
X022548Y003479D01*
X022597Y003468D01*
X022645Y003453D01*
X022691Y003435D01*
X022736Y003413D01*
X022779Y003387D01*
X022820Y003358D01*
X022859Y003326D01*
X022895Y003291D01*
X022927Y003253D01*
X022957Y003213D01*
X022984Y003170D01*
X023007Y003126D01*
X023026Y003080D01*
X023042Y003032D01*
X023054Y002983D01*
X023062Y002934D01*
X023066Y002884D01*
X023066Y002834D01*
X023062Y002784D01*
X023054Y002735D01*
X023042Y002686D01*
X023026Y002638D01*
X023007Y002592D01*
X022984Y002548D01*
X022957Y002505D01*
X022927Y002465D01*
X022895Y002427D01*
X022859Y002392D01*
X022820Y002360D01*
X022779Y002331D01*
X022736Y002305D01*
X022691Y002283D01*
X022645Y002265D01*
X022597Y002250D01*
X022548Y002239D01*
X022499Y002232D01*
X022449Y002229D01*
X022398Y002230D01*
X022349Y002235D01*
X022299Y002244D01*
X022251Y002257D01*
X022204Y002273D01*
X022158Y002294D01*
X022114Y002318D01*
X022072Y002345D01*
X022032Y002375D01*
X021995Y002409D01*
X021961Y002446D01*
X021929Y002485D01*
X021901Y002526D01*
X021876Y002570D01*
X021855Y002615D01*
X021838Y002662D01*
X021824Y002710D01*
X021814Y002759D01*
X021808Y002809D01*
X021806Y002859D01*
D11*
X012510Y020576D03*
X010610Y020576D03*
D12*
X010133Y025436D02*
X010133Y025951D01*
X008755Y025951D02*
X008755Y025436D01*
X007377Y025436D02*
X007377Y025951D01*
X005999Y025951D02*
X005999Y025436D01*
X004621Y025436D02*
X004621Y025951D01*
X002172Y023233D02*
X001657Y023233D01*
X001657Y021855D02*
X002172Y021855D01*
X002172Y020477D02*
X001657Y020477D01*
X001657Y019099D02*
X002172Y019099D01*
X002172Y017721D02*
X001657Y017721D01*
X001657Y016343D02*
X002172Y016343D01*
X002172Y014965D02*
X001657Y014965D01*
X001657Y013587D02*
X002172Y013587D01*
X002172Y012209D02*
X001657Y012209D01*
X001657Y010831D02*
X002172Y010831D01*
X002172Y009454D02*
X001657Y009454D01*
X001657Y008076D02*
X002172Y008076D01*
X002849Y002723D02*
X002849Y002208D01*
X001471Y002208D02*
X001471Y002723D01*
X004227Y002723D02*
X004227Y002208D01*
X005605Y002208D02*
X005605Y002723D01*
X006983Y002723D02*
X006983Y002208D01*
X008361Y002208D02*
X008361Y002723D01*
X009739Y002723D02*
X009739Y002208D01*
X011117Y002208D02*
X011117Y002723D01*
X012495Y002723D02*
X012495Y002208D01*
X013873Y002208D02*
X013873Y002723D01*
X015251Y002723D02*
X015251Y002208D01*
X016629Y002208D02*
X016629Y002723D01*
X018204Y002723D02*
X018204Y002208D01*
X019581Y002208D02*
X019581Y002723D01*
X019778Y025436D02*
X019778Y025951D01*
X018400Y025951D02*
X018400Y025436D01*
X017022Y025436D02*
X017022Y025951D01*
X015644Y025951D02*
X015644Y025436D01*
X014267Y025436D02*
X014267Y025951D01*
X012889Y025951D02*
X012889Y025436D01*
X011511Y025436D02*
X011511Y025951D01*
D13*
X020117Y023331D02*
X020817Y023331D01*
X020817Y022347D02*
X020117Y022347D01*
X020117Y021363D02*
X020817Y021363D01*
X020817Y020379D02*
X020117Y020379D01*
X020117Y019394D02*
X020817Y019394D01*
X020817Y018410D02*
X020117Y018410D01*
X020117Y017426D02*
X020817Y017426D01*
X020817Y016442D02*
X020117Y016442D01*
X020117Y015457D02*
X020817Y015457D01*
X020817Y014473D02*
X020117Y014473D01*
X020117Y013489D02*
X020817Y013489D01*
X020817Y012505D02*
X020117Y012505D01*
X020117Y011520D02*
X020817Y011520D01*
D14*
X017137Y022650D03*
D15*
X017137Y021650D03*
X016137Y021650D03*
X015137Y021650D03*
X015137Y022650D03*
X016137Y022650D03*
X009156Y009083D03*
X009156Y008083D03*
X009156Y007083D03*
X009156Y006083D03*
X008156Y006083D03*
X008156Y007083D03*
X008156Y008083D03*
X008156Y009083D03*
D16*
X018113Y008076D03*
X018893Y008076D03*
X018893Y007091D03*
X018113Y007091D03*
D17*
X019963Y005213D03*
X019963Y009953D03*
D18*
X019659Y009650D01*
X016530Y009650D01*
X016270Y009954D02*
X010367Y009954D01*
X010160Y010161D02*
X010053Y010268D01*
X009913Y010326D01*
X008943Y010326D01*
X008803Y010268D01*
X008156Y009621D01*
X008001Y009776D01*
X007862Y009834D01*
X002467Y009834D01*
X002442Y009858D01*
X002267Y009931D01*
X001562Y009931D01*
X001386Y009858D01*
X001252Y009724D01*
X001179Y009549D01*
X001179Y009359D01*
X001252Y009183D01*
X001386Y009049D01*
X001562Y008976D01*
X002267Y008976D01*
X002442Y009049D01*
X002467Y009074D01*
X007629Y009074D01*
X007636Y009066D01*
X007636Y008868D01*
X007921Y008583D01*
X007721Y008383D01*
X002539Y008383D01*
X002442Y008480D01*
X002267Y008553D01*
X001562Y008553D01*
X001386Y008480D01*
X001252Y008346D01*
X001179Y008171D01*
X001179Y007981D01*
X001252Y007805D01*
X001386Y007671D01*
X001562Y007598D01*
X002267Y007598D01*
X002442Y007671D01*
X002555Y007783D01*
X007721Y007783D01*
X007921Y007583D01*
X007636Y007299D01*
X007636Y007083D01*
X007636Y006868D01*
X007921Y006583D01*
X007636Y006299D01*
X007636Y006083D01*
X007636Y005868D01*
X007941Y005563D01*
X008156Y005563D01*
X008156Y006083D01*
X008156Y006083D01*
X007636Y006083D01*
X008156Y006083D01*
X008156Y006083D01*
X008156Y005563D01*
X008372Y005563D01*
X008656Y005848D01*
X008941Y005563D01*
X009372Y005563D01*
X009676Y005868D01*
X009676Y006299D01*
X009392Y006583D01*
X009676Y006868D01*
X009676Y007283D01*
X012764Y007283D01*
X012805Y007242D01*
X012805Y007213D01*
X012863Y007074D01*
X012969Y006967D01*
X013109Y006910D01*
X013259Y006910D01*
X013398Y006967D01*
X013505Y007074D01*
X013548Y007178D01*
X013551Y007171D01*
X013658Y007064D01*
X013797Y007007D01*
X013948Y007007D01*
X014088Y007064D01*
X014195Y007171D01*
X014253Y007311D01*
X014253Y007524D01*
X014424Y007696D01*
X017785Y007696D01*
X017829Y007652D01*
X017994Y007583D01*
X017829Y007515D01*
X017689Y007375D01*
X017613Y007191D01*
X017613Y006992D01*
X017689Y006808D01*
X017829Y006667D01*
X018013Y006591D01*
X018212Y006591D01*
X018396Y006667D01*
X018503Y006774D01*
X018609Y006667D01*
X018793Y006591D01*
X018992Y006591D01*
X019176Y006667D01*
X019316Y006808D01*
X019393Y006992D01*
X019393Y007191D01*
X019316Y007375D01*
X019176Y007515D01*
X019003Y007587D01*
X019010Y007588D01*
X019084Y007612D01*
X019155Y007648D01*
X019218Y007694D01*
X019274Y007750D01*
X019320Y007814D01*
X019356Y007884D01*
X019380Y007959D01*
X019393Y008036D01*
X019393Y008076D01*
X019393Y008115D01*
X019380Y008193D01*
X019356Y008268D01*
X019320Y008338D01*
X019274Y008401D01*
X019218Y008457D01*
X019155Y008503D01*
X019084Y008539D01*
X019010Y008563D01*
X018932Y008576D01*
X018893Y008576D01*
X018893Y008076D01*
X019393Y008076D01*
X018893Y008076D01*
X018893Y008076D01*
X018893Y008076D01*
X018893Y008576D01*
X018853Y008576D01*
X018775Y008563D01*
X018701Y008539D01*
X018630Y008503D01*
X018567Y008457D01*
X018511Y008401D01*
X018504Y008391D01*
X018396Y008499D01*
X018212Y008576D01*
X018013Y008576D01*
X017829Y008499D01*
X017785Y008456D01*
X014191Y008456D01*
X014051Y008398D01*
X013944Y008291D01*
X013551Y007897D01*
X013493Y007757D01*
X013493Y007514D01*
X013398Y007609D01*
X013259Y007667D01*
X013230Y007667D01*
X013059Y007838D01*
X012948Y007883D01*
X011863Y007883D01*
X011891Y007951D01*
X011891Y008348D01*
X011833Y008488D01*
X010160Y010161D01*
X010128Y010192D02*
X019120Y010192D01*
X019093Y010127D02*
X019093Y009990D01*
X016750Y009990D01*
X016610Y010049D01*
X016451Y010049D01*
X016305Y009988D01*
X016193Y009876D01*
X016132Y009730D01*
X016132Y009571D01*
X016193Y009425D01*
X016305Y009313D01*
X016451Y009252D01*
X016610Y009252D01*
X016750Y009310D01*
X019375Y009310D01*
X019470Y009216D01*
X019789Y009083D01*
X020136Y009083D01*
X020455Y009216D01*
X020700Y009461D01*
X020833Y009780D01*
X020833Y010127D01*
X020700Y010446D01*
X020455Y010691D01*
X020136Y010823D01*
X019789Y010823D01*
X019470Y010691D01*
X019225Y010446D01*
X019093Y010127D01*
X019218Y010431D02*
X002446Y010431D01*
X002442Y010427D02*
X002576Y010561D01*
X002649Y010737D01*
X002649Y010926D01*
X002576Y011102D01*
X002442Y011236D01*
X002267Y011309D01*
X001562Y011309D01*
X001386Y011236D01*
X001252Y011102D01*
X001179Y010926D01*
X001179Y010737D01*
X001252Y010561D01*
X001386Y010427D01*
X001562Y010354D01*
X002267Y010354D01*
X002442Y010427D01*
X002621Y010669D02*
X019448Y010669D01*
X019794Y011037D02*
X020004Y010950D01*
X020931Y010950D01*
X021140Y011037D01*
X021301Y011198D01*
X021387Y011407D01*
X021387Y011634D01*
X021301Y011843D01*
X021140Y012004D01*
X021119Y012013D01*
X021140Y012022D01*
X021301Y012182D01*
X021387Y012391D01*
X021387Y012618D01*
X021301Y012828D01*
X021140Y012988D01*
X021119Y012997D01*
X021140Y013006D01*
X021301Y013166D01*
X021387Y013376D01*
X021387Y013602D01*
X021301Y013812D01*
X021140Y013972D01*
X021119Y013981D01*
X021140Y013990D01*
X021301Y014150D01*
X021387Y014360D01*
X021387Y014587D01*
X021301Y014796D01*
X021140Y014956D01*
X021119Y014965D01*
X021140Y014974D01*
X021301Y015135D01*
X021387Y015344D01*
X021387Y015571D01*
X021301Y015780D01*
X021140Y015941D01*
X021119Y015950D01*
X021140Y015959D01*
X021301Y016119D01*
X021387Y016328D01*
X021387Y016555D01*
X021301Y016765D01*
X021140Y016925D01*
X021112Y016937D01*
X021116Y016938D01*
X021189Y016991D01*
X021252Y017055D01*
X021305Y017127D01*
X021346Y017207D01*
X021373Y017293D01*
X021387Y017381D01*
X021387Y017426D01*
X021387Y017471D01*
X021373Y017559D01*
X021346Y017645D01*
X021305Y017725D01*
X021252Y017797D01*
X021189Y017861D01*
X021116Y017913D01*
X021112Y017915D01*
X021140Y017927D01*
X021301Y018087D01*
X021387Y018297D01*
X021387Y018524D01*
X021301Y018733D01*
X021140Y018893D01*
X021119Y018902D01*
X021140Y018911D01*
X021301Y019072D01*
X021387Y019281D01*
X021387Y019508D01*
X021301Y019717D01*
X021140Y019878D01*
X021119Y019887D01*
X021140Y019896D01*
X021301Y020056D01*
X021387Y020265D01*
X021387Y020492D01*
X021301Y020702D01*
X021140Y020862D01*
X021119Y020871D01*
X021140Y020880D01*
X021301Y021040D01*
X021387Y021250D01*
X021387Y021476D01*
X021301Y021686D01*
X021140Y021846D01*
X021119Y021855D01*
X021140Y021864D01*
X021301Y022024D01*
X021387Y022234D01*
X021387Y022461D01*
X021301Y022670D01*
X021140Y022830D01*
X021119Y022839D01*
X021140Y022848D01*
X021301Y023009D01*
X021387Y023218D01*
X021387Y023445D01*
X021301Y023654D01*
X021140Y023815D01*
X020931Y023901D01*
X020004Y023901D01*
X019794Y023815D01*
X019634Y023654D01*
X019547Y023445D01*
X019547Y023218D01*
X019634Y023009D01*
X019794Y022848D01*
X019816Y022839D01*
X019794Y022830D01*
X019634Y022670D01*
X019547Y022461D01*
X019547Y022234D01*
X019634Y022024D01*
X019794Y021864D01*
X019816Y021855D01*
X019794Y021846D01*
X019634Y021686D01*
X019547Y021476D01*
X019547Y021250D01*
X019634Y021040D01*
X019794Y020880D01*
X019816Y020871D01*
X019794Y020862D01*
X019634Y020702D01*
X019547Y020492D01*
X019547Y020265D01*
X019634Y020056D01*
X019794Y019896D01*
X019816Y019887D01*
X019794Y019878D01*
X019634Y019717D01*
X019547Y019508D01*
X019547Y019281D01*
X019634Y019072D01*
X019794Y018911D01*
X019816Y018902D01*
X019794Y018893D01*
X019634Y018733D01*
X019547Y018524D01*
X019547Y018297D01*
X019634Y018087D01*
X019794Y017927D01*
X019822Y017915D01*
X019819Y017913D01*
X019746Y017861D01*
X019683Y017797D01*
X019630Y017725D01*
X019589Y017645D01*
X019561Y017559D01*
X019547Y017471D01*
X019547Y017426D01*
X019547Y017381D01*
X019561Y017293D01*
X019589Y017207D01*
X019630Y017127D01*
X019683Y017055D01*
X019746Y016991D01*
X019819Y016938D01*
X019822Y016937D01*
X019794Y016925D01*
X019634Y016765D01*
X019547Y016555D01*
X019547Y016328D01*
X019634Y016119D01*
X019794Y015959D01*
X019816Y015950D01*
X019794Y015941D01*
X019634Y015780D01*
X019547Y015571D01*
X019547Y015344D01*
X019634Y015135D01*
X019794Y014974D01*
X019816Y014965D01*
X019794Y014956D01*
X019634Y014796D01*
X019547Y014587D01*
X019547Y014360D01*
X019634Y014150D01*
X019794Y013990D01*
X019816Y013981D01*
X019794Y013972D01*
X019634Y013812D01*
X019547Y013602D01*
X019547Y013376D01*
X019634Y013166D01*
X019794Y013006D01*
X019816Y012997D01*
X019794Y012988D01*
X019634Y012828D01*
X019547Y012618D01*
X019547Y012391D01*
X019634Y012182D01*
X019794Y012022D01*
X019816Y012013D01*
X019794Y012004D01*
X019634Y011843D01*
X019547Y011634D01*
X019547Y011407D01*
X019634Y011198D01*
X019794Y011037D01*
X019686Y011146D02*
X002532Y011146D01*
X002649Y010908D02*
X023791Y010908D01*
X023791Y011146D02*
X021249Y011146D01*
X021378Y011385D02*
X023791Y011385D01*
X023791Y011623D02*
X021387Y011623D01*
X021282Y011862D02*
X023791Y011862D01*
X023791Y012100D02*
X021219Y012100D01*
X021365Y012339D02*
X023791Y012339D01*
X023791Y012577D02*
X021387Y012577D01*
X021306Y012816D02*
X023791Y012816D01*
X023791Y013054D02*
X021189Y013054D01*
X021353Y013293D02*
X023791Y013293D01*
X023791Y013531D02*
X021387Y013531D01*
X021318Y013770D02*
X023791Y013770D01*
X023791Y014008D02*
X021158Y014008D01*
X021340Y014247D02*
X023791Y014247D01*
X023791Y014485D02*
X021387Y014485D01*
X021331Y014724D02*
X023791Y014724D01*
X023791Y014962D02*
X021127Y014962D01*
X021328Y015201D02*
X023791Y015201D01*
X023791Y015439D02*
X021387Y015439D01*
X021343Y015678D02*
X023791Y015678D01*
X023791Y015916D02*
X021165Y015916D01*
X021315Y016155D02*
X023791Y016155D01*
X023791Y016393D02*
X021387Y016393D01*
X021356Y016632D02*
X023791Y016632D01*
X023791Y016870D02*
X021195Y016870D01*
X021291Y017109D02*
X023791Y017109D01*
X023791Y017347D02*
X021382Y017347D01*
X021387Y017426D02*
X020467Y017426D01*
X019547Y017426D01*
X020467Y017426D01*
X020467Y017426D01*
X021387Y017426D01*
X021365Y017586D02*
X023791Y017586D01*
X023791Y017824D02*
X021225Y017824D01*
X021276Y018063D02*
X023791Y018063D01*
X023791Y018301D02*
X021387Y018301D01*
X021381Y018540D02*
X023791Y018540D01*
X023791Y018778D02*
X021256Y018778D01*
X021246Y019017D02*
X023791Y019017D01*
X023791Y019255D02*
X021377Y019255D01*
X021387Y019494D02*
X023791Y019494D01*
X023791Y019732D02*
X021286Y019732D01*
X021215Y019971D02*
X023791Y019971D01*
X023791Y020209D02*
X021364Y020209D01*
X021387Y020448D02*
X023791Y020448D01*
X023791Y020686D02*
X021307Y020686D01*
X021185Y020925D02*
X023791Y020925D01*
X023791Y021163D02*
X021351Y021163D01*
X021387Y021402D02*
X023791Y021402D01*
X023791Y021640D02*
X021320Y021640D01*
X021155Y021879D02*
X023791Y021879D01*
X023791Y022117D02*
X021339Y022117D01*
X021387Y022356D02*
X023791Y022356D01*
X023791Y022594D02*
X021332Y022594D01*
X021135Y022833D02*
X023791Y022833D01*
X023791Y023071D02*
X021326Y023071D01*
X021387Y023310D02*
X023791Y023310D01*
X023791Y023548D02*
X021345Y023548D01*
X021168Y023787D02*
X023791Y023787D01*
X023791Y024025D02*
X023147Y024025D01*
X023192Y024038D02*
X023628Y024318D01*
X023791Y024506D01*
X023791Y004046D01*
X023628Y004235D01*
X023628Y004235D01*
X023192Y004515D01*
X022695Y004661D01*
X022177Y004661D01*
X021680Y004515D01*
X021680Y004515D01*
X021244Y004235D01*
X020905Y003843D01*
X020690Y003372D01*
X020690Y003372D01*
X020616Y002859D01*
X020690Y002346D01*
X020905Y001875D01*
X021244Y001484D01*
X021680Y001204D01*
X021996Y001111D01*
X000609Y001111D01*
X000609Y004428D01*
X000772Y004239D01*
X001207Y003959D01*
X001207Y003959D01*
X001704Y003813D01*
X002222Y003813D01*
X002719Y003959D01*
X002719Y003959D01*
X003155Y004239D01*
X003155Y004239D01*
X003155Y004239D01*
X003494Y004631D01*
X003710Y005102D01*
X003710Y005102D01*
X003783Y005615D01*
X003710Y006128D01*
X003494Y006599D01*
X003155Y006990D01*
X002719Y007270D01*
X002222Y007416D01*
X001704Y007416D01*
X001207Y007270D01*
X000772Y006990D01*
X000609Y006802D01*
X000609Y024506D01*
X000772Y024318D01*
X001207Y024038D01*
X001207Y024038D01*
X001704Y023892D01*
X002222Y023892D01*
X002719Y024038D01*
X002719Y024038D01*
X003155Y024318D01*
X003155Y024318D01*
X003155Y024318D01*
X003494Y024710D01*
X003710Y025181D01*
X003783Y025694D01*
X003710Y026206D01*
X003710Y026206D01*
X003494Y026678D01*
X003173Y027049D01*
X021226Y027049D01*
X020905Y026678D01*
X020690Y026206D01*
X020616Y025694D01*
X020616Y025694D01*
X020690Y025181D01*
X020905Y024710D01*
X020905Y024710D01*
X021244Y024318D01*
X021680Y024038D01*
X022177Y023892D01*
X022695Y023892D01*
X023192Y024038D01*
X023543Y024264D02*
X023791Y024264D01*
X023628Y024318D02*
X023628Y024318D01*
X023787Y024502D02*
X023791Y024502D01*
X021724Y024025D02*
X002675Y024025D01*
X003070Y024264D02*
X021329Y024264D01*
X021244Y024318D02*
X021244Y024318D01*
X021085Y024502D02*
X003315Y024502D01*
X003494Y024710D02*
X003494Y024710D01*
X003509Y024741D02*
X020891Y024741D01*
X020782Y024979D02*
X019917Y024979D01*
X019890Y024970D02*
X019962Y024994D01*
X020029Y025028D01*
X020089Y025072D01*
X020143Y025125D01*
X020187Y025186D01*
X020221Y025253D01*
X020244Y025324D01*
X020256Y025399D01*
X020256Y025694D01*
X020256Y025989D01*
X020244Y026063D01*
X020221Y026134D01*
X020187Y026201D01*
X020143Y026262D01*
X020089Y026315D01*
X020029Y026360D01*
X019962Y026394D01*
X019890Y026417D01*
X019816Y026429D01*
X019778Y026429D01*
X019741Y026429D01*
X019667Y026417D01*
X019595Y026394D01*
X019528Y026360D01*
X019467Y026315D01*
X019414Y026262D01*
X019370Y026201D01*
X019336Y026134D01*
X019313Y026063D01*
X019301Y025989D01*
X019301Y025694D01*
X019778Y025694D01*
X019778Y025694D01*
X019778Y026429D01*
X019778Y025694D01*
X019778Y025694D01*
X019301Y025694D01*
X019301Y025399D01*
X019313Y025324D01*
X019336Y025253D01*
X019370Y025186D01*
X019414Y025125D01*
X019467Y025072D01*
X019528Y025028D01*
X019595Y024994D01*
X019667Y024970D01*
X019741Y024959D01*
X019778Y024959D01*
X019778Y025694D01*
X019778Y025694D01*
X020256Y025694D01*
X019778Y025694D01*
X019778Y025694D01*
X019778Y024959D01*
X019816Y024959D01*
X019890Y024970D01*
X019778Y024979D02*
X019778Y024979D01*
X019640Y024979D02*
X018544Y024979D01*
X018495Y024959D02*
X018671Y025031D01*
X018805Y025166D01*
X018878Y025341D01*
X018878Y026046D01*
X018805Y026222D01*
X018671Y026356D01*
X018495Y026429D01*
X018305Y026429D01*
X018130Y026356D01*
X017996Y026222D01*
X017923Y026046D01*
X017923Y025341D01*
X017996Y025166D01*
X018130Y025031D01*
X018305Y024959D01*
X018495Y024959D01*
X018256Y024979D02*
X017167Y024979D01*
X017117Y024959D02*
X017293Y025031D01*
X017427Y025166D01*
X017500Y025341D01*
X017500Y026046D01*
X017427Y026222D01*
X017293Y026356D01*
X017117Y026429D01*
X016927Y026429D01*
X016752Y026356D01*
X016618Y026222D01*
X016545Y026046D01*
X016545Y025341D01*
X016618Y025166D01*
X016752Y025031D01*
X016927Y024959D01*
X017117Y024959D01*
X016878Y024979D02*
X015789Y024979D01*
X015739Y024959D02*
X015915Y025031D01*
X016049Y025166D01*
X016122Y025341D01*
X016122Y026046D01*
X016049Y026222D01*
X015915Y026356D01*
X015739Y026429D01*
X015550Y026429D01*
X015374Y026356D01*
X015240Y026222D01*
X015167Y026046D01*
X015167Y025341D01*
X015240Y025166D01*
X015374Y025031D01*
X015550Y024959D01*
X015739Y024959D01*
X015500Y024979D02*
X014411Y024979D01*
X014362Y024959D02*
X014537Y025031D01*
X014671Y025166D01*
X014744Y025341D01*
X014744Y026046D01*
X014671Y026222D01*
X014537Y026356D01*
X014362Y026429D01*
X014172Y026429D01*
X013996Y026356D01*
X013862Y026222D01*
X013789Y026046D01*
X013789Y025341D01*
X013862Y025166D01*
X013996Y025031D01*
X014172Y024959D01*
X014362Y024959D01*
X014122Y024979D02*
X013027Y024979D01*
X013000Y024970D02*
X013072Y024994D01*
X013139Y025028D01*
X013200Y025072D01*
X013253Y025125D01*
X013297Y025186D01*
X013331Y025253D01*
X013354Y025324D01*
X013366Y025399D01*
X013366Y025694D01*
X013366Y025989D01*
X013354Y026063D01*
X013331Y026134D01*
X013297Y026201D01*
X013253Y026262D01*
X013200Y026315D01*
X013139Y026360D01*
X013072Y026394D01*
X013000Y026417D01*
X012926Y026429D01*
X012889Y026429D01*
X012889Y025694D01*
X013366Y025694D01*
X012889Y025694D01*
X012889Y025694D01*
X012889Y025694D01*
X012889Y026429D01*
X012851Y026429D01*
X012777Y026417D01*
X012705Y026394D01*
X012638Y026360D01*
X012578Y026315D01*
X012524Y026262D01*
X012480Y026201D01*
X012446Y026134D01*
X012423Y026063D01*
X012411Y025989D01*
X012411Y025694D01*
X012889Y025694D01*
X012889Y024959D01*
X012926Y024959D01*
X013000Y024970D01*
X012889Y024979D02*
X012889Y024979D01*
X012889Y024959D02*
X012889Y025694D01*
X012889Y025694D01*
X012889Y025694D01*
X012411Y025694D01*
X012411Y025399D01*
X012423Y025324D01*
X012446Y025253D01*
X012480Y025186D01*
X012524Y025125D01*
X012578Y025072D01*
X012638Y025028D01*
X012705Y024994D01*
X012777Y024970D01*
X012851Y024959D01*
X012889Y024959D01*
X012750Y024979D02*
X011655Y024979D01*
X011606Y024959D02*
X011781Y025031D01*
X011915Y025166D01*
X011988Y025341D01*
X011988Y026046D01*
X011915Y026222D01*
X011781Y026356D01*
X011606Y026429D01*
X011416Y026429D01*
X011240Y026356D01*
X011106Y026222D01*
X011033Y026046D01*
X011033Y025341D01*
X011106Y025166D01*
X011240Y025031D01*
X011416Y024959D01*
X011606Y024959D01*
X011367Y024979D02*
X010277Y024979D01*
X010228Y024959D02*
X010403Y025031D01*
X010537Y025166D01*
X010610Y025341D01*
X010610Y026046D01*
X010537Y026222D01*
X010403Y026356D01*
X010228Y026429D01*
X010038Y026429D01*
X009862Y026356D01*
X009728Y026222D01*
X009655Y026046D01*
X009655Y025341D01*
X009728Y025166D01*
X009862Y025031D01*
X010038Y024959D01*
X010228Y024959D01*
X009989Y024979D02*
X008899Y024979D01*
X008850Y024959D02*
X009025Y025031D01*
X009160Y025166D01*
X009232Y025341D01*
X009232Y026046D01*
X009160Y026222D01*
X009025Y026356D01*
X008850Y026429D01*
X008660Y026429D01*
X008484Y026356D01*
X008350Y026222D01*
X008277Y026046D01*
X008277Y025341D01*
X008350Y025166D01*
X008484Y025031D01*
X008660Y024959D01*
X008850Y024959D01*
X008611Y024979D02*
X007521Y024979D01*
X007472Y024959D02*
X007647Y025031D01*
X007782Y025166D01*
X007854Y025341D01*
X007854Y026046D01*
X007782Y026222D01*
X007647Y026356D01*
X007472Y026429D01*
X007282Y026429D01*
X007106Y026356D01*
X006972Y026222D01*
X006899Y026046D01*
X006899Y025341D01*
X006972Y025166D01*
X007106Y025031D01*
X007282Y024959D01*
X007472Y024959D01*
X007233Y024979D02*
X006143Y024979D01*
X006094Y024959D02*
X006269Y025031D01*
X006404Y025166D01*
X006476Y025341D01*
X006476Y026046D01*
X006404Y026222D01*
X006269Y026356D01*
X006094Y026429D01*
X005904Y026429D01*
X005728Y026356D01*
X005594Y026222D01*
X005521Y026046D01*
X005521Y025341D01*
X005594Y025166D01*
X005728Y025031D01*
X005904Y024959D01*
X006094Y024959D01*
X005855Y024979D02*
X004765Y024979D01*
X004716Y024959D02*
X004891Y025031D01*
X005026Y025166D01*
X005098Y025341D01*
X005098Y026046D01*
X005026Y026222D01*
X004891Y026356D01*
X004716Y026429D01*
X004526Y026429D01*
X004350Y026356D01*
X004216Y026222D01*
X004143Y026046D01*
X004143Y025341D01*
X004216Y025166D01*
X004350Y025031D01*
X004526Y024959D01*
X004716Y024959D01*
X004477Y024979D02*
X003617Y024979D01*
X003710Y025181D02*
X003710Y025181D01*
X003715Y025218D02*
X004195Y025218D01*
X004143Y025456D02*
X003749Y025456D01*
X003783Y025695D02*
X004143Y025695D01*
X004143Y025933D02*
X003749Y025933D01*
X003715Y026172D02*
X004195Y026172D01*
X004481Y026410D02*
X003617Y026410D01*
X003508Y026649D02*
X020891Y026649D01*
X020905Y026678D02*
X020905Y026678D01*
X021086Y026887D02*
X003313Y026887D01*
X003494Y026678D02*
X003494Y026678D01*
X004761Y026410D02*
X005859Y026410D01*
X006139Y026410D02*
X007237Y026410D01*
X006951Y026172D02*
X006424Y026172D01*
X006476Y025933D02*
X006899Y025933D01*
X006899Y025695D02*
X006476Y025695D01*
X006476Y025456D02*
X006899Y025456D01*
X006951Y025218D02*
X006425Y025218D01*
X005573Y025218D02*
X005047Y025218D01*
X005098Y025456D02*
X005521Y025456D01*
X005521Y025695D02*
X005098Y025695D01*
X005098Y025933D02*
X005521Y025933D01*
X005573Y026172D02*
X005046Y026172D01*
X002483Y023597D02*
X002422Y023641D01*
X002355Y023676D01*
X002283Y023699D01*
X002209Y023711D01*
X001914Y023711D01*
X001619Y023711D01*
X001545Y023699D01*
X001473Y023676D01*
X001406Y023641D01*
X001346Y023597D01*
X001292Y023544D01*
X001248Y023483D01*
X001214Y023416D01*
X001191Y023345D01*
X001179Y023271D01*
X001179Y023233D01*
X001179Y023195D01*
X001191Y023121D01*
X001214Y023050D01*
X001248Y022983D01*
X001292Y022922D01*
X001346Y022869D01*
X001406Y022825D01*
X001473Y022791D01*
X001545Y022767D01*
X001619Y022756D01*
X001914Y022756D01*
X001914Y023233D01*
X001179Y023233D01*
X001914Y023233D01*
X001914Y023233D01*
X001914Y023233D01*
X001914Y023711D01*
X001914Y023233D01*
X001914Y023233D01*
X001914Y022756D01*
X002209Y022756D01*
X002283Y022767D01*
X002355Y022791D01*
X002422Y022825D01*
X002483Y022869D01*
X002536Y022922D01*
X002580Y022983D01*
X002614Y023050D01*
X002637Y023121D01*
X002649Y023195D01*
X002649Y023233D01*
X001914Y023233D01*
X001914Y023233D01*
X002649Y023233D01*
X002649Y023271D01*
X002637Y023345D01*
X002614Y023416D01*
X002580Y023483D01*
X002536Y023544D01*
X002483Y023597D01*
X002532Y023548D02*
X019590Y023548D01*
X019547Y023310D02*
X002643Y023310D01*
X002621Y023071D02*
X014822Y023071D01*
X014921Y023170D02*
X014617Y022866D01*
X014617Y022435D01*
X014901Y022150D01*
X014617Y021866D01*
X014617Y021650D01*
X014617Y021435D01*
X014921Y021130D01*
X015137Y021130D01*
X015352Y021130D01*
X015637Y021415D01*
X015921Y021130D01*
X016081Y021130D01*
X016042Y021037D01*
X016042Y020902D01*
X016094Y020776D01*
X016190Y020680D01*
X016315Y020629D01*
X016450Y020629D01*
X016576Y020680D01*
X016672Y020776D01*
X016691Y020823D01*
X016998Y021130D01*
X017352Y021130D01*
X017657Y021435D01*
X017657Y021866D01*
X017352Y022170D01*
X017337Y022170D01*
X017431Y022210D01*
X017577Y022356D01*
X019547Y022356D01*
X019596Y022117D02*
X017405Y022117D01*
X017577Y022356D02*
X017657Y022547D01*
X017657Y022754D01*
X017577Y022945D01*
X017431Y023091D01*
X017240Y023170D01*
X017033Y023170D01*
X016842Y023091D01*
X016696Y022945D01*
X016657Y022850D01*
X016657Y022866D01*
X016352Y023170D01*
X015921Y023170D01*
X015637Y022886D01*
X015352Y023170D01*
X014921Y023170D01*
X014617Y022833D02*
X002433Y022833D01*
X002283Y022321D02*
X002209Y022333D01*
X001914Y022333D01*
X001619Y022333D01*
X001545Y022321D01*
X001473Y022298D01*
X001406Y022263D01*
X001346Y022219D01*
X001292Y022166D01*
X001248Y022105D01*
X001214Y022038D01*
X001191Y021967D01*
X001179Y021893D01*
X001179Y021855D01*
X001179Y021818D01*
X001191Y021743D01*
X001214Y021672D01*
X001248Y021605D01*
X001292Y021544D01*
X001346Y021491D01*
X001406Y021447D01*
X001473Y021413D01*
X001545Y021389D01*
X001619Y021378D01*
X001914Y021378D01*
X001914Y021855D01*
X001179Y021855D01*
X001914Y021855D01*
X001914Y021855D01*
X001914Y021855D01*
X001914Y021378D01*
X002209Y021378D01*
X002283Y021389D01*
X002355Y021413D01*
X002422Y021447D01*
X002483Y021491D01*
X002536Y021544D01*
X002580Y021605D01*
X002614Y021672D01*
X002637Y021743D01*
X002649Y021818D01*
X002649Y021855D01*
X001914Y021855D01*
X001914Y022333D01*
X001914Y021855D01*
X001914Y021855D01*
X001914Y021855D01*
X002649Y021855D01*
X002649Y021893D01*
X002637Y021967D01*
X002614Y022038D01*
X002580Y022105D01*
X002536Y022166D01*
X002483Y022219D01*
X002422Y022263D01*
X002355Y022298D01*
X002283Y022321D01*
X002572Y022117D02*
X014868Y022117D01*
X014696Y022356D02*
X000609Y022356D01*
X000609Y022594D02*
X014617Y022594D01*
X014629Y021879D02*
X002649Y021879D01*
X002598Y021640D02*
X014617Y021640D01*
X014617Y021650D02*
X015137Y021650D01*
X015137Y021130D01*
X015137Y021650D01*
X015137Y021650D01*
X015137Y021650D01*
X014617Y021650D01*
X014650Y021402D02*
X002321Y021402D01*
X002267Y020955D02*
X002442Y020882D01*
X002576Y020748D01*
X002649Y020572D01*
X002649Y020382D01*
X002576Y020207D01*
X002442Y020072D01*
X002267Y020000D01*
X001562Y020000D01*
X001386Y020072D01*
X001252Y020207D01*
X001179Y020382D01*
X001179Y020572D01*
X001252Y020748D01*
X001386Y020882D01*
X001562Y020955D01*
X002267Y020955D01*
X002339Y020925D02*
X010280Y020925D01*
X010338Y020983D02*
X010203Y020847D01*
X010130Y020671D01*
X010130Y020480D01*
X010203Y020304D01*
X010338Y020169D01*
X010514Y020096D01*
X010705Y020096D01*
X010882Y020169D01*
X011017Y020304D01*
X011090Y020480D01*
X011090Y020671D01*
X011017Y020847D01*
X010882Y020983D01*
X010705Y021056D01*
X010514Y021056D01*
X010338Y020983D01*
X010136Y020686D02*
X002602Y020686D01*
X002649Y020448D02*
X010143Y020448D01*
X010298Y020209D02*
X002577Y020209D01*
X002267Y019577D02*
X002442Y019504D01*
X002576Y019370D01*
X002649Y019194D01*
X002649Y019004D01*
X002576Y018829D01*
X002442Y018694D01*
X002267Y018622D01*
X001562Y018622D01*
X001386Y018694D01*
X001252Y018829D01*
X001179Y019004D01*
X001179Y019194D01*
X001252Y019370D01*
X001386Y019504D01*
X001562Y019577D01*
X002267Y019577D01*
X002453Y019494D02*
X012064Y019494D01*
X012069Y019498D02*
X011899Y019328D01*
X011862Y019291D01*
X011859Y019290D01*
X011763Y019194D01*
X011711Y019069D01*
X011711Y018933D01*
X011763Y018808D01*
X011859Y018712D01*
X011984Y018660D01*
X012120Y018660D01*
X012224Y018703D01*
X012329Y018660D01*
X012464Y018660D01*
X012589Y018712D01*
X012685Y018808D01*
X012715Y018878D01*
X013090Y018878D01*
X013189Y018920D01*
X013878Y019609D01*
X013954Y019684D01*
X013995Y019784D01*
X013995Y020070D01*
X014034Y020109D01*
X014320Y020109D01*
X014419Y020150D01*
X014701Y020432D01*
X014728Y020432D01*
X014853Y020484D01*
X014949Y020579D01*
X015001Y020705D01*
X015001Y020840D01*
X014949Y020965D01*
X014853Y021061D01*
X014728Y021113D01*
X014592Y021113D01*
X014467Y021061D01*
X014371Y020965D01*
X014352Y020918D01*
X014236Y020966D01*
X014100Y020966D01*
X013975Y020914D01*
X013956Y020895D01*
X013819Y020895D01*
X013720Y020854D01*
X013644Y020778D01*
X013299Y020433D01*
X013258Y020334D01*
X013258Y020048D01*
X012826Y019615D01*
X012244Y019615D01*
X012145Y019574D01*
X012069Y019498D01*
X012069Y019498D01*
X011899Y019328D02*
X011899Y019328D01*
X011824Y019255D02*
X002624Y019255D01*
X002649Y019017D02*
X011711Y019017D01*
X011793Y018778D02*
X002526Y018778D01*
X002267Y018199D02*
X002442Y018126D01*
X002576Y017992D01*
X002649Y017816D01*
X002649Y017626D01*
X002576Y017451D01*
X002442Y017316D01*
X002267Y017244D01*
X001562Y017244D01*
X001386Y017316D01*
X001252Y017451D01*
X001179Y017626D01*
X001179Y017816D01*
X001252Y017992D01*
X001386Y018126D01*
X001562Y018199D01*
X002267Y018199D01*
X002506Y018063D02*
X019659Y018063D01*
X019709Y017824D02*
X002646Y017824D01*
X002632Y017586D02*
X019570Y017586D01*
X019553Y017347D02*
X002473Y017347D01*
X002267Y016821D02*
X002442Y016748D01*
X002576Y016614D01*
X002649Y016438D01*
X002649Y016248D01*
X002576Y016073D01*
X002442Y015939D01*
X002267Y015866D01*
X001562Y015866D01*
X001386Y015939D01*
X001252Y016073D01*
X001179Y016248D01*
X001179Y016438D01*
X001252Y016614D01*
X001386Y016748D01*
X001562Y016821D01*
X002267Y016821D01*
X002559Y016632D02*
X019579Y016632D01*
X019547Y016393D02*
X002649Y016393D01*
X002610Y016155D02*
X019619Y016155D01*
X019770Y015916D02*
X002388Y015916D01*
X002267Y015443D02*
X002442Y015370D01*
X002576Y015236D01*
X002649Y015060D01*
X002649Y014870D01*
X002576Y014695D01*
X002442Y014561D01*
X002267Y014488D01*
X001562Y014488D01*
X001386Y014561D01*
X001252Y014695D01*
X001179Y014870D01*
X001179Y015060D01*
X001252Y015236D01*
X001386Y015370D01*
X001562Y015443D01*
X002267Y015443D01*
X002276Y015439D02*
X019547Y015439D01*
X019592Y015678D02*
X000609Y015678D01*
X000609Y015916D02*
X001440Y015916D01*
X001218Y016155D02*
X000609Y016155D01*
X000609Y016393D02*
X001179Y016393D01*
X001270Y016632D02*
X000609Y016632D01*
X000609Y016870D02*
X019740Y016870D01*
X019643Y017109D02*
X000609Y017109D01*
X000609Y017347D02*
X001356Y017347D01*
X001196Y017586D02*
X000609Y017586D01*
X000609Y017824D02*
X001182Y017824D01*
X001323Y018063D02*
X000609Y018063D01*
X000609Y018301D02*
X019547Y018301D01*
X019554Y018540D02*
X000609Y018540D01*
X000609Y018778D02*
X001303Y018778D01*
X001179Y019017D02*
X000609Y019017D01*
X000609Y019255D02*
X001204Y019255D01*
X001376Y019494D02*
X000609Y019494D01*
X000609Y019732D02*
X012943Y019732D01*
X013181Y019971D02*
X000609Y019971D01*
X000609Y020209D02*
X001251Y020209D01*
X001179Y020448D02*
X000609Y020448D01*
X000609Y020686D02*
X001226Y020686D01*
X001489Y020925D02*
X000609Y020925D01*
X000609Y021163D02*
X014889Y021163D01*
X015137Y021163D02*
X015137Y021163D01*
X015137Y021402D02*
X015137Y021402D01*
X015137Y021640D02*
X015137Y021640D01*
X015385Y021163D02*
X015889Y021163D01*
X016042Y020925D02*
X014966Y020925D01*
X014993Y020686D02*
X016184Y020686D01*
X016581Y020686D02*
X019628Y020686D01*
X019547Y020448D02*
X014766Y020448D01*
X014479Y020209D02*
X019571Y020209D01*
X019719Y019971D02*
X013995Y019971D01*
X013974Y019732D02*
X019649Y019732D01*
X019547Y019494D02*
X013763Y019494D01*
X013525Y019255D02*
X019558Y019255D01*
X019689Y019017D02*
X013286Y019017D01*
X012656Y018778D02*
X019679Y018778D01*
X020467Y017426D02*
X020467Y017426D01*
X019607Y015201D02*
X002591Y015201D01*
X002649Y014962D02*
X019808Y014962D01*
X019604Y014724D02*
X002588Y014724D01*
X002267Y014065D02*
X002442Y013992D01*
X002576Y013858D01*
X002649Y013682D01*
X002649Y013492D01*
X002576Y013317D01*
X002442Y013183D01*
X002267Y013110D01*
X001562Y013110D01*
X001386Y013183D01*
X001252Y013317D01*
X001179Y013492D01*
X001179Y013682D01*
X001252Y013858D01*
X001386Y013992D01*
X001562Y014065D01*
X002267Y014065D01*
X002404Y014008D02*
X019776Y014008D01*
X019617Y013770D02*
X002613Y013770D01*
X002649Y013531D02*
X019547Y013531D01*
X019582Y013293D02*
X002552Y013293D01*
X002267Y012687D02*
X002442Y012614D01*
X002576Y012480D01*
X002649Y012304D01*
X002649Y012114D01*
X002576Y011939D01*
X002442Y011805D01*
X002267Y011732D01*
X001562Y011732D01*
X001386Y011805D01*
X001252Y011939D01*
X001179Y012114D01*
X001179Y012304D01*
X001252Y012480D01*
X001386Y012614D01*
X001562Y012687D01*
X002267Y012687D01*
X002479Y012577D02*
X019547Y012577D01*
X019569Y012339D02*
X002635Y012339D01*
X002643Y012100D02*
X019716Y012100D01*
X019652Y011862D02*
X002499Y011862D01*
X001329Y011862D02*
X000609Y011862D01*
X000609Y012100D02*
X001185Y012100D01*
X001193Y012339D02*
X000609Y012339D01*
X000609Y012577D02*
X001349Y012577D01*
X001276Y013293D02*
X000609Y013293D01*
X000609Y013531D02*
X001179Y013531D01*
X001215Y013770D02*
X000609Y013770D01*
X000609Y014008D02*
X001425Y014008D01*
X001240Y014724D02*
X000609Y014724D01*
X000609Y014962D02*
X001179Y014962D01*
X001237Y015201D02*
X000609Y015201D01*
X000609Y015439D02*
X001553Y015439D01*
X000609Y014485D02*
X019547Y014485D01*
X019594Y014247D02*
X000609Y014247D01*
X000609Y013054D02*
X019746Y013054D01*
X019629Y012816D02*
X000609Y012816D01*
X000609Y011623D02*
X019547Y011623D01*
X019557Y011385D02*
X000609Y011385D01*
X000609Y011146D02*
X001296Y011146D01*
X001179Y010908D02*
X000609Y010908D01*
X000609Y010669D02*
X001207Y010669D01*
X001382Y010431D02*
X000609Y010431D01*
X000609Y010192D02*
X008727Y010192D01*
X008489Y009954D02*
X000609Y009954D01*
X000609Y009715D02*
X001248Y009715D01*
X001179Y009477D02*
X000609Y009477D01*
X000609Y009238D02*
X001229Y009238D01*
X001505Y009000D02*
X000609Y009000D01*
X000609Y008761D02*
X007743Y008761D01*
X007636Y009000D02*
X002323Y009000D01*
X002340Y008523D02*
X007860Y008523D01*
X007906Y007569D02*
X000609Y007569D01*
X000609Y007807D02*
X001251Y007807D01*
X001179Y008046D02*
X000609Y008046D01*
X000609Y008284D02*
X001226Y008284D01*
X001488Y008523D02*
X000609Y008523D01*
X000609Y007330D02*
X001410Y007330D01*
X001207Y007270D02*
X001207Y007270D01*
X000929Y007092D02*
X000609Y007092D01*
X000772Y006990D02*
X000772Y006990D01*
X000772Y006990D01*
X000653Y006853D02*
X000609Y006853D01*
X002517Y007330D02*
X007668Y007330D01*
X007636Y007092D02*
X002998Y007092D01*
X003155Y006990D02*
X003155Y006990D01*
X003274Y006853D02*
X007651Y006853D01*
X007636Y007083D02*
X008156Y007083D01*
X008156Y007083D01*
X008156Y006603D01*
X008156Y006083D01*
X008156Y006083D01*
X008156Y007083D01*
X008156Y007083D01*
X007636Y007083D01*
X007890Y006615D02*
X003481Y006615D01*
X003494Y006599D02*
X003494Y006599D01*
X003596Y006376D02*
X007714Y006376D01*
X007636Y006138D02*
X003705Y006138D01*
X003710Y006128D02*
X003710Y006128D01*
X003743Y005899D02*
X007636Y005899D01*
X007844Y005661D02*
X003777Y005661D01*
X003756Y005422D02*
X019107Y005422D01*
X019093Y005387D02*
X019093Y005040D01*
X019225Y004721D01*
X019470Y004476D01*
X019789Y004343D01*
X020136Y004343D01*
X020455Y004476D01*
X020700Y004721D01*
X020833Y005040D01*
X020833Y005387D01*
X020700Y005706D01*
X020455Y005951D01*
X020136Y006083D01*
X019789Y006083D01*
X019470Y005951D01*
X019225Y005706D01*
X019093Y005387D01*
X019093Y005184D02*
X003721Y005184D01*
X003638Y004945D02*
X019132Y004945D01*
X019239Y004707D02*
X003529Y004707D01*
X003494Y004631D02*
X003494Y004631D01*
X003353Y004468D02*
X019489Y004468D01*
X020436Y004468D02*
X021607Y004468D01*
X021244Y004235D02*
X021244Y004235D01*
X021240Y004230D02*
X003140Y004230D01*
X002769Y003991D02*
X021033Y003991D01*
X020905Y003843D02*
X020905Y003843D01*
X020863Y003753D02*
X006352Y003753D01*
X006337Y003790D02*
X006241Y003886D01*
X006116Y003938D01*
X005980Y003938D01*
X005855Y003886D01*
X005827Y003858D01*
X005798Y003886D01*
X005673Y003938D01*
X005537Y003938D01*
X005412Y003886D01*
X005393Y003867D01*
X004537Y003867D01*
X004519Y003886D01*
X004393Y003938D01*
X004258Y003938D01*
X004133Y003886D01*
X004037Y003790D01*
X003985Y003665D01*
X003985Y003529D01*
X004037Y003404D01*
X004133Y003308D01*
X004143Y003304D01*
X004074Y003236D01*
X003998Y003160D01*
X003991Y003142D01*
X003957Y003128D01*
X003822Y002993D01*
X003750Y002818D01*
X003750Y002113D01*
X003822Y001937D01*
X003957Y001803D01*
X004132Y001730D01*
X004322Y001730D01*
X004498Y001803D01*
X004632Y001937D01*
X004705Y002113D01*
X004705Y002818D01*
X004636Y002983D01*
X005196Y002983D01*
X005128Y002818D01*
X005128Y002113D01*
X005200Y001937D01*
X005335Y001803D01*
X005510Y001730D01*
X005700Y001730D01*
X005876Y001803D01*
X006010Y001937D01*
X006083Y002113D01*
X006083Y002818D01*
X006010Y002993D01*
X005918Y003085D01*
X005932Y003100D01*
X006089Y003257D01*
X006116Y003257D01*
X006241Y003308D01*
X006337Y003404D01*
X006389Y003529D01*
X006389Y003665D01*
X006337Y003790D01*
X006382Y003514D02*
X020755Y003514D01*
X020676Y003276D02*
X006162Y003276D01*
X005966Y003037D02*
X006622Y003037D01*
X006578Y002993D02*
X006713Y003128D01*
X006888Y003200D01*
X007078Y003200D01*
X007254Y003128D01*
X007388Y002993D01*
X007461Y002818D01*
X007461Y002113D01*
X007388Y001937D01*
X007254Y001803D01*
X007078Y001730D01*
X006888Y001730D01*
X006713Y001803D01*
X006578Y001937D01*
X006506Y002113D01*
X006506Y002818D01*
X006578Y002993D01*
X006506Y002799D02*
X006083Y002799D01*
X006083Y002560D02*
X006506Y002560D01*
X006506Y002322D02*
X006083Y002322D01*
X006070Y002083D02*
X006518Y002083D01*
X006671Y001845D02*
X005917Y001845D01*
X005293Y001845D02*
X004539Y001845D01*
X004692Y002083D02*
X005140Y002083D01*
X005128Y002322D02*
X004705Y002322D01*
X004705Y002560D02*
X005128Y002560D01*
X005128Y002799D02*
X004705Y002799D01*
X004114Y003276D02*
X000609Y003276D01*
X000609Y003514D02*
X003991Y003514D01*
X004021Y003753D02*
X000609Y003753D01*
X000609Y003991D02*
X001158Y003991D01*
X000787Y004230D02*
X000609Y004230D01*
X000772Y004239D02*
X000772Y004239D01*
X001288Y003165D02*
X001221Y003131D01*
X001160Y003087D01*
X001107Y003034D01*
X001063Y002973D01*
X001029Y002906D01*
X001006Y002835D01*
X000994Y002760D01*
X000994Y002465D01*
X000994Y002170D01*
X001006Y002096D01*
X001029Y002025D01*
X001063Y001958D01*
X001107Y001897D01*
X001160Y001844D01*
X001221Y001799D01*
X001288Y001765D01*
X001359Y001742D01*
X001434Y001730D01*
X001471Y001730D01*
X001471Y002465D01*
X001471Y002465D01*
X000994Y002465D01*
X001471Y002465D01*
X001471Y002465D01*
X001471Y001730D01*
X001509Y001730D01*
X001583Y001742D01*
X001655Y001765D01*
X001722Y001799D01*
X001782Y001844D01*
X001835Y001897D01*
X001880Y001958D01*
X001914Y002025D01*
X001937Y002096D01*
X001949Y002170D01*
X001949Y002465D01*
X001471Y002465D01*
X001471Y002465D01*
X001471Y003200D01*
X001434Y003200D01*
X001359Y003189D01*
X001288Y003165D01*
X001471Y003200D02*
X001471Y002465D01*
X001471Y002465D01*
X001949Y002465D01*
X001949Y002760D01*
X001937Y002835D01*
X001914Y002906D01*
X001880Y002973D01*
X001835Y003034D01*
X001782Y003087D01*
X001722Y003131D01*
X001655Y003165D01*
X001583Y003189D01*
X001509Y003200D01*
X001471Y003200D01*
X001471Y003037D02*
X001471Y003037D01*
X001471Y002799D02*
X001471Y002799D01*
X001471Y002560D02*
X001471Y002560D01*
X001471Y002322D02*
X001471Y002322D01*
X001471Y002083D02*
X001471Y002083D01*
X001471Y001845D02*
X001471Y001845D01*
X001783Y001845D02*
X002537Y001845D01*
X002579Y001803D02*
X002754Y001730D01*
X002944Y001730D01*
X003120Y001803D01*
X003254Y001937D01*
X003327Y002113D01*
X003327Y002818D01*
X003254Y002993D01*
X003120Y003128D01*
X002944Y003200D01*
X002754Y003200D01*
X002579Y003128D01*
X002444Y002993D01*
X002372Y002818D01*
X002372Y002113D01*
X002444Y001937D01*
X002579Y001803D01*
X002384Y002083D02*
X001933Y002083D01*
X001949Y002322D02*
X002372Y002322D01*
X002372Y002560D02*
X001949Y002560D01*
X001943Y002799D02*
X002372Y002799D01*
X002488Y003037D02*
X001832Y003037D01*
X001110Y003037D02*
X000609Y003037D01*
X000609Y002799D02*
X001000Y002799D01*
X000994Y002560D02*
X000609Y002560D01*
X000609Y002322D02*
X000994Y002322D01*
X001010Y002083D02*
X000609Y002083D01*
X000609Y001845D02*
X001159Y001845D01*
X000609Y001606D02*
X021138Y001606D01*
X021244Y001484D02*
X021244Y001484D01*
X021425Y001368D02*
X000609Y001368D01*
X000609Y001129D02*
X021933Y001129D01*
X021680Y001204D02*
X021680Y001204D01*
X020931Y001845D02*
X019893Y001845D01*
X019852Y001803D02*
X019986Y001937D01*
X020059Y002113D01*
X020059Y002818D01*
X019986Y002993D01*
X019852Y003128D01*
X019676Y003200D01*
X019487Y003200D01*
X019311Y003128D01*
X019177Y002993D01*
X019104Y002818D01*
X019104Y002113D01*
X019177Y001937D01*
X019311Y001803D01*
X019487Y001730D01*
X019676Y001730D01*
X019852Y001803D01*
X020047Y002083D02*
X020810Y002083D01*
X020905Y001875D02*
X020905Y001875D01*
X020701Y002322D02*
X020059Y002322D01*
X020059Y002560D02*
X020659Y002560D01*
X020690Y002346D02*
X020690Y002346D01*
X020625Y002799D02*
X020059Y002799D01*
X019943Y003037D02*
X020641Y003037D01*
X020616Y002859D02*
X020616Y002859D01*
X019220Y003037D02*
X018565Y003037D01*
X018608Y002993D02*
X018474Y003128D01*
X018299Y003200D01*
X018109Y003200D01*
X017933Y003128D01*
X017799Y002993D01*
X017726Y002818D01*
X017726Y002113D01*
X017799Y001937D01*
X017933Y001803D01*
X018109Y001730D01*
X018299Y001730D01*
X018474Y001803D01*
X018608Y001937D01*
X018681Y002113D01*
X018681Y002818D01*
X018608Y002993D01*
X018681Y002799D02*
X019104Y002799D01*
X019104Y002560D02*
X018681Y002560D01*
X018681Y002322D02*
X019104Y002322D01*
X019116Y002083D02*
X018669Y002083D01*
X018515Y001845D02*
X019270Y001845D01*
X017892Y001845D02*
X016941Y001845D01*
X016899Y001803D02*
X017034Y001937D01*
X017106Y002113D01*
X017106Y002818D01*
X017034Y002993D01*
X016899Y003128D01*
X016724Y003200D01*
X016534Y003200D01*
X016358Y003128D01*
X016224Y002993D01*
X016151Y002818D01*
X016151Y002113D01*
X016224Y001937D01*
X016358Y001803D01*
X016534Y001730D01*
X016724Y001730D01*
X016899Y001803D01*
X017094Y002083D02*
X017738Y002083D01*
X017726Y002322D02*
X017106Y002322D01*
X017106Y002560D02*
X017726Y002560D01*
X017726Y002799D02*
X017106Y002799D01*
X016990Y003037D02*
X017843Y003037D01*
X016268Y003037D02*
X015612Y003037D01*
X015656Y002993D02*
X015521Y003128D01*
X015346Y003200D01*
X015156Y003200D01*
X014980Y003128D01*
X014846Y002993D01*
X014773Y002818D01*
X014773Y002113D01*
X014846Y001937D01*
X014980Y001803D01*
X015156Y001730D01*
X015346Y001730D01*
X015521Y001803D01*
X015656Y001937D01*
X015728Y002113D01*
X015728Y002818D01*
X015656Y002993D01*
X015728Y002799D02*
X016151Y002799D01*
X016151Y002560D02*
X015728Y002560D01*
X015728Y002322D02*
X016151Y002322D01*
X016164Y002083D02*
X015716Y002083D01*
X015563Y001845D02*
X016317Y001845D01*
X014939Y001845D02*
X014185Y001845D01*
X014143Y001803D02*
X014278Y001937D01*
X014350Y002113D01*
X014350Y002818D01*
X014278Y002993D01*
X014143Y003128D01*
X013968Y003200D01*
X013778Y003200D01*
X013602Y003128D01*
X013468Y002993D01*
X013395Y002818D01*
X013395Y002113D01*
X013468Y001937D01*
X013602Y001803D01*
X013778Y001730D01*
X013968Y001730D01*
X014143Y001803D01*
X014338Y002083D02*
X014786Y002083D01*
X014773Y002322D02*
X014350Y002322D01*
X014350Y002560D02*
X014773Y002560D01*
X014773Y002799D02*
X014350Y002799D01*
X014234Y003037D02*
X014890Y003037D01*
X013512Y003037D02*
X012856Y003037D01*
X012900Y002993D02*
X012765Y003128D01*
X012590Y003200D01*
X012400Y003200D01*
X012224Y003128D01*
X012090Y002993D01*
X012017Y002818D01*
X012017Y002113D01*
X012090Y001937D01*
X012224Y001803D01*
X012400Y001730D01*
X012590Y001730D01*
X012765Y001803D01*
X012900Y001937D01*
X012972Y002113D01*
X012972Y002818D01*
X012900Y002993D01*
X012972Y002799D02*
X013395Y002799D01*
X013395Y002560D02*
X012972Y002560D01*
X012972Y002322D02*
X013395Y002322D01*
X013408Y002083D02*
X012960Y002083D01*
X012807Y001845D02*
X013561Y001845D01*
X012183Y001845D02*
X011429Y001845D01*
X011428Y001844D02*
X011481Y001897D01*
X011525Y001958D01*
X011559Y002025D01*
X011583Y002096D01*
X011594Y002170D01*
X011594Y002465D01*
X011117Y002465D01*
X011117Y001730D01*
X011155Y001730D01*
X011229Y001742D01*
X011300Y001765D01*
X011367Y001799D01*
X011428Y001844D01*
X011578Y002083D02*
X012030Y002083D01*
X012017Y002322D02*
X011594Y002322D01*
X011594Y002465D02*
X011594Y002760D01*
X011583Y002835D01*
X011559Y002906D01*
X011525Y002973D01*
X011481Y003034D01*
X011428Y003087D01*
X011367Y003131D01*
X011300Y003165D01*
X011229Y003189D01*
X011155Y003200D01*
X011117Y003200D01*
X011117Y002465D01*
X011117Y002465D01*
X011117Y001730D01*
X011079Y001730D01*
X011005Y001742D01*
X010934Y001765D01*
X010867Y001799D01*
X010806Y001844D01*
X010753Y001897D01*
X010709Y001958D01*
X010674Y002025D01*
X010651Y002096D01*
X010639Y002170D01*
X010639Y002465D01*
X011117Y002465D01*
X011117Y002465D01*
X011117Y002465D01*
X011594Y002465D01*
X011594Y002560D02*
X012017Y002560D01*
X012017Y002799D02*
X011588Y002799D01*
X011478Y003037D02*
X012134Y003037D01*
X011117Y003037D02*
X011117Y003037D01*
X011117Y003200D02*
X011079Y003200D01*
X011005Y003189D01*
X010934Y003165D01*
X010867Y003131D01*
X010806Y003087D01*
X010753Y003034D01*
X010709Y002973D01*
X010674Y002906D01*
X010651Y002835D01*
X010639Y002760D01*
X010639Y002465D01*
X011117Y002465D01*
X011117Y002465D01*
X011117Y003200D01*
X010756Y003037D02*
X010100Y003037D01*
X010144Y002993D02*
X010009Y003128D01*
X009834Y003200D01*
X009644Y003200D01*
X009469Y003128D01*
X009334Y002993D01*
X009261Y002818D01*
X009261Y002113D01*
X009334Y001937D01*
X009469Y001803D01*
X009644Y001730D01*
X009834Y001730D01*
X010009Y001803D01*
X010144Y001937D01*
X010216Y002113D01*
X010216Y002818D01*
X010144Y002993D01*
X010216Y002799D02*
X010645Y002799D01*
X010639Y002560D02*
X010216Y002560D01*
X010216Y002322D02*
X010639Y002322D01*
X010655Y002083D02*
X010204Y002083D01*
X010051Y001845D02*
X010805Y001845D01*
X011117Y001845D02*
X011117Y001845D01*
X011117Y002083D02*
X011117Y002083D01*
X011117Y002322D02*
X011117Y002322D01*
X011117Y002560D02*
X011117Y002560D01*
X011117Y002799D02*
X011117Y002799D01*
X009378Y003037D02*
X008722Y003037D01*
X008766Y002993D02*
X008631Y003128D01*
X008456Y003200D01*
X008266Y003200D01*
X008091Y003128D01*
X007956Y002993D01*
X007884Y002818D01*
X007884Y002113D01*
X007956Y001937D01*
X008091Y001803D01*
X008266Y001730D01*
X008456Y001730D01*
X008631Y001803D01*
X008766Y001937D01*
X008839Y002113D01*
X008839Y002818D01*
X008766Y002993D01*
X008839Y002799D02*
X009261Y002799D01*
X009261Y002560D02*
X008839Y002560D01*
X008839Y002322D02*
X009261Y002322D01*
X009274Y002083D02*
X008826Y002083D01*
X008673Y001845D02*
X009427Y001845D01*
X008049Y001845D02*
X007295Y001845D01*
X007448Y002083D02*
X007896Y002083D01*
X007884Y002322D02*
X007461Y002322D01*
X007461Y002560D02*
X007884Y002560D01*
X007884Y002799D02*
X007461Y002799D01*
X007344Y003037D02*
X008000Y003037D01*
X008156Y005661D02*
X008156Y005661D01*
X008156Y005899D02*
X008156Y005899D01*
X008156Y006138D02*
X008156Y006138D01*
X008156Y006376D02*
X008156Y006376D01*
X008156Y006615D02*
X008156Y006615D01*
X008156Y006853D02*
X008156Y006853D01*
X008469Y005661D02*
X008844Y005661D01*
X009469Y005661D02*
X019206Y005661D01*
X019418Y005899D02*
X009676Y005899D01*
X009676Y006138D02*
X023791Y006138D01*
X023791Y006376D02*
X009599Y006376D01*
X009423Y006615D02*
X017957Y006615D01*
X018268Y006615D02*
X018737Y006615D01*
X019048Y006615D02*
X023791Y006615D01*
X023791Y006853D02*
X019335Y006853D01*
X019393Y007092D02*
X023791Y007092D01*
X023791Y007330D02*
X019335Y007330D01*
X019047Y007569D02*
X023791Y007569D01*
X023791Y007807D02*
X019315Y007807D01*
X019393Y008046D02*
X023791Y008046D01*
X023791Y008284D02*
X019347Y008284D01*
X019117Y008523D02*
X023791Y008523D01*
X023791Y008761D02*
X011559Y008761D01*
X011321Y009000D02*
X023791Y009000D01*
X023791Y009238D02*
X020477Y009238D01*
X020707Y009477D02*
X023791Y009477D01*
X023791Y009715D02*
X020805Y009715D01*
X020833Y009954D02*
X023791Y009954D01*
X023791Y010192D02*
X020805Y010192D01*
X020707Y010431D02*
X023791Y010431D01*
X023791Y010669D02*
X020477Y010669D01*
X019448Y009238D02*
X011082Y009238D01*
X010844Y009477D02*
X016171Y009477D01*
X016132Y009715D02*
X010605Y009715D01*
X011798Y008523D02*
X017885Y008523D01*
X018340Y008523D02*
X018668Y008523D01*
X018893Y008523D02*
X018893Y008523D01*
X018893Y008284D02*
X018893Y008284D01*
X017958Y007569D02*
X014297Y007569D01*
X014253Y007330D02*
X017670Y007330D01*
X017613Y007092D02*
X014115Y007092D01*
X013630Y007092D02*
X013512Y007092D01*
X013493Y007569D02*
X013439Y007569D01*
X013513Y007807D02*
X013089Y007807D01*
X013699Y008046D02*
X011891Y008046D01*
X011891Y008284D02*
X013938Y008284D01*
X012856Y007092D02*
X009676Y007092D01*
X009661Y006853D02*
X017670Y006853D01*
X020507Y005899D02*
X023791Y005899D01*
X023791Y005661D02*
X020719Y005661D01*
X020818Y005422D02*
X023791Y005422D01*
X023791Y005184D02*
X020833Y005184D01*
X020793Y004945D02*
X023791Y004945D01*
X023791Y004707D02*
X020686Y004707D01*
X023192Y004515D02*
X023192Y004515D01*
X023264Y004468D02*
X023791Y004468D01*
X023791Y004230D02*
X023632Y004230D01*
X013258Y020209D02*
X012822Y020209D01*
X012782Y020169D02*
X012917Y020304D01*
X012990Y020480D01*
X012990Y020671D01*
X012917Y020847D01*
X012782Y020983D01*
X012605Y021056D01*
X012414Y021056D01*
X012238Y020983D01*
X012103Y020847D01*
X012030Y020671D01*
X012030Y020480D01*
X012103Y020304D01*
X012238Y020169D01*
X012414Y020096D01*
X012605Y020096D01*
X012782Y020169D01*
X012976Y020448D02*
X013314Y020448D01*
X013552Y020686D02*
X012984Y020686D01*
X012840Y020925D02*
X014002Y020925D01*
X014335Y020925D02*
X014354Y020925D01*
X015623Y021402D02*
X015650Y021402D01*
X016793Y020925D02*
X019750Y020925D01*
X019583Y021163D02*
X017385Y021163D01*
X017623Y021402D02*
X019547Y021402D01*
X019615Y021640D02*
X017657Y021640D01*
X017644Y021879D02*
X019780Y021879D01*
X019603Y022594D02*
X017657Y022594D01*
X017624Y022833D02*
X019800Y022833D01*
X019608Y023071D02*
X017451Y023071D01*
X016822Y023071D02*
X016451Y023071D01*
X015822Y023071D02*
X015451Y023071D01*
X015218Y025218D02*
X014693Y025218D01*
X014744Y025456D02*
X015167Y025456D01*
X015167Y025695D02*
X014744Y025695D01*
X014744Y025933D02*
X015167Y025933D01*
X015219Y026172D02*
X014692Y026172D01*
X014406Y026410D02*
X015505Y026410D01*
X015784Y026410D02*
X016883Y026410D01*
X017162Y026410D02*
X018261Y026410D01*
X018540Y026410D02*
X019646Y026410D01*
X019778Y026410D02*
X019778Y026410D01*
X019911Y026410D02*
X020783Y026410D01*
X020690Y026206D02*
X020690Y026206D01*
X020685Y026172D02*
X020202Y026172D01*
X020256Y025933D02*
X020650Y025933D01*
X020616Y025695D02*
X020256Y025695D01*
X020256Y025456D02*
X020650Y025456D01*
X020684Y025218D02*
X020203Y025218D01*
X019778Y025218D02*
X019778Y025218D01*
X019778Y025456D02*
X019778Y025456D01*
X019778Y025695D02*
X019778Y025695D01*
X019778Y025933D02*
X019778Y025933D01*
X019778Y026172D02*
X019778Y026172D01*
X019355Y026172D02*
X018826Y026172D01*
X018878Y025933D02*
X019301Y025933D01*
X019301Y025695D02*
X018878Y025695D01*
X018878Y025456D02*
X019301Y025456D01*
X019354Y025218D02*
X018827Y025218D01*
X017974Y025218D02*
X017449Y025218D01*
X017500Y025456D02*
X017923Y025456D01*
X017923Y025695D02*
X017500Y025695D01*
X017500Y025933D02*
X017923Y025933D01*
X017975Y026172D02*
X017448Y026172D01*
X016597Y026172D02*
X016070Y026172D01*
X016122Y025933D02*
X016545Y025933D01*
X016545Y025695D02*
X016122Y025695D01*
X016122Y025456D02*
X016545Y025456D01*
X016596Y025218D02*
X016071Y025218D01*
X014127Y026410D02*
X013021Y026410D01*
X012889Y026410D02*
X012889Y026410D01*
X012756Y026410D02*
X011650Y026410D01*
X011936Y026172D02*
X012465Y026172D01*
X012411Y025933D02*
X011988Y025933D01*
X011988Y025695D02*
X012411Y025695D01*
X012411Y025456D02*
X011988Y025456D01*
X011937Y025218D02*
X012464Y025218D01*
X012889Y025218D02*
X012889Y025218D01*
X012889Y025456D02*
X012889Y025456D01*
X012889Y025695D02*
X012889Y025695D01*
X012889Y025933D02*
X012889Y025933D01*
X012889Y026172D02*
X012889Y026172D01*
X013312Y026172D02*
X013841Y026172D01*
X013789Y025933D02*
X013366Y025933D01*
X013366Y025695D02*
X013789Y025695D01*
X013789Y025456D02*
X013366Y025456D01*
X013313Y025218D02*
X013840Y025218D01*
X011371Y026410D02*
X010273Y026410D01*
X009993Y026410D02*
X008895Y026410D01*
X008615Y026410D02*
X007517Y026410D01*
X007802Y026172D02*
X008329Y026172D01*
X008277Y025933D02*
X007854Y025933D01*
X007854Y025695D02*
X008277Y025695D01*
X008277Y025456D02*
X007854Y025456D01*
X007803Y025218D02*
X008328Y025218D01*
X009181Y025218D02*
X009706Y025218D01*
X009655Y025456D02*
X009232Y025456D01*
X009232Y025695D02*
X009655Y025695D01*
X009655Y025933D02*
X009232Y025933D01*
X009180Y026172D02*
X009707Y026172D01*
X010558Y026172D02*
X011085Y026172D01*
X011033Y025933D02*
X010610Y025933D01*
X010610Y025695D02*
X011033Y025695D01*
X011033Y025456D02*
X010610Y025456D01*
X010559Y025218D02*
X011084Y025218D01*
X010940Y020925D02*
X012180Y020925D01*
X012036Y020686D02*
X011084Y020686D01*
X011076Y020448D02*
X012043Y020448D01*
X012198Y020209D02*
X010922Y020209D01*
X019766Y023787D02*
X000609Y023787D01*
X000609Y024025D02*
X001252Y024025D01*
X000857Y024264D02*
X000609Y024264D01*
X000772Y024318D02*
X000772Y024318D01*
X000612Y024502D02*
X000609Y024502D01*
X000609Y023548D02*
X001296Y023548D01*
X001185Y023310D02*
X000609Y023310D01*
X000609Y023071D02*
X001207Y023071D01*
X001396Y022833D02*
X000609Y022833D01*
X000609Y022117D02*
X001257Y022117D01*
X001179Y021879D02*
X000609Y021879D01*
X000609Y021640D02*
X001230Y021640D01*
X001507Y021402D02*
X000609Y021402D01*
X001914Y021402D02*
X001914Y021402D01*
X001914Y021640D02*
X001914Y021640D01*
X001914Y021879D02*
X001914Y021879D01*
X001914Y022117D02*
X001914Y022117D01*
X001914Y022833D02*
X001914Y022833D01*
X001914Y023071D02*
X001914Y023071D01*
X001914Y023310D02*
X001914Y023310D01*
X001914Y023548D02*
X001914Y023548D01*
X008062Y009715D02*
X008250Y009715D01*
X002719Y007270D02*
X002719Y007270D01*
X003210Y003037D02*
X003866Y003037D01*
X003750Y002799D02*
X003327Y002799D01*
X003327Y002560D02*
X003750Y002560D01*
X003750Y002322D02*
X003327Y002322D01*
X003314Y002083D02*
X003762Y002083D01*
X003915Y001845D02*
X003161Y001845D01*
X021680Y024038D02*
X021680Y024038D01*
X020690Y025181D02*
X020690Y025181D01*
D19*
X016383Y020969D03*
X014660Y020772D03*
X014168Y020625D03*
X013282Y022790D03*
X012396Y019001D03*
X012052Y019001D03*
X011117Y017967D03*
X013627Y017967D03*
X014611Y016540D03*
X014611Y013440D03*
X012052Y011963D03*
X011461Y010143D03*
X011904Y009355D03*
X012249Y006107D03*
X010526Y004778D03*
X006048Y003597D03*
X005605Y003597D03*
X004326Y003597D03*
X009690Y013735D03*
X008656Y021511D03*
X009837Y022790D03*
D20*
X011511Y008026D03*
X013184Y007288D03*
X013873Y007387D03*
X004326Y004434D03*
D21*
X002168Y008083D02*
X001914Y008076D01*
X002168Y008083D02*
X008156Y008083D01*
X008656Y007583D01*
X012889Y007583D01*
X013184Y007288D01*
D22*
X006048Y003597D02*
X005704Y003253D01*
X004473Y003253D01*
X004227Y003007D01*
X004227Y002465D01*
X004326Y003597D02*
X005605Y003597D01*
X012052Y019001D02*
X012052Y019099D01*
X012298Y019345D01*
X012938Y019345D01*
X013528Y019936D01*
X013528Y020280D01*
X013873Y020625D01*
X014168Y020625D01*
X014267Y020379D02*
X013922Y020379D01*
X013725Y020182D01*
X013725Y019837D01*
X013036Y019148D01*
X012446Y019148D01*
X012396Y019099D01*
X012396Y019001D01*
X014267Y020379D02*
X014660Y020772D01*
X016383Y020969D02*
X016456Y020969D01*
X017137Y021650D01*
D23*
X009837Y009946D02*
X009019Y009946D01*
X008156Y009083D01*
X007786Y009454D01*
X001914Y009454D01*
X009837Y009946D02*
X011511Y008272D01*
X011511Y008026D01*
X013873Y007682D02*
X013873Y007387D01*
X013873Y007682D02*
X014267Y008076D01*
X018113Y008076D01*
D24*
X016530Y009650D03*
M02*
