G75*
%MOIN*%
%OFA0B0*%
%FSLAX24Y24*%
%IPPOS*%
%LPD*%
%AMOC8*
5,1,8,0,0,1.08239X$1,22.5*
%
%ADD10C,0.0000*%
%ADD11R,0.0260X0.0510*%
%ADD12R,0.0510X0.0260*%
%ADD13R,0.0591X0.0355*%
%ADD14C,0.0630*%
%ADD15R,0.0630X0.0394*%
%ADD16R,0.0631X0.0552*%
%ADD17R,0.0552X0.0631*%
%ADD18C,0.0560*%
%ADD19R,0.1477X0.0847*%
%ADD20C,0.0555*%
%ADD21C,0.0740*%
%ADD22C,0.0640*%
%ADD23OC8,0.0640*%
%ADD24C,0.0600*%
%ADD25C,0.1340*%
%ADD26R,0.0260X0.0540*%
%ADD27R,0.0512X0.0512*%
%ADD28C,0.1300*%
D10*
X000389Y000891D02*
X000389Y027269D01*
X024011Y027269D01*
X024011Y000891D01*
X000389Y000891D01*
X001333Y005615D02*
X001335Y005665D01*
X001341Y005715D01*
X001351Y005764D01*
X001365Y005812D01*
X001382Y005859D01*
X001403Y005904D01*
X001428Y005948D01*
X001456Y005989D01*
X001488Y006028D01*
X001522Y006065D01*
X001559Y006099D01*
X001599Y006129D01*
X001641Y006156D01*
X001685Y006180D01*
X001731Y006201D01*
X001778Y006217D01*
X001826Y006230D01*
X001876Y006239D01*
X001925Y006244D01*
X001976Y006245D01*
X002026Y006242D01*
X002075Y006235D01*
X002124Y006224D01*
X002172Y006209D01*
X002218Y006191D01*
X002263Y006169D01*
X002306Y006143D01*
X002347Y006114D01*
X002386Y006082D01*
X002422Y006047D01*
X002454Y006009D01*
X002484Y005969D01*
X002511Y005926D01*
X002534Y005882D01*
X002553Y005836D01*
X002569Y005788D01*
X002581Y005739D01*
X002589Y005690D01*
X002593Y005640D01*
X002593Y005590D01*
X002589Y005540D01*
X002581Y005491D01*
X002569Y005442D01*
X002553Y005394D01*
X002534Y005348D01*
X002511Y005304D01*
X002484Y005261D01*
X002454Y005221D01*
X002422Y005183D01*
X002386Y005148D01*
X002347Y005116D01*
X002306Y005087D01*
X002263Y005061D01*
X002218Y005039D01*
X002172Y005021D01*
X002124Y005006D01*
X002075Y004995D01*
X002026Y004988D01*
X001976Y004985D01*
X001925Y004986D01*
X001876Y004991D01*
X001826Y005000D01*
X001778Y005013D01*
X001731Y005029D01*
X001685Y005050D01*
X001641Y005074D01*
X001599Y005101D01*
X001559Y005131D01*
X001522Y005165D01*
X001488Y005202D01*
X001456Y005241D01*
X001428Y005282D01*
X001403Y005326D01*
X001382Y005371D01*
X001365Y005418D01*
X001351Y005466D01*
X001341Y005515D01*
X001335Y005565D01*
X001333Y005615D01*
X001333Y025694D02*
X001335Y025744D01*
X001341Y025794D01*
X001351Y025843D01*
X001365Y025891D01*
X001382Y025938D01*
X001403Y025983D01*
X001428Y026027D01*
X001456Y026068D01*
X001488Y026107D01*
X001522Y026144D01*
X001559Y026178D01*
X001599Y026208D01*
X001641Y026235D01*
X001685Y026259D01*
X001731Y026280D01*
X001778Y026296D01*
X001826Y026309D01*
X001876Y026318D01*
X001925Y026323D01*
X001976Y026324D01*
X002026Y026321D01*
X002075Y026314D01*
X002124Y026303D01*
X002172Y026288D01*
X002218Y026270D01*
X002263Y026248D01*
X002306Y026222D01*
X002347Y026193D01*
X002386Y026161D01*
X002422Y026126D01*
X002454Y026088D01*
X002484Y026048D01*
X002511Y026005D01*
X002534Y025961D01*
X002553Y025915D01*
X002569Y025867D01*
X002581Y025818D01*
X002589Y025769D01*
X002593Y025719D01*
X002593Y025669D01*
X002589Y025619D01*
X002581Y025570D01*
X002569Y025521D01*
X002553Y025473D01*
X002534Y025427D01*
X002511Y025383D01*
X002484Y025340D01*
X002454Y025300D01*
X002422Y025262D01*
X002386Y025227D01*
X002347Y025195D01*
X002306Y025166D01*
X002263Y025140D01*
X002218Y025118D01*
X002172Y025100D01*
X002124Y025085D01*
X002075Y025074D01*
X002026Y025067D01*
X001976Y025064D01*
X001925Y025065D01*
X001876Y025070D01*
X001826Y025079D01*
X001778Y025092D01*
X001731Y025108D01*
X001685Y025129D01*
X001641Y025153D01*
X001599Y025180D01*
X001559Y025210D01*
X001522Y025244D01*
X001488Y025281D01*
X001456Y025320D01*
X001428Y025361D01*
X001403Y025405D01*
X001382Y025450D01*
X001365Y025497D01*
X001351Y025545D01*
X001341Y025594D01*
X001335Y025644D01*
X001333Y025694D01*
X021806Y025694D02*
X021808Y025744D01*
X021814Y025794D01*
X021824Y025843D01*
X021838Y025891D01*
X021855Y025938D01*
X021876Y025983D01*
X021901Y026027D01*
X021929Y026068D01*
X021961Y026107D01*
X021995Y026144D01*
X022032Y026178D01*
X022072Y026208D01*
X022114Y026235D01*
X022158Y026259D01*
X022204Y026280D01*
X022251Y026296D01*
X022299Y026309D01*
X022349Y026318D01*
X022398Y026323D01*
X022449Y026324D01*
X022499Y026321D01*
X022548Y026314D01*
X022597Y026303D01*
X022645Y026288D01*
X022691Y026270D01*
X022736Y026248D01*
X022779Y026222D01*
X022820Y026193D01*
X022859Y026161D01*
X022895Y026126D01*
X022927Y026088D01*
X022957Y026048D01*
X022984Y026005D01*
X023007Y025961D01*
X023026Y025915D01*
X023042Y025867D01*
X023054Y025818D01*
X023062Y025769D01*
X023066Y025719D01*
X023066Y025669D01*
X023062Y025619D01*
X023054Y025570D01*
X023042Y025521D01*
X023026Y025473D01*
X023007Y025427D01*
X022984Y025383D01*
X022957Y025340D01*
X022927Y025300D01*
X022895Y025262D01*
X022859Y025227D01*
X022820Y025195D01*
X022779Y025166D01*
X022736Y025140D01*
X022691Y025118D01*
X022645Y025100D01*
X022597Y025085D01*
X022548Y025074D01*
X022499Y025067D01*
X022449Y025064D01*
X022398Y025065D01*
X022349Y025070D01*
X022299Y025079D01*
X022251Y025092D01*
X022204Y025108D01*
X022158Y025129D01*
X022114Y025153D01*
X022072Y025180D01*
X022032Y025210D01*
X021995Y025244D01*
X021961Y025281D01*
X021929Y025320D01*
X021901Y025361D01*
X021876Y025405D01*
X021855Y025450D01*
X021838Y025497D01*
X021824Y025545D01*
X021814Y025594D01*
X021808Y025644D01*
X021806Y025694D01*
X021806Y002859D02*
X021808Y002909D01*
X021814Y002959D01*
X021824Y003008D01*
X021838Y003056D01*
X021855Y003103D01*
X021876Y003148D01*
X021901Y003192D01*
X021929Y003233D01*
X021961Y003272D01*
X021995Y003309D01*
X022032Y003343D01*
X022072Y003373D01*
X022114Y003400D01*
X022158Y003424D01*
X022204Y003445D01*
X022251Y003461D01*
X022299Y003474D01*
X022349Y003483D01*
X022398Y003488D01*
X022449Y003489D01*
X022499Y003486D01*
X022548Y003479D01*
X022597Y003468D01*
X022645Y003453D01*
X022691Y003435D01*
X022736Y003413D01*
X022779Y003387D01*
X022820Y003358D01*
X022859Y003326D01*
X022895Y003291D01*
X022927Y003253D01*
X022957Y003213D01*
X022984Y003170D01*
X023007Y003126D01*
X023026Y003080D01*
X023042Y003032D01*
X023054Y002983D01*
X023062Y002934D01*
X023066Y002884D01*
X023066Y002834D01*
X023062Y002784D01*
X023054Y002735D01*
X023042Y002686D01*
X023026Y002638D01*
X023007Y002592D01*
X022984Y002548D01*
X022957Y002505D01*
X022927Y002465D01*
X022895Y002427D01*
X022859Y002392D01*
X022820Y002360D01*
X022779Y002331D01*
X022736Y002305D01*
X022691Y002283D01*
X022645Y002265D01*
X022597Y002250D01*
X022548Y002239D01*
X022499Y002232D01*
X022449Y002229D01*
X022398Y002230D01*
X022349Y002235D01*
X022299Y002244D01*
X022251Y002257D01*
X022204Y002273D01*
X022158Y002294D01*
X022114Y002318D01*
X022072Y002345D01*
X022032Y002375D01*
X021995Y002409D01*
X021961Y002446D01*
X021929Y002485D01*
X021901Y002526D01*
X021876Y002570D01*
X021855Y002615D01*
X021838Y002662D01*
X021824Y002710D01*
X021814Y002759D01*
X021808Y002809D01*
X021806Y002859D01*
D11*
X014562Y012387D03*
X014247Y012387D03*
X013932Y012387D03*
X013617Y012387D03*
X013302Y012387D03*
X012987Y012387D03*
X012672Y012387D03*
X012357Y012387D03*
X012042Y012387D03*
X011727Y012387D03*
X011412Y012387D03*
X011097Y012387D03*
X010782Y012387D03*
X010467Y012387D03*
X010152Y012387D03*
X009837Y012387D03*
X009837Y018528D03*
X010152Y018528D03*
X010467Y018528D03*
X010782Y018528D03*
X011097Y018528D03*
X011412Y018528D03*
X011727Y018528D03*
X012042Y018528D03*
X012357Y018528D03*
X012672Y018528D03*
X012987Y018528D03*
X013302Y018528D03*
X013617Y018528D03*
X013932Y018528D03*
X014247Y018528D03*
X014562Y018528D03*
D12*
X015270Y017820D03*
X015270Y017505D03*
X015270Y017190D03*
X015270Y016875D03*
X015270Y016560D03*
X015270Y016245D03*
X015270Y015930D03*
X015270Y015615D03*
X015270Y015300D03*
X015270Y014985D03*
X015270Y014670D03*
X015270Y014355D03*
X015270Y014040D03*
X015270Y013725D03*
X015270Y013410D03*
X015270Y013095D03*
X009129Y013095D03*
X009129Y013410D03*
X009129Y013725D03*
X009129Y014040D03*
X009129Y014355D03*
X009129Y014670D03*
X009129Y014985D03*
X009129Y015300D03*
X009129Y015615D03*
X009129Y015930D03*
X009129Y016245D03*
X009129Y016560D03*
X009129Y016875D03*
X009129Y017190D03*
X009129Y017505D03*
X009129Y017820D03*
D13*
X012684Y007288D03*
X012684Y006107D03*
D14*
X011957Y006593D02*
X011957Y006803D01*
X011957Y006593D02*
X011111Y006593D01*
X011111Y006803D01*
X011957Y006803D01*
D15*
X012684Y006698D03*
D16*
X013873Y006678D03*
X013873Y005930D03*
X007869Y012820D03*
X007869Y013568D03*
X008656Y020202D03*
X008656Y020950D03*
X016530Y017111D03*
X016530Y016363D03*
X016530Y013961D03*
X016530Y013213D03*
D17*
X012672Y008863D03*
X011924Y008863D03*
X012180Y010733D03*
X011432Y010733D03*
X013144Y004778D03*
X013814Y004778D03*
X014139Y019837D03*
X014887Y019837D03*
X013263Y022249D03*
X012515Y022249D03*
X010605Y022249D03*
X009857Y022249D03*
D18*
X010610Y020576D03*
X012510Y020576D03*
D19*
X004719Y006402D03*
X004719Y005221D03*
D20*
X004227Y002723D02*
X004227Y002208D01*
X002849Y002208D02*
X002849Y002723D01*
X001471Y002723D02*
X001471Y002208D01*
X005605Y002208D02*
X005605Y002723D01*
X006983Y002723D02*
X006983Y002208D01*
X008361Y002208D02*
X008361Y002723D01*
X009739Y002723D02*
X009739Y002208D01*
X011117Y002208D02*
X011117Y002723D01*
X012495Y002723D02*
X012495Y002208D01*
X013873Y002208D02*
X013873Y002723D01*
X015251Y002723D02*
X015251Y002208D01*
X016629Y002208D02*
X016629Y002723D01*
X018204Y002723D02*
X018204Y002208D01*
X019581Y002208D02*
X019581Y002723D01*
X002172Y008076D02*
X001657Y008076D01*
X001657Y009454D02*
X002172Y009454D01*
X002172Y010831D02*
X001657Y010831D01*
X001657Y012209D02*
X002172Y012209D01*
X002172Y013587D02*
X001657Y013587D01*
X001657Y014965D02*
X002172Y014965D01*
X002172Y016343D02*
X001657Y016343D01*
X001657Y017721D02*
X002172Y017721D01*
X002172Y019099D02*
X001657Y019099D01*
X001657Y020477D02*
X002172Y020477D01*
X002172Y021855D02*
X001657Y021855D01*
X001657Y023233D02*
X002172Y023233D01*
X004621Y025436D02*
X004621Y025951D01*
X005999Y025951D02*
X005999Y025436D01*
X007377Y025436D02*
X007377Y025951D01*
X008755Y025951D02*
X008755Y025436D01*
X010133Y025436D02*
X010133Y025951D01*
X011511Y025951D02*
X011511Y025436D01*
X012889Y025436D02*
X012889Y025951D01*
X014267Y025951D02*
X014267Y025436D01*
X015644Y025436D02*
X015644Y025951D01*
X017022Y025951D02*
X017022Y025436D01*
X018400Y025436D02*
X018400Y025951D01*
X019778Y025951D02*
X019778Y025436D01*
D21*
X020117Y023331D02*
X020817Y023331D01*
X020817Y022347D02*
X020117Y022347D01*
X020117Y021363D02*
X020817Y021363D01*
X020817Y020379D02*
X020117Y020379D01*
X020117Y019394D02*
X020817Y019394D01*
X020817Y018410D02*
X020117Y018410D01*
X020117Y017426D02*
X020817Y017426D01*
X020817Y016442D02*
X020117Y016442D01*
X020117Y015457D02*
X020817Y015457D01*
X020817Y014473D02*
X020117Y014473D01*
X020117Y013489D02*
X020817Y013489D01*
X020817Y012505D02*
X020117Y012505D01*
X020117Y011520D02*
X020817Y011520D01*
D22*
X017137Y022650D03*
D23*
X017137Y021650D03*
X016137Y021650D03*
X015137Y021650D03*
X015137Y022650D03*
X016137Y022650D03*
X009156Y009083D03*
X009156Y008083D03*
X009156Y007083D03*
X009156Y006083D03*
X008156Y006083D03*
X008156Y007083D03*
X008156Y008083D03*
X008156Y009083D03*
D24*
X018113Y008076D03*
X018893Y008076D03*
X018893Y007091D03*
X018113Y007091D03*
D25*
X019963Y005213D03*
X019963Y009953D03*
D26*
X016900Y010223D03*
X016530Y010223D03*
X016160Y010223D03*
X016160Y011243D03*
X016530Y011243D03*
X016900Y011243D03*
D27*
X011875Y004778D03*
X011048Y004778D03*
D28*
X001963Y005615D03*
X001963Y025694D03*
X022436Y025694D03*
X022436Y002859D03*
M02*
