G04 #@! TF.FileFunction,Other,ECO1*
%FSLAX46Y46*%
G04 Gerber Fmt 4.6, Leading zero omitted, Abs format (unit mm)*
G04 Created by KiCad (PCBNEW 4.0.5) date 05/20/17 23:37:33*
%MOMM*%
%LPD*%
G01*
G04 APERTURE LIST*
%ADD10C,0.100000*%
%ADD11C,0.300000*%
%ADD12C,0.200000*%
G04 APERTURE END LIST*
D10*
D11*
X70178571Y-54750000D02*
X71250000Y-54750000D01*
X71464286Y-54821428D01*
X71607143Y-54964285D01*
X71678571Y-55178571D01*
X71678571Y-55321428D01*
X70178571Y-54178571D02*
X70178571Y-53250000D01*
X70750000Y-53750000D01*
X70750000Y-53535714D01*
X70821429Y-53392857D01*
X70892857Y-53321428D01*
X71035714Y-53250000D01*
X71392857Y-53250000D01*
X71535714Y-53321428D01*
X71607143Y-53392857D01*
X71678571Y-53535714D01*
X71678571Y-53964286D01*
X71607143Y-54107143D01*
X71535714Y-54178571D01*
X59678571Y-54499999D02*
X58964286Y-54999999D01*
X59678571Y-55357142D02*
X58178571Y-55357142D01*
X58178571Y-54785714D01*
X58250000Y-54642856D01*
X58321429Y-54571428D01*
X58464286Y-54499999D01*
X58678571Y-54499999D01*
X58821429Y-54571428D01*
X58892857Y-54642856D01*
X58964286Y-54785714D01*
X58964286Y-55357142D01*
X59678571Y-53071428D02*
X59678571Y-53928571D01*
X59678571Y-53499999D02*
X58178571Y-53499999D01*
X58392857Y-53642856D01*
X58535714Y-53785714D01*
X58607143Y-53928571D01*
X66392858Y-57428571D02*
X66392858Y-55928571D01*
X66750001Y-55928571D01*
X66964286Y-56000000D01*
X67107144Y-56142857D01*
X67178572Y-56285714D01*
X67250001Y-56571429D01*
X67250001Y-56785714D01*
X67178572Y-57071429D01*
X67107144Y-57214286D01*
X66964286Y-57357143D01*
X66750001Y-57428571D01*
X66392858Y-57428571D01*
X68678572Y-57428571D02*
X67821429Y-57428571D01*
X68250001Y-57428571D02*
X68250001Y-55928571D01*
X68107144Y-56142857D01*
X67964286Y-56285714D01*
X67821429Y-56357143D01*
X70588095Y-98433333D02*
X71516667Y-98433333D01*
X71702381Y-98495237D01*
X71826190Y-98619047D01*
X71888095Y-98804761D01*
X71888095Y-98928571D01*
X70711905Y-97876190D02*
X70650000Y-97814285D01*
X70588095Y-97690476D01*
X70588095Y-97380952D01*
X70650000Y-97257142D01*
X70711905Y-97195238D01*
X70835714Y-97133333D01*
X70959524Y-97133333D01*
X71145238Y-97195238D01*
X71888095Y-97938095D01*
X71888095Y-97133333D01*
D12*
X66300000Y-92100000D02*
X68200000Y-92100000D01*
X66300000Y-89800000D02*
X66300000Y-92100000D01*
X77700000Y-92100000D02*
X75800000Y-92100000D01*
X77700000Y-89800000D02*
X77700000Y-92100000D01*
X68100000Y-87100000D02*
X75900000Y-87100000D01*
X66300000Y-86300000D02*
X68200000Y-86300000D01*
X66300000Y-84100000D02*
X66300000Y-86300000D01*
X77700000Y-86300000D02*
X75800000Y-86300000D01*
X77700000Y-84100000D02*
X77700000Y-86300000D01*
X68100000Y-81300000D02*
X75900000Y-81300000D01*
X77700000Y-80600000D02*
X75800000Y-80600000D01*
X77700000Y-78300000D02*
X77700000Y-80600000D01*
X66300000Y-80600000D02*
X68200000Y-80600000D01*
X66300000Y-78300000D02*
X66300000Y-80600000D01*
X68100000Y-75500000D02*
X75900000Y-75500000D01*
X77700000Y-74800000D02*
X75800000Y-74800000D01*
X77700000Y-72600000D02*
X77700000Y-74800000D01*
X66300000Y-74800000D02*
X68200000Y-74800000D01*
X66300000Y-72600000D02*
X66300000Y-74800000D01*
X68100000Y-69800000D02*
X75900000Y-69800000D01*
X77700000Y-69100000D02*
X75800000Y-69100000D01*
X77700000Y-66800000D02*
X77700000Y-69100000D01*
X66300000Y-69100000D02*
X68200000Y-69100000D01*
X66300000Y-66800000D02*
X66300000Y-69100000D01*
X68100000Y-64000000D02*
X75900000Y-64000000D01*
X52300000Y-92100000D02*
X54300000Y-92100000D01*
X52300000Y-89800000D02*
X52300000Y-92100000D01*
X63800000Y-92100000D02*
X61800000Y-92100000D01*
X63800000Y-89800000D02*
X63800000Y-92100000D01*
X54100000Y-87000000D02*
X62000000Y-87000000D01*
X63800000Y-86400000D02*
X61800000Y-86400000D01*
X63800000Y-84000000D02*
X63800000Y-86400000D01*
X52300000Y-86400000D02*
X54300000Y-86400000D01*
X52300000Y-84000000D02*
X52300000Y-86400000D01*
X54100000Y-81300000D02*
X62000000Y-81300000D01*
X63800000Y-80600000D02*
X61800000Y-80600000D01*
X63800000Y-78300000D02*
X63800000Y-80600000D01*
X52300000Y-80600000D02*
X54300000Y-80600000D01*
X52300000Y-78300000D02*
X52300000Y-80600000D01*
X52300000Y-74900000D02*
X54300000Y-74900000D01*
X52300000Y-72600000D02*
X52300000Y-74900000D01*
X52300000Y-69100000D02*
X54300000Y-69100000D01*
X52300000Y-66800000D02*
X52300000Y-69100000D01*
X54100000Y-75500000D02*
X62000000Y-75500000D01*
X62000000Y-69800000D02*
X54100000Y-69800000D01*
X63800000Y-74900000D02*
X61800000Y-74900000D01*
X63800000Y-72500000D02*
X63800000Y-74900000D01*
X63800000Y-69100000D02*
X63800000Y-66800000D01*
X63800000Y-69100000D02*
X61800000Y-69100000D01*
X54100000Y-64000000D02*
X62000000Y-64000000D01*
X61750000Y-63250000D02*
X61750000Y-61000000D01*
X63750000Y-63250000D02*
X61750000Y-63250000D01*
X68750000Y-63250000D02*
X66750000Y-63250000D01*
X68750000Y-61000000D02*
X68750000Y-63250000D01*
X63500000Y-58250000D02*
X67000000Y-58250000D01*
X52250000Y-63250000D02*
X54250000Y-63250000D01*
X52250000Y-61000000D02*
X52250000Y-63250000D01*
X59250000Y-63250000D02*
X57250000Y-63250000D01*
X59250000Y-61000000D02*
X59250000Y-63250000D01*
X54000000Y-58250000D02*
X57500000Y-58250000D01*
X59900000Y-99100000D02*
X59900000Y-97800000D01*
X61200000Y-99100000D02*
X59900000Y-99100000D01*
X59900000Y-96500000D02*
X59900000Y-93900000D01*
X62500000Y-96500000D02*
X59900000Y-96500000D01*
X62500000Y-99100000D02*
X62500000Y-96500000D01*
X70100000Y-99100000D02*
X62500000Y-99100000D01*
X70100000Y-93900000D02*
X70100000Y-99100000D01*
X59900000Y-93900000D02*
X70100000Y-93900000D01*
X71200000Y-62500000D02*
X71200000Y-58000000D01*
X78800000Y-62500000D02*
X78800000Y-62200000D01*
X71200000Y-62500000D02*
X78800000Y-62500000D01*
X78800000Y-58000000D02*
X78800000Y-60800000D01*
X71200000Y-58000000D02*
X78800000Y-58000000D01*
X61900000Y-57800000D02*
X62500000Y-57800000D01*
X61900000Y-55700000D02*
X61900000Y-57800000D01*
X62500000Y-55700000D02*
X61900000Y-55700000D01*
X65300000Y-56000000D02*
X62200000Y-56000000D01*
X65300000Y-57500000D02*
X65300000Y-56000000D01*
X62200000Y-57500000D02*
X65300000Y-57500000D01*
X62200000Y-56000000D02*
X62200000Y-57500000D01*
X58900000Y-57600000D02*
X58900000Y-55900000D01*
X61600000Y-57600000D02*
X58900000Y-57600000D01*
X61600000Y-55900000D02*
X61600000Y-57600000D01*
X58900000Y-55900000D02*
X61600000Y-55900000D01*
X69600000Y-55300000D02*
X69600000Y-50000000D01*
X60400000Y-55300000D02*
X69600000Y-55300000D01*
X60400000Y-50000000D02*
X60400000Y-55300000D01*
X79600000Y-61500000D02*
G75*
G03X79600000Y-61500000I-500000J0D01*
G01*
D11*
X59488095Y-97428571D02*
X59488095Y-98171428D01*
X59488095Y-97799999D02*
X58188095Y-97799999D01*
X58373810Y-97923809D01*
X58497619Y-98047618D01*
X58559524Y-98171428D01*
X79216667Y-66104762D02*
X79216667Y-65485714D01*
X79588095Y-66228571D02*
X78288095Y-65795238D01*
X79588095Y-65361905D01*
X79588095Y-64247619D02*
X79588095Y-64990476D01*
X79588095Y-64619047D02*
X78288095Y-64619047D01*
X78473810Y-64742857D01*
X78597619Y-64866666D01*
X78659524Y-64990476D01*
X79216667Y-71804762D02*
X79216667Y-71185714D01*
X79588095Y-71928571D02*
X78288095Y-71495238D01*
X79588095Y-71061905D01*
X78411905Y-70690476D02*
X78350000Y-70628571D01*
X78288095Y-70504762D01*
X78288095Y-70195238D01*
X78350000Y-70071428D01*
X78411905Y-70009524D01*
X78535714Y-69947619D01*
X78659524Y-69947619D01*
X78845238Y-70009524D01*
X79588095Y-70752381D01*
X79588095Y-69947619D01*
X79588095Y-76885714D02*
X78969048Y-77319047D01*
X79588095Y-77628571D02*
X78288095Y-77628571D01*
X78288095Y-77133333D01*
X78350000Y-77009524D01*
X78411905Y-76947619D01*
X78535714Y-76885714D01*
X78721429Y-76885714D01*
X78845238Y-76947619D01*
X78907143Y-77009524D01*
X78969048Y-77133333D01*
X78969048Y-77628571D01*
X79588095Y-75647619D02*
X79588095Y-76390476D01*
X79588095Y-76019047D02*
X78288095Y-76019047D01*
X78473810Y-76142857D01*
X78597619Y-76266666D01*
X78659524Y-76390476D01*
X79588095Y-82685714D02*
X78969048Y-83119047D01*
X79588095Y-83428571D02*
X78288095Y-83428571D01*
X78288095Y-82933333D01*
X78350000Y-82809524D01*
X78411905Y-82747619D01*
X78535714Y-82685714D01*
X78721429Y-82685714D01*
X78845238Y-82747619D01*
X78907143Y-82809524D01*
X78969048Y-82933333D01*
X78969048Y-83428571D01*
X78411905Y-82190476D02*
X78350000Y-82128571D01*
X78288095Y-82004762D01*
X78288095Y-81695238D01*
X78350000Y-81571428D01*
X78411905Y-81509524D01*
X78535714Y-81447619D01*
X78659524Y-81447619D01*
X78845238Y-81509524D01*
X79588095Y-82252381D01*
X79588095Y-81447619D01*
X79588095Y-88485714D02*
X78969048Y-88919047D01*
X79588095Y-89228571D02*
X78288095Y-89228571D01*
X78288095Y-88733333D01*
X78350000Y-88609524D01*
X78411905Y-88547619D01*
X78535714Y-88485714D01*
X78721429Y-88485714D01*
X78845238Y-88547619D01*
X78907143Y-88609524D01*
X78969048Y-88733333D01*
X78969048Y-89228571D01*
X78288095Y-88052381D02*
X78288095Y-87247619D01*
X78783333Y-87680952D01*
X78783333Y-87495238D01*
X78845238Y-87371428D01*
X78907143Y-87309524D01*
X79030952Y-87247619D01*
X79340476Y-87247619D01*
X79464286Y-87309524D01*
X79526190Y-87371428D01*
X79588095Y-87495238D01*
X79588095Y-87866666D01*
X79526190Y-87990476D01*
X79464286Y-88052381D01*
X70588095Y-60571429D02*
X70588095Y-61190476D01*
X69288095Y-61190476D01*
X69907143Y-60138095D02*
X69907143Y-59704762D01*
X70588095Y-59519048D02*
X70588095Y-60138095D01*
X69288095Y-60138095D01*
X69288095Y-59519048D01*
X70588095Y-58961905D02*
X69288095Y-58961905D01*
X69288095Y-58652381D01*
X69350000Y-58466667D01*
X69473810Y-58342858D01*
X69597619Y-58280953D01*
X69845238Y-58219048D01*
X70030952Y-58219048D01*
X70278571Y-58280953D01*
X70402381Y-58342858D01*
X70526190Y-58466667D01*
X70588095Y-58652381D01*
X70588095Y-58961905D01*
X51788095Y-62657142D02*
X50488095Y-62657142D01*
X51416667Y-62223809D01*
X50488095Y-61790476D01*
X51788095Y-61790476D01*
X51107143Y-61171428D02*
X51107143Y-60738095D01*
X51788095Y-60552381D02*
X51788095Y-61171428D01*
X50488095Y-61171428D01*
X50488095Y-60552381D01*
X50488095Y-60180952D02*
X50488095Y-59438095D01*
X51788095Y-59809524D02*
X50488095Y-59809524D01*
X51416667Y-59066667D02*
X51416667Y-58447619D01*
X51788095Y-59190476D02*
X50488095Y-58757143D01*
X51788095Y-58323810D01*
X51107143Y-71495238D02*
X51169048Y-71309524D01*
X51230952Y-71247619D01*
X51354762Y-71185714D01*
X51540476Y-71185714D01*
X51664286Y-71247619D01*
X51726190Y-71309524D01*
X51788095Y-71433333D01*
X51788095Y-71928571D01*
X50488095Y-71928571D01*
X50488095Y-71495238D01*
X50550000Y-71371428D01*
X50611905Y-71309524D01*
X50735714Y-71247619D01*
X50859524Y-71247619D01*
X50983333Y-71309524D01*
X51045238Y-71371428D01*
X51107143Y-71495238D01*
X51107143Y-71928571D01*
X51788095Y-69947619D02*
X51788095Y-70690476D01*
X51788095Y-70319047D02*
X50488095Y-70319047D01*
X50673810Y-70442857D01*
X50797619Y-70566666D01*
X50859524Y-70690476D01*
X51107143Y-77295238D02*
X51169048Y-77109524D01*
X51230952Y-77047619D01*
X51354762Y-76985714D01*
X51540476Y-76985714D01*
X51664286Y-77047619D01*
X51726190Y-77109524D01*
X51788095Y-77233333D01*
X51788095Y-77728571D01*
X50488095Y-77728571D01*
X50488095Y-77295238D01*
X50550000Y-77171428D01*
X50611905Y-77109524D01*
X50735714Y-77047619D01*
X50859524Y-77047619D01*
X50983333Y-77109524D01*
X51045238Y-77171428D01*
X51107143Y-77295238D01*
X51107143Y-77728571D01*
X50611905Y-76490476D02*
X50550000Y-76428571D01*
X50488095Y-76304762D01*
X50488095Y-75995238D01*
X50550000Y-75871428D01*
X50611905Y-75809524D01*
X50735714Y-75747619D01*
X50859524Y-75747619D01*
X51045238Y-75809524D01*
X51788095Y-76552381D01*
X51788095Y-75747619D01*
X51107143Y-82995238D02*
X51169048Y-82809524D01*
X51230952Y-82747619D01*
X51354762Y-82685714D01*
X51540476Y-82685714D01*
X51664286Y-82747619D01*
X51726190Y-82809524D01*
X51788095Y-82933333D01*
X51788095Y-83428571D01*
X50488095Y-83428571D01*
X50488095Y-82995238D01*
X50550000Y-82871428D01*
X50611905Y-82809524D01*
X50735714Y-82747619D01*
X50859524Y-82747619D01*
X50983333Y-82809524D01*
X51045238Y-82871428D01*
X51107143Y-82995238D01*
X51107143Y-83428571D01*
X50488095Y-82252381D02*
X50488095Y-81447619D01*
X50983333Y-81880952D01*
X50983333Y-81695238D01*
X51045238Y-81571428D01*
X51107143Y-81509524D01*
X51230952Y-81447619D01*
X51540476Y-81447619D01*
X51664286Y-81509524D01*
X51726190Y-81571428D01*
X51788095Y-81695238D01*
X51788095Y-82066666D01*
X51726190Y-82190476D01*
X51664286Y-82252381D01*
X51107143Y-88795238D02*
X51169048Y-88609524D01*
X51230952Y-88547619D01*
X51354762Y-88485714D01*
X51540476Y-88485714D01*
X51664286Y-88547619D01*
X51726190Y-88609524D01*
X51788095Y-88733333D01*
X51788095Y-89228571D01*
X50488095Y-89228571D01*
X50488095Y-88795238D01*
X50550000Y-88671428D01*
X50611905Y-88609524D01*
X50735714Y-88547619D01*
X50859524Y-88547619D01*
X50983333Y-88609524D01*
X51045238Y-88671428D01*
X51107143Y-88795238D01*
X51107143Y-89228571D01*
X50921429Y-87371428D02*
X51788095Y-87371428D01*
X50426190Y-87680952D02*
X51354762Y-87990476D01*
X51354762Y-87185714D01*
X50488095Y-66785715D02*
X51416667Y-66785715D01*
X51602381Y-66847619D01*
X51726190Y-66971429D01*
X51788095Y-67157143D01*
X51788095Y-67280953D01*
X50488095Y-65919048D02*
X50488095Y-65671429D01*
X50550000Y-65547620D01*
X50673810Y-65423810D01*
X50921429Y-65361905D01*
X51354762Y-65361905D01*
X51602381Y-65423810D01*
X51726190Y-65547620D01*
X51788095Y-65671429D01*
X51788095Y-65919048D01*
X51726190Y-66042858D01*
X51602381Y-66166667D01*
X51354762Y-66228572D01*
X50921429Y-66228572D01*
X50673810Y-66166667D01*
X50550000Y-66042858D01*
X50488095Y-65919048D01*
X51169048Y-64557143D02*
X51788095Y-64557143D01*
X50488095Y-64990476D02*
X51169048Y-64557143D01*
X50488095Y-64123810D01*
M02*
