M48
;DRILL file {KiCad 4.0.5} date 07/09/17 21:39:08
;FORMAT={2:4/ absolute / inch / keep zeros}
FMAT,2
INCH,TZ
T1C0.008
T2C0.012
T3C0.039
T4C0.126
%
G90
G05
M72
T1
X022638Y-024803
X025886Y-022441
X026280Y-024705
T2
X020157Y-027441
X020276Y-027067
X021161Y-028740
X021161Y-029232
X021161Y-031004
X021260Y-024705
X021260Y-035531
X021654Y-025689
X021752Y-034252
X021969Y-032283
X022244Y-025394
X022343Y-027461
X022343Y-027854
X022343Y-034252
X022539Y-029724
X022835Y-025197
X022835Y-027461
X022835Y-027854
X022835Y-036516
X023031Y-022343
X023031Y-029823
X023425Y-027854
X023425Y-030217
X023425Y-036457
X023524Y-034646
X023720Y-025197
X023819Y-030118
X023917Y-027953
X024016Y-034252
X024016Y-034646
X024114Y-025197
X024114Y-027461
X024213Y-030217
X024409Y-031004
X024508Y-021850
X024803Y-021850
X024803Y-027067
X024803Y-031004
X024902Y-024803
X024902Y-035531
X025000Y-026772
X025098Y-021850
X025394Y-026772
X025492Y-021850
X025787Y-026772
X025886Y-022047
X026378Y-033858
X026673Y-028740
X026772Y-033858
X026772Y-035531
X027067Y-025000
X027165Y-025591
X027165Y-027461
X027165Y-027854
X027165Y-030020
X027264Y-024705
X027264Y-025295
X027362Y-022343
X027461Y-020374
X027559Y-032283
X027756Y-034744
X027953Y-032087
X028051Y-023228
X028051Y-024016
X028346Y-027953
X028346Y-029724
X028346Y-032382
X028346Y-034744
X028740Y-029724
X028937Y-032382
X028937Y-034744
X029134Y-025394
X029134Y-029724
X029429Y-027461
X029429Y-027854
X029528Y-022835
X029528Y-029724
X029528Y-030217
X029528Y-032382
X029528Y-034744
X029724Y-027756
X029823Y-022835
X029921Y-031004
X030020Y-028740
X030020Y-029134
X030118Y-022835
X030413Y-026320
X030413Y-026673
X030413Y-028740
X030413Y-029134
X030709Y-026476
X030807Y-026969
X030807Y-035531
X030807Y-035827
X031102Y-035531
X031102Y-035827
T3
X024091Y-037500
X024091Y-038500
X025091Y-037500
X025091Y-038500
X026091Y-037500
X026091Y-038500
X027091Y-037500
X027091Y-038500
T4
X021260Y-021260
X021260Y-037795
X029921Y-021260
X029921Y-037795
T0
M30
