G04 #@! TF.FileFunction,Soldermask,Top*
%FSLAX46Y46*%
G04 Gerber Fmt 4.6, Leading zero omitted, Abs format (unit mm)*
G04 Created by KiCad (PCBNEW 4.0.5) date 07/09/17 21:46:26*
%MOMM*%
%LPD*%
G01*
G04 APERTURE LIST*
%ADD10C,0.100000*%
%ADD11R,1.100000X3.600000*%
%ADD12R,1.900000X2.700000*%
%ADD13R,1.200000X1.200000*%
%ADD14R,2.800000X1.160000*%
%ADD15R,0.850000X1.780000*%
%ADD16R,1.875000X2.500000*%
%ADD17R,2.775000X2.300000*%
%ADD18R,1.575000X2.300000*%
%ADD19R,0.900000X1.300000*%
%ADD20C,6.800000*%
%ADD21R,2.100000X2.100000*%
%ADD22O,2.100000X2.100000*%
G04 APERTURE END LIST*
D10*
D11*
X66000000Y-61600000D03*
X64500000Y-61600000D03*
D12*
X68050000Y-59450000D03*
X62450000Y-59450000D03*
D13*
X64550000Y-56750000D03*
X62950000Y-56750000D03*
D14*
X76950000Y-61520000D03*
X73050000Y-61520000D03*
X76950000Y-60250000D03*
X73050000Y-60250000D03*
X76950000Y-58980000D03*
X73050000Y-58980000D03*
D15*
X66300000Y-54080000D03*
X65650000Y-54080000D03*
X65000000Y-54080000D03*
X64350000Y-54080000D03*
X63700000Y-54080000D03*
D16*
X67462500Y-53720000D03*
X62537500Y-53720000D03*
D17*
X67910000Y-51420000D03*
X62090000Y-51420000D03*
D18*
X65840000Y-51420000D03*
X64160000Y-51420000D03*
D11*
X75000000Y-67400000D03*
X73500000Y-67400000D03*
X72000000Y-67400000D03*
X70500000Y-67400000D03*
X69000000Y-67400000D03*
D12*
X77050000Y-65250000D03*
X66950000Y-65250000D03*
D11*
X75000000Y-73150000D03*
X73500000Y-73150000D03*
X72000000Y-73150000D03*
X70500000Y-73150000D03*
X69000000Y-73150000D03*
D12*
X77050000Y-71000000D03*
X66950000Y-71000000D03*
D11*
X61050000Y-73150000D03*
X59550000Y-73150000D03*
X58050000Y-73150000D03*
X56550000Y-73150000D03*
X55050000Y-73150000D03*
D12*
X63100000Y-71000000D03*
X53000000Y-71000000D03*
D11*
X61050000Y-78900000D03*
X59550000Y-78900000D03*
X58050000Y-78900000D03*
X56550000Y-78900000D03*
X55050000Y-78900000D03*
D12*
X63100000Y-76750000D03*
X53000000Y-76750000D03*
D11*
X61050000Y-84650000D03*
X59550000Y-84650000D03*
X58050000Y-84650000D03*
X56550000Y-84650000D03*
X55050000Y-84650000D03*
D12*
X63100000Y-82500000D03*
X53000000Y-82500000D03*
D11*
X61050000Y-90400000D03*
X59550000Y-90400000D03*
X58050000Y-90400000D03*
X56550000Y-90400000D03*
X55050000Y-90400000D03*
D12*
X63100000Y-88250000D03*
X53000000Y-88250000D03*
D11*
X61050000Y-67400000D03*
X59550000Y-67400000D03*
X58050000Y-67400000D03*
X56550000Y-67400000D03*
X55050000Y-67400000D03*
D12*
X63100000Y-65250000D03*
X53000000Y-65250000D03*
D11*
X56500000Y-61600000D03*
X55000000Y-61600000D03*
D12*
X58550000Y-59450000D03*
X52950000Y-59450000D03*
D11*
X75000000Y-78900000D03*
X73500000Y-78900000D03*
X72000000Y-78900000D03*
X70500000Y-78900000D03*
X69000000Y-78900000D03*
D12*
X77050000Y-76750000D03*
X66950000Y-76750000D03*
D11*
X75000000Y-84650000D03*
X73500000Y-84650000D03*
X72000000Y-84650000D03*
X70500000Y-84650000D03*
X69000000Y-84650000D03*
D12*
X77050000Y-82500000D03*
X66950000Y-82500000D03*
D11*
X75000000Y-90400000D03*
X73500000Y-90400000D03*
X72000000Y-90400000D03*
X70500000Y-90400000D03*
X69000000Y-90400000D03*
D12*
X77050000Y-88250000D03*
X66950000Y-88250000D03*
D19*
X61000000Y-56750000D03*
X59500000Y-56750000D03*
D20*
X54000000Y-54000000D03*
X76000000Y-54000000D03*
X54000000Y-96000000D03*
X76000000Y-96000000D03*
D21*
X61190000Y-97790000D03*
D22*
X61190000Y-95250000D03*
X63730000Y-97790000D03*
X63730000Y-95250000D03*
X66270000Y-97790000D03*
X66270000Y-95250000D03*
X68810000Y-97790000D03*
X68810000Y-95250000D03*
M02*
