M48
;DRILL file {KiCad 4.0.5} date 05/20/17 23:34:49
;FORMAT={3:3/ absolute / metric / suppress leading zeros}
FMAT,2
METRIC,TZ
T1C0.200
T2C0.300
T3C1.000
T4C3.200
%
G90
G05
M71
T1
X57500Y-63000
X65750Y-57000
X66750Y-62750
T2
X51200Y-69700
X51500Y-68750
X53750Y-73000
X53750Y-74250
X53750Y-78750
X54000Y-62750
X54000Y-90250
X55000Y-65250
X55250Y-87000
X55802Y-82000
X56500Y-64500
X56750Y-69750
X56750Y-70750
X56750Y-87000
X57250Y-75500
X58000Y-64000
X58000Y-69750
X58000Y-70750
X58000Y-92750
X58500Y-56750
X58500Y-75750
X59500Y-70750
X59500Y-76750
X59500Y-92600
X59750Y-88000
X60250Y-64000
X60500Y-76500
X60750Y-71000
X61000Y-87000
X61000Y-88000
X61250Y-64000
X61250Y-69750
X61500Y-76750
X62000Y-78750
X62250Y-55500
X63000Y-55500
X63000Y-68750
X63000Y-78750
X63250Y-63000
X63250Y-90250
X63500Y-68000
X63750Y-55500
X64500Y-68000
X64750Y-55500
X65500Y-68000
X65750Y-56000
X67000Y-86000
X67750Y-73000
X68000Y-86000
X68000Y-90250
X68750Y-63500
X69000Y-65000
X69000Y-69750
X69000Y-70750
X69000Y-76250
X69250Y-62750
X69250Y-64250
X69500Y-56750
X69750Y-51750
X70000Y-82000
X70500Y-88250
X71000Y-81500
X71250Y-59000
X71250Y-61000
X72000Y-71000
X72000Y-75500
X72000Y-82250
X72000Y-88250
X73000Y-75500
X73500Y-82250
X73500Y-88250
X74000Y-64500
X74000Y-75500
X74750Y-69750
X74750Y-70750
X75000Y-58000
X75000Y-75500
X75000Y-76750
X75000Y-82250
X75000Y-88250
X75500Y-70500
X75750Y-58000
X76000Y-78750
X76250Y-73000
X76250Y-74000
X76500Y-58000
X77250Y-66852
X77250Y-67750
X77250Y-73000
X77250Y-74000
X78000Y-67250
X78250Y-68500
X78250Y-90250
X78250Y-91000
X79000Y-90250
X79000Y-91000
T3
X61190Y-95250
X61190Y-97790
X63730Y-95250
X63730Y-97790
X66270Y-95250
X66270Y-97790
X68810Y-95250
X68810Y-97790
T4
X54000Y-54000
X54000Y-96000
X76000Y-54000
X76000Y-96000
T0
M30
