G04 #@! TF.FileFunction,Copper,L4,Bot,Signal*
%FSLAX46Y46*%
G04 Gerber Fmt 4.6, Leading zero omitted, Abs format (unit mm)*
G04 Created by KiCad (PCBNEW 4.0.5) date 05/20/17 23:37:33*
%MOMM*%
%LPD*%
G01*
G04 APERTURE LIST*
%ADD10C,0.100000*%
%ADD11C,0.300000*%
%ADD12C,0.150000*%
%ADD13R,0.800000X0.750000*%
%ADD14R,1.000000X1.600000*%
%ADD15R,0.750000X0.800000*%
%ADD16R,0.800000X0.900000*%
%ADD17R,1.500000X0.550000*%
%ADD18R,0.550000X1.500000*%
%ADD19R,0.650000X1.060000*%
%ADD20R,2.260000X2.600000*%
%ADD21C,6.400000*%
%ADD22R,1.700000X1.700000*%
%ADD23O,1.700000X1.700000*%
%ADD24C,0.600000*%
%ADD25C,0.500000*%
%ADD26C,1.000000*%
%ADD27C,0.200000*%
G04 APERTURE END LIST*
D10*
D11*
X51185715Y-63778571D02*
X51185715Y-64778571D01*
X50828572Y-63207143D02*
X50471429Y-64278571D01*
X51400001Y-64278571D01*
D12*
X76465476Y-80647619D02*
X76417857Y-80552381D01*
X76417857Y-80361905D01*
X76465476Y-80266667D01*
X76560714Y-80171429D01*
X76655952Y-80123810D01*
X76846429Y-80123810D01*
X76941667Y-80171429D01*
X77036905Y-80266667D01*
X77084524Y-80361905D01*
X77084524Y-80552381D01*
X77036905Y-80647619D01*
X76084524Y-80457143D02*
X76132143Y-80219048D01*
X76275000Y-79980952D01*
X76513095Y-79838095D01*
X76751190Y-79790476D01*
X76989286Y-79838095D01*
X77227381Y-79980952D01*
X77370238Y-80219048D01*
X77417857Y-80457143D01*
X77370238Y-80695238D01*
X77227381Y-80933333D01*
X76989286Y-81076190D01*
X76751190Y-81123810D01*
X76513095Y-81076190D01*
X76275000Y-80933333D01*
X76132143Y-80695238D01*
X76084524Y-80457143D01*
X76322619Y-82266667D02*
X76275000Y-82314286D01*
X76227381Y-82409524D01*
X76227381Y-82647620D01*
X76275000Y-82742858D01*
X76322619Y-82790477D01*
X76417857Y-82838096D01*
X76513095Y-82838096D01*
X76655952Y-82790477D01*
X77227381Y-82219048D01*
X77227381Y-82838096D01*
X76227381Y-83457143D02*
X76227381Y-83552382D01*
X76275000Y-83647620D01*
X76322619Y-83695239D01*
X76417857Y-83742858D01*
X76608333Y-83790477D01*
X76846429Y-83790477D01*
X77036905Y-83742858D01*
X77132143Y-83695239D01*
X77179762Y-83647620D01*
X77227381Y-83552382D01*
X77227381Y-83457143D01*
X77179762Y-83361905D01*
X77132143Y-83314286D01*
X77036905Y-83266667D01*
X76846429Y-83219048D01*
X76608333Y-83219048D01*
X76417857Y-83266667D01*
X76322619Y-83314286D01*
X76275000Y-83361905D01*
X76227381Y-83457143D01*
X77227381Y-84742858D02*
X77227381Y-84171429D01*
X77227381Y-84457143D02*
X76227381Y-84457143D01*
X76370238Y-84361905D01*
X76465476Y-84266667D01*
X76513095Y-84171429D01*
X76227381Y-85076191D02*
X76227381Y-85742858D01*
X77227381Y-85314286D01*
X78877381Y-79838095D02*
X77877381Y-79838095D01*
X77877381Y-80219048D01*
X77925000Y-80314286D01*
X77972619Y-80361905D01*
X78067857Y-80409524D01*
X78210714Y-80409524D01*
X78305952Y-80361905D01*
X78353571Y-80314286D01*
X78401190Y-80219048D01*
X78401190Y-79838095D01*
X78877381Y-81266667D02*
X78353571Y-81266667D01*
X78258333Y-81219048D01*
X78210714Y-81123810D01*
X78210714Y-80933333D01*
X78258333Y-80838095D01*
X78829762Y-81266667D02*
X78877381Y-81171429D01*
X78877381Y-80933333D01*
X78829762Y-80838095D01*
X78734524Y-80790476D01*
X78639286Y-80790476D01*
X78544048Y-80838095D01*
X78496429Y-80933333D01*
X78496429Y-81171429D01*
X78448810Y-81266667D01*
X78210714Y-82171429D02*
X78877381Y-82171429D01*
X78210714Y-81742857D02*
X78734524Y-81742857D01*
X78829762Y-81790476D01*
X78877381Y-81885714D01*
X78877381Y-82028572D01*
X78829762Y-82123810D01*
X78782143Y-82171429D01*
X78877381Y-82790476D02*
X78829762Y-82695238D01*
X78734524Y-82647619D01*
X77877381Y-82647619D01*
X78972619Y-84600001D02*
X78925000Y-84504763D01*
X78829762Y-84409525D01*
X78686905Y-84266668D01*
X78639286Y-84171429D01*
X78639286Y-84076191D01*
X78877381Y-84123810D02*
X78829762Y-84028572D01*
X78734524Y-83933334D01*
X78544048Y-83885715D01*
X78210714Y-83885715D01*
X78020238Y-83933334D01*
X77925000Y-84028572D01*
X77877381Y-84123810D01*
X77877381Y-84314287D01*
X77925000Y-84409525D01*
X78020238Y-84504763D01*
X78210714Y-84552382D01*
X78544048Y-84552382D01*
X78734524Y-84504763D01*
X78829762Y-84409525D01*
X78877381Y-84314287D01*
X78877381Y-84123810D01*
X78210714Y-85409525D02*
X78877381Y-85409525D01*
X78210714Y-84980953D02*
X78734524Y-84980953D01*
X78829762Y-85028572D01*
X78877381Y-85123810D01*
X78877381Y-85266668D01*
X78829762Y-85361906D01*
X78782143Y-85409525D01*
X78877381Y-85885715D02*
X78210714Y-85885715D01*
X78401190Y-85885715D02*
X78305952Y-85933334D01*
X78258333Y-85980953D01*
X78210714Y-86076191D01*
X78210714Y-86171430D01*
X78829762Y-86885716D02*
X78877381Y-86790478D01*
X78877381Y-86600001D01*
X78829762Y-86504763D01*
X78734524Y-86457144D01*
X78353571Y-86457144D01*
X78258333Y-86504763D01*
X78210714Y-86600001D01*
X78210714Y-86790478D01*
X78258333Y-86885716D01*
X78353571Y-86933335D01*
X78448810Y-86933335D01*
X78544048Y-86457144D01*
X78829762Y-87314287D02*
X78877381Y-87409525D01*
X78877381Y-87600001D01*
X78829762Y-87695240D01*
X78734524Y-87742859D01*
X78686905Y-87742859D01*
X78591667Y-87695240D01*
X78544048Y-87600001D01*
X78544048Y-87457144D01*
X78496429Y-87361906D01*
X78401190Y-87314287D01*
X78353571Y-87314287D01*
X78258333Y-87361906D01*
X78210714Y-87457144D01*
X78210714Y-87600001D01*
X78258333Y-87695240D01*
X78877381Y-88171430D02*
X77877381Y-88171430D01*
X78877381Y-88600002D02*
X78353571Y-88600002D01*
X78258333Y-88552383D01*
X78210714Y-88457145D01*
X78210714Y-88314287D01*
X78258333Y-88219049D01*
X78305952Y-88171430D01*
X78877381Y-89076192D02*
X78210714Y-89076192D01*
X77877381Y-89076192D02*
X77925000Y-89028573D01*
X77972619Y-89076192D01*
X77925000Y-89123811D01*
X77877381Y-89076192D01*
X77972619Y-89076192D01*
D13*
X75750000Y-59750000D03*
X77250000Y-59750000D03*
D14*
X75000000Y-66000000D03*
X78000000Y-66000000D03*
D13*
X75750000Y-68500000D03*
X77250000Y-68500000D03*
X54750000Y-85074076D03*
X56250000Y-85074076D03*
X66750000Y-85074076D03*
X68250000Y-85074076D03*
D15*
X73250000Y-78250000D03*
X73250000Y-76750000D03*
X73250000Y-70250000D03*
X73250000Y-68750000D03*
D13*
X63750000Y-64074076D03*
X62250000Y-64074076D03*
D15*
X52750000Y-68750000D03*
X52750000Y-70250000D03*
D13*
X64750000Y-89074076D03*
X63250000Y-89074076D03*
X58250000Y-89074076D03*
X59750000Y-89074076D03*
D16*
X77450000Y-63500000D03*
X75550000Y-63500000D03*
X76500000Y-61500000D03*
D17*
X55250000Y-80274076D03*
X55250000Y-79474076D03*
X55250000Y-78674076D03*
X55250000Y-77874076D03*
X55250000Y-77074076D03*
X55250000Y-76274076D03*
X55250000Y-75474076D03*
X55250000Y-74674076D03*
X55250000Y-73874076D03*
X55250000Y-73074076D03*
X55250000Y-72274076D03*
X55250000Y-71474076D03*
X55250000Y-70674076D03*
X55250000Y-69874076D03*
X55250000Y-69074076D03*
X55250000Y-68274076D03*
D18*
X56950000Y-66574076D03*
X57750000Y-66574076D03*
X58550000Y-66574076D03*
X59350000Y-66574076D03*
X60150000Y-66574076D03*
X60950000Y-66574076D03*
X61750000Y-66574076D03*
X62550000Y-66574076D03*
X63350000Y-66574076D03*
X64150000Y-66574076D03*
X64950000Y-66574076D03*
X65750000Y-66574076D03*
X66550000Y-66574076D03*
X67350000Y-66574076D03*
X68150000Y-66574076D03*
X68950000Y-66574076D03*
D17*
X70650000Y-68274076D03*
X70650000Y-69074076D03*
X70650000Y-69874076D03*
X70650000Y-70674076D03*
X70650000Y-71474076D03*
X70650000Y-72274076D03*
X70650000Y-73074076D03*
X70650000Y-73874076D03*
X70650000Y-74674076D03*
X70650000Y-75474076D03*
X70650000Y-76274076D03*
X70650000Y-77074076D03*
X70650000Y-77874076D03*
X70650000Y-78674076D03*
X70650000Y-79474076D03*
X70650000Y-80274076D03*
D18*
X68950000Y-81974076D03*
X68150000Y-81974076D03*
X67350000Y-81974076D03*
X66550000Y-81974076D03*
X65750000Y-81974076D03*
X64950000Y-81974076D03*
X64150000Y-81974076D03*
X63350000Y-81974076D03*
X62550000Y-81974076D03*
X61750000Y-81974076D03*
X60950000Y-81974076D03*
X60150000Y-81974076D03*
X59350000Y-81974076D03*
X58550000Y-81974076D03*
X57750000Y-81974076D03*
X56950000Y-81974076D03*
D19*
X70450000Y-55600000D03*
X69500000Y-55600000D03*
X68550000Y-55600000D03*
X68550000Y-53400000D03*
X70450000Y-53400000D03*
X69500000Y-53400000D03*
D20*
X63750000Y-86074076D03*
X59090000Y-86074076D03*
D21*
X54000000Y-54000000D03*
X76000000Y-54000000D03*
X54000000Y-96000000D03*
X76000000Y-96000000D03*
D22*
X61190000Y-97790000D03*
D23*
X61190000Y-95250000D03*
X63730000Y-97790000D03*
X63730000Y-95250000D03*
X66270000Y-97790000D03*
X66270000Y-95250000D03*
X68810000Y-97790000D03*
X68810000Y-95250000D03*
D24*
X75000000Y-58000000D03*
X76500000Y-58000000D03*
X75750000Y-58000000D03*
X78250000Y-91000000D03*
X79000000Y-91000000D03*
X78250000Y-90250000D03*
X79000000Y-90250000D03*
X69750000Y-51750000D03*
X66750000Y-62750000D03*
X57500000Y-63000000D03*
X51200000Y-69700000D03*
X61250000Y-64000000D03*
X56750000Y-69750000D03*
X60750000Y-71000000D03*
X61500000Y-76750000D03*
X68000000Y-86000000D03*
X56750000Y-87000000D03*
X61000000Y-87000000D03*
X59750000Y-88000000D03*
X61000000Y-88000000D03*
X63250000Y-90250000D03*
X75000000Y-88250000D03*
X75000000Y-82250000D03*
X75000000Y-75500000D03*
X78000000Y-67250000D03*
X77250000Y-67750000D03*
X77250000Y-66852402D03*
X78250000Y-68500000D03*
X74000000Y-64500000D03*
X69500000Y-56750000D03*
X74750000Y-69750000D03*
X71250000Y-59000000D03*
X58500000Y-56750000D03*
X62250000Y-55500000D03*
X63000000Y-55500000D03*
X63750000Y-55500000D03*
X75000000Y-76750000D03*
X63250000Y-63000000D03*
X51500000Y-68750000D03*
X67000000Y-86000000D03*
X55250000Y-87000000D03*
X76000000Y-78750000D03*
X77250000Y-74000000D03*
X77250000Y-73000000D03*
X76250000Y-74000000D03*
X76250000Y-73000000D03*
X74750000Y-70750000D03*
X75500000Y-70500000D03*
X71250000Y-61000000D03*
X65750000Y-57000000D03*
X65500000Y-68000000D03*
X64500000Y-68000000D03*
X58000000Y-69750000D03*
X61250000Y-69750000D03*
X63000000Y-68750000D03*
X63500000Y-68000000D03*
X65750000Y-56000000D03*
X64750000Y-55500000D03*
X69250000Y-62750000D03*
X68750000Y-63500000D03*
X69250000Y-64250000D03*
X69000000Y-65000000D03*
X69000000Y-69750000D03*
X72000000Y-71000000D03*
X69000000Y-70750000D03*
X67750000Y-73000000D03*
X59500000Y-70750000D03*
X58000000Y-70750000D03*
X56750000Y-70750000D03*
X53750000Y-73000000D03*
X59500000Y-76750000D03*
X58500000Y-75750000D03*
X57250000Y-75500000D03*
X53750000Y-74250000D03*
X63000000Y-78750000D03*
X62000000Y-78750000D03*
X60500000Y-76500000D03*
X53750000Y-78750000D03*
X59500000Y-92600000D03*
X58000000Y-92750000D03*
X55802400Y-82000000D03*
X54000000Y-90250000D03*
X60250000Y-64000000D03*
X58000000Y-64000000D03*
X56500000Y-64500000D03*
X55000000Y-65250000D03*
X54000000Y-62750000D03*
X74000000Y-75500000D03*
X73000000Y-75500000D03*
X72000000Y-75500000D03*
X69000000Y-76250000D03*
X73500000Y-82250000D03*
X72000000Y-82250000D03*
X71000000Y-81500000D03*
X70000000Y-82000000D03*
X73500000Y-88250000D03*
X72000000Y-88250000D03*
X70500000Y-88250000D03*
X68000000Y-90250000D03*
D25*
X75750000Y-58000000D02*
X76500000Y-58000000D01*
X75750000Y-58000000D02*
X75000000Y-58000000D01*
X75750000Y-59750000D02*
X75750000Y-58000000D01*
X79000000Y-91000000D02*
X79000000Y-90250000D01*
X78250000Y-91000000D02*
X79000000Y-91000000D01*
X78250000Y-90250000D02*
X79000000Y-90250000D01*
X78250000Y-90250000D02*
X78250000Y-91000000D01*
X78250000Y-90250000D02*
X76418446Y-90250000D01*
X59500000Y-94250000D02*
X59500000Y-97450000D01*
X59500000Y-97450000D02*
X59840000Y-97790000D01*
X59840000Y-97790000D02*
X61190000Y-97790000D01*
X62000000Y-91750000D02*
X59500000Y-94250000D01*
X74918446Y-91750000D02*
X62000000Y-91750000D01*
X76418446Y-90250000D02*
X74918446Y-91750000D01*
X69750000Y-51750000D02*
X69500000Y-52000000D01*
X69500000Y-52000000D02*
X69500000Y-53400000D01*
D26*
X75750000Y-59750000D02*
X75750000Y-60750000D01*
X75750000Y-60750000D02*
X76500000Y-61500000D01*
D25*
X52750000Y-70250000D02*
X51750000Y-70250000D01*
X51750000Y-70250000D02*
X51200000Y-69700000D01*
X73750000Y-76750000D02*
X75000000Y-76750000D01*
X62250000Y-64074076D02*
X61324076Y-64074076D01*
X61324076Y-64074076D02*
X61250000Y-64000000D01*
X55250000Y-69874076D02*
X56625924Y-69874076D01*
X56625924Y-69874076D02*
X56750000Y-69750000D01*
D11*
X68250000Y-85074076D02*
X68250000Y-85750000D01*
X68250000Y-85750000D02*
X68000000Y-86000000D01*
X56250000Y-85074076D02*
X56250000Y-86500000D01*
X56250000Y-86500000D02*
X56750000Y-87000000D01*
D25*
X59750000Y-89074076D02*
X59750000Y-88000000D01*
X63250000Y-89074076D02*
X63250000Y-90250000D01*
D26*
X78250000Y-68500000D02*
X78250000Y-67500000D01*
X78250000Y-67500000D02*
X78000000Y-67250000D01*
X77250000Y-68500000D02*
X77250000Y-67750000D01*
D25*
X78000000Y-66000000D02*
X78000000Y-67250000D01*
D26*
X77250000Y-67750000D02*
X77250000Y-66852402D01*
D25*
X77250000Y-66750000D02*
X77250000Y-66852402D01*
X77250000Y-68500000D02*
X78250000Y-68500000D01*
X69500000Y-55600000D02*
X69500000Y-56750000D01*
X73250000Y-68750000D02*
X73750000Y-68750000D01*
X73750000Y-68750000D02*
X74750000Y-69750000D01*
D26*
X77450000Y-63500000D02*
X77500000Y-63500000D01*
X78650000Y-60650000D02*
X77750000Y-59750000D01*
X77750000Y-59750000D02*
X77250000Y-59750000D01*
X77500000Y-63500000D02*
X78650000Y-62350000D01*
X78650000Y-62350000D02*
X78650000Y-60650000D01*
X77250000Y-66750000D02*
X78000000Y-66000000D01*
X77450000Y-63500000D02*
X77450000Y-65450000D01*
X77450000Y-65450000D02*
X78000000Y-66000000D01*
D25*
X73250000Y-76750000D02*
X73750000Y-76750000D01*
D27*
X60150000Y-81974076D02*
X60150000Y-84150000D01*
X60150000Y-84150000D02*
X59900000Y-84400000D01*
X59900000Y-84400000D02*
X57524077Y-84400000D01*
X56850000Y-85074076D02*
X56250000Y-85074076D01*
X57524077Y-84400000D02*
X56850000Y-85074076D01*
D11*
X62550000Y-66574076D02*
X62550000Y-64374076D01*
X62550000Y-64374076D02*
X62250000Y-64074076D01*
X55250000Y-69874076D02*
X53125924Y-69874076D01*
X53125924Y-69874076D02*
X52750000Y-70250000D01*
X66550000Y-81974076D02*
X66550000Y-83399076D01*
X66550000Y-83399076D02*
X68225000Y-85074076D01*
X68225000Y-85074076D02*
X68250000Y-85074076D01*
X70650000Y-77074076D02*
X72925924Y-77074076D01*
X72925924Y-77074076D02*
X73250000Y-76750000D01*
X70650000Y-69074076D02*
X72925924Y-69074076D01*
X72925924Y-69074076D02*
X73250000Y-68750000D01*
D25*
X63750000Y-64074076D02*
X63750000Y-63500000D01*
X63750000Y-63500000D02*
X63250000Y-63000000D01*
X52750000Y-68750000D02*
X51500000Y-68750000D01*
D11*
X66750000Y-85074076D02*
X66750000Y-85750000D01*
X66750000Y-85750000D02*
X67000000Y-86000000D01*
X54750000Y-85074076D02*
X54750000Y-86500000D01*
X54750000Y-86500000D02*
X55250000Y-87000000D01*
D25*
X73250000Y-78250000D02*
X75500000Y-78250000D01*
X75500000Y-78250000D02*
X76000000Y-78750000D01*
X74750000Y-70750000D02*
X73750000Y-70750000D01*
X73750000Y-70750000D02*
X73250000Y-70250000D01*
D26*
X77250000Y-74000000D02*
X76250000Y-74000000D01*
X77250000Y-73000000D02*
X77250000Y-74000000D01*
X76250000Y-73000000D02*
X77250000Y-73000000D01*
X76250000Y-73000000D02*
X76250000Y-74000000D01*
X75500000Y-70500000D02*
X75500000Y-72250000D01*
X75500000Y-72250000D02*
X76250000Y-73000000D01*
X75500000Y-70500000D02*
X75250000Y-70750000D01*
X75250000Y-70750000D02*
X74750000Y-70750000D01*
X75750000Y-68500000D02*
X75750000Y-70250000D01*
X75750000Y-70250000D02*
X75500000Y-70500000D01*
X75750000Y-68500000D02*
X75750000Y-66750000D01*
X75750000Y-66750000D02*
X75000000Y-66000000D01*
X75550000Y-63500000D02*
X75550000Y-65450000D01*
X75550000Y-65450000D02*
X75000000Y-66000000D01*
D27*
X66750000Y-85074076D02*
X66750000Y-84499076D01*
X66750000Y-84499076D02*
X65750000Y-83499076D01*
X65750000Y-83499076D02*
X65750000Y-82924076D01*
X65750000Y-82924076D02*
X65750000Y-81974076D01*
X59350000Y-81974076D02*
X59350000Y-83650000D01*
X59350000Y-83650000D02*
X59000000Y-84000000D01*
X59000000Y-84000000D02*
X55849076Y-84000000D01*
X55849076Y-84000000D02*
X54775000Y-85074076D01*
X54775000Y-85074076D02*
X54750000Y-85074076D01*
D11*
X63350000Y-66574076D02*
X63350000Y-64474076D01*
X63350000Y-64474076D02*
X63750000Y-64074076D01*
X55250000Y-69074076D02*
X53074076Y-69074076D01*
X53074076Y-69074076D02*
X52750000Y-68750000D01*
X66725000Y-85074076D02*
X66750000Y-85074076D01*
X70650000Y-77874076D02*
X72874076Y-77874076D01*
X72874076Y-77874076D02*
X73250000Y-78250000D01*
X70650000Y-69874076D02*
X72874076Y-69874076D01*
X72874076Y-69874076D02*
X73250000Y-70250000D01*
X64750000Y-89074076D02*
X64750000Y-87074076D01*
X64750000Y-87074076D02*
X63750000Y-86074076D01*
X61750000Y-81974076D02*
X61750000Y-84000000D01*
X61750000Y-84000000D02*
X63750000Y-86000000D01*
X63750000Y-86000000D02*
X63750000Y-86074076D01*
X58250000Y-89074076D02*
X58250000Y-86914076D01*
X58250000Y-86914076D02*
X59090000Y-86074076D01*
X60950000Y-81974076D02*
X60950000Y-84044076D01*
X60950000Y-84044076D02*
X59090000Y-85904076D01*
X59090000Y-85904076D02*
X59090000Y-86074076D01*
D25*
X64950000Y-59700000D02*
X64950000Y-57800000D01*
X64950000Y-57800000D02*
X65750000Y-57000000D01*
X64950000Y-66574076D02*
X64950000Y-59700000D01*
D27*
X63350000Y-81974076D02*
X63350000Y-81024076D01*
X63350000Y-81024076D02*
X65500000Y-78874076D01*
X65500000Y-78874076D02*
X65500000Y-77565936D01*
X65500000Y-77565936D02*
X65500000Y-68000000D01*
X62550000Y-81974076D02*
X62550000Y-80017554D01*
X62550000Y-80017554D02*
X64500000Y-78067554D01*
X64500000Y-78067554D02*
X64500000Y-68000000D01*
X58000000Y-69750000D02*
X56524076Y-68274076D01*
X56524076Y-68274076D02*
X55250000Y-68274076D01*
X61250000Y-69750000D02*
X60950001Y-69450001D01*
X60950001Y-69450001D02*
X58875925Y-69450001D01*
X58875925Y-69450001D02*
X56950000Y-67524076D01*
X56950000Y-67524076D02*
X56950000Y-66574076D01*
X63000000Y-68750000D02*
X58975924Y-68750000D01*
X58975924Y-68750000D02*
X57750000Y-67524076D01*
X57750000Y-67524076D02*
X57750000Y-66574076D01*
X59000000Y-68000000D02*
X58550000Y-67550000D01*
X58550000Y-67550000D02*
X58550000Y-66574076D01*
X63500000Y-68000000D02*
X59000000Y-68000000D01*
X68950000Y-66574076D02*
X69425000Y-66574076D01*
X69425000Y-66574076D02*
X70000000Y-65999076D01*
X70000000Y-65999076D02*
X70000000Y-58150000D01*
X68550000Y-56700000D02*
X68550000Y-56300000D01*
X70000000Y-58150000D02*
X68550000Y-56700000D01*
X68550000Y-56300000D02*
X68250000Y-56000000D01*
X65750000Y-56000000D02*
X68000000Y-56000000D01*
X68000000Y-56000000D02*
X68250000Y-56000000D01*
X68250000Y-56000000D02*
X68250000Y-55900000D01*
X68250000Y-55900000D02*
X68550000Y-55600000D01*
X70250000Y-54500000D02*
X70450000Y-54700000D01*
X70450000Y-54700000D02*
X70450000Y-55600000D01*
X65750000Y-54500000D02*
X70250000Y-54500000D01*
X64750000Y-55500000D02*
X65750000Y-54500000D01*
X70650000Y-68274076D02*
X70650000Y-67799076D01*
X70650000Y-67799076D02*
X70500000Y-67649076D01*
X70500000Y-67649076D02*
X70500000Y-55650000D01*
X70500000Y-55650000D02*
X70450000Y-55600000D01*
X65750000Y-66574076D02*
X65750000Y-65624076D01*
X65750000Y-65624076D02*
X68624076Y-62750000D01*
X68624076Y-62750000D02*
X69250000Y-62750000D01*
X66550000Y-66574076D02*
X66550000Y-65624076D01*
X66550000Y-65624076D02*
X68674076Y-63500000D01*
X68674076Y-63500000D02*
X68750000Y-63500000D01*
X67350000Y-66574076D02*
X67350000Y-65624076D01*
X67350000Y-65624076D02*
X68724076Y-64250000D01*
X68724076Y-64250000D02*
X69250000Y-64250000D01*
X68150000Y-66574076D02*
X68150000Y-65624076D01*
X68150000Y-65624076D02*
X68774076Y-65000000D01*
X68774076Y-65000000D02*
X69000000Y-65000000D01*
X70650000Y-70674076D02*
X69924076Y-70674076D01*
X69924076Y-70674076D02*
X69000000Y-69750000D01*
X70650000Y-71474076D02*
X71525924Y-71474076D01*
X71525924Y-71474076D02*
X72000000Y-71000000D01*
X69000000Y-70750000D02*
X69000000Y-71574076D01*
X69000000Y-71574076D02*
X69700000Y-72274076D01*
X69700000Y-72274076D02*
X70650000Y-72274076D01*
X70650000Y-73074076D02*
X67824076Y-73074076D01*
X67824076Y-73074076D02*
X67750000Y-73000000D01*
X55250000Y-73074076D02*
X57175924Y-73074076D01*
X57175924Y-73074076D02*
X59500000Y-70750000D01*
X55250000Y-72274076D02*
X56475924Y-72274076D01*
X56475924Y-72274076D02*
X58000000Y-70750000D01*
X55250000Y-71474076D02*
X56025924Y-71474076D01*
X56025924Y-71474076D02*
X56750000Y-70750000D01*
X55250000Y-70674076D02*
X54300000Y-70674076D01*
X54300000Y-70674076D02*
X53750000Y-71224076D01*
X53750000Y-71224076D02*
X53750000Y-73000000D01*
X56675924Y-76750000D02*
X59500000Y-76750000D01*
X55250000Y-76274076D02*
X56200000Y-76274076D01*
X56200000Y-76274076D02*
X56675924Y-76750000D01*
X56975924Y-76250000D02*
X58000000Y-76250000D01*
X58000000Y-76250000D02*
X58500000Y-75750000D01*
X55250000Y-75474076D02*
X56200000Y-75474076D01*
X56200000Y-75474076D02*
X56975924Y-76250000D01*
X55250000Y-74674076D02*
X56424076Y-74674076D01*
X56424076Y-74674076D02*
X57250000Y-75500000D01*
X53750000Y-74250000D02*
X54125924Y-73874076D01*
X54125924Y-73874076D02*
X55250000Y-73874076D01*
X63000000Y-78750000D02*
X62275924Y-79474076D01*
X62275924Y-79474076D02*
X55250000Y-79474076D01*
X62000000Y-78750000D02*
X55325924Y-78750000D01*
X55325924Y-78750000D02*
X55250000Y-78674076D01*
X60500000Y-76500000D02*
X60500000Y-77000000D01*
X60500000Y-77000000D02*
X59625924Y-77874076D01*
X59625924Y-77874076D02*
X56200000Y-77874076D01*
X56200000Y-77874076D02*
X55250000Y-77874076D01*
X53750000Y-78750000D02*
X53750000Y-77624076D01*
X53750000Y-77624076D02*
X54300000Y-77074076D01*
X54300000Y-77074076D02*
X55250000Y-77074076D01*
X58550000Y-81974076D02*
X58550000Y-83450000D01*
X58550000Y-83450000D02*
X58352410Y-83647590D01*
X58352410Y-83647590D02*
X54452410Y-83647590D01*
X54452410Y-83647590D02*
X53900000Y-84200000D01*
X53900000Y-84200000D02*
X53900000Y-87000000D01*
X53900000Y-87000000D02*
X57100000Y-90200000D01*
X57100000Y-90200000D02*
X59500000Y-92600000D01*
X53500000Y-86100000D02*
X53500000Y-88250000D01*
X53500000Y-88250000D02*
X58000000Y-92750000D01*
X53500000Y-85998383D02*
X53500000Y-86100000D01*
X53500000Y-84000000D02*
X53500000Y-85998383D01*
X54204820Y-83295180D02*
X53500000Y-84000000D01*
X56100000Y-83295180D02*
X54204820Y-83295180D01*
X57600000Y-83295180D02*
X56100000Y-83295180D01*
X57750000Y-83145180D02*
X57600000Y-83295180D01*
X57750000Y-81974076D02*
X57750000Y-83145180D01*
X56950000Y-81974076D02*
X55828324Y-81974076D01*
X55828324Y-81974076D02*
X55802400Y-82000000D01*
X53000000Y-86250000D02*
X53000000Y-89250000D01*
X53000000Y-89250000D02*
X54000000Y-90250000D01*
X55250000Y-80274076D02*
X55250000Y-81500000D01*
X55250000Y-81500000D02*
X53000000Y-83750000D01*
X53000000Y-83750000D02*
X53000000Y-86250000D01*
X61750000Y-66574076D02*
X61750000Y-65624076D01*
X61750000Y-65624076D02*
X60250000Y-64124076D01*
X60250000Y-64124076D02*
X60250000Y-64000000D01*
X60950000Y-66574076D02*
X60950000Y-65624076D01*
X60950000Y-65624076D02*
X59325924Y-64000000D01*
X59325924Y-64000000D02*
X58000000Y-64000000D01*
X59223524Y-64697600D02*
X56697600Y-64697600D01*
X56697600Y-64697600D02*
X56500000Y-64500000D01*
X60150000Y-66574076D02*
X60150000Y-65624076D01*
X60150000Y-65624076D02*
X59223524Y-64697600D01*
X59350000Y-66574076D02*
X59350000Y-65624076D01*
X59350000Y-65624076D02*
X58975924Y-65250000D01*
X58975924Y-65250000D02*
X55000000Y-65250000D01*
X64150000Y-66574076D02*
X64150000Y-65047590D01*
X54500000Y-62250000D02*
X54000000Y-62750000D01*
X64150000Y-65047590D02*
X64402401Y-64795189D01*
X64402401Y-64795189D02*
X64402401Y-63097599D01*
X64402401Y-63097599D02*
X63554802Y-62250000D01*
X63554802Y-62250000D02*
X54500000Y-62250000D01*
X70650000Y-73874076D02*
X72374076Y-73874076D01*
X72374076Y-73874076D02*
X74000000Y-75500000D01*
X70650000Y-74674076D02*
X72174076Y-74674076D01*
X72174076Y-74674076D02*
X73000000Y-75500000D01*
X70650000Y-75474076D02*
X71974076Y-75474076D01*
X71974076Y-75474076D02*
X72000000Y-75500000D01*
X69000000Y-76250000D02*
X70625924Y-76250000D01*
X70625924Y-76250000D02*
X70650000Y-76274076D01*
X70650000Y-78674076D02*
X71600000Y-78674076D01*
X71600000Y-78674076D02*
X73500000Y-80574076D01*
X73500000Y-80574076D02*
X73500000Y-82250000D01*
X72000000Y-82250000D02*
X72000000Y-79874076D01*
X72000000Y-79874076D02*
X71600000Y-79474076D01*
X71600000Y-79474076D02*
X70650000Y-79474076D01*
X71000000Y-81500000D02*
X71000000Y-80624076D01*
X71000000Y-80624076D02*
X70650000Y-80274076D01*
X68950000Y-81974076D02*
X69974076Y-81974076D01*
X69974076Y-81974076D02*
X70000000Y-82000000D01*
X68150000Y-81974076D02*
X68150000Y-82924076D01*
X68150000Y-82924076D02*
X68873514Y-83647590D01*
X68873514Y-83647590D02*
X69395973Y-83647590D01*
X69395973Y-83647590D02*
X73500000Y-87751617D01*
X73500000Y-87751617D02*
X73500000Y-88250000D01*
X69250000Y-84000000D02*
X72000000Y-86750000D01*
X72000000Y-86750000D02*
X72000000Y-88250000D01*
X68425924Y-84000000D02*
X69250000Y-84000000D01*
X67350000Y-81974076D02*
X67350000Y-82924076D01*
X67350000Y-82924076D02*
X68425924Y-84000000D01*
X66000000Y-86000000D02*
X68250000Y-88250000D01*
X68250000Y-88250000D02*
X70500000Y-88250000D01*
X66000000Y-85553398D02*
X66000000Y-86000000D01*
X66000000Y-84399556D02*
X66000000Y-85553398D01*
X64950000Y-81974076D02*
X64950000Y-83349556D01*
X64950000Y-83349556D02*
X66000000Y-84399556D01*
X64150000Y-81974076D02*
X64150000Y-83400000D01*
X64150000Y-83400000D02*
X65500000Y-84750000D01*
X65500000Y-84750000D02*
X65500000Y-87750000D01*
X65500000Y-87750000D02*
X66000000Y-88250000D01*
X66000000Y-88250000D02*
X68000000Y-90250000D01*
M02*
