G04 #@! TF.FileFunction,Copper,L3,Inr,Signal*
%FSLAX46Y46*%
G04 Gerber Fmt 4.6, Leading zero omitted, Abs format (unit mm)*
G04 Created by KiCad (PCBNEW 4.0.5) date 07/09/17 21:46:26*
%MOMM*%
%LPD*%
G01*
G04 APERTURE LIST*
%ADD10C,0.100000*%
%ADD11C,0.300000*%
%ADD12C,6.400000*%
%ADD13R,1.700000X1.700000*%
%ADD14O,1.700000X1.700000*%
%ADD15C,0.600000*%
%ADD16C,0.254000*%
G04 APERTURE END LIST*
D10*
D11*
X50500001Y-61178571D02*
X51428572Y-61178571D01*
X50928572Y-61750000D01*
X51142858Y-61750000D01*
X51285715Y-61821429D01*
X51357144Y-61892857D01*
X51428572Y-62035714D01*
X51428572Y-62392857D01*
X51357144Y-62535714D01*
X51285715Y-62607143D01*
X51142858Y-62678571D01*
X50714286Y-62678571D01*
X50571429Y-62607143D01*
X50500001Y-62535714D01*
D12*
X54000000Y-54000000D03*
X76000000Y-54000000D03*
X54000000Y-96000000D03*
X76000000Y-96000000D03*
D13*
X61190000Y-97790000D03*
D14*
X61190000Y-95250000D03*
X63730000Y-97790000D03*
X63730000Y-95250000D03*
X66270000Y-97790000D03*
X66270000Y-95250000D03*
X68810000Y-97790000D03*
X68810000Y-95250000D03*
D15*
X75000000Y-58000000D03*
X76500000Y-58000000D03*
X75750000Y-58000000D03*
X78250000Y-91000000D03*
X79000000Y-91000000D03*
X78250000Y-90250000D03*
X79000000Y-90250000D03*
X69750000Y-51750000D03*
X66750000Y-62750000D03*
X57500000Y-63000000D03*
X51200000Y-69700000D03*
X61250000Y-64000000D03*
X56750000Y-69750000D03*
X60750000Y-71000000D03*
X61500000Y-76750000D03*
X68000000Y-86000000D03*
X56750000Y-87000000D03*
X61000000Y-87000000D03*
X59750000Y-88000000D03*
X61000000Y-88000000D03*
X63250000Y-90250000D03*
X75000000Y-88250000D03*
X75000000Y-82250000D03*
X75000000Y-75500000D03*
X78000000Y-67250000D03*
X77250000Y-67750000D03*
X77250000Y-66852402D03*
X78250000Y-68500000D03*
X74000000Y-64500000D03*
X69500000Y-56750000D03*
X74750000Y-69750000D03*
X71250000Y-59000000D03*
X58500000Y-56750000D03*
X62250000Y-55500000D03*
X63000000Y-55500000D03*
X63750000Y-55500000D03*
X75000000Y-76750000D03*
X63250000Y-63000000D03*
X51500000Y-68750000D03*
X67000000Y-86000000D03*
X55250000Y-87000000D03*
X76000000Y-78750000D03*
X77250000Y-74000000D03*
X77250000Y-73000000D03*
X76250000Y-74000000D03*
X76250000Y-73000000D03*
X74750000Y-70750000D03*
X75500000Y-70500000D03*
X71250000Y-61000000D03*
X65750000Y-57000000D03*
X65500000Y-68000000D03*
X64500000Y-68000000D03*
X58000000Y-69750000D03*
X61250000Y-69750000D03*
X63000000Y-68750000D03*
X63500000Y-68000000D03*
X65750000Y-56000000D03*
X64750000Y-55500000D03*
X69250000Y-62750000D03*
X68750000Y-63500000D03*
X69250000Y-64250000D03*
X69000000Y-65000000D03*
X69000000Y-69750000D03*
X72000000Y-71000000D03*
X69000000Y-70750000D03*
X67750000Y-73000000D03*
X59500000Y-70750000D03*
X58000000Y-70750000D03*
X56750000Y-70750000D03*
X53750000Y-73000000D03*
X59500000Y-76750000D03*
X58500000Y-75750000D03*
X57250000Y-75500000D03*
X53750000Y-74250000D03*
X63000000Y-78750000D03*
X62000000Y-78750000D03*
X60500000Y-76500000D03*
X53750000Y-78750000D03*
X59500000Y-92600000D03*
X58000000Y-92750000D03*
X55802400Y-82000000D03*
X54000000Y-90250000D03*
X60250000Y-64000000D03*
X58000000Y-64000000D03*
X56500000Y-64500000D03*
X55000000Y-65250000D03*
X54000000Y-62750000D03*
X74000000Y-75500000D03*
X73000000Y-75500000D03*
X72000000Y-75500000D03*
X69000000Y-76250000D03*
X73500000Y-82250000D03*
X72000000Y-82250000D03*
X71000000Y-81500000D03*
X70000000Y-82000000D03*
X73500000Y-88250000D03*
X72000000Y-88250000D03*
X70500000Y-88250000D03*
X68000000Y-90250000D03*
D16*
G36*
X79873000Y-89914389D02*
X79793117Y-89721057D01*
X79530327Y-89457808D01*
X79186799Y-89315162D01*
X78814833Y-89314838D01*
X78624958Y-89393293D01*
X78436799Y-89315162D01*
X78064833Y-89314838D01*
X77721057Y-89456883D01*
X77457808Y-89719673D01*
X77315162Y-90063201D01*
X77314838Y-90435167D01*
X77393293Y-90625042D01*
X77315162Y-90813201D01*
X77314838Y-91185167D01*
X77456883Y-91528943D01*
X77719673Y-91792192D01*
X78063201Y-91934838D01*
X78435167Y-91935162D01*
X78625042Y-91856707D01*
X78813201Y-91934838D01*
X79185167Y-91935162D01*
X79528943Y-91793117D01*
X79792192Y-91530327D01*
X79873000Y-91335721D01*
X79873000Y-99873000D01*
X50127000Y-99873000D01*
X50127000Y-98740910D01*
X51438695Y-98740910D01*
X51805640Y-99236343D01*
X53211171Y-99829736D01*
X54736793Y-99840087D01*
X56150246Y-99265819D01*
X56194360Y-99236343D01*
X56561305Y-98740910D01*
X54000000Y-96179605D01*
X51438695Y-98740910D01*
X50127000Y-98740910D01*
X50127000Y-96736793D01*
X50159913Y-96736793D01*
X50734181Y-98150246D01*
X50763657Y-98194360D01*
X51259090Y-98561305D01*
X53820395Y-96000000D01*
X54179605Y-96000000D01*
X56740910Y-98561305D01*
X57236343Y-98194360D01*
X57765913Y-96940000D01*
X59692560Y-96940000D01*
X59692560Y-98640000D01*
X59736838Y-98875317D01*
X59875910Y-99091441D01*
X60088110Y-99236431D01*
X60340000Y-99287440D01*
X62040000Y-99287440D01*
X62275317Y-99243162D01*
X62491441Y-99104090D01*
X62636431Y-98891890D01*
X62650086Y-98824459D01*
X62679946Y-98869147D01*
X63161715Y-99191054D01*
X63730000Y-99304093D01*
X64298285Y-99191054D01*
X64780054Y-98869147D01*
X65007702Y-98528447D01*
X65074817Y-98671358D01*
X65503076Y-99061645D01*
X65913110Y-99231476D01*
X66143000Y-99110155D01*
X66143000Y-97917000D01*
X66397000Y-97917000D01*
X66397000Y-99110155D01*
X66626890Y-99231476D01*
X67036924Y-99061645D01*
X67465183Y-98671358D01*
X67540000Y-98512046D01*
X67614817Y-98671358D01*
X68043076Y-99061645D01*
X68453110Y-99231476D01*
X68683000Y-99110155D01*
X68683000Y-97917000D01*
X68937000Y-97917000D01*
X68937000Y-99110155D01*
X69166890Y-99231476D01*
X69576924Y-99061645D01*
X69928864Y-98740910D01*
X73438695Y-98740910D01*
X73805640Y-99236343D01*
X75211171Y-99829736D01*
X76736793Y-99840087D01*
X78150246Y-99265819D01*
X78194360Y-99236343D01*
X78561305Y-98740910D01*
X76000000Y-96179605D01*
X73438695Y-98740910D01*
X69928864Y-98740910D01*
X70005183Y-98671358D01*
X70251486Y-98146892D01*
X70130819Y-97917000D01*
X68937000Y-97917000D01*
X68683000Y-97917000D01*
X66397000Y-97917000D01*
X66143000Y-97917000D01*
X66123000Y-97917000D01*
X66123000Y-97663000D01*
X66143000Y-97663000D01*
X66143000Y-97643000D01*
X66397000Y-97643000D01*
X66397000Y-97663000D01*
X68683000Y-97663000D01*
X68683000Y-97643000D01*
X68937000Y-97643000D01*
X68937000Y-97663000D01*
X70130819Y-97663000D01*
X70251486Y-97433108D01*
X70005183Y-96908642D01*
X69816615Y-96736793D01*
X72159913Y-96736793D01*
X72734181Y-98150246D01*
X72763657Y-98194360D01*
X73259090Y-98561305D01*
X75820395Y-96000000D01*
X76179605Y-96000000D01*
X78740910Y-98561305D01*
X79236343Y-98194360D01*
X79829736Y-96788829D01*
X79840087Y-95263207D01*
X79265819Y-93849754D01*
X79236343Y-93805640D01*
X78740910Y-93438695D01*
X76179605Y-96000000D01*
X75820395Y-96000000D01*
X73259090Y-93438695D01*
X72763657Y-93805640D01*
X72170264Y-95211171D01*
X72159913Y-96736793D01*
X69816615Y-96736793D01*
X69576924Y-96518355D01*
X69576899Y-96518345D01*
X69860054Y-96329147D01*
X70181961Y-95847378D01*
X70295000Y-95279093D01*
X70295000Y-95220907D01*
X70181961Y-94652622D01*
X69860054Y-94170853D01*
X69378285Y-93848946D01*
X68810000Y-93735907D01*
X68241715Y-93848946D01*
X67759946Y-94170853D01*
X67540000Y-94500026D01*
X67320054Y-94170853D01*
X66838285Y-93848946D01*
X66270000Y-93735907D01*
X65701715Y-93848946D01*
X65219946Y-94170853D01*
X65000000Y-94500026D01*
X64780054Y-94170853D01*
X64298285Y-93848946D01*
X63730000Y-93735907D01*
X63161715Y-93848946D01*
X62679946Y-94170853D01*
X62460000Y-94500026D01*
X62240054Y-94170853D01*
X61758285Y-93848946D01*
X61190000Y-93735907D01*
X60621715Y-93848946D01*
X60139946Y-94170853D01*
X59818039Y-94652622D01*
X59705000Y-95220907D01*
X59705000Y-95279093D01*
X59818039Y-95847378D01*
X60139946Y-96329147D01*
X60141179Y-96329971D01*
X60104683Y-96336838D01*
X59888559Y-96475910D01*
X59743569Y-96688110D01*
X59692560Y-96940000D01*
X57765913Y-96940000D01*
X57829736Y-96788829D01*
X57840087Y-95263207D01*
X57265819Y-93849754D01*
X57236343Y-93805640D01*
X56740910Y-93438695D01*
X54179605Y-96000000D01*
X53820395Y-96000000D01*
X51259090Y-93438695D01*
X50763657Y-93805640D01*
X50170264Y-95211171D01*
X50159913Y-96736793D01*
X50127000Y-96736793D01*
X50127000Y-93259090D01*
X51438695Y-93259090D01*
X54000000Y-95820395D01*
X56561305Y-93259090D01*
X56321390Y-92935167D01*
X57064838Y-92935167D01*
X57206883Y-93278943D01*
X57469673Y-93542192D01*
X57813201Y-93684838D01*
X58185167Y-93685162D01*
X58528943Y-93543117D01*
X58792192Y-93280327D01*
X58811525Y-93233768D01*
X58969673Y-93392192D01*
X59313201Y-93534838D01*
X59685167Y-93535162D01*
X60028943Y-93393117D01*
X60163204Y-93259090D01*
X73438695Y-93259090D01*
X76000000Y-95820395D01*
X78561305Y-93259090D01*
X78194360Y-92763657D01*
X76788829Y-92170264D01*
X75263207Y-92159913D01*
X73849754Y-92734181D01*
X73805640Y-92763657D01*
X73438695Y-93259090D01*
X60163204Y-93259090D01*
X60292192Y-93130327D01*
X60434838Y-92786799D01*
X60435162Y-92414833D01*
X60293117Y-92071057D01*
X60030327Y-91807808D01*
X59686799Y-91665162D01*
X59314833Y-91664838D01*
X58971057Y-91806883D01*
X58707808Y-92069673D01*
X58688475Y-92116232D01*
X58530327Y-91957808D01*
X58186799Y-91815162D01*
X57814833Y-91814838D01*
X57471057Y-91956883D01*
X57207808Y-92219673D01*
X57065162Y-92563201D01*
X57064838Y-92935167D01*
X56321390Y-92935167D01*
X56194360Y-92763657D01*
X54788829Y-92170264D01*
X53263207Y-92159913D01*
X51849754Y-92734181D01*
X51805640Y-92763657D01*
X51438695Y-93259090D01*
X50127000Y-93259090D01*
X50127000Y-90435167D01*
X53064838Y-90435167D01*
X53206883Y-90778943D01*
X53469673Y-91042192D01*
X53813201Y-91184838D01*
X54185167Y-91185162D01*
X54528943Y-91043117D01*
X54792192Y-90780327D01*
X54934838Y-90436799D01*
X54934839Y-90435167D01*
X67064838Y-90435167D01*
X67206883Y-90778943D01*
X67469673Y-91042192D01*
X67813201Y-91184838D01*
X68185167Y-91185162D01*
X68528943Y-91043117D01*
X68792192Y-90780327D01*
X68934838Y-90436799D01*
X68935162Y-90064833D01*
X68793117Y-89721057D01*
X68530327Y-89457808D01*
X68186799Y-89315162D01*
X67814833Y-89314838D01*
X67471057Y-89456883D01*
X67207808Y-89719673D01*
X67065162Y-90063201D01*
X67064838Y-90435167D01*
X54934839Y-90435167D01*
X54935162Y-90064833D01*
X54793117Y-89721057D01*
X54530327Y-89457808D01*
X54186799Y-89315162D01*
X53814833Y-89314838D01*
X53471057Y-89456883D01*
X53207808Y-89719673D01*
X53065162Y-90063201D01*
X53064838Y-90435167D01*
X50127000Y-90435167D01*
X50127000Y-88435167D01*
X69564838Y-88435167D01*
X69706883Y-88778943D01*
X69969673Y-89042192D01*
X70313201Y-89184838D01*
X70685167Y-89185162D01*
X71028943Y-89043117D01*
X71250155Y-88822291D01*
X71469673Y-89042192D01*
X71813201Y-89184838D01*
X72185167Y-89185162D01*
X72528943Y-89043117D01*
X72750155Y-88822291D01*
X72969673Y-89042192D01*
X73313201Y-89184838D01*
X73685167Y-89185162D01*
X74028943Y-89043117D01*
X74292192Y-88780327D01*
X74434838Y-88436799D01*
X74435162Y-88064833D01*
X74293117Y-87721057D01*
X74030327Y-87457808D01*
X73686799Y-87315162D01*
X73314833Y-87314838D01*
X72971057Y-87456883D01*
X72749845Y-87677709D01*
X72530327Y-87457808D01*
X72186799Y-87315162D01*
X71814833Y-87314838D01*
X71471057Y-87456883D01*
X71249845Y-87677709D01*
X71030327Y-87457808D01*
X70686799Y-87315162D01*
X70314833Y-87314838D01*
X69971057Y-87456883D01*
X69707808Y-87719673D01*
X69565162Y-88063201D01*
X69564838Y-88435167D01*
X50127000Y-88435167D01*
X50127000Y-87185167D01*
X54314838Y-87185167D01*
X54456883Y-87528943D01*
X54719673Y-87792192D01*
X55063201Y-87934838D01*
X55435167Y-87935162D01*
X55778943Y-87793117D01*
X56042192Y-87530327D01*
X56184838Y-87186799D01*
X56185162Y-86814833D01*
X56043117Y-86471057D01*
X55780327Y-86207808D01*
X55725802Y-86185167D01*
X66064838Y-86185167D01*
X66206883Y-86528943D01*
X66469673Y-86792192D01*
X66813201Y-86934838D01*
X67185167Y-86935162D01*
X67528943Y-86793117D01*
X67792192Y-86530327D01*
X67934838Y-86186799D01*
X67935162Y-85814833D01*
X67793117Y-85471057D01*
X67530327Y-85207808D01*
X67186799Y-85065162D01*
X66814833Y-85064838D01*
X66471057Y-85206883D01*
X66207808Y-85469673D01*
X66065162Y-85813201D01*
X66064838Y-86185167D01*
X55725802Y-86185167D01*
X55436799Y-86065162D01*
X55064833Y-86064838D01*
X54721057Y-86206883D01*
X54457808Y-86469673D01*
X54315162Y-86813201D01*
X54314838Y-87185167D01*
X50127000Y-87185167D01*
X50127000Y-82185167D01*
X54867238Y-82185167D01*
X55009283Y-82528943D01*
X55272073Y-82792192D01*
X55615601Y-82934838D01*
X55987567Y-82935162D01*
X56331343Y-82793117D01*
X56594592Y-82530327D01*
X56737238Y-82186799D01*
X56737239Y-82185167D01*
X69064838Y-82185167D01*
X69206883Y-82528943D01*
X69469673Y-82792192D01*
X69813201Y-82934838D01*
X70185167Y-82935162D01*
X70528943Y-82793117D01*
X70792192Y-82530327D01*
X70831836Y-82434854D01*
X71064838Y-82435057D01*
X71064838Y-82435167D01*
X71206883Y-82778943D01*
X71469673Y-83042192D01*
X71813201Y-83184838D01*
X72185167Y-83185162D01*
X72528943Y-83043117D01*
X72750155Y-82822291D01*
X72969673Y-83042192D01*
X73313201Y-83184838D01*
X73685167Y-83185162D01*
X74028943Y-83043117D01*
X74292192Y-82780327D01*
X74434838Y-82436799D01*
X74435162Y-82064833D01*
X74293117Y-81721057D01*
X74030327Y-81457808D01*
X73686799Y-81315162D01*
X73314833Y-81314838D01*
X72971057Y-81456883D01*
X72749845Y-81677709D01*
X72530327Y-81457808D01*
X72186799Y-81315162D01*
X71935162Y-81314943D01*
X71935162Y-81314833D01*
X71793117Y-80971057D01*
X71530327Y-80707808D01*
X71186799Y-80565162D01*
X70814833Y-80564838D01*
X70471057Y-80706883D01*
X70207808Y-80969673D01*
X70168164Y-81065146D01*
X69814833Y-81064838D01*
X69471057Y-81206883D01*
X69207808Y-81469673D01*
X69065162Y-81813201D01*
X69064838Y-82185167D01*
X56737239Y-82185167D01*
X56737562Y-81814833D01*
X56595517Y-81471057D01*
X56332727Y-81207808D01*
X55989199Y-81065162D01*
X55617233Y-81064838D01*
X55273457Y-81206883D01*
X55010208Y-81469673D01*
X54867562Y-81813201D01*
X54867238Y-82185167D01*
X50127000Y-82185167D01*
X50127000Y-78935167D01*
X52814838Y-78935167D01*
X52956883Y-79278943D01*
X53219673Y-79542192D01*
X53563201Y-79684838D01*
X53935167Y-79685162D01*
X54278943Y-79543117D01*
X54542192Y-79280327D01*
X54684838Y-78936799D01*
X54684839Y-78935167D01*
X61064838Y-78935167D01*
X61206883Y-79278943D01*
X61469673Y-79542192D01*
X61813201Y-79684838D01*
X62185167Y-79685162D01*
X62500351Y-79554931D01*
X62813201Y-79684838D01*
X63185167Y-79685162D01*
X63528943Y-79543117D01*
X63792192Y-79280327D01*
X63934838Y-78936799D01*
X63934839Y-78935167D01*
X75064838Y-78935167D01*
X75206883Y-79278943D01*
X75469673Y-79542192D01*
X75813201Y-79684838D01*
X76185167Y-79685162D01*
X76528943Y-79543117D01*
X76792192Y-79280327D01*
X76934838Y-78936799D01*
X76935162Y-78564833D01*
X76793117Y-78221057D01*
X76530327Y-77957808D01*
X76186799Y-77815162D01*
X75814833Y-77814838D01*
X75471057Y-77956883D01*
X75207808Y-78219673D01*
X75065162Y-78563201D01*
X75064838Y-78935167D01*
X63934839Y-78935167D01*
X63935162Y-78564833D01*
X63793117Y-78221057D01*
X63530327Y-77957808D01*
X63186799Y-77815162D01*
X62814833Y-77814838D01*
X62499649Y-77945069D01*
X62186799Y-77815162D01*
X61814833Y-77814838D01*
X61471057Y-77956883D01*
X61207808Y-78219673D01*
X61065162Y-78563201D01*
X61064838Y-78935167D01*
X54684839Y-78935167D01*
X54685162Y-78564833D01*
X54543117Y-78221057D01*
X54280327Y-77957808D01*
X53936799Y-77815162D01*
X53564833Y-77814838D01*
X53221057Y-77956883D01*
X52957808Y-78219673D01*
X52815162Y-78563201D01*
X52814838Y-78935167D01*
X50127000Y-78935167D01*
X50127000Y-75685167D01*
X56314838Y-75685167D01*
X56456883Y-76028943D01*
X56719673Y-76292192D01*
X57063201Y-76434838D01*
X57435167Y-76435162D01*
X57737943Y-76310058D01*
X57969673Y-76542192D01*
X58313201Y-76684838D01*
X58565056Y-76685057D01*
X58564838Y-76935167D01*
X58706883Y-77278943D01*
X58969673Y-77542192D01*
X59313201Y-77684838D01*
X59685167Y-77685162D01*
X60028943Y-77543117D01*
X60189052Y-77383287D01*
X60313201Y-77434838D01*
X60685167Y-77435162D01*
X61028943Y-77293117D01*
X61292192Y-77030327D01*
X61434838Y-76686799D01*
X61435057Y-76435167D01*
X68064838Y-76435167D01*
X68206883Y-76778943D01*
X68469673Y-77042192D01*
X68813201Y-77184838D01*
X69185167Y-77185162D01*
X69528943Y-77043117D01*
X69792192Y-76780327D01*
X69934838Y-76436799D01*
X69935162Y-76064833D01*
X69793117Y-75721057D01*
X69757290Y-75685167D01*
X71064838Y-75685167D01*
X71206883Y-76028943D01*
X71469673Y-76292192D01*
X71813201Y-76434838D01*
X72185167Y-76435162D01*
X72500351Y-76304931D01*
X72813201Y-76434838D01*
X73185167Y-76435162D01*
X73500351Y-76304931D01*
X73813201Y-76434838D01*
X74185167Y-76435162D01*
X74528943Y-76293117D01*
X74792192Y-76030327D01*
X74934838Y-75686799D01*
X74935162Y-75314833D01*
X74793117Y-74971057D01*
X74530327Y-74707808D01*
X74186799Y-74565162D01*
X73814833Y-74564838D01*
X73499649Y-74695069D01*
X73186799Y-74565162D01*
X72814833Y-74564838D01*
X72499649Y-74695069D01*
X72186799Y-74565162D01*
X71814833Y-74564838D01*
X71471057Y-74706883D01*
X71207808Y-74969673D01*
X71065162Y-75313201D01*
X71064838Y-75685167D01*
X69757290Y-75685167D01*
X69530327Y-75457808D01*
X69186799Y-75315162D01*
X68814833Y-75314838D01*
X68471057Y-75456883D01*
X68207808Y-75719673D01*
X68065162Y-76063201D01*
X68064838Y-76435167D01*
X61435057Y-76435167D01*
X61435162Y-76314833D01*
X61293117Y-75971057D01*
X61030327Y-75707808D01*
X60686799Y-75565162D01*
X60314833Y-75564838D01*
X59971057Y-75706883D01*
X59810948Y-75866713D01*
X59686799Y-75815162D01*
X59434944Y-75814943D01*
X59435162Y-75564833D01*
X59293117Y-75221057D01*
X59030327Y-74957808D01*
X58686799Y-74815162D01*
X58314833Y-74814838D01*
X58012057Y-74939942D01*
X57780327Y-74707808D01*
X57436799Y-74565162D01*
X57064833Y-74564838D01*
X56721057Y-74706883D01*
X56457808Y-74969673D01*
X56315162Y-75313201D01*
X56314838Y-75685167D01*
X50127000Y-75685167D01*
X50127000Y-73185167D01*
X52814838Y-73185167D01*
X52956883Y-73528943D01*
X53052710Y-73624937D01*
X52957808Y-73719673D01*
X52815162Y-74063201D01*
X52814838Y-74435167D01*
X52956883Y-74778943D01*
X53219673Y-75042192D01*
X53563201Y-75184838D01*
X53935167Y-75185162D01*
X54278943Y-75043117D01*
X54542192Y-74780327D01*
X54684838Y-74436799D01*
X54685162Y-74064833D01*
X54543117Y-73721057D01*
X54447290Y-73625063D01*
X54542192Y-73530327D01*
X54684838Y-73186799D01*
X54684839Y-73185167D01*
X66814838Y-73185167D01*
X66956883Y-73528943D01*
X67219673Y-73792192D01*
X67563201Y-73934838D01*
X67935167Y-73935162D01*
X68278943Y-73793117D01*
X68542192Y-73530327D01*
X68684838Y-73186799D01*
X68684839Y-73185167D01*
X75314838Y-73185167D01*
X75445069Y-73500351D01*
X75315162Y-73813201D01*
X75314838Y-74185167D01*
X75456883Y-74528943D01*
X75719673Y-74792192D01*
X76063201Y-74934838D01*
X76435167Y-74935162D01*
X76750351Y-74804931D01*
X77063201Y-74934838D01*
X77435167Y-74935162D01*
X77778943Y-74793117D01*
X78042192Y-74530327D01*
X78184838Y-74186799D01*
X78185162Y-73814833D01*
X78054931Y-73499649D01*
X78184838Y-73186799D01*
X78185162Y-72814833D01*
X78043117Y-72471057D01*
X77780327Y-72207808D01*
X77436799Y-72065162D01*
X77064833Y-72064838D01*
X76749649Y-72195069D01*
X76436799Y-72065162D01*
X76064833Y-72064838D01*
X75721057Y-72206883D01*
X75457808Y-72469673D01*
X75315162Y-72813201D01*
X75314838Y-73185167D01*
X68684839Y-73185167D01*
X68685162Y-72814833D01*
X68543117Y-72471057D01*
X68280327Y-72207808D01*
X67936799Y-72065162D01*
X67564833Y-72064838D01*
X67221057Y-72206883D01*
X66957808Y-72469673D01*
X66815162Y-72813201D01*
X66814838Y-73185167D01*
X54684839Y-73185167D01*
X54685162Y-72814833D01*
X54543117Y-72471057D01*
X54280327Y-72207808D01*
X53936799Y-72065162D01*
X53564833Y-72064838D01*
X53221057Y-72206883D01*
X52957808Y-72469673D01*
X52815162Y-72813201D01*
X52814838Y-73185167D01*
X50127000Y-73185167D01*
X50127000Y-70935167D01*
X55814838Y-70935167D01*
X55956883Y-71278943D01*
X56219673Y-71542192D01*
X56563201Y-71684838D01*
X56935167Y-71685162D01*
X57278943Y-71543117D01*
X57374937Y-71447290D01*
X57469673Y-71542192D01*
X57813201Y-71684838D01*
X58185167Y-71685162D01*
X58528943Y-71543117D01*
X58750155Y-71322291D01*
X58969673Y-71542192D01*
X59313201Y-71684838D01*
X59685167Y-71685162D01*
X60028943Y-71543117D01*
X60292192Y-71280327D01*
X60434838Y-70936799D01*
X60435162Y-70564833D01*
X60293117Y-70221057D01*
X60030327Y-69957808D01*
X59975802Y-69935167D01*
X60314838Y-69935167D01*
X60456883Y-70278943D01*
X60719673Y-70542192D01*
X61063201Y-70684838D01*
X61435167Y-70685162D01*
X61778943Y-70543117D01*
X62042192Y-70280327D01*
X62184838Y-69936799D01*
X62184839Y-69935167D01*
X68064838Y-69935167D01*
X68195069Y-70250351D01*
X68065162Y-70563201D01*
X68064838Y-70935167D01*
X68206883Y-71278943D01*
X68469673Y-71542192D01*
X68813201Y-71684838D01*
X69185167Y-71685162D01*
X69528943Y-71543117D01*
X69792192Y-71280327D01*
X69831706Y-71185167D01*
X71064838Y-71185167D01*
X71206883Y-71528943D01*
X71469673Y-71792192D01*
X71813201Y-71934838D01*
X72185167Y-71935162D01*
X72528943Y-71793117D01*
X72792192Y-71530327D01*
X72934838Y-71186799D01*
X72935057Y-70935167D01*
X73814838Y-70935167D01*
X73956883Y-71278943D01*
X74219673Y-71542192D01*
X74563201Y-71684838D01*
X74935167Y-71685162D01*
X75278943Y-71543117D01*
X75387346Y-71434903D01*
X75685167Y-71435162D01*
X76028943Y-71293117D01*
X76292192Y-71030327D01*
X76434838Y-70686799D01*
X76435162Y-70314833D01*
X76293117Y-69971057D01*
X76030327Y-69707808D01*
X75686799Y-69565162D01*
X75314833Y-69564838D01*
X74971057Y-69706883D01*
X74862654Y-69815097D01*
X74564833Y-69814838D01*
X74221057Y-69956883D01*
X73957808Y-70219673D01*
X73815162Y-70563201D01*
X73814838Y-70935167D01*
X72935057Y-70935167D01*
X72935162Y-70814833D01*
X72793117Y-70471057D01*
X72530327Y-70207808D01*
X72186799Y-70065162D01*
X71814833Y-70064838D01*
X71471057Y-70206883D01*
X71207808Y-70469673D01*
X71065162Y-70813201D01*
X71064838Y-71185167D01*
X69831706Y-71185167D01*
X69934838Y-70936799D01*
X69935162Y-70564833D01*
X69804931Y-70249649D01*
X69934838Y-69936799D01*
X69935162Y-69564833D01*
X69793117Y-69221057D01*
X69530327Y-68957808D01*
X69186799Y-68815162D01*
X68814833Y-68814838D01*
X68471057Y-68956883D01*
X68207808Y-69219673D01*
X68065162Y-69563201D01*
X68064838Y-69935167D01*
X62184839Y-69935167D01*
X62185162Y-69564833D01*
X62043117Y-69221057D01*
X61780327Y-68957808D01*
X61725802Y-68935167D01*
X62064838Y-68935167D01*
X62206883Y-69278943D01*
X62469673Y-69542192D01*
X62813201Y-69684838D01*
X63185167Y-69685162D01*
X63528943Y-69543117D01*
X63792192Y-69280327D01*
X63934838Y-68936799D01*
X63934929Y-68831963D01*
X64000351Y-68804931D01*
X64313201Y-68934838D01*
X64685167Y-68935162D01*
X65000351Y-68804931D01*
X65313201Y-68934838D01*
X65685167Y-68935162D01*
X66028943Y-68793117D01*
X66292192Y-68530327D01*
X66434838Y-68186799D01*
X66435162Y-67814833D01*
X66293117Y-67471057D01*
X66030327Y-67207808D01*
X65686799Y-67065162D01*
X65314833Y-67064838D01*
X64999649Y-67195069D01*
X64686799Y-67065162D01*
X64314833Y-67064838D01*
X63999649Y-67195069D01*
X63686799Y-67065162D01*
X63314833Y-67064838D01*
X62971057Y-67206883D01*
X62707808Y-67469673D01*
X62565162Y-67813201D01*
X62565071Y-67918037D01*
X62471057Y-67956883D01*
X62207808Y-68219673D01*
X62065162Y-68563201D01*
X62064838Y-68935167D01*
X61725802Y-68935167D01*
X61436799Y-68815162D01*
X61064833Y-68814838D01*
X60721057Y-68956883D01*
X60457808Y-69219673D01*
X60315162Y-69563201D01*
X60314838Y-69935167D01*
X59975802Y-69935167D01*
X59686799Y-69815162D01*
X59314833Y-69814838D01*
X58971057Y-69956883D01*
X58894952Y-70032856D01*
X58934838Y-69936799D01*
X58935162Y-69564833D01*
X58793117Y-69221057D01*
X58530327Y-68957808D01*
X58186799Y-68815162D01*
X57814833Y-68814838D01*
X57471057Y-68956883D01*
X57207808Y-69219673D01*
X57065162Y-69563201D01*
X57064896Y-69868353D01*
X56936799Y-69815162D01*
X56564833Y-69814838D01*
X56221057Y-69956883D01*
X55957808Y-70219673D01*
X55815162Y-70563201D01*
X55814838Y-70935167D01*
X50127000Y-70935167D01*
X50127000Y-68935167D01*
X50564838Y-68935167D01*
X50706883Y-69278943D01*
X50969673Y-69542192D01*
X51313201Y-69684838D01*
X51685167Y-69685162D01*
X52028943Y-69543117D01*
X52292192Y-69280327D01*
X52434838Y-68936799D01*
X52435162Y-68564833D01*
X52293117Y-68221057D01*
X52030327Y-67957808D01*
X51686799Y-67815162D01*
X51314833Y-67814838D01*
X50971057Y-67956883D01*
X50707808Y-68219673D01*
X50565162Y-68563201D01*
X50564838Y-68935167D01*
X50127000Y-68935167D01*
X50127000Y-65435167D01*
X54064838Y-65435167D01*
X54206883Y-65778943D01*
X54469673Y-66042192D01*
X54813201Y-66184838D01*
X55185167Y-66185162D01*
X55528943Y-66043117D01*
X55792192Y-65780327D01*
X55934838Y-65436799D01*
X55934994Y-65257453D01*
X55969673Y-65292192D01*
X56313201Y-65434838D01*
X56685167Y-65435162D01*
X57028943Y-65293117D01*
X57292192Y-65030327D01*
X57414164Y-64736586D01*
X57469673Y-64792192D01*
X57813201Y-64934838D01*
X58185167Y-64935162D01*
X58528943Y-64793117D01*
X58792192Y-64530327D01*
X58934838Y-64186799D01*
X58934839Y-64185167D01*
X59314838Y-64185167D01*
X59456883Y-64528943D01*
X59719673Y-64792192D01*
X60063201Y-64934838D01*
X60435167Y-64935162D01*
X60778943Y-64793117D01*
X61042192Y-64530327D01*
X61184838Y-64186799D01*
X61185162Y-63814833D01*
X61043117Y-63471057D01*
X60780327Y-63207808D01*
X60725802Y-63185167D01*
X62314838Y-63185167D01*
X62456883Y-63528943D01*
X62719673Y-63792192D01*
X63063201Y-63934838D01*
X63435167Y-63935162D01*
X63778943Y-63793117D01*
X63887081Y-63685167D01*
X67814838Y-63685167D01*
X67956883Y-64028943D01*
X68219673Y-64292192D01*
X68314928Y-64331746D01*
X68314901Y-64362767D01*
X68207808Y-64469673D01*
X68065162Y-64813201D01*
X68064838Y-65185167D01*
X68206883Y-65528943D01*
X68469673Y-65792192D01*
X68813201Y-65934838D01*
X69185167Y-65935162D01*
X69528943Y-65793117D01*
X69792192Y-65530327D01*
X69934838Y-65186799D01*
X69935099Y-64887233D01*
X70042192Y-64780327D01*
X70184838Y-64436799D01*
X70185162Y-64064833D01*
X70043117Y-63721057D01*
X69822291Y-63499845D01*
X70042192Y-63280327D01*
X70184838Y-62936799D01*
X70185162Y-62564833D01*
X70043117Y-62221057D01*
X69780327Y-61957808D01*
X69436799Y-61815162D01*
X69064833Y-61814838D01*
X68721057Y-61956883D01*
X68457808Y-62219673D01*
X68315162Y-62563201D01*
X68315071Y-62668037D01*
X68221057Y-62706883D01*
X67957808Y-62969673D01*
X67815162Y-63313201D01*
X67814838Y-63685167D01*
X63887081Y-63685167D01*
X64042192Y-63530327D01*
X64184838Y-63186799D01*
X64185162Y-62814833D01*
X64043117Y-62471057D01*
X63780327Y-62207808D01*
X63436799Y-62065162D01*
X63064833Y-62064838D01*
X62721057Y-62206883D01*
X62457808Y-62469673D01*
X62315162Y-62813201D01*
X62314838Y-63185167D01*
X60725802Y-63185167D01*
X60436799Y-63065162D01*
X60064833Y-63064838D01*
X59721057Y-63206883D01*
X59457808Y-63469673D01*
X59315162Y-63813201D01*
X59314838Y-64185167D01*
X58934839Y-64185167D01*
X58935162Y-63814833D01*
X58793117Y-63471057D01*
X58530327Y-63207808D01*
X58186799Y-63065162D01*
X57814833Y-63064838D01*
X57471057Y-63206883D01*
X57207808Y-63469673D01*
X57085836Y-63763414D01*
X57030327Y-63707808D01*
X56686799Y-63565162D01*
X56314833Y-63564838D01*
X55971057Y-63706883D01*
X55707808Y-63969673D01*
X55565162Y-64313201D01*
X55565006Y-64492547D01*
X55530327Y-64457808D01*
X55186799Y-64315162D01*
X54814833Y-64314838D01*
X54471057Y-64456883D01*
X54207808Y-64719673D01*
X54065162Y-65063201D01*
X54064838Y-65435167D01*
X50127000Y-65435167D01*
X50127000Y-65227000D01*
X51700000Y-65227000D01*
X51749410Y-65216994D01*
X51791035Y-65188553D01*
X51818315Y-65146159D01*
X51827000Y-65100000D01*
X51827000Y-63985000D01*
X52349286Y-63985000D01*
X52349286Y-62935167D01*
X53064838Y-62935167D01*
X53206883Y-63278943D01*
X53469673Y-63542192D01*
X53813201Y-63684838D01*
X54185167Y-63685162D01*
X54528943Y-63543117D01*
X54792192Y-63280327D01*
X54934838Y-62936799D01*
X54935162Y-62564833D01*
X54793117Y-62221057D01*
X54530327Y-61957808D01*
X54186799Y-61815162D01*
X53814833Y-61814838D01*
X53471057Y-61956883D01*
X53207808Y-62219673D01*
X53065162Y-62563201D01*
X53064838Y-62935167D01*
X52349286Y-62935167D01*
X52349286Y-61185167D01*
X70314838Y-61185167D01*
X70456883Y-61528943D01*
X70719673Y-61792192D01*
X71063201Y-61934838D01*
X71435167Y-61935162D01*
X71778943Y-61793117D01*
X72042192Y-61530327D01*
X72184838Y-61186799D01*
X72185162Y-60814833D01*
X72043117Y-60471057D01*
X71780327Y-60207808D01*
X71436799Y-60065162D01*
X71064833Y-60064838D01*
X70721057Y-60206883D01*
X70457808Y-60469673D01*
X70315162Y-60813201D01*
X70314838Y-61185167D01*
X52349286Y-61185167D01*
X52349286Y-60165000D01*
X51827000Y-60165000D01*
X51827000Y-57245361D01*
X53211171Y-57829736D01*
X54736793Y-57840087D01*
X56150246Y-57265819D01*
X56194360Y-57236343D01*
X56561305Y-56740910D01*
X54000000Y-54179605D01*
X51438695Y-56740910D01*
X51462463Y-56773000D01*
X50127000Y-56773000D01*
X50127000Y-54736793D01*
X50159913Y-54736793D01*
X50734181Y-56150246D01*
X50763657Y-56194360D01*
X51259090Y-56561305D01*
X53820395Y-54000000D01*
X54179605Y-54000000D01*
X56740910Y-56561305D01*
X57236343Y-56194360D01*
X57451316Y-55685167D01*
X63814838Y-55685167D01*
X63956883Y-56028943D01*
X64219673Y-56292192D01*
X64563201Y-56434838D01*
X64918127Y-56435147D01*
X64945069Y-56500351D01*
X64815162Y-56813201D01*
X64814838Y-57185167D01*
X64956883Y-57528943D01*
X65219673Y-57792192D01*
X65563201Y-57934838D01*
X65935167Y-57935162D01*
X66278943Y-57793117D01*
X66542192Y-57530327D01*
X66684838Y-57186799D01*
X66685162Y-56814833D01*
X66654618Y-56740910D01*
X73438695Y-56740910D01*
X73805640Y-57236343D01*
X74252541Y-57425018D01*
X74207808Y-57469673D01*
X74065162Y-57813201D01*
X74064838Y-58185167D01*
X74206883Y-58528943D01*
X74469673Y-58792192D01*
X74813201Y-58934838D01*
X75185167Y-58935162D01*
X75375042Y-58856707D01*
X75563201Y-58934838D01*
X75935167Y-58935162D01*
X76125042Y-58856707D01*
X76313201Y-58934838D01*
X76685167Y-58935162D01*
X77028943Y-58793117D01*
X77292192Y-58530327D01*
X77434838Y-58186799D01*
X77435162Y-57814833D01*
X77343711Y-57593504D01*
X78150246Y-57265819D01*
X78194360Y-57236343D01*
X78561305Y-56740910D01*
X76000000Y-54179605D01*
X73438695Y-56740910D01*
X66654618Y-56740910D01*
X66554931Y-56499649D01*
X66684838Y-56186799D01*
X66685162Y-55814833D01*
X66543117Y-55471057D01*
X66280327Y-55207808D01*
X65936799Y-55065162D01*
X65581873Y-55064853D01*
X65543117Y-54971057D01*
X65309262Y-54736793D01*
X72159913Y-54736793D01*
X72734181Y-56150246D01*
X72763657Y-56194360D01*
X73259090Y-56561305D01*
X75820395Y-54000000D01*
X76179605Y-54000000D01*
X78740910Y-56561305D01*
X79236343Y-56194360D01*
X79829736Y-54788829D01*
X79840087Y-53263207D01*
X79265819Y-51849754D01*
X79236343Y-51805640D01*
X78740910Y-51438695D01*
X76179605Y-54000000D01*
X75820395Y-54000000D01*
X73259090Y-51438695D01*
X72763657Y-51805640D01*
X72170264Y-53211171D01*
X72159913Y-54736793D01*
X65309262Y-54736793D01*
X65280327Y-54707808D01*
X64936799Y-54565162D01*
X64564833Y-54564838D01*
X64221057Y-54706883D01*
X63957808Y-54969673D01*
X63815162Y-55313201D01*
X63814838Y-55685167D01*
X57451316Y-55685167D01*
X57829736Y-54788829D01*
X57840087Y-53263207D01*
X57300522Y-51935167D01*
X68814838Y-51935167D01*
X68956883Y-52278943D01*
X69219673Y-52542192D01*
X69563201Y-52684838D01*
X69935167Y-52685162D01*
X70278943Y-52543117D01*
X70542192Y-52280327D01*
X70684838Y-51936799D01*
X70685162Y-51564833D01*
X70558832Y-51259090D01*
X73438695Y-51259090D01*
X76000000Y-53820395D01*
X78561305Y-51259090D01*
X78194360Y-50763657D01*
X76788829Y-50170264D01*
X75263207Y-50159913D01*
X73849754Y-50734181D01*
X73805640Y-50763657D01*
X73438695Y-51259090D01*
X70558832Y-51259090D01*
X70543117Y-51221057D01*
X70280327Y-50957808D01*
X69936799Y-50815162D01*
X69564833Y-50814838D01*
X69221057Y-50956883D01*
X68957808Y-51219673D01*
X68815162Y-51563201D01*
X68814838Y-51935167D01*
X57300522Y-51935167D01*
X57265819Y-51849754D01*
X57236343Y-51805640D01*
X56740910Y-51438695D01*
X54179605Y-54000000D01*
X53820395Y-54000000D01*
X51259090Y-51438695D01*
X50763657Y-51805640D01*
X50170264Y-53211171D01*
X50159913Y-54736793D01*
X50127000Y-54736793D01*
X50127000Y-51259090D01*
X51438695Y-51259090D01*
X54000000Y-53820395D01*
X56561305Y-51259090D01*
X56194360Y-50763657D01*
X54788829Y-50170264D01*
X53263207Y-50159913D01*
X51849754Y-50734181D01*
X51805640Y-50763657D01*
X51438695Y-51259090D01*
X50127000Y-51259090D01*
X50127000Y-50127000D01*
X79873000Y-50127000D01*
X79873000Y-89914389D01*
X79873000Y-89914389D01*
G37*
X79873000Y-89914389D02*
X79793117Y-89721057D01*
X79530327Y-89457808D01*
X79186799Y-89315162D01*
X78814833Y-89314838D01*
X78624958Y-89393293D01*
X78436799Y-89315162D01*
X78064833Y-89314838D01*
X77721057Y-89456883D01*
X77457808Y-89719673D01*
X77315162Y-90063201D01*
X77314838Y-90435167D01*
X77393293Y-90625042D01*
X77315162Y-90813201D01*
X77314838Y-91185167D01*
X77456883Y-91528943D01*
X77719673Y-91792192D01*
X78063201Y-91934838D01*
X78435167Y-91935162D01*
X78625042Y-91856707D01*
X78813201Y-91934838D01*
X79185167Y-91935162D01*
X79528943Y-91793117D01*
X79792192Y-91530327D01*
X79873000Y-91335721D01*
X79873000Y-99873000D01*
X50127000Y-99873000D01*
X50127000Y-98740910D01*
X51438695Y-98740910D01*
X51805640Y-99236343D01*
X53211171Y-99829736D01*
X54736793Y-99840087D01*
X56150246Y-99265819D01*
X56194360Y-99236343D01*
X56561305Y-98740910D01*
X54000000Y-96179605D01*
X51438695Y-98740910D01*
X50127000Y-98740910D01*
X50127000Y-96736793D01*
X50159913Y-96736793D01*
X50734181Y-98150246D01*
X50763657Y-98194360D01*
X51259090Y-98561305D01*
X53820395Y-96000000D01*
X54179605Y-96000000D01*
X56740910Y-98561305D01*
X57236343Y-98194360D01*
X57765913Y-96940000D01*
X59692560Y-96940000D01*
X59692560Y-98640000D01*
X59736838Y-98875317D01*
X59875910Y-99091441D01*
X60088110Y-99236431D01*
X60340000Y-99287440D01*
X62040000Y-99287440D01*
X62275317Y-99243162D01*
X62491441Y-99104090D01*
X62636431Y-98891890D01*
X62650086Y-98824459D01*
X62679946Y-98869147D01*
X63161715Y-99191054D01*
X63730000Y-99304093D01*
X64298285Y-99191054D01*
X64780054Y-98869147D01*
X65007702Y-98528447D01*
X65074817Y-98671358D01*
X65503076Y-99061645D01*
X65913110Y-99231476D01*
X66143000Y-99110155D01*
X66143000Y-97917000D01*
X66397000Y-97917000D01*
X66397000Y-99110155D01*
X66626890Y-99231476D01*
X67036924Y-99061645D01*
X67465183Y-98671358D01*
X67540000Y-98512046D01*
X67614817Y-98671358D01*
X68043076Y-99061645D01*
X68453110Y-99231476D01*
X68683000Y-99110155D01*
X68683000Y-97917000D01*
X68937000Y-97917000D01*
X68937000Y-99110155D01*
X69166890Y-99231476D01*
X69576924Y-99061645D01*
X69928864Y-98740910D01*
X73438695Y-98740910D01*
X73805640Y-99236343D01*
X75211171Y-99829736D01*
X76736793Y-99840087D01*
X78150246Y-99265819D01*
X78194360Y-99236343D01*
X78561305Y-98740910D01*
X76000000Y-96179605D01*
X73438695Y-98740910D01*
X69928864Y-98740910D01*
X70005183Y-98671358D01*
X70251486Y-98146892D01*
X70130819Y-97917000D01*
X68937000Y-97917000D01*
X68683000Y-97917000D01*
X66397000Y-97917000D01*
X66143000Y-97917000D01*
X66123000Y-97917000D01*
X66123000Y-97663000D01*
X66143000Y-97663000D01*
X66143000Y-97643000D01*
X66397000Y-97643000D01*
X66397000Y-97663000D01*
X68683000Y-97663000D01*
X68683000Y-97643000D01*
X68937000Y-97643000D01*
X68937000Y-97663000D01*
X70130819Y-97663000D01*
X70251486Y-97433108D01*
X70005183Y-96908642D01*
X69816615Y-96736793D01*
X72159913Y-96736793D01*
X72734181Y-98150246D01*
X72763657Y-98194360D01*
X73259090Y-98561305D01*
X75820395Y-96000000D01*
X76179605Y-96000000D01*
X78740910Y-98561305D01*
X79236343Y-98194360D01*
X79829736Y-96788829D01*
X79840087Y-95263207D01*
X79265819Y-93849754D01*
X79236343Y-93805640D01*
X78740910Y-93438695D01*
X76179605Y-96000000D01*
X75820395Y-96000000D01*
X73259090Y-93438695D01*
X72763657Y-93805640D01*
X72170264Y-95211171D01*
X72159913Y-96736793D01*
X69816615Y-96736793D01*
X69576924Y-96518355D01*
X69576899Y-96518345D01*
X69860054Y-96329147D01*
X70181961Y-95847378D01*
X70295000Y-95279093D01*
X70295000Y-95220907D01*
X70181961Y-94652622D01*
X69860054Y-94170853D01*
X69378285Y-93848946D01*
X68810000Y-93735907D01*
X68241715Y-93848946D01*
X67759946Y-94170853D01*
X67540000Y-94500026D01*
X67320054Y-94170853D01*
X66838285Y-93848946D01*
X66270000Y-93735907D01*
X65701715Y-93848946D01*
X65219946Y-94170853D01*
X65000000Y-94500026D01*
X64780054Y-94170853D01*
X64298285Y-93848946D01*
X63730000Y-93735907D01*
X63161715Y-93848946D01*
X62679946Y-94170853D01*
X62460000Y-94500026D01*
X62240054Y-94170853D01*
X61758285Y-93848946D01*
X61190000Y-93735907D01*
X60621715Y-93848946D01*
X60139946Y-94170853D01*
X59818039Y-94652622D01*
X59705000Y-95220907D01*
X59705000Y-95279093D01*
X59818039Y-95847378D01*
X60139946Y-96329147D01*
X60141179Y-96329971D01*
X60104683Y-96336838D01*
X59888559Y-96475910D01*
X59743569Y-96688110D01*
X59692560Y-96940000D01*
X57765913Y-96940000D01*
X57829736Y-96788829D01*
X57840087Y-95263207D01*
X57265819Y-93849754D01*
X57236343Y-93805640D01*
X56740910Y-93438695D01*
X54179605Y-96000000D01*
X53820395Y-96000000D01*
X51259090Y-93438695D01*
X50763657Y-93805640D01*
X50170264Y-95211171D01*
X50159913Y-96736793D01*
X50127000Y-96736793D01*
X50127000Y-93259090D01*
X51438695Y-93259090D01*
X54000000Y-95820395D01*
X56561305Y-93259090D01*
X56321390Y-92935167D01*
X57064838Y-92935167D01*
X57206883Y-93278943D01*
X57469673Y-93542192D01*
X57813201Y-93684838D01*
X58185167Y-93685162D01*
X58528943Y-93543117D01*
X58792192Y-93280327D01*
X58811525Y-93233768D01*
X58969673Y-93392192D01*
X59313201Y-93534838D01*
X59685167Y-93535162D01*
X60028943Y-93393117D01*
X60163204Y-93259090D01*
X73438695Y-93259090D01*
X76000000Y-95820395D01*
X78561305Y-93259090D01*
X78194360Y-92763657D01*
X76788829Y-92170264D01*
X75263207Y-92159913D01*
X73849754Y-92734181D01*
X73805640Y-92763657D01*
X73438695Y-93259090D01*
X60163204Y-93259090D01*
X60292192Y-93130327D01*
X60434838Y-92786799D01*
X60435162Y-92414833D01*
X60293117Y-92071057D01*
X60030327Y-91807808D01*
X59686799Y-91665162D01*
X59314833Y-91664838D01*
X58971057Y-91806883D01*
X58707808Y-92069673D01*
X58688475Y-92116232D01*
X58530327Y-91957808D01*
X58186799Y-91815162D01*
X57814833Y-91814838D01*
X57471057Y-91956883D01*
X57207808Y-92219673D01*
X57065162Y-92563201D01*
X57064838Y-92935167D01*
X56321390Y-92935167D01*
X56194360Y-92763657D01*
X54788829Y-92170264D01*
X53263207Y-92159913D01*
X51849754Y-92734181D01*
X51805640Y-92763657D01*
X51438695Y-93259090D01*
X50127000Y-93259090D01*
X50127000Y-90435167D01*
X53064838Y-90435167D01*
X53206883Y-90778943D01*
X53469673Y-91042192D01*
X53813201Y-91184838D01*
X54185167Y-91185162D01*
X54528943Y-91043117D01*
X54792192Y-90780327D01*
X54934838Y-90436799D01*
X54934839Y-90435167D01*
X67064838Y-90435167D01*
X67206883Y-90778943D01*
X67469673Y-91042192D01*
X67813201Y-91184838D01*
X68185167Y-91185162D01*
X68528943Y-91043117D01*
X68792192Y-90780327D01*
X68934838Y-90436799D01*
X68935162Y-90064833D01*
X68793117Y-89721057D01*
X68530327Y-89457808D01*
X68186799Y-89315162D01*
X67814833Y-89314838D01*
X67471057Y-89456883D01*
X67207808Y-89719673D01*
X67065162Y-90063201D01*
X67064838Y-90435167D01*
X54934839Y-90435167D01*
X54935162Y-90064833D01*
X54793117Y-89721057D01*
X54530327Y-89457808D01*
X54186799Y-89315162D01*
X53814833Y-89314838D01*
X53471057Y-89456883D01*
X53207808Y-89719673D01*
X53065162Y-90063201D01*
X53064838Y-90435167D01*
X50127000Y-90435167D01*
X50127000Y-88435167D01*
X69564838Y-88435167D01*
X69706883Y-88778943D01*
X69969673Y-89042192D01*
X70313201Y-89184838D01*
X70685167Y-89185162D01*
X71028943Y-89043117D01*
X71250155Y-88822291D01*
X71469673Y-89042192D01*
X71813201Y-89184838D01*
X72185167Y-89185162D01*
X72528943Y-89043117D01*
X72750155Y-88822291D01*
X72969673Y-89042192D01*
X73313201Y-89184838D01*
X73685167Y-89185162D01*
X74028943Y-89043117D01*
X74292192Y-88780327D01*
X74434838Y-88436799D01*
X74435162Y-88064833D01*
X74293117Y-87721057D01*
X74030327Y-87457808D01*
X73686799Y-87315162D01*
X73314833Y-87314838D01*
X72971057Y-87456883D01*
X72749845Y-87677709D01*
X72530327Y-87457808D01*
X72186799Y-87315162D01*
X71814833Y-87314838D01*
X71471057Y-87456883D01*
X71249845Y-87677709D01*
X71030327Y-87457808D01*
X70686799Y-87315162D01*
X70314833Y-87314838D01*
X69971057Y-87456883D01*
X69707808Y-87719673D01*
X69565162Y-88063201D01*
X69564838Y-88435167D01*
X50127000Y-88435167D01*
X50127000Y-87185167D01*
X54314838Y-87185167D01*
X54456883Y-87528943D01*
X54719673Y-87792192D01*
X55063201Y-87934838D01*
X55435167Y-87935162D01*
X55778943Y-87793117D01*
X56042192Y-87530327D01*
X56184838Y-87186799D01*
X56185162Y-86814833D01*
X56043117Y-86471057D01*
X55780327Y-86207808D01*
X55725802Y-86185167D01*
X66064838Y-86185167D01*
X66206883Y-86528943D01*
X66469673Y-86792192D01*
X66813201Y-86934838D01*
X67185167Y-86935162D01*
X67528943Y-86793117D01*
X67792192Y-86530327D01*
X67934838Y-86186799D01*
X67935162Y-85814833D01*
X67793117Y-85471057D01*
X67530327Y-85207808D01*
X67186799Y-85065162D01*
X66814833Y-85064838D01*
X66471057Y-85206883D01*
X66207808Y-85469673D01*
X66065162Y-85813201D01*
X66064838Y-86185167D01*
X55725802Y-86185167D01*
X55436799Y-86065162D01*
X55064833Y-86064838D01*
X54721057Y-86206883D01*
X54457808Y-86469673D01*
X54315162Y-86813201D01*
X54314838Y-87185167D01*
X50127000Y-87185167D01*
X50127000Y-82185167D01*
X54867238Y-82185167D01*
X55009283Y-82528943D01*
X55272073Y-82792192D01*
X55615601Y-82934838D01*
X55987567Y-82935162D01*
X56331343Y-82793117D01*
X56594592Y-82530327D01*
X56737238Y-82186799D01*
X56737239Y-82185167D01*
X69064838Y-82185167D01*
X69206883Y-82528943D01*
X69469673Y-82792192D01*
X69813201Y-82934838D01*
X70185167Y-82935162D01*
X70528943Y-82793117D01*
X70792192Y-82530327D01*
X70831836Y-82434854D01*
X71064838Y-82435057D01*
X71064838Y-82435167D01*
X71206883Y-82778943D01*
X71469673Y-83042192D01*
X71813201Y-83184838D01*
X72185167Y-83185162D01*
X72528943Y-83043117D01*
X72750155Y-82822291D01*
X72969673Y-83042192D01*
X73313201Y-83184838D01*
X73685167Y-83185162D01*
X74028943Y-83043117D01*
X74292192Y-82780327D01*
X74434838Y-82436799D01*
X74435162Y-82064833D01*
X74293117Y-81721057D01*
X74030327Y-81457808D01*
X73686799Y-81315162D01*
X73314833Y-81314838D01*
X72971057Y-81456883D01*
X72749845Y-81677709D01*
X72530327Y-81457808D01*
X72186799Y-81315162D01*
X71935162Y-81314943D01*
X71935162Y-81314833D01*
X71793117Y-80971057D01*
X71530327Y-80707808D01*
X71186799Y-80565162D01*
X70814833Y-80564838D01*
X70471057Y-80706883D01*
X70207808Y-80969673D01*
X70168164Y-81065146D01*
X69814833Y-81064838D01*
X69471057Y-81206883D01*
X69207808Y-81469673D01*
X69065162Y-81813201D01*
X69064838Y-82185167D01*
X56737239Y-82185167D01*
X56737562Y-81814833D01*
X56595517Y-81471057D01*
X56332727Y-81207808D01*
X55989199Y-81065162D01*
X55617233Y-81064838D01*
X55273457Y-81206883D01*
X55010208Y-81469673D01*
X54867562Y-81813201D01*
X54867238Y-82185167D01*
X50127000Y-82185167D01*
X50127000Y-78935167D01*
X52814838Y-78935167D01*
X52956883Y-79278943D01*
X53219673Y-79542192D01*
X53563201Y-79684838D01*
X53935167Y-79685162D01*
X54278943Y-79543117D01*
X54542192Y-79280327D01*
X54684838Y-78936799D01*
X54684839Y-78935167D01*
X61064838Y-78935167D01*
X61206883Y-79278943D01*
X61469673Y-79542192D01*
X61813201Y-79684838D01*
X62185167Y-79685162D01*
X62500351Y-79554931D01*
X62813201Y-79684838D01*
X63185167Y-79685162D01*
X63528943Y-79543117D01*
X63792192Y-79280327D01*
X63934838Y-78936799D01*
X63934839Y-78935167D01*
X75064838Y-78935167D01*
X75206883Y-79278943D01*
X75469673Y-79542192D01*
X75813201Y-79684838D01*
X76185167Y-79685162D01*
X76528943Y-79543117D01*
X76792192Y-79280327D01*
X76934838Y-78936799D01*
X76935162Y-78564833D01*
X76793117Y-78221057D01*
X76530327Y-77957808D01*
X76186799Y-77815162D01*
X75814833Y-77814838D01*
X75471057Y-77956883D01*
X75207808Y-78219673D01*
X75065162Y-78563201D01*
X75064838Y-78935167D01*
X63934839Y-78935167D01*
X63935162Y-78564833D01*
X63793117Y-78221057D01*
X63530327Y-77957808D01*
X63186799Y-77815162D01*
X62814833Y-77814838D01*
X62499649Y-77945069D01*
X62186799Y-77815162D01*
X61814833Y-77814838D01*
X61471057Y-77956883D01*
X61207808Y-78219673D01*
X61065162Y-78563201D01*
X61064838Y-78935167D01*
X54684839Y-78935167D01*
X54685162Y-78564833D01*
X54543117Y-78221057D01*
X54280327Y-77957808D01*
X53936799Y-77815162D01*
X53564833Y-77814838D01*
X53221057Y-77956883D01*
X52957808Y-78219673D01*
X52815162Y-78563201D01*
X52814838Y-78935167D01*
X50127000Y-78935167D01*
X50127000Y-75685167D01*
X56314838Y-75685167D01*
X56456883Y-76028943D01*
X56719673Y-76292192D01*
X57063201Y-76434838D01*
X57435167Y-76435162D01*
X57737943Y-76310058D01*
X57969673Y-76542192D01*
X58313201Y-76684838D01*
X58565056Y-76685057D01*
X58564838Y-76935167D01*
X58706883Y-77278943D01*
X58969673Y-77542192D01*
X59313201Y-77684838D01*
X59685167Y-77685162D01*
X60028943Y-77543117D01*
X60189052Y-77383287D01*
X60313201Y-77434838D01*
X60685167Y-77435162D01*
X61028943Y-77293117D01*
X61292192Y-77030327D01*
X61434838Y-76686799D01*
X61435057Y-76435167D01*
X68064838Y-76435167D01*
X68206883Y-76778943D01*
X68469673Y-77042192D01*
X68813201Y-77184838D01*
X69185167Y-77185162D01*
X69528943Y-77043117D01*
X69792192Y-76780327D01*
X69934838Y-76436799D01*
X69935162Y-76064833D01*
X69793117Y-75721057D01*
X69757290Y-75685167D01*
X71064838Y-75685167D01*
X71206883Y-76028943D01*
X71469673Y-76292192D01*
X71813201Y-76434838D01*
X72185167Y-76435162D01*
X72500351Y-76304931D01*
X72813201Y-76434838D01*
X73185167Y-76435162D01*
X73500351Y-76304931D01*
X73813201Y-76434838D01*
X74185167Y-76435162D01*
X74528943Y-76293117D01*
X74792192Y-76030327D01*
X74934838Y-75686799D01*
X74935162Y-75314833D01*
X74793117Y-74971057D01*
X74530327Y-74707808D01*
X74186799Y-74565162D01*
X73814833Y-74564838D01*
X73499649Y-74695069D01*
X73186799Y-74565162D01*
X72814833Y-74564838D01*
X72499649Y-74695069D01*
X72186799Y-74565162D01*
X71814833Y-74564838D01*
X71471057Y-74706883D01*
X71207808Y-74969673D01*
X71065162Y-75313201D01*
X71064838Y-75685167D01*
X69757290Y-75685167D01*
X69530327Y-75457808D01*
X69186799Y-75315162D01*
X68814833Y-75314838D01*
X68471057Y-75456883D01*
X68207808Y-75719673D01*
X68065162Y-76063201D01*
X68064838Y-76435167D01*
X61435057Y-76435167D01*
X61435162Y-76314833D01*
X61293117Y-75971057D01*
X61030327Y-75707808D01*
X60686799Y-75565162D01*
X60314833Y-75564838D01*
X59971057Y-75706883D01*
X59810948Y-75866713D01*
X59686799Y-75815162D01*
X59434944Y-75814943D01*
X59435162Y-75564833D01*
X59293117Y-75221057D01*
X59030327Y-74957808D01*
X58686799Y-74815162D01*
X58314833Y-74814838D01*
X58012057Y-74939942D01*
X57780327Y-74707808D01*
X57436799Y-74565162D01*
X57064833Y-74564838D01*
X56721057Y-74706883D01*
X56457808Y-74969673D01*
X56315162Y-75313201D01*
X56314838Y-75685167D01*
X50127000Y-75685167D01*
X50127000Y-73185167D01*
X52814838Y-73185167D01*
X52956883Y-73528943D01*
X53052710Y-73624937D01*
X52957808Y-73719673D01*
X52815162Y-74063201D01*
X52814838Y-74435167D01*
X52956883Y-74778943D01*
X53219673Y-75042192D01*
X53563201Y-75184838D01*
X53935167Y-75185162D01*
X54278943Y-75043117D01*
X54542192Y-74780327D01*
X54684838Y-74436799D01*
X54685162Y-74064833D01*
X54543117Y-73721057D01*
X54447290Y-73625063D01*
X54542192Y-73530327D01*
X54684838Y-73186799D01*
X54684839Y-73185167D01*
X66814838Y-73185167D01*
X66956883Y-73528943D01*
X67219673Y-73792192D01*
X67563201Y-73934838D01*
X67935167Y-73935162D01*
X68278943Y-73793117D01*
X68542192Y-73530327D01*
X68684838Y-73186799D01*
X68684839Y-73185167D01*
X75314838Y-73185167D01*
X75445069Y-73500351D01*
X75315162Y-73813201D01*
X75314838Y-74185167D01*
X75456883Y-74528943D01*
X75719673Y-74792192D01*
X76063201Y-74934838D01*
X76435167Y-74935162D01*
X76750351Y-74804931D01*
X77063201Y-74934838D01*
X77435167Y-74935162D01*
X77778943Y-74793117D01*
X78042192Y-74530327D01*
X78184838Y-74186799D01*
X78185162Y-73814833D01*
X78054931Y-73499649D01*
X78184838Y-73186799D01*
X78185162Y-72814833D01*
X78043117Y-72471057D01*
X77780327Y-72207808D01*
X77436799Y-72065162D01*
X77064833Y-72064838D01*
X76749649Y-72195069D01*
X76436799Y-72065162D01*
X76064833Y-72064838D01*
X75721057Y-72206883D01*
X75457808Y-72469673D01*
X75315162Y-72813201D01*
X75314838Y-73185167D01*
X68684839Y-73185167D01*
X68685162Y-72814833D01*
X68543117Y-72471057D01*
X68280327Y-72207808D01*
X67936799Y-72065162D01*
X67564833Y-72064838D01*
X67221057Y-72206883D01*
X66957808Y-72469673D01*
X66815162Y-72813201D01*
X66814838Y-73185167D01*
X54684839Y-73185167D01*
X54685162Y-72814833D01*
X54543117Y-72471057D01*
X54280327Y-72207808D01*
X53936799Y-72065162D01*
X53564833Y-72064838D01*
X53221057Y-72206883D01*
X52957808Y-72469673D01*
X52815162Y-72813201D01*
X52814838Y-73185167D01*
X50127000Y-73185167D01*
X50127000Y-70935167D01*
X55814838Y-70935167D01*
X55956883Y-71278943D01*
X56219673Y-71542192D01*
X56563201Y-71684838D01*
X56935167Y-71685162D01*
X57278943Y-71543117D01*
X57374937Y-71447290D01*
X57469673Y-71542192D01*
X57813201Y-71684838D01*
X58185167Y-71685162D01*
X58528943Y-71543117D01*
X58750155Y-71322291D01*
X58969673Y-71542192D01*
X59313201Y-71684838D01*
X59685167Y-71685162D01*
X60028943Y-71543117D01*
X60292192Y-71280327D01*
X60434838Y-70936799D01*
X60435162Y-70564833D01*
X60293117Y-70221057D01*
X60030327Y-69957808D01*
X59975802Y-69935167D01*
X60314838Y-69935167D01*
X60456883Y-70278943D01*
X60719673Y-70542192D01*
X61063201Y-70684838D01*
X61435167Y-70685162D01*
X61778943Y-70543117D01*
X62042192Y-70280327D01*
X62184838Y-69936799D01*
X62184839Y-69935167D01*
X68064838Y-69935167D01*
X68195069Y-70250351D01*
X68065162Y-70563201D01*
X68064838Y-70935167D01*
X68206883Y-71278943D01*
X68469673Y-71542192D01*
X68813201Y-71684838D01*
X69185167Y-71685162D01*
X69528943Y-71543117D01*
X69792192Y-71280327D01*
X69831706Y-71185167D01*
X71064838Y-71185167D01*
X71206883Y-71528943D01*
X71469673Y-71792192D01*
X71813201Y-71934838D01*
X72185167Y-71935162D01*
X72528943Y-71793117D01*
X72792192Y-71530327D01*
X72934838Y-71186799D01*
X72935057Y-70935167D01*
X73814838Y-70935167D01*
X73956883Y-71278943D01*
X74219673Y-71542192D01*
X74563201Y-71684838D01*
X74935167Y-71685162D01*
X75278943Y-71543117D01*
X75387346Y-71434903D01*
X75685167Y-71435162D01*
X76028943Y-71293117D01*
X76292192Y-71030327D01*
X76434838Y-70686799D01*
X76435162Y-70314833D01*
X76293117Y-69971057D01*
X76030327Y-69707808D01*
X75686799Y-69565162D01*
X75314833Y-69564838D01*
X74971057Y-69706883D01*
X74862654Y-69815097D01*
X74564833Y-69814838D01*
X74221057Y-69956883D01*
X73957808Y-70219673D01*
X73815162Y-70563201D01*
X73814838Y-70935167D01*
X72935057Y-70935167D01*
X72935162Y-70814833D01*
X72793117Y-70471057D01*
X72530327Y-70207808D01*
X72186799Y-70065162D01*
X71814833Y-70064838D01*
X71471057Y-70206883D01*
X71207808Y-70469673D01*
X71065162Y-70813201D01*
X71064838Y-71185167D01*
X69831706Y-71185167D01*
X69934838Y-70936799D01*
X69935162Y-70564833D01*
X69804931Y-70249649D01*
X69934838Y-69936799D01*
X69935162Y-69564833D01*
X69793117Y-69221057D01*
X69530327Y-68957808D01*
X69186799Y-68815162D01*
X68814833Y-68814838D01*
X68471057Y-68956883D01*
X68207808Y-69219673D01*
X68065162Y-69563201D01*
X68064838Y-69935167D01*
X62184839Y-69935167D01*
X62185162Y-69564833D01*
X62043117Y-69221057D01*
X61780327Y-68957808D01*
X61725802Y-68935167D01*
X62064838Y-68935167D01*
X62206883Y-69278943D01*
X62469673Y-69542192D01*
X62813201Y-69684838D01*
X63185167Y-69685162D01*
X63528943Y-69543117D01*
X63792192Y-69280327D01*
X63934838Y-68936799D01*
X63934929Y-68831963D01*
X64000351Y-68804931D01*
X64313201Y-68934838D01*
X64685167Y-68935162D01*
X65000351Y-68804931D01*
X65313201Y-68934838D01*
X65685167Y-68935162D01*
X66028943Y-68793117D01*
X66292192Y-68530327D01*
X66434838Y-68186799D01*
X66435162Y-67814833D01*
X66293117Y-67471057D01*
X66030327Y-67207808D01*
X65686799Y-67065162D01*
X65314833Y-67064838D01*
X64999649Y-67195069D01*
X64686799Y-67065162D01*
X64314833Y-67064838D01*
X63999649Y-67195069D01*
X63686799Y-67065162D01*
X63314833Y-67064838D01*
X62971057Y-67206883D01*
X62707808Y-67469673D01*
X62565162Y-67813201D01*
X62565071Y-67918037D01*
X62471057Y-67956883D01*
X62207808Y-68219673D01*
X62065162Y-68563201D01*
X62064838Y-68935167D01*
X61725802Y-68935167D01*
X61436799Y-68815162D01*
X61064833Y-68814838D01*
X60721057Y-68956883D01*
X60457808Y-69219673D01*
X60315162Y-69563201D01*
X60314838Y-69935167D01*
X59975802Y-69935167D01*
X59686799Y-69815162D01*
X59314833Y-69814838D01*
X58971057Y-69956883D01*
X58894952Y-70032856D01*
X58934838Y-69936799D01*
X58935162Y-69564833D01*
X58793117Y-69221057D01*
X58530327Y-68957808D01*
X58186799Y-68815162D01*
X57814833Y-68814838D01*
X57471057Y-68956883D01*
X57207808Y-69219673D01*
X57065162Y-69563201D01*
X57064896Y-69868353D01*
X56936799Y-69815162D01*
X56564833Y-69814838D01*
X56221057Y-69956883D01*
X55957808Y-70219673D01*
X55815162Y-70563201D01*
X55814838Y-70935167D01*
X50127000Y-70935167D01*
X50127000Y-68935167D01*
X50564838Y-68935167D01*
X50706883Y-69278943D01*
X50969673Y-69542192D01*
X51313201Y-69684838D01*
X51685167Y-69685162D01*
X52028943Y-69543117D01*
X52292192Y-69280327D01*
X52434838Y-68936799D01*
X52435162Y-68564833D01*
X52293117Y-68221057D01*
X52030327Y-67957808D01*
X51686799Y-67815162D01*
X51314833Y-67814838D01*
X50971057Y-67956883D01*
X50707808Y-68219673D01*
X50565162Y-68563201D01*
X50564838Y-68935167D01*
X50127000Y-68935167D01*
X50127000Y-65435167D01*
X54064838Y-65435167D01*
X54206883Y-65778943D01*
X54469673Y-66042192D01*
X54813201Y-66184838D01*
X55185167Y-66185162D01*
X55528943Y-66043117D01*
X55792192Y-65780327D01*
X55934838Y-65436799D01*
X55934994Y-65257453D01*
X55969673Y-65292192D01*
X56313201Y-65434838D01*
X56685167Y-65435162D01*
X57028943Y-65293117D01*
X57292192Y-65030327D01*
X57414164Y-64736586D01*
X57469673Y-64792192D01*
X57813201Y-64934838D01*
X58185167Y-64935162D01*
X58528943Y-64793117D01*
X58792192Y-64530327D01*
X58934838Y-64186799D01*
X58934839Y-64185167D01*
X59314838Y-64185167D01*
X59456883Y-64528943D01*
X59719673Y-64792192D01*
X60063201Y-64934838D01*
X60435167Y-64935162D01*
X60778943Y-64793117D01*
X61042192Y-64530327D01*
X61184838Y-64186799D01*
X61185162Y-63814833D01*
X61043117Y-63471057D01*
X60780327Y-63207808D01*
X60725802Y-63185167D01*
X62314838Y-63185167D01*
X62456883Y-63528943D01*
X62719673Y-63792192D01*
X63063201Y-63934838D01*
X63435167Y-63935162D01*
X63778943Y-63793117D01*
X63887081Y-63685167D01*
X67814838Y-63685167D01*
X67956883Y-64028943D01*
X68219673Y-64292192D01*
X68314928Y-64331746D01*
X68314901Y-64362767D01*
X68207808Y-64469673D01*
X68065162Y-64813201D01*
X68064838Y-65185167D01*
X68206883Y-65528943D01*
X68469673Y-65792192D01*
X68813201Y-65934838D01*
X69185167Y-65935162D01*
X69528943Y-65793117D01*
X69792192Y-65530327D01*
X69934838Y-65186799D01*
X69935099Y-64887233D01*
X70042192Y-64780327D01*
X70184838Y-64436799D01*
X70185162Y-64064833D01*
X70043117Y-63721057D01*
X69822291Y-63499845D01*
X70042192Y-63280327D01*
X70184838Y-62936799D01*
X70185162Y-62564833D01*
X70043117Y-62221057D01*
X69780327Y-61957808D01*
X69436799Y-61815162D01*
X69064833Y-61814838D01*
X68721057Y-61956883D01*
X68457808Y-62219673D01*
X68315162Y-62563201D01*
X68315071Y-62668037D01*
X68221057Y-62706883D01*
X67957808Y-62969673D01*
X67815162Y-63313201D01*
X67814838Y-63685167D01*
X63887081Y-63685167D01*
X64042192Y-63530327D01*
X64184838Y-63186799D01*
X64185162Y-62814833D01*
X64043117Y-62471057D01*
X63780327Y-62207808D01*
X63436799Y-62065162D01*
X63064833Y-62064838D01*
X62721057Y-62206883D01*
X62457808Y-62469673D01*
X62315162Y-62813201D01*
X62314838Y-63185167D01*
X60725802Y-63185167D01*
X60436799Y-63065162D01*
X60064833Y-63064838D01*
X59721057Y-63206883D01*
X59457808Y-63469673D01*
X59315162Y-63813201D01*
X59314838Y-64185167D01*
X58934839Y-64185167D01*
X58935162Y-63814833D01*
X58793117Y-63471057D01*
X58530327Y-63207808D01*
X58186799Y-63065162D01*
X57814833Y-63064838D01*
X57471057Y-63206883D01*
X57207808Y-63469673D01*
X57085836Y-63763414D01*
X57030327Y-63707808D01*
X56686799Y-63565162D01*
X56314833Y-63564838D01*
X55971057Y-63706883D01*
X55707808Y-63969673D01*
X55565162Y-64313201D01*
X55565006Y-64492547D01*
X55530327Y-64457808D01*
X55186799Y-64315162D01*
X54814833Y-64314838D01*
X54471057Y-64456883D01*
X54207808Y-64719673D01*
X54065162Y-65063201D01*
X54064838Y-65435167D01*
X50127000Y-65435167D01*
X50127000Y-65227000D01*
X51700000Y-65227000D01*
X51749410Y-65216994D01*
X51791035Y-65188553D01*
X51818315Y-65146159D01*
X51827000Y-65100000D01*
X51827000Y-63985000D01*
X52349286Y-63985000D01*
X52349286Y-62935167D01*
X53064838Y-62935167D01*
X53206883Y-63278943D01*
X53469673Y-63542192D01*
X53813201Y-63684838D01*
X54185167Y-63685162D01*
X54528943Y-63543117D01*
X54792192Y-63280327D01*
X54934838Y-62936799D01*
X54935162Y-62564833D01*
X54793117Y-62221057D01*
X54530327Y-61957808D01*
X54186799Y-61815162D01*
X53814833Y-61814838D01*
X53471057Y-61956883D01*
X53207808Y-62219673D01*
X53065162Y-62563201D01*
X53064838Y-62935167D01*
X52349286Y-62935167D01*
X52349286Y-61185167D01*
X70314838Y-61185167D01*
X70456883Y-61528943D01*
X70719673Y-61792192D01*
X71063201Y-61934838D01*
X71435167Y-61935162D01*
X71778943Y-61793117D01*
X72042192Y-61530327D01*
X72184838Y-61186799D01*
X72185162Y-60814833D01*
X72043117Y-60471057D01*
X71780327Y-60207808D01*
X71436799Y-60065162D01*
X71064833Y-60064838D01*
X70721057Y-60206883D01*
X70457808Y-60469673D01*
X70315162Y-60813201D01*
X70314838Y-61185167D01*
X52349286Y-61185167D01*
X52349286Y-60165000D01*
X51827000Y-60165000D01*
X51827000Y-57245361D01*
X53211171Y-57829736D01*
X54736793Y-57840087D01*
X56150246Y-57265819D01*
X56194360Y-57236343D01*
X56561305Y-56740910D01*
X54000000Y-54179605D01*
X51438695Y-56740910D01*
X51462463Y-56773000D01*
X50127000Y-56773000D01*
X50127000Y-54736793D01*
X50159913Y-54736793D01*
X50734181Y-56150246D01*
X50763657Y-56194360D01*
X51259090Y-56561305D01*
X53820395Y-54000000D01*
X54179605Y-54000000D01*
X56740910Y-56561305D01*
X57236343Y-56194360D01*
X57451316Y-55685167D01*
X63814838Y-55685167D01*
X63956883Y-56028943D01*
X64219673Y-56292192D01*
X64563201Y-56434838D01*
X64918127Y-56435147D01*
X64945069Y-56500351D01*
X64815162Y-56813201D01*
X64814838Y-57185167D01*
X64956883Y-57528943D01*
X65219673Y-57792192D01*
X65563201Y-57934838D01*
X65935167Y-57935162D01*
X66278943Y-57793117D01*
X66542192Y-57530327D01*
X66684838Y-57186799D01*
X66685162Y-56814833D01*
X66654618Y-56740910D01*
X73438695Y-56740910D01*
X73805640Y-57236343D01*
X74252541Y-57425018D01*
X74207808Y-57469673D01*
X74065162Y-57813201D01*
X74064838Y-58185167D01*
X74206883Y-58528943D01*
X74469673Y-58792192D01*
X74813201Y-58934838D01*
X75185167Y-58935162D01*
X75375042Y-58856707D01*
X75563201Y-58934838D01*
X75935167Y-58935162D01*
X76125042Y-58856707D01*
X76313201Y-58934838D01*
X76685167Y-58935162D01*
X77028943Y-58793117D01*
X77292192Y-58530327D01*
X77434838Y-58186799D01*
X77435162Y-57814833D01*
X77343711Y-57593504D01*
X78150246Y-57265819D01*
X78194360Y-57236343D01*
X78561305Y-56740910D01*
X76000000Y-54179605D01*
X73438695Y-56740910D01*
X66654618Y-56740910D01*
X66554931Y-56499649D01*
X66684838Y-56186799D01*
X66685162Y-55814833D01*
X66543117Y-55471057D01*
X66280327Y-55207808D01*
X65936799Y-55065162D01*
X65581873Y-55064853D01*
X65543117Y-54971057D01*
X65309262Y-54736793D01*
X72159913Y-54736793D01*
X72734181Y-56150246D01*
X72763657Y-56194360D01*
X73259090Y-56561305D01*
X75820395Y-54000000D01*
X76179605Y-54000000D01*
X78740910Y-56561305D01*
X79236343Y-56194360D01*
X79829736Y-54788829D01*
X79840087Y-53263207D01*
X79265819Y-51849754D01*
X79236343Y-51805640D01*
X78740910Y-51438695D01*
X76179605Y-54000000D01*
X75820395Y-54000000D01*
X73259090Y-51438695D01*
X72763657Y-51805640D01*
X72170264Y-53211171D01*
X72159913Y-54736793D01*
X65309262Y-54736793D01*
X65280327Y-54707808D01*
X64936799Y-54565162D01*
X64564833Y-54564838D01*
X64221057Y-54706883D01*
X63957808Y-54969673D01*
X63815162Y-55313201D01*
X63814838Y-55685167D01*
X57451316Y-55685167D01*
X57829736Y-54788829D01*
X57840087Y-53263207D01*
X57300522Y-51935167D01*
X68814838Y-51935167D01*
X68956883Y-52278943D01*
X69219673Y-52542192D01*
X69563201Y-52684838D01*
X69935167Y-52685162D01*
X70278943Y-52543117D01*
X70542192Y-52280327D01*
X70684838Y-51936799D01*
X70685162Y-51564833D01*
X70558832Y-51259090D01*
X73438695Y-51259090D01*
X76000000Y-53820395D01*
X78561305Y-51259090D01*
X78194360Y-50763657D01*
X76788829Y-50170264D01*
X75263207Y-50159913D01*
X73849754Y-50734181D01*
X73805640Y-50763657D01*
X73438695Y-51259090D01*
X70558832Y-51259090D01*
X70543117Y-51221057D01*
X70280327Y-50957808D01*
X69936799Y-50815162D01*
X69564833Y-50814838D01*
X69221057Y-50956883D01*
X68957808Y-51219673D01*
X68815162Y-51563201D01*
X68814838Y-51935167D01*
X57300522Y-51935167D01*
X57265819Y-51849754D01*
X57236343Y-51805640D01*
X56740910Y-51438695D01*
X54179605Y-54000000D01*
X53820395Y-54000000D01*
X51259090Y-51438695D01*
X50763657Y-51805640D01*
X50170264Y-53211171D01*
X50159913Y-54736793D01*
X50127000Y-54736793D01*
X50127000Y-51259090D01*
X51438695Y-51259090D01*
X54000000Y-53820395D01*
X56561305Y-51259090D01*
X56194360Y-50763657D01*
X54788829Y-50170264D01*
X53263207Y-50159913D01*
X51849754Y-50734181D01*
X51805640Y-50763657D01*
X51438695Y-51259090D01*
X50127000Y-51259090D01*
X50127000Y-50127000D01*
X79873000Y-50127000D01*
X79873000Y-89914389D01*
M02*
