G04 #@! TF.FileFunction,Copper,L1,Top,Signal*
%FSLAX46Y46*%
G04 Gerber Fmt 4.6, Leading zero omitted, Abs format (unit mm)*
G04 Created by KiCad (PCBNEW 4.0.5) date 05/20/17 23:37:33*
%MOMM*%
%LPD*%
G01*
G04 APERTURE LIST*
%ADD10C,0.100000*%
%ADD11C,0.300000*%
%ADD12R,0.700000X3.200000*%
%ADD13R,1.500000X2.300000*%
%ADD14R,0.800000X0.800000*%
%ADD15R,2.400000X0.760000*%
%ADD16R,0.450000X1.380000*%
%ADD17R,1.475000X2.100000*%
%ADD18R,2.375000X1.900000*%
%ADD19R,1.175000X1.900000*%
%ADD20R,0.500000X0.900000*%
%ADD21C,6.400000*%
%ADD22R,1.700000X1.700000*%
%ADD23O,1.700000X1.700000*%
%ADD24C,0.600000*%
%ADD25C,0.500000*%
%ADD26C,0.200000*%
G04 APERTURE END LIST*
D10*
D11*
X51428572Y-58678571D02*
X50571429Y-58678571D01*
X51000001Y-58678571D02*
X51000001Y-57178571D01*
X50857144Y-57392857D01*
X50714286Y-57535714D01*
X50571429Y-57607143D01*
D12*
X66000000Y-61600000D03*
X64500000Y-61600000D03*
D13*
X68050000Y-59450000D03*
X62450000Y-59450000D03*
D14*
X64550000Y-56750000D03*
X62950000Y-56750000D03*
D15*
X76950000Y-61520000D03*
X73050000Y-61520000D03*
X76950000Y-60250000D03*
X73050000Y-60250000D03*
X76950000Y-58980000D03*
X73050000Y-58980000D03*
D16*
X66300000Y-54080000D03*
X65650000Y-54080000D03*
X65000000Y-54080000D03*
X64350000Y-54080000D03*
X63700000Y-54080000D03*
D17*
X67462500Y-53720000D03*
X62537500Y-53720000D03*
D18*
X67910000Y-51420000D03*
X62090000Y-51420000D03*
D19*
X65840000Y-51420000D03*
X64160000Y-51420000D03*
D12*
X75000000Y-67400000D03*
X73500000Y-67400000D03*
X72000000Y-67400000D03*
X70500000Y-67400000D03*
X69000000Y-67400000D03*
D13*
X77050000Y-65250000D03*
X66950000Y-65250000D03*
D12*
X75000000Y-73150000D03*
X73500000Y-73150000D03*
X72000000Y-73150000D03*
X70500000Y-73150000D03*
X69000000Y-73150000D03*
D13*
X77050000Y-71000000D03*
X66950000Y-71000000D03*
D12*
X61050000Y-73150000D03*
X59550000Y-73150000D03*
X58050000Y-73150000D03*
X56550000Y-73150000D03*
X55050000Y-73150000D03*
D13*
X63100000Y-71000000D03*
X53000000Y-71000000D03*
D12*
X61050000Y-78900000D03*
X59550000Y-78900000D03*
X58050000Y-78900000D03*
X56550000Y-78900000D03*
X55050000Y-78900000D03*
D13*
X63100000Y-76750000D03*
X53000000Y-76750000D03*
D12*
X61050000Y-84650000D03*
X59550000Y-84650000D03*
X58050000Y-84650000D03*
X56550000Y-84650000D03*
X55050000Y-84650000D03*
D13*
X63100000Y-82500000D03*
X53000000Y-82500000D03*
D12*
X61050000Y-90400000D03*
X59550000Y-90400000D03*
X58050000Y-90400000D03*
X56550000Y-90400000D03*
X55050000Y-90400000D03*
D13*
X63100000Y-88250000D03*
X53000000Y-88250000D03*
D12*
X61050000Y-67400000D03*
X59550000Y-67400000D03*
X58050000Y-67400000D03*
X56550000Y-67400000D03*
X55050000Y-67400000D03*
D13*
X63100000Y-65250000D03*
X53000000Y-65250000D03*
D12*
X56500000Y-61600000D03*
X55000000Y-61600000D03*
D13*
X58550000Y-59450000D03*
X52950000Y-59450000D03*
D12*
X75000000Y-78900000D03*
X73500000Y-78900000D03*
X72000000Y-78900000D03*
X70500000Y-78900000D03*
X69000000Y-78900000D03*
D13*
X77050000Y-76750000D03*
X66950000Y-76750000D03*
D12*
X75000000Y-84650000D03*
X73500000Y-84650000D03*
X72000000Y-84650000D03*
X70500000Y-84650000D03*
X69000000Y-84650000D03*
D13*
X77050000Y-82500000D03*
X66950000Y-82500000D03*
D12*
X75000000Y-90400000D03*
X73500000Y-90400000D03*
X72000000Y-90400000D03*
X70500000Y-90400000D03*
X69000000Y-90400000D03*
D13*
X77050000Y-88250000D03*
X66950000Y-88250000D03*
D20*
X61000000Y-56750000D03*
X59500000Y-56750000D03*
D21*
X54000000Y-54000000D03*
X76000000Y-54000000D03*
X54000000Y-96000000D03*
X76000000Y-96000000D03*
D22*
X61190000Y-97790000D03*
D23*
X61190000Y-95250000D03*
X63730000Y-97790000D03*
X63730000Y-95250000D03*
X66270000Y-97790000D03*
X66270000Y-95250000D03*
X68810000Y-97790000D03*
X68810000Y-95250000D03*
D24*
X75000000Y-58000000D03*
X76500000Y-58000000D03*
X75750000Y-58000000D03*
X78250000Y-91000000D03*
X79000000Y-91000000D03*
X78250000Y-90250000D03*
X79000000Y-90250000D03*
X69750000Y-51750000D03*
X66750000Y-62750000D03*
X57500000Y-63000000D03*
X51200000Y-69700000D03*
X61250000Y-64000000D03*
X56750000Y-69750000D03*
X60750000Y-71000000D03*
X61500000Y-76750000D03*
X68000000Y-86000000D03*
X56750000Y-87000000D03*
X61000000Y-87000000D03*
X59750000Y-88000000D03*
X61000000Y-88000000D03*
X63250000Y-90250000D03*
X75000000Y-88250000D03*
X75000000Y-82250000D03*
X75000000Y-75500000D03*
X78000000Y-67250000D03*
X77250000Y-67750000D03*
X77250000Y-66852402D03*
X78250000Y-68500000D03*
X74000000Y-64500000D03*
X69500000Y-56750000D03*
X74750000Y-69750000D03*
X71250000Y-59000000D03*
X58500000Y-56750000D03*
X62250000Y-55500000D03*
X63000000Y-55500000D03*
X63750000Y-55500000D03*
X75000000Y-76750000D03*
X63250000Y-63000000D03*
X51500000Y-68750000D03*
X67000000Y-86000000D03*
X55250000Y-87000000D03*
X76000000Y-78750000D03*
X77250000Y-74000000D03*
X77250000Y-73000000D03*
X76250000Y-74000000D03*
X76250000Y-73000000D03*
X74750000Y-70750000D03*
X75500000Y-70500000D03*
X71250000Y-61000000D03*
X65750000Y-57000000D03*
X65500000Y-68000000D03*
X64500000Y-68000000D03*
X58000000Y-69750000D03*
X61250000Y-69750000D03*
X63000000Y-68750000D03*
X63500000Y-68000000D03*
X65750000Y-56000000D03*
X64750000Y-55500000D03*
X69250000Y-62750000D03*
X68750000Y-63500000D03*
X69250000Y-64250000D03*
X69000000Y-65000000D03*
X69000000Y-69750000D03*
X72000000Y-71000000D03*
X69000000Y-70750000D03*
X67750000Y-73000000D03*
X59500000Y-70750000D03*
X58000000Y-70750000D03*
X56750000Y-70750000D03*
X53750000Y-73000000D03*
X59500000Y-76750000D03*
X58500000Y-75750000D03*
X57250000Y-75500000D03*
X53750000Y-74250000D03*
X63000000Y-78750000D03*
X62000000Y-78750000D03*
X60500000Y-76500000D03*
X53750000Y-78750000D03*
X59500000Y-92600000D03*
X58000000Y-92750000D03*
X55802400Y-82000000D03*
X54000000Y-90250000D03*
X60250000Y-64000000D03*
X58000000Y-64000000D03*
X56500000Y-64500000D03*
X55000000Y-65250000D03*
X54000000Y-62750000D03*
X74000000Y-75500000D03*
X73000000Y-75500000D03*
X72000000Y-75500000D03*
X69000000Y-76250000D03*
X73500000Y-82250000D03*
X72000000Y-82250000D03*
X71000000Y-81500000D03*
X70000000Y-82000000D03*
X73500000Y-88250000D03*
X72000000Y-88250000D03*
X70500000Y-88250000D03*
X68000000Y-90250000D03*
D25*
X76500000Y-58000000D02*
X75000000Y-58000000D01*
X71750000Y-58000000D02*
X75000000Y-58000000D01*
X76500000Y-58000000D02*
X78750000Y-58000000D01*
X79000000Y-58250000D02*
X79000000Y-90250000D01*
X78750000Y-58000000D02*
X79000000Y-58250000D01*
X69250000Y-55500000D02*
X71750000Y-58000000D01*
X69250000Y-55500000D02*
X69750000Y-55000000D01*
X69750000Y-55000000D02*
X69750000Y-51750000D01*
X66530000Y-55500000D02*
X69250000Y-55500000D01*
X66300000Y-54080000D02*
X66300000Y-55270000D01*
X66300000Y-55270000D02*
X66530000Y-55500000D01*
X66000000Y-61600000D02*
X66000000Y-62000000D01*
X66000000Y-62000000D02*
X66750000Y-62750000D01*
X56500000Y-61600000D02*
X56500000Y-62000000D01*
X56500000Y-62000000D02*
X57500000Y-63000000D01*
X61050000Y-67400000D02*
X61050000Y-64200000D01*
X61050000Y-64200000D02*
X61250000Y-64000000D01*
X61050000Y-73150000D02*
X61050000Y-71300000D01*
X61050000Y-71300000D02*
X60750000Y-71000000D01*
X61050000Y-78900000D02*
X61050000Y-77200000D01*
X61050000Y-77200000D02*
X61500000Y-76750000D01*
X61050000Y-84650000D02*
X61050000Y-86950000D01*
X61050000Y-86950000D02*
X61000000Y-87000000D01*
X61050000Y-90400000D02*
X61050000Y-88050000D01*
X61050000Y-88050000D02*
X61000000Y-88000000D01*
X75000000Y-90400000D02*
X75000000Y-88250000D01*
X75000000Y-84650000D02*
X75000000Y-82250000D01*
X75000000Y-73150000D02*
X75000000Y-75500000D01*
X75000000Y-67400000D02*
X75000000Y-65500000D01*
X75000000Y-65500000D02*
X74000000Y-64500000D01*
X73050000Y-58980000D02*
X71270000Y-58980000D01*
X71270000Y-58980000D02*
X71250000Y-59000000D01*
X59500000Y-56750000D02*
X58500000Y-56750000D01*
X63000000Y-55500000D02*
X62250000Y-55500000D01*
X63700000Y-54080000D02*
X63700000Y-55270000D01*
X63700000Y-55270000D02*
X63470000Y-55500000D01*
X63470000Y-55500000D02*
X63000000Y-55500000D01*
X64350000Y-54080000D02*
X64350000Y-54900000D01*
X64350000Y-54900000D02*
X63750000Y-55500000D01*
X75000000Y-78900000D02*
X75000000Y-76750000D01*
D26*
X71520000Y-61520000D02*
X71250000Y-61250000D01*
X71250000Y-61250000D02*
X71250000Y-61000000D01*
X73050000Y-61520000D02*
X71520000Y-61520000D01*
D25*
X65750000Y-57000000D02*
X64800000Y-57000000D01*
X64800000Y-57000000D02*
X64550000Y-56750000D01*
X64550000Y-56750000D02*
X64550000Y-59200000D01*
X64550000Y-59200000D02*
X64500000Y-59250000D01*
X64500000Y-59250000D02*
X64500000Y-61600000D01*
X61000000Y-56750000D02*
X62950000Y-56750000D01*
D26*
X65500000Y-68000000D02*
X65500000Y-64250000D01*
X68302401Y-62197599D02*
X70947599Y-62197599D01*
X65500000Y-64250000D02*
X66000000Y-63750000D01*
X66000000Y-63750000D02*
X66750000Y-63750000D01*
X66750000Y-63750000D02*
X68302401Y-62197599D01*
X70947599Y-62197599D02*
X71750000Y-63000000D01*
X76950000Y-62300000D02*
X76950000Y-61520000D01*
X71750000Y-63000000D02*
X76250000Y-63000000D01*
X76250000Y-63000000D02*
X76950000Y-62300000D01*
X70000000Y-58500000D02*
X70000000Y-60750000D01*
X69250000Y-57750000D02*
X70000000Y-58500000D01*
X65500000Y-57750000D02*
X69250000Y-57750000D01*
X64500000Y-68000000D02*
X64500000Y-64500000D01*
X64500000Y-64500000D02*
X65250000Y-63750000D01*
X65250000Y-58000000D02*
X65500000Y-57750000D01*
X65250000Y-63750000D02*
X65250000Y-58000000D01*
X74750000Y-62500000D02*
X75000000Y-62250000D01*
X70000000Y-60750000D02*
X71750000Y-62500000D01*
X75000000Y-62250000D02*
X75000000Y-59250000D01*
X71750000Y-62500000D02*
X74750000Y-62500000D01*
X75000000Y-59250000D02*
X75270000Y-58980000D01*
X75270000Y-58980000D02*
X76950000Y-58980000D01*
X61250000Y-70500000D02*
X61197599Y-70500000D01*
X61197599Y-70500000D02*
X60447599Y-69750000D01*
X60447599Y-69750000D02*
X58000000Y-69750000D01*
X62000000Y-71250000D02*
X61250000Y-70500000D01*
X62000000Y-72500000D02*
X62000000Y-71250000D01*
X62500000Y-73000000D02*
X62000000Y-72500000D01*
X63750000Y-73000000D02*
X62500000Y-73000000D01*
X64250000Y-90500000D02*
X64250000Y-73500000D01*
X64250000Y-73500000D02*
X63750000Y-73000000D01*
X64237919Y-91000000D02*
X64237919Y-90512081D01*
X64237919Y-90512081D02*
X64250000Y-90500000D01*
X61190000Y-95250000D02*
X61190000Y-94047919D01*
X61190000Y-94047919D02*
X64237919Y-91000000D01*
X64500000Y-69500000D02*
X61500000Y-69500000D01*
X61500000Y-69500000D02*
X61250000Y-69750000D01*
X64750000Y-69750000D02*
X64500000Y-69500000D01*
X64750000Y-74750000D02*
X64750000Y-69750000D01*
X64750000Y-93027919D02*
X64750000Y-74750000D01*
X63730000Y-95250000D02*
X63730000Y-94047919D01*
X63730000Y-94047919D02*
X64750000Y-93027919D01*
X63750000Y-69000000D02*
X63500000Y-68750000D01*
X63500000Y-68750000D02*
X63000000Y-68750000D01*
X65000000Y-69000000D02*
X63750000Y-69000000D01*
X65250000Y-69250000D02*
X65000000Y-69000000D01*
X65250000Y-74500000D02*
X65250000Y-69250000D01*
X65250000Y-93027919D02*
X65250000Y-74500000D01*
X66270000Y-95250000D02*
X66270000Y-94047919D01*
X66270000Y-94047919D02*
X65250000Y-93027919D01*
X65552401Y-68552401D02*
X64052401Y-68552401D01*
X64052401Y-68552401D02*
X63500000Y-68000000D01*
X65750000Y-90987919D02*
X65750000Y-68750000D01*
X65750000Y-68750000D02*
X65552401Y-68552401D01*
X68810000Y-95250000D02*
X68810000Y-94047919D01*
X68810000Y-94047919D02*
X65750000Y-90987919D01*
X65650000Y-54080000D02*
X65650000Y-55900000D01*
X65650000Y-55900000D02*
X65750000Y-56000000D01*
X65000000Y-54080000D02*
X65000000Y-55250000D01*
X65000000Y-55250000D02*
X64750000Y-55500000D01*
X69250000Y-62750000D02*
X70750000Y-62750000D01*
X70750000Y-62750000D02*
X73500000Y-65500000D01*
X73500000Y-65500000D02*
X73500000Y-67400000D01*
X68750000Y-63500000D02*
X70250000Y-63500000D01*
X70250000Y-63500000D02*
X72000000Y-65250000D01*
X72000000Y-65250000D02*
X72000000Y-67400000D01*
X69250000Y-64250000D02*
X70500000Y-65500000D01*
X70500000Y-65500000D02*
X70500000Y-67400000D01*
X69000000Y-65000000D02*
X69000000Y-67400000D01*
X69000000Y-69750000D02*
X69697599Y-70447599D01*
X69697599Y-70447599D02*
X72597599Y-70447599D01*
X72597599Y-70447599D02*
X73500000Y-71350000D01*
X73500000Y-71350000D02*
X73500000Y-73150000D01*
X72000000Y-71000000D02*
X72000000Y-73150000D01*
X70500000Y-73150000D02*
X70500000Y-71900000D01*
X70500000Y-71900000D02*
X69350000Y-70750000D01*
X69350000Y-70750000D02*
X69000000Y-70750000D01*
X67750000Y-73000000D02*
X68850000Y-73000000D01*
X68850000Y-73000000D02*
X69000000Y-73150000D01*
X59500000Y-70750000D02*
X59500000Y-73100000D01*
X59500000Y-73100000D02*
X59550000Y-73150000D01*
X58000000Y-70750000D02*
X58000000Y-73100000D01*
X58000000Y-73100000D02*
X58050000Y-73150000D01*
X56750000Y-70750000D02*
X56750000Y-72950000D01*
X56750000Y-72950000D02*
X56550000Y-73150000D01*
X53750000Y-73000000D02*
X54900000Y-73000000D01*
X54900000Y-73000000D02*
X55050000Y-73150000D01*
X59500000Y-76750000D02*
X59500000Y-77174264D01*
X59500000Y-77174264D02*
X59550000Y-77224264D01*
X59550000Y-77224264D02*
X59550000Y-78900000D01*
X58500000Y-75750000D02*
X58050000Y-76200000D01*
X58050000Y-76200000D02*
X58050000Y-78900000D01*
X58000000Y-78850000D02*
X58050000Y-78900000D01*
X57250000Y-75500000D02*
X56550000Y-76200000D01*
X56550000Y-76200000D02*
X56550000Y-78900000D01*
X55050000Y-76050000D02*
X53750000Y-74750000D01*
X53750000Y-74750000D02*
X53750000Y-74250000D01*
X55050000Y-78900000D02*
X55050000Y-76050000D01*
X54900000Y-78750000D02*
X55050000Y-78900000D01*
X59550000Y-84650000D02*
X59550000Y-83400000D01*
X59550000Y-83400000D02*
X60100000Y-82850000D01*
X60100000Y-82850000D02*
X60148383Y-82850000D01*
X60148383Y-82850000D02*
X63000000Y-79998383D01*
X63000000Y-79998383D02*
X63000000Y-78750000D01*
X61147590Y-81352410D02*
X62000000Y-80500000D01*
X62000000Y-80500000D02*
X62000000Y-78750000D01*
X58500000Y-81352410D02*
X61147590Y-81352410D01*
X58500000Y-81352410D02*
X58050000Y-81802410D01*
X58050000Y-81802410D02*
X58050000Y-84650000D01*
X60250000Y-80750000D02*
X60250000Y-76750000D01*
X60250000Y-76750000D02*
X60500000Y-76500000D01*
X60000000Y-81000000D02*
X60250000Y-80750000D01*
X57000000Y-81000000D02*
X60000000Y-81000000D01*
X57000000Y-81000000D02*
X56550000Y-81450000D01*
X56550000Y-81450000D02*
X56550000Y-84650000D01*
X55050000Y-81800000D02*
X53750000Y-80500000D01*
X53750000Y-80500000D02*
X53750000Y-78750000D01*
X55050000Y-84650000D02*
X55050000Y-81800000D01*
X59500000Y-92600000D02*
X59500000Y-90450000D01*
X59500000Y-90450000D02*
X59550000Y-90400000D01*
X58000000Y-92750000D02*
X58000000Y-90450000D01*
X58000000Y-90450000D02*
X58050000Y-90400000D01*
X58050000Y-88600000D02*
X58050000Y-90400000D01*
X56550000Y-90400000D02*
X56550000Y-87800000D01*
X56550000Y-87800000D02*
X56000000Y-87250000D01*
X56000000Y-87250000D02*
X56000000Y-86750000D01*
X56000000Y-86750000D02*
X55802400Y-86552400D01*
X55802400Y-86552400D02*
X55802400Y-82000000D01*
X54000000Y-90250000D02*
X54900000Y-90250000D01*
X54900000Y-90250000D02*
X55050000Y-90400000D01*
X55000000Y-90350000D02*
X55050000Y-90400000D01*
X60250000Y-64000000D02*
X59550000Y-64700000D01*
X59550000Y-64700000D02*
X59550000Y-67400000D01*
X58000000Y-64000000D02*
X58000000Y-67350000D01*
X58000000Y-67350000D02*
X58050000Y-67400000D01*
X56500000Y-64500000D02*
X56500000Y-67350000D01*
X56500000Y-67350000D02*
X56550000Y-67400000D01*
X55000000Y-65250000D02*
X55000000Y-65674264D01*
X55000000Y-65674264D02*
X55050000Y-65724264D01*
X55050000Y-65724264D02*
X55050000Y-67400000D01*
X54000000Y-62750000D02*
X54000000Y-62600000D01*
X54000000Y-62600000D02*
X55000000Y-61600000D01*
X74000000Y-75500000D02*
X73500000Y-76000000D01*
X73500000Y-76000000D02*
X73500000Y-78900000D01*
X73000000Y-75500000D02*
X72000000Y-76500000D01*
X72000000Y-76500000D02*
X72000000Y-78900000D01*
X72000000Y-75500000D02*
X70500000Y-77000000D01*
X70500000Y-77000000D02*
X70500000Y-78900000D01*
X69000000Y-78900000D02*
X69000000Y-76250000D01*
X73500000Y-82250000D02*
X73500000Y-84650000D01*
X72000000Y-84650000D02*
X72000000Y-82250000D01*
X70500000Y-84650000D02*
X70500000Y-82850000D01*
X70500000Y-82850000D02*
X71000000Y-82350000D01*
X71000000Y-82350000D02*
X71000000Y-81500000D01*
X70000000Y-82000000D02*
X69000000Y-83000000D01*
X69000000Y-83000000D02*
X69000000Y-84650000D01*
X73500000Y-88250000D02*
X73500000Y-90400000D01*
X72000000Y-88250000D02*
X72000000Y-90400000D01*
X70500000Y-88250000D02*
X70500000Y-90400000D01*
X68000000Y-90250000D02*
X68850000Y-90250000D01*
X68850000Y-90250000D02*
X69000000Y-90400000D01*
M02*
