G04 #@! TF.FileFunction,Other,ECO2*
%FSLAX46Y46*%
G04 Gerber Fmt 4.6, Leading zero omitted, Abs format (unit mm)*
G04 Created by KiCad (PCBNEW 4.0.5) date 05/20/17 23:37:33*
%MOMM*%
%LPD*%
G01*
G04 APERTURE LIST*
%ADD10C,0.100000*%
%ADD11C,0.300000*%
%ADD12C,0.200000*%
%ADD13C,0.010000*%
%ADD14C,0.025400*%
G04 APERTURE END LIST*
D10*
D11*
X72135714Y-63650001D02*
X72207143Y-63578572D01*
X72278571Y-63364286D01*
X72278571Y-63221429D01*
X72207143Y-63007144D01*
X72064286Y-62864286D01*
X71921429Y-62792858D01*
X71635714Y-62721429D01*
X71421429Y-62721429D01*
X71135714Y-62792858D01*
X70992857Y-62864286D01*
X70850000Y-63007144D01*
X70778571Y-63221429D01*
X70778571Y-63364286D01*
X70850000Y-63578572D01*
X70921429Y-63650001D01*
X70921429Y-64221429D02*
X70850000Y-64292858D01*
X70778571Y-64435715D01*
X70778571Y-64792858D01*
X70850000Y-64935715D01*
X70921429Y-65007144D01*
X71064286Y-65078572D01*
X71207143Y-65078572D01*
X71421429Y-65007144D01*
X72278571Y-64150001D01*
X72278571Y-65078572D01*
X55349999Y-87635714D02*
X55421428Y-87707143D01*
X55635714Y-87778571D01*
X55778571Y-87778571D01*
X55992856Y-87707143D01*
X56135714Y-87564286D01*
X56207142Y-87421429D01*
X56278571Y-87135714D01*
X56278571Y-86921429D01*
X56207142Y-86635714D01*
X56135714Y-86492857D01*
X55992856Y-86350000D01*
X55778571Y-86278571D01*
X55635714Y-86278571D01*
X55421428Y-86350000D01*
X55349999Y-86421429D01*
X54064285Y-86778571D02*
X54064285Y-87778571D01*
X54421428Y-86207143D02*
X54778571Y-87278571D01*
X53849999Y-87278571D01*
X66764286Y-86885715D02*
X67478571Y-86885715D01*
X65978571Y-86385715D02*
X66764286Y-86885715D01*
X65978571Y-87385715D01*
X67478571Y-88671429D02*
X67478571Y-87814286D01*
X67478571Y-88242858D02*
X65978571Y-88242858D01*
X66192857Y-88100001D01*
X66335714Y-87957143D01*
X66407143Y-87814286D01*
X59964285Y-91635714D02*
X60035714Y-91707143D01*
X60250000Y-91778571D01*
X60392857Y-91778571D01*
X60607142Y-91707143D01*
X60750000Y-91564286D01*
X60821428Y-91421429D01*
X60892857Y-91135714D01*
X60892857Y-90921429D01*
X60821428Y-90635714D01*
X60750000Y-90492857D01*
X60607142Y-90350000D01*
X60392857Y-90278571D01*
X60250000Y-90278571D01*
X60035714Y-90350000D01*
X59964285Y-90421429D01*
X58535714Y-91778571D02*
X59392857Y-91778571D01*
X58964285Y-91778571D02*
X58964285Y-90278571D01*
X59107142Y-90492857D01*
X59250000Y-90635714D01*
X59392857Y-90707143D01*
X57107143Y-91778571D02*
X57964286Y-91778571D01*
X57535714Y-91778571D02*
X57535714Y-90278571D01*
X57678571Y-90492857D01*
X57821429Y-90635714D01*
X57964286Y-90707143D01*
X64864285Y-91635714D02*
X64935714Y-91707143D01*
X65150000Y-91778571D01*
X65292857Y-91778571D01*
X65507142Y-91707143D01*
X65650000Y-91564286D01*
X65721428Y-91421429D01*
X65792857Y-91135714D01*
X65792857Y-90921429D01*
X65721428Y-90635714D01*
X65650000Y-90492857D01*
X65507142Y-90350000D01*
X65292857Y-90278571D01*
X65150000Y-90278571D01*
X64935714Y-90350000D01*
X64864285Y-90421429D01*
X63435714Y-91778571D02*
X64292857Y-91778571D01*
X63864285Y-91778571D02*
X63864285Y-90278571D01*
X64007142Y-90492857D01*
X64150000Y-90635714D01*
X64292857Y-90707143D01*
X62507143Y-90278571D02*
X62364286Y-90278571D01*
X62221429Y-90350000D01*
X62150000Y-90421429D01*
X62078571Y-90564286D01*
X62007143Y-90850000D01*
X62007143Y-91207143D01*
X62078571Y-91492857D01*
X62150000Y-91635714D01*
X62221429Y-91707143D01*
X62364286Y-91778571D01*
X62507143Y-91778571D01*
X62650000Y-91707143D01*
X62721429Y-91635714D01*
X62792857Y-91492857D01*
X62864286Y-91207143D01*
X62864286Y-90850000D01*
X62792857Y-90564286D01*
X62721429Y-90421429D01*
X62650000Y-90350000D01*
X62507143Y-90278571D01*
X70935714Y-84850001D02*
X71007143Y-84778572D01*
X71078571Y-84564286D01*
X71078571Y-84421429D01*
X71007143Y-84207144D01*
X70864286Y-84064286D01*
X70721429Y-83992858D01*
X70435714Y-83921429D01*
X70221429Y-83921429D01*
X69935714Y-83992858D01*
X69792857Y-84064286D01*
X69650000Y-84207144D01*
X69578571Y-84421429D01*
X69578571Y-84564286D01*
X69650000Y-84778572D01*
X69721429Y-84850001D01*
X69578571Y-86207144D02*
X69578571Y-85492858D01*
X70292857Y-85421429D01*
X70221429Y-85492858D01*
X70150000Y-85635715D01*
X70150000Y-85992858D01*
X70221429Y-86135715D01*
X70292857Y-86207144D01*
X70435714Y-86278572D01*
X70792857Y-86278572D01*
X70935714Y-86207144D01*
X71007143Y-86135715D01*
X71078571Y-85992858D01*
X71078571Y-85635715D01*
X71007143Y-85492858D01*
X70935714Y-85421429D01*
X73835714Y-80350001D02*
X73907143Y-80278572D01*
X73978571Y-80064286D01*
X73978571Y-79921429D01*
X73907143Y-79707144D01*
X73764286Y-79564286D01*
X73621429Y-79492858D01*
X73335714Y-79421429D01*
X73121429Y-79421429D01*
X72835714Y-79492858D01*
X72692857Y-79564286D01*
X72550000Y-79707144D01*
X72478571Y-79921429D01*
X72478571Y-80064286D01*
X72550000Y-80278572D01*
X72621429Y-80350001D01*
X72478571Y-81635715D02*
X72478571Y-81350001D01*
X72550000Y-81207144D01*
X72621429Y-81135715D01*
X72835714Y-80992858D01*
X73121429Y-80921429D01*
X73692857Y-80921429D01*
X73835714Y-80992858D01*
X73907143Y-81064286D01*
X73978571Y-81207144D01*
X73978571Y-81492858D01*
X73907143Y-81635715D01*
X73835714Y-81707144D01*
X73692857Y-81778572D01*
X73335714Y-81778572D01*
X73192857Y-81707144D01*
X73121429Y-81635715D01*
X73050000Y-81492858D01*
X73050000Y-81207144D01*
X73121429Y-81064286D01*
X73192857Y-80992858D01*
X73335714Y-80921429D01*
X73835714Y-72450001D02*
X73907143Y-72378572D01*
X73978571Y-72164286D01*
X73978571Y-72021429D01*
X73907143Y-71807144D01*
X73764286Y-71664286D01*
X73621429Y-71592858D01*
X73335714Y-71521429D01*
X73121429Y-71521429D01*
X72835714Y-71592858D01*
X72692857Y-71664286D01*
X72550000Y-71807144D01*
X72478571Y-72021429D01*
X72478571Y-72164286D01*
X72550000Y-72378572D01*
X72621429Y-72450001D01*
X72478571Y-72950001D02*
X72478571Y-73950001D01*
X73978571Y-73307144D01*
X77835714Y-70750001D02*
X77907143Y-70678572D01*
X77978571Y-70464286D01*
X77978571Y-70321429D01*
X77907143Y-70107144D01*
X77764286Y-69964286D01*
X77621429Y-69892858D01*
X77335714Y-69821429D01*
X77121429Y-69821429D01*
X76835714Y-69892858D01*
X76692857Y-69964286D01*
X76550000Y-70107144D01*
X76478571Y-70321429D01*
X76478571Y-70464286D01*
X76550000Y-70678572D01*
X76621429Y-70750001D01*
X76478571Y-71250001D02*
X76478571Y-72178572D01*
X77050000Y-71678572D01*
X77050000Y-71892858D01*
X77121429Y-72035715D01*
X77192857Y-72107144D01*
X77335714Y-72178572D01*
X77692857Y-72178572D01*
X77835714Y-72107144D01*
X77907143Y-72035715D01*
X77978571Y-71892858D01*
X77978571Y-71464286D01*
X77907143Y-71321429D01*
X77835714Y-71250001D01*
X72678571Y-61757143D02*
X73892857Y-61757143D01*
X74035714Y-61828571D01*
X74107143Y-61900000D01*
X74178571Y-62042857D01*
X74178571Y-62328571D01*
X74107143Y-62471429D01*
X74035714Y-62542857D01*
X73892857Y-62614286D01*
X72678571Y-62614286D01*
X74178571Y-64114286D02*
X74178571Y-63257143D01*
X74178571Y-63685715D02*
X72678571Y-63685715D01*
X72892857Y-63542858D01*
X73035714Y-63400000D01*
X73107143Y-63257143D01*
X74235714Y-58950001D02*
X74307143Y-58878572D01*
X74378571Y-58664286D01*
X74378571Y-58521429D01*
X74307143Y-58307144D01*
X74164286Y-58164286D01*
X74021429Y-58092858D01*
X73735714Y-58021429D01*
X73521429Y-58021429D01*
X73235714Y-58092858D01*
X73092857Y-58164286D01*
X72950000Y-58307144D01*
X72878571Y-58521429D01*
X72878571Y-58664286D01*
X72950000Y-58878572D01*
X73021429Y-58950001D01*
X74378571Y-60378572D02*
X74378571Y-59521429D01*
X74378571Y-59950001D02*
X72878571Y-59950001D01*
X73092857Y-59807144D01*
X73235714Y-59664286D01*
X73307143Y-59521429D01*
X66449999Y-64635714D02*
X66521428Y-64707143D01*
X66735714Y-64778571D01*
X66878571Y-64778571D01*
X67092856Y-64707143D01*
X67235714Y-64564286D01*
X67307142Y-64421429D01*
X67378571Y-64135714D01*
X67378571Y-63921429D01*
X67307142Y-63635714D01*
X67235714Y-63492857D01*
X67092856Y-63350000D01*
X66878571Y-63278571D01*
X66735714Y-63278571D01*
X66521428Y-63350000D01*
X66449999Y-63421429D01*
X65592856Y-63921429D02*
X65735714Y-63850000D01*
X65807142Y-63778571D01*
X65878571Y-63635714D01*
X65878571Y-63564286D01*
X65807142Y-63421429D01*
X65735714Y-63350000D01*
X65592856Y-63278571D01*
X65307142Y-63278571D01*
X65164285Y-63350000D01*
X65092856Y-63421429D01*
X65021428Y-63564286D01*
X65021428Y-63635714D01*
X65092856Y-63778571D01*
X65164285Y-63850000D01*
X65307142Y-63921429D01*
X65592856Y-63921429D01*
X65735714Y-63992857D01*
X65807142Y-64064286D01*
X65878571Y-64207143D01*
X65878571Y-64492857D01*
X65807142Y-64635714D01*
X65735714Y-64707143D01*
X65592856Y-64778571D01*
X65307142Y-64778571D01*
X65164285Y-64707143D01*
X65092856Y-64635714D01*
X65021428Y-64492857D01*
X65021428Y-64207143D01*
X65092856Y-64064286D01*
X65164285Y-63992857D01*
X65307142Y-63921429D01*
X53335714Y-66050001D02*
X53407143Y-65978572D01*
X53478571Y-65764286D01*
X53478571Y-65621429D01*
X53407143Y-65407144D01*
X53264286Y-65264286D01*
X53121429Y-65192858D01*
X52835714Y-65121429D01*
X52621429Y-65121429D01*
X52335714Y-65192858D01*
X52192857Y-65264286D01*
X52050000Y-65407144D01*
X51978571Y-65621429D01*
X51978571Y-65764286D01*
X52050000Y-65978572D01*
X52121429Y-66050001D01*
X53478571Y-66764286D02*
X53478571Y-67050001D01*
X53407143Y-67192858D01*
X53335714Y-67264286D01*
X53121429Y-67407144D01*
X52835714Y-67478572D01*
X52264286Y-67478572D01*
X52121429Y-67407144D01*
X52050000Y-67335715D01*
X51978571Y-67192858D01*
X51978571Y-66907144D01*
X52050000Y-66764286D01*
X52121429Y-66692858D01*
X52264286Y-66621429D01*
X52621429Y-66621429D01*
X52764286Y-66692858D01*
X52835714Y-66764286D01*
X52907143Y-66907144D01*
X52907143Y-67192858D01*
X52835714Y-67335715D01*
X52764286Y-67407144D01*
X52621429Y-67478572D01*
X52078571Y-80457143D02*
X53292857Y-80457143D01*
X53435714Y-80528571D01*
X53507143Y-80600000D01*
X53578571Y-80742857D01*
X53578571Y-81028571D01*
X53507143Y-81171429D01*
X53435714Y-81242857D01*
X53292857Y-81314286D01*
X52078571Y-81314286D01*
X52221429Y-81957143D02*
X52150000Y-82028572D01*
X52078571Y-82171429D01*
X52078571Y-82528572D01*
X52150000Y-82671429D01*
X52221429Y-82742858D01*
X52364286Y-82814286D01*
X52507143Y-82814286D01*
X52721429Y-82742858D01*
X53578571Y-81885715D01*
X53578571Y-82814286D01*
D12*
X57800000Y-80000000D02*
G75*
G03X57800000Y-80000000I-500000J0D01*
G01*
X71700000Y-83000000D02*
X71700000Y-80900000D01*
X69500000Y-83000000D02*
X71700000Y-83000000D01*
X54200000Y-80800000D02*
X56400000Y-83000000D01*
X54200000Y-65500000D02*
X54200000Y-67700000D01*
X56400000Y-65500000D02*
X54200000Y-65500000D01*
X71700000Y-65500000D02*
X71700000Y-67700000D01*
X69500000Y-65500000D02*
X71700000Y-65500000D01*
X73300000Y-65500000D02*
X73300000Y-66500000D01*
X73800000Y-66000000D02*
X72800000Y-66000000D01*
X79600000Y-63700000D02*
G75*
G03X79600000Y-63700000I-500000J0D01*
G01*
X78300000Y-63700000D02*
X78300000Y-63500000D01*
X77800000Y-64200000D02*
X78300000Y-63700000D01*
X78300000Y-60800000D02*
X78300000Y-63500000D01*
X74700000Y-64200000D02*
X77800000Y-64200000D01*
X74700000Y-60800000D02*
X74800000Y-60800000D01*
X74700000Y-64200000D02*
X74700000Y-60800000D01*
X74800000Y-60800000D02*
X78300000Y-60800000D01*
X57400000Y-84100000D02*
X65400000Y-84100000D01*
X57400000Y-88000000D02*
X57400000Y-84100000D01*
X65400000Y-88000000D02*
X57400000Y-88000000D01*
X65400000Y-84100000D02*
X65400000Y-88000000D01*
X59800000Y-99100000D02*
X61200000Y-99100000D01*
X59800000Y-97800000D02*
X59800000Y-99100000D01*
X59800000Y-93900000D02*
X59900000Y-93900000D01*
X59800000Y-96500000D02*
X59800000Y-93900000D01*
X62400000Y-96500000D02*
X59800000Y-96500000D01*
X62400000Y-99100000D02*
X62400000Y-96500000D01*
X70200000Y-99100000D02*
X62400000Y-99100000D01*
X70200000Y-93900000D02*
X70200000Y-99100000D01*
X70100000Y-93900000D02*
X70200000Y-93900000D01*
X59900000Y-93900000D02*
X70100000Y-93900000D01*
X61500000Y-63300000D02*
X61700000Y-63300000D01*
X61500000Y-64800000D02*
X61500000Y-63300000D01*
X64500000Y-64800000D02*
X61500000Y-64800000D01*
X64500000Y-63300000D02*
X64500000Y-64800000D01*
X61700000Y-63300000D02*
X64500000Y-63300000D01*
X52000000Y-68000000D02*
X52100000Y-68000000D01*
X52000000Y-71000000D02*
X52000000Y-68000000D01*
X53500000Y-71000000D02*
X52000000Y-71000000D01*
X53500000Y-68000000D02*
X53500000Y-71000000D01*
X52100000Y-68000000D02*
X53500000Y-68000000D01*
X57000000Y-84300000D02*
X57000000Y-84400000D01*
X54000000Y-84300000D02*
X57000000Y-84300000D01*
X54000000Y-85800000D02*
X54000000Y-84300000D01*
X57000000Y-85800000D02*
X54000000Y-85800000D01*
X57000000Y-84400000D02*
X57000000Y-85800000D01*
X60500000Y-88300000D02*
X60500000Y-88400000D01*
X57500000Y-88300000D02*
X60500000Y-88300000D01*
X57500000Y-89800000D02*
X57500000Y-88300000D01*
X60500000Y-89800000D02*
X57500000Y-89800000D01*
X60500000Y-88400000D02*
X60500000Y-89800000D01*
X62500000Y-88300000D02*
X62600000Y-88300000D01*
X62500000Y-89800000D02*
X62500000Y-88300000D01*
X65500000Y-89800000D02*
X62500000Y-89800000D01*
X65500000Y-88300000D02*
X65500000Y-89800000D01*
X62600000Y-88300000D02*
X65500000Y-88300000D01*
X66000000Y-84300000D02*
X66100000Y-84300000D01*
X66000000Y-85800000D02*
X66000000Y-84300000D01*
X69000000Y-85800000D02*
X66000000Y-85800000D01*
X69000000Y-84300000D02*
X69000000Y-85800000D01*
X66100000Y-84300000D02*
X69000000Y-84300000D01*
X72500000Y-76000000D02*
X74000000Y-76000000D01*
X72500000Y-79000000D02*
X72500000Y-76000000D01*
X74000000Y-79000000D02*
X72500000Y-79000000D01*
X74000000Y-76000000D02*
X74000000Y-79000000D01*
X74100000Y-64800000D02*
X74300000Y-64800000D01*
X74100000Y-67200000D02*
X74100000Y-64800000D01*
X78900000Y-67200000D02*
X74100000Y-67200000D01*
X78900000Y-64800000D02*
X78900000Y-67200000D01*
X74300000Y-64800000D02*
X78900000Y-64800000D01*
X75000000Y-69300000D02*
X75000000Y-69200000D01*
X78000000Y-69300000D02*
X75000000Y-69300000D01*
X78000000Y-69200000D02*
X78000000Y-69300000D01*
X75000000Y-67700000D02*
X75000000Y-67800000D01*
X78000000Y-67700000D02*
X75000000Y-67700000D01*
X78000000Y-67800000D02*
X78000000Y-67700000D01*
X78000000Y-69200000D02*
X78000000Y-67800000D01*
X75000000Y-67800000D02*
X75000000Y-69200000D01*
X72500000Y-68000000D02*
X72600000Y-68000000D01*
X72500000Y-71000000D02*
X72500000Y-68000000D01*
X74000000Y-71000000D02*
X72500000Y-71000000D01*
X74000000Y-68000000D02*
X74000000Y-71000000D01*
X72600000Y-68000000D02*
X74000000Y-68000000D01*
X75000000Y-59000000D02*
X75000000Y-59100000D01*
X78000000Y-59000000D02*
X75000000Y-59000000D01*
X78000000Y-60500000D02*
X78000000Y-59000000D01*
X75000000Y-60500000D02*
X78000000Y-60500000D01*
X75000000Y-60400000D02*
X75000000Y-60500000D01*
X75000000Y-59100000D02*
X75000000Y-60400000D01*
D11*
X65778571Y-52557143D02*
X66992857Y-52557143D01*
X67135714Y-52628571D01*
X67207143Y-52700000D01*
X67278571Y-52842857D01*
X67278571Y-53128571D01*
X67207143Y-53271429D01*
X67135714Y-53342857D01*
X66992857Y-53414286D01*
X65778571Y-53414286D01*
X65778571Y-53985715D02*
X65778571Y-54914286D01*
X66350000Y-54414286D01*
X66350000Y-54628572D01*
X66421429Y-54771429D01*
X66492857Y-54842858D01*
X66635714Y-54914286D01*
X66992857Y-54914286D01*
X67135714Y-54842858D01*
X67207143Y-54771429D01*
X67278571Y-54628572D01*
X67278571Y-54200000D01*
X67207143Y-54057143D01*
X67135714Y-53985715D01*
D12*
X71300000Y-55900000D02*
X71300000Y-55800000D01*
X70700000Y-56500000D02*
X71300000Y-55900000D01*
X67700000Y-56500000D02*
X70700000Y-56500000D01*
X71300000Y-52500000D02*
X71300000Y-55800000D01*
X72600000Y-55700000D02*
G75*
G03X72600000Y-55700000I-500000J0D01*
G01*
X67700000Y-56500000D02*
X67700000Y-52500000D01*
X67700000Y-52500000D02*
X71300000Y-52500000D01*
D13*
G36*
X60302073Y-57815598D02*
X60151486Y-58116768D01*
X60413644Y-58641100D01*
X60282565Y-58903266D01*
X60151486Y-59165431D01*
X60418186Y-59698829D01*
X60684886Y-60232226D01*
X60684886Y-60986073D01*
X60538836Y-61424214D01*
X60525968Y-61462822D01*
X60513404Y-61500531D01*
X60501191Y-61537195D01*
X60489377Y-61572669D01*
X60478012Y-61606808D01*
X60467143Y-61639467D01*
X60456818Y-61670502D01*
X60447085Y-61699767D01*
X60437993Y-61727117D01*
X60429590Y-61752407D01*
X60421924Y-61775492D01*
X60415043Y-61796227D01*
X60408996Y-61814468D01*
X60403830Y-61830069D01*
X60399594Y-61842884D01*
X60396336Y-61852770D01*
X60394105Y-61859581D01*
X60392947Y-61863172D01*
X60392786Y-61863721D01*
X60394584Y-61863800D01*
X60399910Y-61863877D01*
X60408666Y-61863954D01*
X60420752Y-61864029D01*
X60436068Y-61864103D01*
X60454514Y-61864175D01*
X60475991Y-61864245D01*
X60500399Y-61864313D01*
X60527639Y-61864380D01*
X60557611Y-61864444D01*
X60590215Y-61864505D01*
X60625352Y-61864565D01*
X60662923Y-61864622D01*
X60702826Y-61864676D01*
X60744964Y-61864727D01*
X60789236Y-61864776D01*
X60835542Y-61864821D01*
X60883783Y-61864864D01*
X60933860Y-61864903D01*
X60985673Y-61864938D01*
X61039122Y-61864971D01*
X61094107Y-61864999D01*
X61150529Y-61865024D01*
X61208289Y-61865044D01*
X61267286Y-61865061D01*
X61327422Y-61865073D01*
X61388595Y-61865082D01*
X61450708Y-61865085D01*
X61471379Y-61865086D01*
X62549973Y-61865086D01*
X62704638Y-62174421D01*
X62720359Y-62205856D01*
X62735650Y-62236411D01*
X62750432Y-62265930D01*
X62764625Y-62294255D01*
X62778150Y-62321230D01*
X62790929Y-62346696D01*
X62802881Y-62370495D01*
X62813928Y-62392472D01*
X62823990Y-62412468D01*
X62832988Y-62430325D01*
X62840844Y-62445888D01*
X62847478Y-62458997D01*
X62852811Y-62469495D01*
X62856763Y-62477226D01*
X62859255Y-62482032D01*
X62860209Y-62483755D01*
X62860214Y-62483757D01*
X62861106Y-62482160D01*
X62863539Y-62477474D01*
X62867434Y-62469857D01*
X62872713Y-62459465D01*
X62879297Y-62446457D01*
X62887106Y-62430990D01*
X62896060Y-62413220D01*
X62906082Y-62393307D01*
X62917091Y-62371406D01*
X62929008Y-62347675D01*
X62941755Y-62322273D01*
X62955252Y-62295356D01*
X62969420Y-62267081D01*
X62984180Y-62237606D01*
X62999453Y-62207089D01*
X63015158Y-62175687D01*
X63015791Y-62174421D01*
X63170456Y-61865086D01*
X64698087Y-61865086D01*
X64852752Y-62174421D01*
X64868473Y-62205856D01*
X64883765Y-62236411D01*
X64898546Y-62265930D01*
X64912739Y-62294255D01*
X64926265Y-62321230D01*
X64939043Y-62346696D01*
X64950995Y-62370495D01*
X64962042Y-62392472D01*
X64972104Y-62412468D01*
X64981103Y-62430325D01*
X64988958Y-62445888D01*
X64995592Y-62458997D01*
X65000925Y-62469495D01*
X65004877Y-62477226D01*
X65007370Y-62482032D01*
X65008324Y-62483755D01*
X65008329Y-62483757D01*
X65009220Y-62482160D01*
X65011653Y-62477474D01*
X65015549Y-62469857D01*
X65020828Y-62459465D01*
X65027411Y-62446457D01*
X65035220Y-62430990D01*
X65044175Y-62413220D01*
X65054196Y-62393307D01*
X65065205Y-62371406D01*
X65077123Y-62347675D01*
X65089870Y-62322273D01*
X65103367Y-62295356D01*
X65117535Y-62267081D01*
X65132294Y-62237606D01*
X65147567Y-62207089D01*
X65163273Y-62175687D01*
X65163906Y-62174421D01*
X65318118Y-61865990D01*
X65142586Y-61865990D01*
X65141798Y-61867719D01*
X65139533Y-61872389D01*
X65135935Y-61879709D01*
X65131152Y-61889387D01*
X65125328Y-61901129D01*
X65118612Y-61914645D01*
X65111148Y-61929641D01*
X65103082Y-61945825D01*
X65094561Y-61962906D01*
X65085731Y-61980590D01*
X65076738Y-61998587D01*
X65067728Y-62016603D01*
X65058846Y-62034346D01*
X65050241Y-62051524D01*
X65042056Y-62067845D01*
X65034439Y-62083017D01*
X65027535Y-62096747D01*
X65021491Y-62108743D01*
X65016452Y-62118713D01*
X65012566Y-62126365D01*
X65009977Y-62131407D01*
X65008832Y-62133546D01*
X65008791Y-62133600D01*
X65007929Y-62132017D01*
X65005566Y-62127426D01*
X65001824Y-62120066D01*
X64996821Y-62110177D01*
X64990679Y-62097998D01*
X64983517Y-62083767D01*
X64975457Y-62067723D01*
X64966617Y-62050105D01*
X64957119Y-62031152D01*
X64947083Y-62011104D01*
X64941200Y-61999343D01*
X64874067Y-61865086D01*
X65008326Y-61865086D01*
X65030040Y-61865098D01*
X65050665Y-61865132D01*
X65069918Y-61865187D01*
X65087519Y-61865261D01*
X65103183Y-61865351D01*
X65116629Y-61865457D01*
X65127575Y-61865575D01*
X65135738Y-61865705D01*
X65140836Y-61865844D01*
X65142586Y-61865990D01*
X65318118Y-61865990D01*
X65318570Y-61865086D01*
X65903687Y-61865086D01*
X66057897Y-62173652D01*
X66073599Y-62205062D01*
X66088875Y-62235600D01*
X66103645Y-62265109D01*
X66117829Y-62293431D01*
X66131348Y-62320407D01*
X66144123Y-62345878D01*
X66156073Y-62369688D01*
X66167120Y-62391677D01*
X66177184Y-62411687D01*
X66186186Y-62429561D01*
X66194045Y-62445139D01*
X66200682Y-62458264D01*
X66206018Y-62468778D01*
X66209974Y-62476522D01*
X66212469Y-62481338D01*
X66213424Y-62483067D01*
X66213426Y-62483069D01*
X66214353Y-62481554D01*
X66216824Y-62476942D01*
X66220763Y-62469382D01*
X66226096Y-62459026D01*
X66232745Y-62446021D01*
X66240635Y-62430519D01*
X66249691Y-62412669D01*
X66259837Y-62392620D01*
X66270997Y-62370524D01*
X66283096Y-62346529D01*
X66296058Y-62320785D01*
X66309807Y-62293442D01*
X66324268Y-62264651D01*
X66339364Y-62234560D01*
X66355020Y-62203320D01*
X66371161Y-62171081D01*
X66384423Y-62144569D01*
X66554100Y-61805218D01*
X66554100Y-60816429D01*
X67183657Y-60816429D01*
X67183657Y-61865086D01*
X68388343Y-61865086D01*
X68388343Y-60266700D01*
X68563447Y-60266700D01*
X68624651Y-60389164D01*
X68764803Y-60108857D01*
X68484504Y-60108857D01*
X67261633Y-60108857D01*
X67262579Y-60265793D01*
X67747447Y-60266250D01*
X68232314Y-60266707D01*
X68232314Y-61707243D01*
X67341500Y-61707243D01*
X67341500Y-60756600D01*
X66398072Y-60756600D01*
X66398072Y-61765295D01*
X66305999Y-61949450D01*
X66213927Y-62133605D01*
X66107334Y-61920424D01*
X66000740Y-61707243D01*
X64297125Y-61707243D01*
X64388749Y-61524003D01*
X64480372Y-61340763D01*
X65019668Y-61340307D01*
X65558964Y-61339850D01*
X65559055Y-61181880D01*
X65247814Y-61181880D01*
X65246026Y-61181974D01*
X65240767Y-61182066D01*
X65232194Y-61182155D01*
X65220464Y-61182241D01*
X65205736Y-61182324D01*
X65188165Y-61182403D01*
X65167911Y-61182477D01*
X65145129Y-61182547D01*
X65119977Y-61182612D01*
X65092613Y-61182672D01*
X65063195Y-61182726D01*
X65031878Y-61182774D01*
X64998822Y-61182816D01*
X64964183Y-61182851D01*
X64928118Y-61182878D01*
X64890785Y-61182898D01*
X64852341Y-61182910D01*
X64815558Y-61182914D01*
X64383302Y-61182914D01*
X64252223Y-61445079D01*
X64121145Y-61707243D01*
X63934272Y-61707243D01*
X63934272Y-60816429D01*
X64246329Y-60816429D01*
X64279685Y-60816423D01*
X64312049Y-60816408D01*
X64343236Y-60816384D01*
X64373062Y-60816350D01*
X64401340Y-60816308D01*
X64427886Y-60816258D01*
X64452515Y-60816201D01*
X64475040Y-60816137D01*
X64495278Y-60816067D01*
X64513042Y-60815991D01*
X64528148Y-60815911D01*
X64540411Y-60815825D01*
X64549644Y-60815735D01*
X64555663Y-60815642D01*
X64558283Y-60815546D01*
X64558386Y-60815523D01*
X64557587Y-60813836D01*
X64555239Y-60809055D01*
X64551418Y-60801331D01*
X64546199Y-60790812D01*
X64539656Y-60777651D01*
X64531866Y-60761997D01*
X64522902Y-60744002D01*
X64512841Y-60723815D01*
X64501756Y-60701588D01*
X64489724Y-60677471D01*
X64480299Y-60658586D01*
X64304389Y-60658586D01*
X63406311Y-60658586D01*
X63589561Y-60292100D01*
X64121140Y-60292100D01*
X64212764Y-60475343D01*
X64304389Y-60658586D01*
X64480299Y-60658586D01*
X64476819Y-60651614D01*
X64463117Y-60624168D01*
X64448692Y-60595284D01*
X64433619Y-60565112D01*
X64417974Y-60533802D01*
X64401832Y-60501506D01*
X64388297Y-60474432D01*
X64218207Y-60134248D01*
X63492493Y-60135164D01*
X63322503Y-60474436D01*
X63305998Y-60507382D01*
X63289928Y-60539470D01*
X63274370Y-60570547D01*
X63259399Y-60600463D01*
X63245090Y-60629067D01*
X63231518Y-60656208D01*
X63218759Y-60681734D01*
X63206887Y-60705496D01*
X63195980Y-60727342D01*
X63186111Y-60747121D01*
X63177356Y-60764683D01*
X63169791Y-60779876D01*
X63163490Y-60792549D01*
X63158530Y-60802552D01*
X63154986Y-60809733D01*
X63152932Y-60813942D01*
X63152413Y-60815068D01*
X63154186Y-60815213D01*
X63159402Y-60815354D01*
X63167877Y-60815490D01*
X63179424Y-60815620D01*
X63193860Y-60815744D01*
X63210999Y-60815859D01*
X63230655Y-60815967D01*
X63252644Y-60816065D01*
X63276781Y-60816153D01*
X63302880Y-60816231D01*
X63330756Y-60816297D01*
X63360225Y-60816350D01*
X63391100Y-60816390D01*
X63423197Y-60816417D01*
X63456331Y-60816428D01*
X63464372Y-60816429D01*
X63776429Y-60816429D01*
X63776429Y-61707243D01*
X63073386Y-61707243D01*
X62966581Y-61920862D01*
X62859776Y-62134482D01*
X62642281Y-61699509D01*
X62623596Y-61662129D01*
X62605338Y-61625583D01*
X62587575Y-61590005D01*
X62570372Y-61555527D01*
X62553796Y-61522285D01*
X62537913Y-61490412D01*
X62522790Y-61460042D01*
X62508494Y-61431308D01*
X62495091Y-61404346D01*
X62482646Y-61379287D01*
X62471228Y-61356267D01*
X62460902Y-61335419D01*
X62451735Y-61316877D01*
X62443792Y-61300775D01*
X62437142Y-61287246D01*
X62431849Y-61276425D01*
X62427982Y-61268446D01*
X62425605Y-61263441D01*
X62424786Y-61261546D01*
X62424786Y-61261543D01*
X62425590Y-61259740D01*
X62427970Y-61254794D01*
X62431874Y-61246809D01*
X62437252Y-61235885D01*
X62444053Y-61222125D01*
X62452225Y-61205630D01*
X62461719Y-61186502D01*
X62472484Y-61164843D01*
X62484468Y-61140755D01*
X62497620Y-61114339D01*
X62511891Y-61085699D01*
X62527229Y-61054934D01*
X62543584Y-61022148D01*
X62560904Y-60987441D01*
X62579139Y-60950917D01*
X62598238Y-60912676D01*
X62618151Y-60872821D01*
X62638826Y-60831453D01*
X62660212Y-60788674D01*
X62682260Y-60744586D01*
X62704917Y-60699292D01*
X62728134Y-60652892D01*
X62751859Y-60605488D01*
X62776042Y-60557183D01*
X62798075Y-60513182D01*
X62948313Y-60213192D01*
X62771763Y-60213192D01*
X62286899Y-61182914D01*
X61864172Y-61182914D01*
X61864172Y-61340757D01*
X62287816Y-61340757D01*
X62378979Y-61523095D01*
X62391000Y-61547146D01*
X62402558Y-61570286D01*
X62413549Y-61592307D01*
X62423872Y-61613003D01*
X62433423Y-61632169D01*
X62442100Y-61649598D01*
X62449801Y-61665084D01*
X62456423Y-61678420D01*
X62461863Y-61689400D01*
X62466018Y-61697819D01*
X62468786Y-61703469D01*
X62470065Y-61706145D01*
X62470143Y-61706338D01*
X62468347Y-61706394D01*
X62463029Y-61706450D01*
X62454297Y-61706504D01*
X62442259Y-61706558D01*
X62427021Y-61706610D01*
X62408691Y-61706661D01*
X62387377Y-61706710D01*
X62363185Y-61706758D01*
X62336222Y-61706804D01*
X62306597Y-61706849D01*
X62274416Y-61706892D01*
X62239787Y-61706933D01*
X62202816Y-61706971D01*
X62163612Y-61707008D01*
X62122282Y-61707042D01*
X62078932Y-61707074D01*
X62033671Y-61707104D01*
X61986605Y-61707131D01*
X61937841Y-61707155D01*
X61887488Y-61707177D01*
X61835652Y-61707196D01*
X61782441Y-61707211D01*
X61727961Y-61707224D01*
X61672321Y-61707234D01*
X61615627Y-61707240D01*
X61557987Y-61707243D01*
X61540322Y-61707243D01*
X61482416Y-61707242D01*
X61425423Y-61707239D01*
X61369452Y-61707234D01*
X61314609Y-61707227D01*
X61261001Y-61707219D01*
X61208737Y-61707209D01*
X61157922Y-61707197D01*
X61108665Y-61707184D01*
X61061072Y-61707169D01*
X61015251Y-61707153D01*
X60971310Y-61707135D01*
X60929356Y-61707116D01*
X60889495Y-61707095D01*
X60851835Y-61707074D01*
X60816484Y-61707051D01*
X60783549Y-61707027D01*
X60753136Y-61707002D01*
X60725354Y-61706976D01*
X60700310Y-61706949D01*
X60678111Y-61706921D01*
X60658864Y-61706893D01*
X60642676Y-61706863D01*
X60629655Y-61706833D01*
X60619909Y-61706803D01*
X60613543Y-61706771D01*
X60610667Y-61706739D01*
X60610500Y-61706730D01*
X60611067Y-61704985D01*
X60612732Y-61699962D01*
X60615439Y-61691824D01*
X60619136Y-61680734D01*
X60623767Y-61666855D01*
X60629278Y-61650348D01*
X60635614Y-61631378D01*
X60642721Y-61610107D01*
X60650545Y-61586698D01*
X60659032Y-61561314D01*
X60668126Y-61534117D01*
X60677773Y-61505271D01*
X60687920Y-61474938D01*
X60698511Y-61443281D01*
X60709492Y-61410463D01*
X60720809Y-61376647D01*
X60726161Y-61360655D01*
X60841822Y-61015093D01*
X60843636Y-60229507D01*
X61074960Y-59767771D01*
X61733543Y-59767771D01*
X61733543Y-60738414D01*
X61889565Y-60738414D01*
X61890022Y-60253546D01*
X61890479Y-59768679D01*
X62219775Y-59768220D01*
X62549071Y-59767762D01*
X62771763Y-60213192D01*
X62948313Y-60213192D01*
X63171364Y-59767815D01*
X63855661Y-59767793D01*
X64539957Y-59767771D01*
X64893886Y-60474308D01*
X64917783Y-60522015D01*
X64941266Y-60568901D01*
X64964284Y-60614862D01*
X64986784Y-60659795D01*
X65008714Y-60703593D01*
X65030023Y-60746154D01*
X65050657Y-60787373D01*
X65070565Y-60827146D01*
X65089694Y-60865369D01*
X65107993Y-60901937D01*
X65125409Y-60936745D01*
X65141891Y-60969691D01*
X65157385Y-61000670D01*
X65171840Y-61029576D01*
X65185204Y-61056307D01*
X65197424Y-61080758D01*
X65208449Y-61102824D01*
X65218226Y-61122401D01*
X65226703Y-61139386D01*
X65233829Y-61153673D01*
X65239549Y-61165159D01*
X65243814Y-61173739D01*
X65246570Y-61179309D01*
X65247766Y-61181765D01*
X65247814Y-61181880D01*
X65559055Y-61181880D01*
X65559420Y-60553811D01*
X65559783Y-59927423D01*
X65402029Y-59927423D01*
X65402027Y-59993495D01*
X65402023Y-60058667D01*
X65402017Y-60122843D01*
X65402008Y-60185931D01*
X65401996Y-60247837D01*
X65401982Y-60308465D01*
X65401966Y-60367722D01*
X65401948Y-60425514D01*
X65401927Y-60481747D01*
X65401904Y-60536326D01*
X65401880Y-60589158D01*
X65401853Y-60640148D01*
X65401825Y-60689202D01*
X65401794Y-60736226D01*
X65401762Y-60781126D01*
X65401728Y-60823808D01*
X65401693Y-60864178D01*
X65401656Y-60902141D01*
X65401618Y-60937604D01*
X65401578Y-60970473D01*
X65401537Y-61000652D01*
X65401495Y-61028049D01*
X65401452Y-61052568D01*
X65401407Y-61074116D01*
X65401362Y-61092600D01*
X65401315Y-61107923D01*
X65401268Y-61119994D01*
X65401220Y-61128716D01*
X65401171Y-61133997D01*
X65401122Y-61135743D01*
X65400257Y-61134137D01*
X65397823Y-61129392D01*
X65393874Y-61121613D01*
X65388461Y-61110905D01*
X65381639Y-61097374D01*
X65373460Y-61081127D01*
X65363978Y-61062269D01*
X65353245Y-61040906D01*
X65341314Y-61017144D01*
X65328239Y-60991089D01*
X65314073Y-60962846D01*
X65298868Y-60932522D01*
X65282678Y-60900221D01*
X65265556Y-60866051D01*
X65247554Y-60830117D01*
X65228727Y-60792524D01*
X65209126Y-60753379D01*
X65188806Y-60712787D01*
X65167819Y-60670855D01*
X65146218Y-60627687D01*
X65124056Y-60583391D01*
X65101386Y-60538071D01*
X65078262Y-60491834D01*
X65058222Y-60451757D01*
X64716228Y-59767771D01*
X64899471Y-59767771D01*
X64924921Y-59767763D01*
X64949322Y-59767737D01*
X64972434Y-59767696D01*
X64994015Y-59767640D01*
X65013822Y-59767571D01*
X65031615Y-59767490D01*
X65047151Y-59767399D01*
X65060188Y-59767298D01*
X65070486Y-59767188D01*
X65077803Y-59767071D01*
X65081896Y-59766948D01*
X65082714Y-59766862D01*
X65081916Y-59765172D01*
X65079572Y-59760395D01*
X65075762Y-59752689D01*
X65070564Y-59742210D01*
X65064057Y-59729117D01*
X65056320Y-59713568D01*
X65047431Y-59695720D01*
X65037468Y-59675730D01*
X65026511Y-59653758D01*
X65014638Y-59629959D01*
X65004640Y-59609928D01*
X64828718Y-59609928D01*
X63951052Y-59609929D01*
X63073386Y-59609929D01*
X62966574Y-59823561D01*
X62859761Y-60037193D01*
X62646131Y-59609929D01*
X62470155Y-59609929D01*
X62413900Y-59609929D01*
X62413900Y-59554290D01*
X62413922Y-59540542D01*
X62413985Y-59528078D01*
X62414082Y-59517329D01*
X62414208Y-59508724D01*
X62414358Y-59502696D01*
X62414527Y-59499674D01*
X62414606Y-59499408D01*
X62415556Y-59501154D01*
X62417931Y-59505766D01*
X62421540Y-59512864D01*
X62426190Y-59522067D01*
X62431688Y-59532995D01*
X62437841Y-59545266D01*
X62442733Y-59555046D01*
X62470155Y-59609929D01*
X62646131Y-59609929D01*
X62641824Y-59601315D01*
X62423886Y-59165437D01*
X62535455Y-58942275D01*
X62647024Y-58719114D01*
X63645800Y-58719114D01*
X63645800Y-58563086D01*
X62938229Y-58563086D01*
X62938229Y-58196607D01*
X62945655Y-58196600D01*
X62780386Y-58196600D01*
X62780386Y-58563086D01*
X62549045Y-58563086D01*
X62481926Y-58697362D01*
X62414807Y-58831639D01*
X62413891Y-58136723D01*
X62440431Y-58083668D01*
X62466970Y-58030613D01*
X62508475Y-58113606D01*
X62549979Y-58196600D01*
X62780386Y-58196600D01*
X62945655Y-58196600D01*
X63423097Y-58196150D01*
X63907964Y-58195693D01*
X63908910Y-58038757D01*
X62645881Y-58038757D01*
X62554396Y-57854619D01*
X62377614Y-57854619D01*
X62376823Y-57856708D01*
X62374546Y-57861736D01*
X62370931Y-57869402D01*
X62366124Y-57879404D01*
X62360270Y-57891440D01*
X62353518Y-57905208D01*
X62346013Y-57920408D01*
X62337901Y-57936736D01*
X62332254Y-57948050D01*
X62286893Y-58038757D01*
X61025972Y-58038757D01*
X61025972Y-58196600D01*
X62257872Y-58196600D01*
X62257872Y-59609929D01*
X61367064Y-59609929D01*
X61366150Y-58642007D01*
X61209214Y-58641061D01*
X61209214Y-59609929D01*
X60976984Y-59609929D01*
X60870399Y-59823107D01*
X60857385Y-59849130D01*
X60844819Y-59874242D01*
X60832798Y-59898254D01*
X60821416Y-59920975D01*
X60810768Y-59942217D01*
X60800951Y-59961789D01*
X60792058Y-59979502D01*
X60784185Y-59995167D01*
X60777428Y-60008593D01*
X60771881Y-60019592D01*
X60767640Y-60027973D01*
X60764800Y-60033547D01*
X60763456Y-60036125D01*
X60763358Y-60036286D01*
X60762519Y-60034685D01*
X60760123Y-60029971D01*
X60756239Y-60022276D01*
X60750932Y-60011734D01*
X60744268Y-59998477D01*
X60736315Y-59982637D01*
X60727138Y-59964347D01*
X60716804Y-59943739D01*
X60705380Y-59920948D01*
X60692932Y-59896104D01*
X60679526Y-59869341D01*
X60665230Y-59840791D01*
X60650108Y-59810587D01*
X60634229Y-59778862D01*
X60617658Y-59745748D01*
X60600462Y-59711378D01*
X60582707Y-59675884D01*
X60564459Y-59639400D01*
X60545786Y-59602057D01*
X60545186Y-59600856D01*
X60327469Y-59165427D01*
X60439051Y-58942271D01*
X60550632Y-58719114D01*
X60762900Y-58719114D01*
X60762900Y-58563086D01*
X60550632Y-58563086D01*
X60439051Y-58339931D01*
X60327471Y-58116776D01*
X60438593Y-57894524D01*
X60549715Y-57672271D01*
X62287824Y-57672271D01*
X62332719Y-57762083D01*
X62341107Y-57778910D01*
X62348985Y-57794808D01*
X62356206Y-57809472D01*
X62362623Y-57822601D01*
X62368088Y-57833889D01*
X62372456Y-57843035D01*
X62375577Y-57849734D01*
X62377306Y-57853684D01*
X62377614Y-57854619D01*
X62554396Y-57854619D01*
X62463793Y-57672259D01*
X63514718Y-57672265D01*
X63576307Y-57672267D01*
X63636989Y-57672272D01*
X63696663Y-57672280D01*
X63755227Y-57672291D01*
X63812582Y-57672304D01*
X63868625Y-57672321D01*
X63923257Y-57672340D01*
X63976376Y-57672361D01*
X64027881Y-57672385D01*
X64077672Y-57672411D01*
X64125646Y-57672439D01*
X64171705Y-57672470D01*
X64215746Y-57672503D01*
X64257668Y-57672537D01*
X64297372Y-57672574D01*
X64334755Y-57672613D01*
X64369717Y-57672653D01*
X64402157Y-57672694D01*
X64431974Y-57672738D01*
X64459067Y-57672783D01*
X64483335Y-57672829D01*
X64504678Y-57672876D01*
X64522994Y-57672925D01*
X64538182Y-57672975D01*
X64550142Y-57673026D01*
X64558772Y-57673077D01*
X64563972Y-57673130D01*
X64565643Y-57673181D01*
X64564847Y-57674883D01*
X64562519Y-57679643D01*
X64558754Y-57687274D01*
X64553645Y-57697589D01*
X64547283Y-57710400D01*
X64539764Y-57725522D01*
X64531179Y-57742766D01*
X64521622Y-57761947D01*
X64511186Y-57782876D01*
X64499964Y-57805367D01*
X64488049Y-57829233D01*
X64475535Y-57854287D01*
X64462514Y-57880342D01*
X64454973Y-57895425D01*
X64344304Y-58116759D01*
X64480373Y-58388930D01*
X64616443Y-58661100D01*
X64616443Y-59185392D01*
X64722580Y-59397660D01*
X64828718Y-59609928D01*
X65004640Y-59609928D01*
X65001927Y-59604493D01*
X64988458Y-59577516D01*
X64974309Y-59549186D01*
X64959558Y-59519662D01*
X64944284Y-59489101D01*
X64928566Y-59457660D01*
X64927586Y-59455699D01*
X64772457Y-59145446D01*
X64772918Y-58932733D01*
X64773379Y-58720021D01*
X65087704Y-58719563D01*
X65402029Y-58719104D01*
X65402029Y-59927423D01*
X65559783Y-59927423D01*
X65559876Y-59767771D01*
X66349089Y-59767771D01*
X66237737Y-59990469D01*
X66126386Y-60213166D01*
X66398072Y-60756600D01*
X67341500Y-60756600D01*
X67341500Y-60658586D01*
X66524158Y-60658586D01*
X66413036Y-60436333D01*
X66301914Y-60214081D01*
X66413494Y-59990926D01*
X66525075Y-59767771D01*
X68313954Y-59767771D01*
X68484504Y-60108857D01*
X68764803Y-60108857D01*
X68779998Y-60078468D01*
X68935345Y-59767771D01*
X70848514Y-59767771D01*
X70769240Y-59609221D01*
X70592198Y-59609221D01*
X70590357Y-59609266D01*
X70584998Y-59609310D01*
X70576231Y-59609354D01*
X70564168Y-59609397D01*
X70548919Y-59609439D01*
X70530594Y-59609479D01*
X70509305Y-59609519D01*
X70485162Y-59609557D01*
X70458276Y-59609594D01*
X70428756Y-59609630D01*
X70396715Y-59609664D01*
X70362262Y-59609697D01*
X70325509Y-59609727D01*
X70286565Y-59609756D01*
X70245542Y-59609783D01*
X70202550Y-59609809D01*
X70157700Y-59609832D01*
X70111102Y-59609853D01*
X70062868Y-59609871D01*
X70013107Y-59609888D01*
X69961931Y-59609902D01*
X69909450Y-59609913D01*
X69855774Y-59609922D01*
X69801015Y-59609928D01*
X69745283Y-59609932D01*
X69715337Y-59609932D01*
X68839180Y-59609939D01*
X68732598Y-59823113D01*
X68719580Y-59849138D01*
X68707003Y-59874252D01*
X68694965Y-59898265D01*
X68683561Y-59920988D01*
X68672886Y-59942230D01*
X68663037Y-59961803D01*
X68654108Y-59979516D01*
X68646195Y-59995180D01*
X68639394Y-60008606D01*
X68633801Y-60019603D01*
X68629511Y-60027982D01*
X68626620Y-60033553D01*
X68625224Y-60036126D01*
X68625109Y-60036286D01*
X68624231Y-60034685D01*
X68621797Y-60029970D01*
X68617876Y-60022275D01*
X68612533Y-60011732D01*
X68605834Y-59998473D01*
X68597847Y-59982632D01*
X68588638Y-59964340D01*
X68578274Y-59943732D01*
X68566821Y-59920938D01*
X68554346Y-59896092D01*
X68540916Y-59869327D01*
X68526597Y-59840775D01*
X68511455Y-59810569D01*
X68495558Y-59778841D01*
X68478972Y-59745725D01*
X68461764Y-59711352D01*
X68443999Y-59675856D01*
X68425746Y-59639369D01*
X68407070Y-59602025D01*
X68406486Y-59600857D01*
X68188770Y-59165429D01*
X68430979Y-58681014D01*
X68673187Y-58196600D01*
X68497192Y-58196600D01*
X68469542Y-58251936D01*
X68463013Y-58264975D01*
X68457007Y-58276921D01*
X68451713Y-58287399D01*
X68447319Y-58296038D01*
X68444016Y-58302465D01*
X68441993Y-58306308D01*
X68441425Y-58307271D01*
X68441309Y-58305530D01*
X68441203Y-58300601D01*
X68441112Y-58292922D01*
X68441038Y-58282934D01*
X68440986Y-58271077D01*
X68440960Y-58257791D01*
X68440957Y-58251936D01*
X68440957Y-58196600D01*
X68497192Y-58196600D01*
X68673187Y-58196600D01*
X69672857Y-58196600D01*
X69672857Y-58136779D01*
X68284929Y-58136779D01*
X68284929Y-58621100D01*
X68148859Y-58893270D01*
X68012789Y-59165441D01*
X68123459Y-59386775D01*
X68136725Y-59413312D01*
X68149537Y-59438955D01*
X68161802Y-59463514D01*
X68173426Y-59486805D01*
X68184317Y-59508639D01*
X68194382Y-59528830D01*
X68203527Y-59547190D01*
X68211660Y-59563534D01*
X68218686Y-59577672D01*
X68224514Y-59589420D01*
X68229050Y-59598589D01*
X68232200Y-59604993D01*
X68233873Y-59608444D01*
X68234129Y-59609018D01*
X68232332Y-59609075D01*
X68227015Y-59609131D01*
X68218286Y-59609187D01*
X68206251Y-59609240D01*
X68191019Y-59609293D01*
X68172698Y-59609345D01*
X68151396Y-59609395D01*
X68127220Y-59609443D01*
X68100278Y-59609490D01*
X68070679Y-59609535D01*
X68038530Y-59609578D01*
X68003940Y-59609619D01*
X67967015Y-59609658D01*
X67927864Y-59609695D01*
X67886594Y-59609730D01*
X67843314Y-59609762D01*
X67798132Y-59609791D01*
X67751155Y-59609819D01*
X67702491Y-59609843D01*
X67652248Y-59609865D01*
X67600534Y-59609883D01*
X67547456Y-59609899D01*
X67493124Y-59609911D01*
X67437644Y-59609920D01*
X67381124Y-59609926D01*
X67323673Y-59609928D01*
X67314284Y-59609929D01*
X66394440Y-59609929D01*
X66500577Y-59397660D01*
X66606714Y-59185392D01*
X66606714Y-58136723D01*
X66838946Y-57672271D01*
X66662961Y-57672271D01*
X66479711Y-58038757D01*
X65480005Y-58038757D01*
X65480477Y-58117225D01*
X65480950Y-58195693D01*
X66450686Y-58196607D01*
X66450686Y-59145477D01*
X66334570Y-59377703D01*
X66218455Y-59609929D01*
X65559872Y-59609929D01*
X65559872Y-58563086D01*
X64743446Y-58563086D01*
X64631866Y-58339931D01*
X64520285Y-58116776D01*
X64631407Y-57894524D01*
X64742529Y-57672271D01*
X66662961Y-57672271D01*
X66838946Y-57672271D01*
X67366900Y-57672271D01*
X67366900Y-58902357D01*
X67524743Y-58902357D01*
X67524743Y-57672271D01*
X68052711Y-57672271D01*
X68284929Y-58136779D01*
X69672857Y-58136779D01*
X69672857Y-58038757D01*
X68411932Y-58038757D01*
X68228682Y-57672271D01*
X70149114Y-57672271D01*
X70260236Y-57894524D01*
X70371358Y-58116776D01*
X70259778Y-58339931D01*
X70148197Y-58563086D01*
X69148529Y-58563086D01*
X69148529Y-58719114D01*
X70148199Y-58719114D01*
X70370551Y-59163815D01*
X70389433Y-59201586D01*
X70407883Y-59238510D01*
X70425837Y-59274454D01*
X70443229Y-59309288D01*
X70459994Y-59342879D01*
X70476065Y-59375097D01*
X70491378Y-59405810D01*
X70505867Y-59434887D01*
X70519467Y-59462196D01*
X70532113Y-59487605D01*
X70543738Y-59510983D01*
X70554278Y-59532199D01*
X70563667Y-59551121D01*
X70571840Y-59567617D01*
X70578731Y-59581557D01*
X70584275Y-59592809D01*
X70588406Y-59601241D01*
X70591059Y-59606721D01*
X70592169Y-59609119D01*
X70592198Y-59609221D01*
X70769240Y-59609221D01*
X70566848Y-59204437D01*
X70285183Y-58641103D01*
X70416263Y-58378935D01*
X70547343Y-58116768D01*
X70396756Y-57815598D01*
X70246169Y-57514429D01*
X60452660Y-57514429D01*
X60302073Y-57815598D01*
X60302073Y-57815598D01*
G37*
X60302073Y-57815598D02*
X60151486Y-58116768D01*
X60413644Y-58641100D01*
X60282565Y-58903266D01*
X60151486Y-59165431D01*
X60418186Y-59698829D01*
X60684886Y-60232226D01*
X60684886Y-60986073D01*
X60538836Y-61424214D01*
X60525968Y-61462822D01*
X60513404Y-61500531D01*
X60501191Y-61537195D01*
X60489377Y-61572669D01*
X60478012Y-61606808D01*
X60467143Y-61639467D01*
X60456818Y-61670502D01*
X60447085Y-61699767D01*
X60437993Y-61727117D01*
X60429590Y-61752407D01*
X60421924Y-61775492D01*
X60415043Y-61796227D01*
X60408996Y-61814468D01*
X60403830Y-61830069D01*
X60399594Y-61842884D01*
X60396336Y-61852770D01*
X60394105Y-61859581D01*
X60392947Y-61863172D01*
X60392786Y-61863721D01*
X60394584Y-61863800D01*
X60399910Y-61863877D01*
X60408666Y-61863954D01*
X60420752Y-61864029D01*
X60436068Y-61864103D01*
X60454514Y-61864175D01*
X60475991Y-61864245D01*
X60500399Y-61864313D01*
X60527639Y-61864380D01*
X60557611Y-61864444D01*
X60590215Y-61864505D01*
X60625352Y-61864565D01*
X60662923Y-61864622D01*
X60702826Y-61864676D01*
X60744964Y-61864727D01*
X60789236Y-61864776D01*
X60835542Y-61864821D01*
X60883783Y-61864864D01*
X60933860Y-61864903D01*
X60985673Y-61864938D01*
X61039122Y-61864971D01*
X61094107Y-61864999D01*
X61150529Y-61865024D01*
X61208289Y-61865044D01*
X61267286Y-61865061D01*
X61327422Y-61865073D01*
X61388595Y-61865082D01*
X61450708Y-61865085D01*
X61471379Y-61865086D01*
X62549973Y-61865086D01*
X62704638Y-62174421D01*
X62720359Y-62205856D01*
X62735650Y-62236411D01*
X62750432Y-62265930D01*
X62764625Y-62294255D01*
X62778150Y-62321230D01*
X62790929Y-62346696D01*
X62802881Y-62370495D01*
X62813928Y-62392472D01*
X62823990Y-62412468D01*
X62832988Y-62430325D01*
X62840844Y-62445888D01*
X62847478Y-62458997D01*
X62852811Y-62469495D01*
X62856763Y-62477226D01*
X62859255Y-62482032D01*
X62860209Y-62483755D01*
X62860214Y-62483757D01*
X62861106Y-62482160D01*
X62863539Y-62477474D01*
X62867434Y-62469857D01*
X62872713Y-62459465D01*
X62879297Y-62446457D01*
X62887106Y-62430990D01*
X62896060Y-62413220D01*
X62906082Y-62393307D01*
X62917091Y-62371406D01*
X62929008Y-62347675D01*
X62941755Y-62322273D01*
X62955252Y-62295356D01*
X62969420Y-62267081D01*
X62984180Y-62237606D01*
X62999453Y-62207089D01*
X63015158Y-62175687D01*
X63015791Y-62174421D01*
X63170456Y-61865086D01*
X64698087Y-61865086D01*
X64852752Y-62174421D01*
X64868473Y-62205856D01*
X64883765Y-62236411D01*
X64898546Y-62265930D01*
X64912739Y-62294255D01*
X64926265Y-62321230D01*
X64939043Y-62346696D01*
X64950995Y-62370495D01*
X64962042Y-62392472D01*
X64972104Y-62412468D01*
X64981103Y-62430325D01*
X64988958Y-62445888D01*
X64995592Y-62458997D01*
X65000925Y-62469495D01*
X65004877Y-62477226D01*
X65007370Y-62482032D01*
X65008324Y-62483755D01*
X65008329Y-62483757D01*
X65009220Y-62482160D01*
X65011653Y-62477474D01*
X65015549Y-62469857D01*
X65020828Y-62459465D01*
X65027411Y-62446457D01*
X65035220Y-62430990D01*
X65044175Y-62413220D01*
X65054196Y-62393307D01*
X65065205Y-62371406D01*
X65077123Y-62347675D01*
X65089870Y-62322273D01*
X65103367Y-62295356D01*
X65117535Y-62267081D01*
X65132294Y-62237606D01*
X65147567Y-62207089D01*
X65163273Y-62175687D01*
X65163906Y-62174421D01*
X65318118Y-61865990D01*
X65142586Y-61865990D01*
X65141798Y-61867719D01*
X65139533Y-61872389D01*
X65135935Y-61879709D01*
X65131152Y-61889387D01*
X65125328Y-61901129D01*
X65118612Y-61914645D01*
X65111148Y-61929641D01*
X65103082Y-61945825D01*
X65094561Y-61962906D01*
X65085731Y-61980590D01*
X65076738Y-61998587D01*
X65067728Y-62016603D01*
X65058846Y-62034346D01*
X65050241Y-62051524D01*
X65042056Y-62067845D01*
X65034439Y-62083017D01*
X65027535Y-62096747D01*
X65021491Y-62108743D01*
X65016452Y-62118713D01*
X65012566Y-62126365D01*
X65009977Y-62131407D01*
X65008832Y-62133546D01*
X65008791Y-62133600D01*
X65007929Y-62132017D01*
X65005566Y-62127426D01*
X65001824Y-62120066D01*
X64996821Y-62110177D01*
X64990679Y-62097998D01*
X64983517Y-62083767D01*
X64975457Y-62067723D01*
X64966617Y-62050105D01*
X64957119Y-62031152D01*
X64947083Y-62011104D01*
X64941200Y-61999343D01*
X64874067Y-61865086D01*
X65008326Y-61865086D01*
X65030040Y-61865098D01*
X65050665Y-61865132D01*
X65069918Y-61865187D01*
X65087519Y-61865261D01*
X65103183Y-61865351D01*
X65116629Y-61865457D01*
X65127575Y-61865575D01*
X65135738Y-61865705D01*
X65140836Y-61865844D01*
X65142586Y-61865990D01*
X65318118Y-61865990D01*
X65318570Y-61865086D01*
X65903687Y-61865086D01*
X66057897Y-62173652D01*
X66073599Y-62205062D01*
X66088875Y-62235600D01*
X66103645Y-62265109D01*
X66117829Y-62293431D01*
X66131348Y-62320407D01*
X66144123Y-62345878D01*
X66156073Y-62369688D01*
X66167120Y-62391677D01*
X66177184Y-62411687D01*
X66186186Y-62429561D01*
X66194045Y-62445139D01*
X66200682Y-62458264D01*
X66206018Y-62468778D01*
X66209974Y-62476522D01*
X66212469Y-62481338D01*
X66213424Y-62483067D01*
X66213426Y-62483069D01*
X66214353Y-62481554D01*
X66216824Y-62476942D01*
X66220763Y-62469382D01*
X66226096Y-62459026D01*
X66232745Y-62446021D01*
X66240635Y-62430519D01*
X66249691Y-62412669D01*
X66259837Y-62392620D01*
X66270997Y-62370524D01*
X66283096Y-62346529D01*
X66296058Y-62320785D01*
X66309807Y-62293442D01*
X66324268Y-62264651D01*
X66339364Y-62234560D01*
X66355020Y-62203320D01*
X66371161Y-62171081D01*
X66384423Y-62144569D01*
X66554100Y-61805218D01*
X66554100Y-60816429D01*
X67183657Y-60816429D01*
X67183657Y-61865086D01*
X68388343Y-61865086D01*
X68388343Y-60266700D01*
X68563447Y-60266700D01*
X68624651Y-60389164D01*
X68764803Y-60108857D01*
X68484504Y-60108857D01*
X67261633Y-60108857D01*
X67262579Y-60265793D01*
X67747447Y-60266250D01*
X68232314Y-60266707D01*
X68232314Y-61707243D01*
X67341500Y-61707243D01*
X67341500Y-60756600D01*
X66398072Y-60756600D01*
X66398072Y-61765295D01*
X66305999Y-61949450D01*
X66213927Y-62133605D01*
X66107334Y-61920424D01*
X66000740Y-61707243D01*
X64297125Y-61707243D01*
X64388749Y-61524003D01*
X64480372Y-61340763D01*
X65019668Y-61340307D01*
X65558964Y-61339850D01*
X65559055Y-61181880D01*
X65247814Y-61181880D01*
X65246026Y-61181974D01*
X65240767Y-61182066D01*
X65232194Y-61182155D01*
X65220464Y-61182241D01*
X65205736Y-61182324D01*
X65188165Y-61182403D01*
X65167911Y-61182477D01*
X65145129Y-61182547D01*
X65119977Y-61182612D01*
X65092613Y-61182672D01*
X65063195Y-61182726D01*
X65031878Y-61182774D01*
X64998822Y-61182816D01*
X64964183Y-61182851D01*
X64928118Y-61182878D01*
X64890785Y-61182898D01*
X64852341Y-61182910D01*
X64815558Y-61182914D01*
X64383302Y-61182914D01*
X64252223Y-61445079D01*
X64121145Y-61707243D01*
X63934272Y-61707243D01*
X63934272Y-60816429D01*
X64246329Y-60816429D01*
X64279685Y-60816423D01*
X64312049Y-60816408D01*
X64343236Y-60816384D01*
X64373062Y-60816350D01*
X64401340Y-60816308D01*
X64427886Y-60816258D01*
X64452515Y-60816201D01*
X64475040Y-60816137D01*
X64495278Y-60816067D01*
X64513042Y-60815991D01*
X64528148Y-60815911D01*
X64540411Y-60815825D01*
X64549644Y-60815735D01*
X64555663Y-60815642D01*
X64558283Y-60815546D01*
X64558386Y-60815523D01*
X64557587Y-60813836D01*
X64555239Y-60809055D01*
X64551418Y-60801331D01*
X64546199Y-60790812D01*
X64539656Y-60777651D01*
X64531866Y-60761997D01*
X64522902Y-60744002D01*
X64512841Y-60723815D01*
X64501756Y-60701588D01*
X64489724Y-60677471D01*
X64480299Y-60658586D01*
X64304389Y-60658586D01*
X63406311Y-60658586D01*
X63589561Y-60292100D01*
X64121140Y-60292100D01*
X64212764Y-60475343D01*
X64304389Y-60658586D01*
X64480299Y-60658586D01*
X64476819Y-60651614D01*
X64463117Y-60624168D01*
X64448692Y-60595284D01*
X64433619Y-60565112D01*
X64417974Y-60533802D01*
X64401832Y-60501506D01*
X64388297Y-60474432D01*
X64218207Y-60134248D01*
X63492493Y-60135164D01*
X63322503Y-60474436D01*
X63305998Y-60507382D01*
X63289928Y-60539470D01*
X63274370Y-60570547D01*
X63259399Y-60600463D01*
X63245090Y-60629067D01*
X63231518Y-60656208D01*
X63218759Y-60681734D01*
X63206887Y-60705496D01*
X63195980Y-60727342D01*
X63186111Y-60747121D01*
X63177356Y-60764683D01*
X63169791Y-60779876D01*
X63163490Y-60792549D01*
X63158530Y-60802552D01*
X63154986Y-60809733D01*
X63152932Y-60813942D01*
X63152413Y-60815068D01*
X63154186Y-60815213D01*
X63159402Y-60815354D01*
X63167877Y-60815490D01*
X63179424Y-60815620D01*
X63193860Y-60815744D01*
X63210999Y-60815859D01*
X63230655Y-60815967D01*
X63252644Y-60816065D01*
X63276781Y-60816153D01*
X63302880Y-60816231D01*
X63330756Y-60816297D01*
X63360225Y-60816350D01*
X63391100Y-60816390D01*
X63423197Y-60816417D01*
X63456331Y-60816428D01*
X63464372Y-60816429D01*
X63776429Y-60816429D01*
X63776429Y-61707243D01*
X63073386Y-61707243D01*
X62966581Y-61920862D01*
X62859776Y-62134482D01*
X62642281Y-61699509D01*
X62623596Y-61662129D01*
X62605338Y-61625583D01*
X62587575Y-61590005D01*
X62570372Y-61555527D01*
X62553796Y-61522285D01*
X62537913Y-61490412D01*
X62522790Y-61460042D01*
X62508494Y-61431308D01*
X62495091Y-61404346D01*
X62482646Y-61379287D01*
X62471228Y-61356267D01*
X62460902Y-61335419D01*
X62451735Y-61316877D01*
X62443792Y-61300775D01*
X62437142Y-61287246D01*
X62431849Y-61276425D01*
X62427982Y-61268446D01*
X62425605Y-61263441D01*
X62424786Y-61261546D01*
X62424786Y-61261543D01*
X62425590Y-61259740D01*
X62427970Y-61254794D01*
X62431874Y-61246809D01*
X62437252Y-61235885D01*
X62444053Y-61222125D01*
X62452225Y-61205630D01*
X62461719Y-61186502D01*
X62472484Y-61164843D01*
X62484468Y-61140755D01*
X62497620Y-61114339D01*
X62511891Y-61085699D01*
X62527229Y-61054934D01*
X62543584Y-61022148D01*
X62560904Y-60987441D01*
X62579139Y-60950917D01*
X62598238Y-60912676D01*
X62618151Y-60872821D01*
X62638826Y-60831453D01*
X62660212Y-60788674D01*
X62682260Y-60744586D01*
X62704917Y-60699292D01*
X62728134Y-60652892D01*
X62751859Y-60605488D01*
X62776042Y-60557183D01*
X62798075Y-60513182D01*
X62948313Y-60213192D01*
X62771763Y-60213192D01*
X62286899Y-61182914D01*
X61864172Y-61182914D01*
X61864172Y-61340757D01*
X62287816Y-61340757D01*
X62378979Y-61523095D01*
X62391000Y-61547146D01*
X62402558Y-61570286D01*
X62413549Y-61592307D01*
X62423872Y-61613003D01*
X62433423Y-61632169D01*
X62442100Y-61649598D01*
X62449801Y-61665084D01*
X62456423Y-61678420D01*
X62461863Y-61689400D01*
X62466018Y-61697819D01*
X62468786Y-61703469D01*
X62470065Y-61706145D01*
X62470143Y-61706338D01*
X62468347Y-61706394D01*
X62463029Y-61706450D01*
X62454297Y-61706504D01*
X62442259Y-61706558D01*
X62427021Y-61706610D01*
X62408691Y-61706661D01*
X62387377Y-61706710D01*
X62363185Y-61706758D01*
X62336222Y-61706804D01*
X62306597Y-61706849D01*
X62274416Y-61706892D01*
X62239787Y-61706933D01*
X62202816Y-61706971D01*
X62163612Y-61707008D01*
X62122282Y-61707042D01*
X62078932Y-61707074D01*
X62033671Y-61707104D01*
X61986605Y-61707131D01*
X61937841Y-61707155D01*
X61887488Y-61707177D01*
X61835652Y-61707196D01*
X61782441Y-61707211D01*
X61727961Y-61707224D01*
X61672321Y-61707234D01*
X61615627Y-61707240D01*
X61557987Y-61707243D01*
X61540322Y-61707243D01*
X61482416Y-61707242D01*
X61425423Y-61707239D01*
X61369452Y-61707234D01*
X61314609Y-61707227D01*
X61261001Y-61707219D01*
X61208737Y-61707209D01*
X61157922Y-61707197D01*
X61108665Y-61707184D01*
X61061072Y-61707169D01*
X61015251Y-61707153D01*
X60971310Y-61707135D01*
X60929356Y-61707116D01*
X60889495Y-61707095D01*
X60851835Y-61707074D01*
X60816484Y-61707051D01*
X60783549Y-61707027D01*
X60753136Y-61707002D01*
X60725354Y-61706976D01*
X60700310Y-61706949D01*
X60678111Y-61706921D01*
X60658864Y-61706893D01*
X60642676Y-61706863D01*
X60629655Y-61706833D01*
X60619909Y-61706803D01*
X60613543Y-61706771D01*
X60610667Y-61706739D01*
X60610500Y-61706730D01*
X60611067Y-61704985D01*
X60612732Y-61699962D01*
X60615439Y-61691824D01*
X60619136Y-61680734D01*
X60623767Y-61666855D01*
X60629278Y-61650348D01*
X60635614Y-61631378D01*
X60642721Y-61610107D01*
X60650545Y-61586698D01*
X60659032Y-61561314D01*
X60668126Y-61534117D01*
X60677773Y-61505271D01*
X60687920Y-61474938D01*
X60698511Y-61443281D01*
X60709492Y-61410463D01*
X60720809Y-61376647D01*
X60726161Y-61360655D01*
X60841822Y-61015093D01*
X60843636Y-60229507D01*
X61074960Y-59767771D01*
X61733543Y-59767771D01*
X61733543Y-60738414D01*
X61889565Y-60738414D01*
X61890022Y-60253546D01*
X61890479Y-59768679D01*
X62219775Y-59768220D01*
X62549071Y-59767762D01*
X62771763Y-60213192D01*
X62948313Y-60213192D01*
X63171364Y-59767815D01*
X63855661Y-59767793D01*
X64539957Y-59767771D01*
X64893886Y-60474308D01*
X64917783Y-60522015D01*
X64941266Y-60568901D01*
X64964284Y-60614862D01*
X64986784Y-60659795D01*
X65008714Y-60703593D01*
X65030023Y-60746154D01*
X65050657Y-60787373D01*
X65070565Y-60827146D01*
X65089694Y-60865369D01*
X65107993Y-60901937D01*
X65125409Y-60936745D01*
X65141891Y-60969691D01*
X65157385Y-61000670D01*
X65171840Y-61029576D01*
X65185204Y-61056307D01*
X65197424Y-61080758D01*
X65208449Y-61102824D01*
X65218226Y-61122401D01*
X65226703Y-61139386D01*
X65233829Y-61153673D01*
X65239549Y-61165159D01*
X65243814Y-61173739D01*
X65246570Y-61179309D01*
X65247766Y-61181765D01*
X65247814Y-61181880D01*
X65559055Y-61181880D01*
X65559420Y-60553811D01*
X65559783Y-59927423D01*
X65402029Y-59927423D01*
X65402027Y-59993495D01*
X65402023Y-60058667D01*
X65402017Y-60122843D01*
X65402008Y-60185931D01*
X65401996Y-60247837D01*
X65401982Y-60308465D01*
X65401966Y-60367722D01*
X65401948Y-60425514D01*
X65401927Y-60481747D01*
X65401904Y-60536326D01*
X65401880Y-60589158D01*
X65401853Y-60640148D01*
X65401825Y-60689202D01*
X65401794Y-60736226D01*
X65401762Y-60781126D01*
X65401728Y-60823808D01*
X65401693Y-60864178D01*
X65401656Y-60902141D01*
X65401618Y-60937604D01*
X65401578Y-60970473D01*
X65401537Y-61000652D01*
X65401495Y-61028049D01*
X65401452Y-61052568D01*
X65401407Y-61074116D01*
X65401362Y-61092600D01*
X65401315Y-61107923D01*
X65401268Y-61119994D01*
X65401220Y-61128716D01*
X65401171Y-61133997D01*
X65401122Y-61135743D01*
X65400257Y-61134137D01*
X65397823Y-61129392D01*
X65393874Y-61121613D01*
X65388461Y-61110905D01*
X65381639Y-61097374D01*
X65373460Y-61081127D01*
X65363978Y-61062269D01*
X65353245Y-61040906D01*
X65341314Y-61017144D01*
X65328239Y-60991089D01*
X65314073Y-60962846D01*
X65298868Y-60932522D01*
X65282678Y-60900221D01*
X65265556Y-60866051D01*
X65247554Y-60830117D01*
X65228727Y-60792524D01*
X65209126Y-60753379D01*
X65188806Y-60712787D01*
X65167819Y-60670855D01*
X65146218Y-60627687D01*
X65124056Y-60583391D01*
X65101386Y-60538071D01*
X65078262Y-60491834D01*
X65058222Y-60451757D01*
X64716228Y-59767771D01*
X64899471Y-59767771D01*
X64924921Y-59767763D01*
X64949322Y-59767737D01*
X64972434Y-59767696D01*
X64994015Y-59767640D01*
X65013822Y-59767571D01*
X65031615Y-59767490D01*
X65047151Y-59767399D01*
X65060188Y-59767298D01*
X65070486Y-59767188D01*
X65077803Y-59767071D01*
X65081896Y-59766948D01*
X65082714Y-59766862D01*
X65081916Y-59765172D01*
X65079572Y-59760395D01*
X65075762Y-59752689D01*
X65070564Y-59742210D01*
X65064057Y-59729117D01*
X65056320Y-59713568D01*
X65047431Y-59695720D01*
X65037468Y-59675730D01*
X65026511Y-59653758D01*
X65014638Y-59629959D01*
X65004640Y-59609928D01*
X64828718Y-59609928D01*
X63951052Y-59609929D01*
X63073386Y-59609929D01*
X62966574Y-59823561D01*
X62859761Y-60037193D01*
X62646131Y-59609929D01*
X62470155Y-59609929D01*
X62413900Y-59609929D01*
X62413900Y-59554290D01*
X62413922Y-59540542D01*
X62413985Y-59528078D01*
X62414082Y-59517329D01*
X62414208Y-59508724D01*
X62414358Y-59502696D01*
X62414527Y-59499674D01*
X62414606Y-59499408D01*
X62415556Y-59501154D01*
X62417931Y-59505766D01*
X62421540Y-59512864D01*
X62426190Y-59522067D01*
X62431688Y-59532995D01*
X62437841Y-59545266D01*
X62442733Y-59555046D01*
X62470155Y-59609929D01*
X62646131Y-59609929D01*
X62641824Y-59601315D01*
X62423886Y-59165437D01*
X62535455Y-58942275D01*
X62647024Y-58719114D01*
X63645800Y-58719114D01*
X63645800Y-58563086D01*
X62938229Y-58563086D01*
X62938229Y-58196607D01*
X62945655Y-58196600D01*
X62780386Y-58196600D01*
X62780386Y-58563086D01*
X62549045Y-58563086D01*
X62481926Y-58697362D01*
X62414807Y-58831639D01*
X62413891Y-58136723D01*
X62440431Y-58083668D01*
X62466970Y-58030613D01*
X62508475Y-58113606D01*
X62549979Y-58196600D01*
X62780386Y-58196600D01*
X62945655Y-58196600D01*
X63423097Y-58196150D01*
X63907964Y-58195693D01*
X63908910Y-58038757D01*
X62645881Y-58038757D01*
X62554396Y-57854619D01*
X62377614Y-57854619D01*
X62376823Y-57856708D01*
X62374546Y-57861736D01*
X62370931Y-57869402D01*
X62366124Y-57879404D01*
X62360270Y-57891440D01*
X62353518Y-57905208D01*
X62346013Y-57920408D01*
X62337901Y-57936736D01*
X62332254Y-57948050D01*
X62286893Y-58038757D01*
X61025972Y-58038757D01*
X61025972Y-58196600D01*
X62257872Y-58196600D01*
X62257872Y-59609929D01*
X61367064Y-59609929D01*
X61366150Y-58642007D01*
X61209214Y-58641061D01*
X61209214Y-59609929D01*
X60976984Y-59609929D01*
X60870399Y-59823107D01*
X60857385Y-59849130D01*
X60844819Y-59874242D01*
X60832798Y-59898254D01*
X60821416Y-59920975D01*
X60810768Y-59942217D01*
X60800951Y-59961789D01*
X60792058Y-59979502D01*
X60784185Y-59995167D01*
X60777428Y-60008593D01*
X60771881Y-60019592D01*
X60767640Y-60027973D01*
X60764800Y-60033547D01*
X60763456Y-60036125D01*
X60763358Y-60036286D01*
X60762519Y-60034685D01*
X60760123Y-60029971D01*
X60756239Y-60022276D01*
X60750932Y-60011734D01*
X60744268Y-59998477D01*
X60736315Y-59982637D01*
X60727138Y-59964347D01*
X60716804Y-59943739D01*
X60705380Y-59920948D01*
X60692932Y-59896104D01*
X60679526Y-59869341D01*
X60665230Y-59840791D01*
X60650108Y-59810587D01*
X60634229Y-59778862D01*
X60617658Y-59745748D01*
X60600462Y-59711378D01*
X60582707Y-59675884D01*
X60564459Y-59639400D01*
X60545786Y-59602057D01*
X60545186Y-59600856D01*
X60327469Y-59165427D01*
X60439051Y-58942271D01*
X60550632Y-58719114D01*
X60762900Y-58719114D01*
X60762900Y-58563086D01*
X60550632Y-58563086D01*
X60439051Y-58339931D01*
X60327471Y-58116776D01*
X60438593Y-57894524D01*
X60549715Y-57672271D01*
X62287824Y-57672271D01*
X62332719Y-57762083D01*
X62341107Y-57778910D01*
X62348985Y-57794808D01*
X62356206Y-57809472D01*
X62362623Y-57822601D01*
X62368088Y-57833889D01*
X62372456Y-57843035D01*
X62375577Y-57849734D01*
X62377306Y-57853684D01*
X62377614Y-57854619D01*
X62554396Y-57854619D01*
X62463793Y-57672259D01*
X63514718Y-57672265D01*
X63576307Y-57672267D01*
X63636989Y-57672272D01*
X63696663Y-57672280D01*
X63755227Y-57672291D01*
X63812582Y-57672304D01*
X63868625Y-57672321D01*
X63923257Y-57672340D01*
X63976376Y-57672361D01*
X64027881Y-57672385D01*
X64077672Y-57672411D01*
X64125646Y-57672439D01*
X64171705Y-57672470D01*
X64215746Y-57672503D01*
X64257668Y-57672537D01*
X64297372Y-57672574D01*
X64334755Y-57672613D01*
X64369717Y-57672653D01*
X64402157Y-57672694D01*
X64431974Y-57672738D01*
X64459067Y-57672783D01*
X64483335Y-57672829D01*
X64504678Y-57672876D01*
X64522994Y-57672925D01*
X64538182Y-57672975D01*
X64550142Y-57673026D01*
X64558772Y-57673077D01*
X64563972Y-57673130D01*
X64565643Y-57673181D01*
X64564847Y-57674883D01*
X64562519Y-57679643D01*
X64558754Y-57687274D01*
X64553645Y-57697589D01*
X64547283Y-57710400D01*
X64539764Y-57725522D01*
X64531179Y-57742766D01*
X64521622Y-57761947D01*
X64511186Y-57782876D01*
X64499964Y-57805367D01*
X64488049Y-57829233D01*
X64475535Y-57854287D01*
X64462514Y-57880342D01*
X64454973Y-57895425D01*
X64344304Y-58116759D01*
X64480373Y-58388930D01*
X64616443Y-58661100D01*
X64616443Y-59185392D01*
X64722580Y-59397660D01*
X64828718Y-59609928D01*
X65004640Y-59609928D01*
X65001927Y-59604493D01*
X64988458Y-59577516D01*
X64974309Y-59549186D01*
X64959558Y-59519662D01*
X64944284Y-59489101D01*
X64928566Y-59457660D01*
X64927586Y-59455699D01*
X64772457Y-59145446D01*
X64772918Y-58932733D01*
X64773379Y-58720021D01*
X65087704Y-58719563D01*
X65402029Y-58719104D01*
X65402029Y-59927423D01*
X65559783Y-59927423D01*
X65559876Y-59767771D01*
X66349089Y-59767771D01*
X66237737Y-59990469D01*
X66126386Y-60213166D01*
X66398072Y-60756600D01*
X67341500Y-60756600D01*
X67341500Y-60658586D01*
X66524158Y-60658586D01*
X66413036Y-60436333D01*
X66301914Y-60214081D01*
X66413494Y-59990926D01*
X66525075Y-59767771D01*
X68313954Y-59767771D01*
X68484504Y-60108857D01*
X68764803Y-60108857D01*
X68779998Y-60078468D01*
X68935345Y-59767771D01*
X70848514Y-59767771D01*
X70769240Y-59609221D01*
X70592198Y-59609221D01*
X70590357Y-59609266D01*
X70584998Y-59609310D01*
X70576231Y-59609354D01*
X70564168Y-59609397D01*
X70548919Y-59609439D01*
X70530594Y-59609479D01*
X70509305Y-59609519D01*
X70485162Y-59609557D01*
X70458276Y-59609594D01*
X70428756Y-59609630D01*
X70396715Y-59609664D01*
X70362262Y-59609697D01*
X70325509Y-59609727D01*
X70286565Y-59609756D01*
X70245542Y-59609783D01*
X70202550Y-59609809D01*
X70157700Y-59609832D01*
X70111102Y-59609853D01*
X70062868Y-59609871D01*
X70013107Y-59609888D01*
X69961931Y-59609902D01*
X69909450Y-59609913D01*
X69855774Y-59609922D01*
X69801015Y-59609928D01*
X69745283Y-59609932D01*
X69715337Y-59609932D01*
X68839180Y-59609939D01*
X68732598Y-59823113D01*
X68719580Y-59849138D01*
X68707003Y-59874252D01*
X68694965Y-59898265D01*
X68683561Y-59920988D01*
X68672886Y-59942230D01*
X68663037Y-59961803D01*
X68654108Y-59979516D01*
X68646195Y-59995180D01*
X68639394Y-60008606D01*
X68633801Y-60019603D01*
X68629511Y-60027982D01*
X68626620Y-60033553D01*
X68625224Y-60036126D01*
X68625109Y-60036286D01*
X68624231Y-60034685D01*
X68621797Y-60029970D01*
X68617876Y-60022275D01*
X68612533Y-60011732D01*
X68605834Y-59998473D01*
X68597847Y-59982632D01*
X68588638Y-59964340D01*
X68578274Y-59943732D01*
X68566821Y-59920938D01*
X68554346Y-59896092D01*
X68540916Y-59869327D01*
X68526597Y-59840775D01*
X68511455Y-59810569D01*
X68495558Y-59778841D01*
X68478972Y-59745725D01*
X68461764Y-59711352D01*
X68443999Y-59675856D01*
X68425746Y-59639369D01*
X68407070Y-59602025D01*
X68406486Y-59600857D01*
X68188770Y-59165429D01*
X68430979Y-58681014D01*
X68673187Y-58196600D01*
X68497192Y-58196600D01*
X68469542Y-58251936D01*
X68463013Y-58264975D01*
X68457007Y-58276921D01*
X68451713Y-58287399D01*
X68447319Y-58296038D01*
X68444016Y-58302465D01*
X68441993Y-58306308D01*
X68441425Y-58307271D01*
X68441309Y-58305530D01*
X68441203Y-58300601D01*
X68441112Y-58292922D01*
X68441038Y-58282934D01*
X68440986Y-58271077D01*
X68440960Y-58257791D01*
X68440957Y-58251936D01*
X68440957Y-58196600D01*
X68497192Y-58196600D01*
X68673187Y-58196600D01*
X69672857Y-58196600D01*
X69672857Y-58136779D01*
X68284929Y-58136779D01*
X68284929Y-58621100D01*
X68148859Y-58893270D01*
X68012789Y-59165441D01*
X68123459Y-59386775D01*
X68136725Y-59413312D01*
X68149537Y-59438955D01*
X68161802Y-59463514D01*
X68173426Y-59486805D01*
X68184317Y-59508639D01*
X68194382Y-59528830D01*
X68203527Y-59547190D01*
X68211660Y-59563534D01*
X68218686Y-59577672D01*
X68224514Y-59589420D01*
X68229050Y-59598589D01*
X68232200Y-59604993D01*
X68233873Y-59608444D01*
X68234129Y-59609018D01*
X68232332Y-59609075D01*
X68227015Y-59609131D01*
X68218286Y-59609187D01*
X68206251Y-59609240D01*
X68191019Y-59609293D01*
X68172698Y-59609345D01*
X68151396Y-59609395D01*
X68127220Y-59609443D01*
X68100278Y-59609490D01*
X68070679Y-59609535D01*
X68038530Y-59609578D01*
X68003940Y-59609619D01*
X67967015Y-59609658D01*
X67927864Y-59609695D01*
X67886594Y-59609730D01*
X67843314Y-59609762D01*
X67798132Y-59609791D01*
X67751155Y-59609819D01*
X67702491Y-59609843D01*
X67652248Y-59609865D01*
X67600534Y-59609883D01*
X67547456Y-59609899D01*
X67493124Y-59609911D01*
X67437644Y-59609920D01*
X67381124Y-59609926D01*
X67323673Y-59609928D01*
X67314284Y-59609929D01*
X66394440Y-59609929D01*
X66500577Y-59397660D01*
X66606714Y-59185392D01*
X66606714Y-58136723D01*
X66838946Y-57672271D01*
X66662961Y-57672271D01*
X66479711Y-58038757D01*
X65480005Y-58038757D01*
X65480477Y-58117225D01*
X65480950Y-58195693D01*
X66450686Y-58196607D01*
X66450686Y-59145477D01*
X66334570Y-59377703D01*
X66218455Y-59609929D01*
X65559872Y-59609929D01*
X65559872Y-58563086D01*
X64743446Y-58563086D01*
X64631866Y-58339931D01*
X64520285Y-58116776D01*
X64631407Y-57894524D01*
X64742529Y-57672271D01*
X66662961Y-57672271D01*
X66838946Y-57672271D01*
X67366900Y-57672271D01*
X67366900Y-58902357D01*
X67524743Y-58902357D01*
X67524743Y-57672271D01*
X68052711Y-57672271D01*
X68284929Y-58136779D01*
X69672857Y-58136779D01*
X69672857Y-58038757D01*
X68411932Y-58038757D01*
X68228682Y-57672271D01*
X70149114Y-57672271D01*
X70260236Y-57894524D01*
X70371358Y-58116776D01*
X70259778Y-58339931D01*
X70148197Y-58563086D01*
X69148529Y-58563086D01*
X69148529Y-58719114D01*
X70148199Y-58719114D01*
X70370551Y-59163815D01*
X70389433Y-59201586D01*
X70407883Y-59238510D01*
X70425837Y-59274454D01*
X70443229Y-59309288D01*
X70459994Y-59342879D01*
X70476065Y-59375097D01*
X70491378Y-59405810D01*
X70505867Y-59434887D01*
X70519467Y-59462196D01*
X70532113Y-59487605D01*
X70543738Y-59510983D01*
X70554278Y-59532199D01*
X70563667Y-59551121D01*
X70571840Y-59567617D01*
X70578731Y-59581557D01*
X70584275Y-59592809D01*
X70588406Y-59601241D01*
X70591059Y-59606721D01*
X70592169Y-59609119D01*
X70592198Y-59609221D01*
X70769240Y-59609221D01*
X70566848Y-59204437D01*
X70285183Y-58641103D01*
X70416263Y-58378935D01*
X70547343Y-58116768D01*
X70396756Y-57815598D01*
X70246169Y-57514429D01*
X60452660Y-57514429D01*
X60302073Y-57815598D01*
G36*
X54218840Y-59040699D02*
X54219336Y-59209885D01*
X54670112Y-59210871D01*
X54670609Y-59072193D01*
X54671107Y-58933515D01*
X54689527Y-58945397D01*
X54723296Y-58969452D01*
X54754517Y-58996315D01*
X54783041Y-59025765D01*
X54808719Y-59057577D01*
X54831405Y-59091528D01*
X54850951Y-59127394D01*
X54867209Y-59164952D01*
X54880030Y-59203978D01*
X54889268Y-59244249D01*
X54890045Y-59248664D01*
X54890877Y-59253729D01*
X54891640Y-59258892D01*
X54892338Y-59264329D01*
X54892972Y-59270220D01*
X54893547Y-59276739D01*
X54894065Y-59284066D01*
X54894528Y-59292378D01*
X54894940Y-59301851D01*
X54895304Y-59312664D01*
X54895622Y-59324993D01*
X54895898Y-59339016D01*
X54896134Y-59354911D01*
X54896334Y-59372855D01*
X54896499Y-59393024D01*
X54896634Y-59415598D01*
X54896741Y-59440752D01*
X54896822Y-59468665D01*
X54896882Y-59499514D01*
X54896922Y-59533475D01*
X54896946Y-59570727D01*
X54896956Y-59611448D01*
X54896956Y-59655813D01*
X54896954Y-59670381D01*
X54896951Y-59714531D01*
X54896956Y-59754971D01*
X54896971Y-59791867D01*
X54896996Y-59825389D01*
X54897033Y-59855702D01*
X54897083Y-59882975D01*
X54897148Y-59907376D01*
X54897228Y-59929071D01*
X54897325Y-59948229D01*
X54897441Y-59965016D01*
X54897577Y-59979600D01*
X54897733Y-59992149D01*
X54897912Y-60002831D01*
X54898114Y-60011812D01*
X54898340Y-60019261D01*
X54898593Y-60025344D01*
X54898874Y-60030230D01*
X54899183Y-60034086D01*
X54899521Y-60037079D01*
X54899785Y-60038797D01*
X54906646Y-60066982D01*
X54917067Y-60093994D01*
X54930817Y-60119466D01*
X54947662Y-60143031D01*
X54967372Y-60164321D01*
X54989712Y-60182971D01*
X54992268Y-60184808D01*
X55005183Y-60192972D01*
X55020593Y-60201152D01*
X55037164Y-60208727D01*
X55053567Y-60215077D01*
X55065025Y-60218683D01*
X55084099Y-60223946D01*
X55893118Y-60224447D01*
X56702137Y-60224947D01*
X56702137Y-60676687D01*
X54896992Y-60676687D01*
X54896683Y-60780904D01*
X54896609Y-60807945D01*
X54896565Y-60831419D01*
X54896558Y-60851637D01*
X54896597Y-60868910D01*
X54896689Y-60883550D01*
X54896843Y-60895867D01*
X54897065Y-60906172D01*
X54897364Y-60914777D01*
X54897748Y-60921992D01*
X54898225Y-60928129D01*
X54898802Y-60933498D01*
X54899488Y-60938410D01*
X54900290Y-60943177D01*
X54900870Y-60946309D01*
X54908097Y-60974163D01*
X54918809Y-61000655D01*
X54932760Y-61025482D01*
X54949704Y-61048341D01*
X54969396Y-61068928D01*
X54991589Y-61086941D01*
X55016038Y-61102075D01*
X55034079Y-61110674D01*
X55042152Y-61113751D01*
X55052392Y-61117183D01*
X55063189Y-61120446D01*
X55068979Y-61122030D01*
X55089916Y-61127488D01*
X57691962Y-61127488D01*
X57710823Y-61122279D01*
X57743964Y-61111186D01*
X57776739Y-61096369D01*
X57808878Y-61077979D01*
X57840109Y-61056167D01*
X57864527Y-61036120D01*
X57867503Y-61033297D01*
X57871787Y-61028896D01*
X57877458Y-61022828D01*
X57884592Y-61015005D01*
X57893267Y-61005337D01*
X57903561Y-60993736D01*
X57915552Y-60980113D01*
X57929315Y-60964378D01*
X57944930Y-60946443D01*
X57962474Y-60926220D01*
X57982024Y-60903618D01*
X58003658Y-60878549D01*
X58027452Y-60850924D01*
X58053486Y-60820654D01*
X58081836Y-60787650D01*
X58112579Y-60751824D01*
X58128825Y-60732880D01*
X58168956Y-60686077D01*
X58206642Y-60642126D01*
X58241965Y-60600935D01*
X58275004Y-60562409D01*
X58305840Y-60526458D01*
X58334553Y-60492988D01*
X58361223Y-60461907D01*
X58385931Y-60433122D01*
X58408755Y-60406541D01*
X58429777Y-60382071D01*
X58449076Y-60359620D01*
X58466733Y-60339095D01*
X58482828Y-60320404D01*
X58497441Y-60303453D01*
X58510652Y-60288151D01*
X58522541Y-60274405D01*
X58533188Y-60262122D01*
X58542674Y-60251210D01*
X58551078Y-60241576D01*
X58558481Y-60233128D01*
X58564964Y-60225773D01*
X58570605Y-60219418D01*
X58575485Y-60213972D01*
X58579684Y-60209341D01*
X58583283Y-60205433D01*
X58586362Y-60202155D01*
X58589000Y-60199415D01*
X58591278Y-60197120D01*
X58593275Y-60195178D01*
X58595073Y-60193496D01*
X58596751Y-60191982D01*
X58598381Y-60190550D01*
X58611639Y-60179699D01*
X58626500Y-60168701D01*
X58641954Y-60158234D01*
X58656989Y-60148973D01*
X58670592Y-60141595D01*
X58674072Y-60139930D01*
X58688372Y-60133907D01*
X58704090Y-60128280D01*
X58720474Y-60123235D01*
X58736774Y-60118959D01*
X58752239Y-60115640D01*
X58766118Y-60113464D01*
X58777660Y-60112619D01*
X58782961Y-60112809D01*
X58789397Y-60113427D01*
X58789885Y-60620942D01*
X58790374Y-61128458D01*
X59263465Y-61128458D01*
X59263465Y-58871542D01*
X58790374Y-58871542D01*
X58789885Y-59379057D01*
X58789397Y-59886572D01*
X58775824Y-59885995D01*
X58754367Y-59883493D01*
X58731239Y-59877833D01*
X58706779Y-59869174D01*
X58681327Y-59857672D01*
X58655226Y-59843485D01*
X58628814Y-59826770D01*
X58602432Y-59807686D01*
X58596473Y-59803032D01*
X58593770Y-59800609D01*
X58588436Y-59795554D01*
X58580583Y-59787976D01*
X58570322Y-59777986D01*
X58557764Y-59765693D01*
X58543020Y-59751209D01*
X58526201Y-59734642D01*
X58507419Y-59716104D01*
X58486785Y-59695703D01*
X58464409Y-59673551D01*
X58440403Y-59649757D01*
X58414878Y-59624432D01*
X58387946Y-59597686D01*
X58359716Y-59569628D01*
X58330301Y-59540369D01*
X58299812Y-59510018D01*
X58268359Y-59478687D01*
X58236054Y-59446485D01*
X58203008Y-59413522D01*
X58169332Y-59379908D01*
X58165061Y-59375643D01*
X58122326Y-59332982D01*
X58081559Y-59292312D01*
X58042805Y-59253677D01*
X58006109Y-59217122D01*
X57971516Y-59182691D01*
X57939071Y-59150429D01*
X57908820Y-59120381D01*
X57880807Y-59092591D01*
X57855077Y-59067103D01*
X57831675Y-59043963D01*
X57810647Y-59023215D01*
X57792037Y-59004903D01*
X57775891Y-58989072D01*
X57762253Y-58975767D01*
X57751168Y-58965032D01*
X57742682Y-58956912D01*
X57736840Y-58951451D01*
X57733686Y-58948694D01*
X57733649Y-58948665D01*
X57705183Y-58928537D01*
X57675889Y-58911087D01*
X57646386Y-58896646D01*
X57617291Y-58885545D01*
X57613435Y-58884322D01*
X57607438Y-58882458D01*
X57601996Y-58880784D01*
X57596878Y-58879290D01*
X57591855Y-58877966D01*
X57586696Y-58876802D01*
X57581171Y-58875788D01*
X57575051Y-58874912D01*
X57568105Y-58874166D01*
X57560103Y-58873539D01*
X57550815Y-58873020D01*
X57540012Y-58872599D01*
X57527462Y-58872266D01*
X57512936Y-58872011D01*
X57496204Y-58871824D01*
X57477036Y-58871693D01*
X57455201Y-58871610D01*
X57430470Y-58871564D01*
X57402613Y-58871543D01*
X57371399Y-58871540D01*
X57336599Y-58871542D01*
X57096712Y-58871542D01*
X57660804Y-59435636D01*
X57710133Y-59484970D01*
X57756773Y-59531626D01*
X57800784Y-59575663D01*
X57842224Y-59617141D01*
X57881153Y-59656120D01*
X57917628Y-59692658D01*
X57951710Y-59726814D01*
X57983457Y-59758649D01*
X58012927Y-59788221D01*
X58040179Y-59815590D01*
X58065273Y-59840815D01*
X58088267Y-59863955D01*
X58109220Y-59885069D01*
X58128191Y-59904218D01*
X58145239Y-59921460D01*
X58160422Y-59936854D01*
X58173799Y-59950460D01*
X58185429Y-59962338D01*
X58195371Y-59972545D01*
X58203685Y-59981143D01*
X58210427Y-59988190D01*
X58215659Y-59993745D01*
X58219437Y-59997867D01*
X58221822Y-60000617D01*
X58222871Y-60002053D01*
X58222922Y-60002289D01*
X58221225Y-60004378D01*
X58217170Y-60009306D01*
X58210867Y-60016942D01*
X58202425Y-60027154D01*
X58191952Y-60039813D01*
X58179557Y-60054786D01*
X58165349Y-60071942D01*
X58149437Y-60091152D01*
X58131928Y-60112282D01*
X58112933Y-60135203D01*
X58092559Y-60159784D01*
X58070916Y-60185893D01*
X58048112Y-60213399D01*
X58024256Y-60242171D01*
X57999457Y-60272078D01*
X57973823Y-60302989D01*
X57947463Y-60334774D01*
X57920485Y-60367300D01*
X57893000Y-60400437D01*
X57865115Y-60434055D01*
X57836938Y-60468020D01*
X57808580Y-60502204D01*
X57780148Y-60536474D01*
X57751751Y-60570700D01*
X57723499Y-60604750D01*
X57695499Y-60638494D01*
X57667860Y-60671800D01*
X57640692Y-60704538D01*
X57614103Y-60736576D01*
X57588201Y-60767783D01*
X57563095Y-60798028D01*
X57538895Y-60827181D01*
X57515709Y-60855109D01*
X57493645Y-60881683D01*
X57472812Y-60906770D01*
X57453319Y-60930240D01*
X57435276Y-60951963D01*
X57418789Y-60971805D01*
X57403969Y-60989638D01*
X57390924Y-61005329D01*
X57379763Y-61018748D01*
X57370594Y-61029763D01*
X57363527Y-61038244D01*
X57358669Y-61044059D01*
X57356130Y-61047078D01*
X57355775Y-61047486D01*
X57350677Y-61052797D01*
X57335294Y-61041277D01*
X57302553Y-61014475D01*
X57272984Y-60985473D01*
X57246573Y-60954247D01*
X57223304Y-60920772D01*
X57203163Y-60885023D01*
X57186135Y-60846978D01*
X57172205Y-60806610D01*
X57161358Y-60763897D01*
X57159315Y-60753829D01*
X57155074Y-60731946D01*
X57153866Y-60005816D01*
X57153762Y-59942425D01*
X57153667Y-59882791D01*
X57153579Y-59826793D01*
X57153495Y-59774308D01*
X57153415Y-59725217D01*
X57153335Y-59679398D01*
X57153256Y-59636730D01*
X57153173Y-59597092D01*
X57153087Y-59560362D01*
X57152995Y-59526419D01*
X57152894Y-59495143D01*
X57152785Y-59466411D01*
X57152663Y-59440104D01*
X57152529Y-59416099D01*
X57152379Y-59394276D01*
X57152212Y-59374513D01*
X57152027Y-59356690D01*
X57151821Y-59340684D01*
X57151593Y-59326376D01*
X57151533Y-59323312D01*
X56702137Y-59323312D01*
X56702137Y-59749877D01*
X55346824Y-59749877D01*
X55346824Y-59323312D01*
X56702137Y-59323312D01*
X57151533Y-59323312D01*
X57151340Y-59313643D01*
X57151062Y-59302364D01*
X57150755Y-59292419D01*
X57150419Y-59283687D01*
X57150052Y-59276045D01*
X57149651Y-59269373D01*
X57149215Y-59263550D01*
X57148742Y-59258455D01*
X57148231Y-59253966D01*
X57147678Y-59249962D01*
X57147084Y-59246323D01*
X57146445Y-59242926D01*
X57145760Y-59239651D01*
X57145027Y-59236377D01*
X57144245Y-59232982D01*
X57143411Y-59229345D01*
X57142524Y-59225346D01*
X57142120Y-59223458D01*
X57135350Y-59196904D01*
X57126141Y-59169060D01*
X57114988Y-59141170D01*
X57102386Y-59114479D01*
X57089341Y-59091060D01*
X57065534Y-59055517D01*
X57039184Y-59022885D01*
X57010368Y-58993216D01*
X56979160Y-58966559D01*
X56945637Y-58942965D01*
X56909874Y-58922485D01*
X56871947Y-58905169D01*
X56831930Y-58891068D01*
X56789900Y-58880233D01*
X56768061Y-58876040D01*
X56766595Y-58875808D01*
X56764905Y-58875588D01*
X56762902Y-58875377D01*
X56760497Y-58875176D01*
X56757601Y-58874985D01*
X56754124Y-58874802D01*
X56749980Y-58874629D01*
X56745077Y-58874464D01*
X56739329Y-58874308D01*
X56732645Y-58874160D01*
X56724937Y-58874020D01*
X56716116Y-58873887D01*
X56706093Y-58873761D01*
X56694780Y-58873643D01*
X56682087Y-58873531D01*
X56667926Y-58873426D01*
X56652208Y-58873326D01*
X56634843Y-58873233D01*
X56615744Y-58873145D01*
X56594822Y-58873063D01*
X56571986Y-58872986D01*
X56547150Y-58872913D01*
X56520223Y-58872845D01*
X56491117Y-58872781D01*
X56459743Y-58872722D01*
X56426012Y-58872665D01*
X56389835Y-58872613D01*
X56351124Y-58872563D01*
X56309790Y-58872516D01*
X56265744Y-58872472D01*
X56218896Y-58872430D01*
X56169159Y-58872390D01*
X56116443Y-58872352D01*
X56060659Y-58872315D01*
X56001719Y-58872280D01*
X55939534Y-58872245D01*
X55874014Y-58872211D01*
X55805072Y-58872177D01*
X55732618Y-58872144D01*
X55656563Y-58872110D01*
X55576818Y-58872076D01*
X55493296Y-58872041D01*
X55483024Y-58872036D01*
X54218345Y-58871513D01*
X54218840Y-59040699D01*
X54218840Y-59040699D01*
G37*
X54218840Y-59040699D02*
X54219336Y-59209885D01*
X54670112Y-59210871D01*
X54670609Y-59072193D01*
X54671107Y-58933515D01*
X54689527Y-58945397D01*
X54723296Y-58969452D01*
X54754517Y-58996315D01*
X54783041Y-59025765D01*
X54808719Y-59057577D01*
X54831405Y-59091528D01*
X54850951Y-59127394D01*
X54867209Y-59164952D01*
X54880030Y-59203978D01*
X54889268Y-59244249D01*
X54890045Y-59248664D01*
X54890877Y-59253729D01*
X54891640Y-59258892D01*
X54892338Y-59264329D01*
X54892972Y-59270220D01*
X54893547Y-59276739D01*
X54894065Y-59284066D01*
X54894528Y-59292378D01*
X54894940Y-59301851D01*
X54895304Y-59312664D01*
X54895622Y-59324993D01*
X54895898Y-59339016D01*
X54896134Y-59354911D01*
X54896334Y-59372855D01*
X54896499Y-59393024D01*
X54896634Y-59415598D01*
X54896741Y-59440752D01*
X54896822Y-59468665D01*
X54896882Y-59499514D01*
X54896922Y-59533475D01*
X54896946Y-59570727D01*
X54896956Y-59611448D01*
X54896956Y-59655813D01*
X54896954Y-59670381D01*
X54896951Y-59714531D01*
X54896956Y-59754971D01*
X54896971Y-59791867D01*
X54896996Y-59825389D01*
X54897033Y-59855702D01*
X54897083Y-59882975D01*
X54897148Y-59907376D01*
X54897228Y-59929071D01*
X54897325Y-59948229D01*
X54897441Y-59965016D01*
X54897577Y-59979600D01*
X54897733Y-59992149D01*
X54897912Y-60002831D01*
X54898114Y-60011812D01*
X54898340Y-60019261D01*
X54898593Y-60025344D01*
X54898874Y-60030230D01*
X54899183Y-60034086D01*
X54899521Y-60037079D01*
X54899785Y-60038797D01*
X54906646Y-60066982D01*
X54917067Y-60093994D01*
X54930817Y-60119466D01*
X54947662Y-60143031D01*
X54967372Y-60164321D01*
X54989712Y-60182971D01*
X54992268Y-60184808D01*
X55005183Y-60192972D01*
X55020593Y-60201152D01*
X55037164Y-60208727D01*
X55053567Y-60215077D01*
X55065025Y-60218683D01*
X55084099Y-60223946D01*
X55893118Y-60224447D01*
X56702137Y-60224947D01*
X56702137Y-60676687D01*
X54896992Y-60676687D01*
X54896683Y-60780904D01*
X54896609Y-60807945D01*
X54896565Y-60831419D01*
X54896558Y-60851637D01*
X54896597Y-60868910D01*
X54896689Y-60883550D01*
X54896843Y-60895867D01*
X54897065Y-60906172D01*
X54897364Y-60914777D01*
X54897748Y-60921992D01*
X54898225Y-60928129D01*
X54898802Y-60933498D01*
X54899488Y-60938410D01*
X54900290Y-60943177D01*
X54900870Y-60946309D01*
X54908097Y-60974163D01*
X54918809Y-61000655D01*
X54932760Y-61025482D01*
X54949704Y-61048341D01*
X54969396Y-61068928D01*
X54991589Y-61086941D01*
X55016038Y-61102075D01*
X55034079Y-61110674D01*
X55042152Y-61113751D01*
X55052392Y-61117183D01*
X55063189Y-61120446D01*
X55068979Y-61122030D01*
X55089916Y-61127488D01*
X57691962Y-61127488D01*
X57710823Y-61122279D01*
X57743964Y-61111186D01*
X57776739Y-61096369D01*
X57808878Y-61077979D01*
X57840109Y-61056167D01*
X57864527Y-61036120D01*
X57867503Y-61033297D01*
X57871787Y-61028896D01*
X57877458Y-61022828D01*
X57884592Y-61015005D01*
X57893267Y-61005337D01*
X57903561Y-60993736D01*
X57915552Y-60980113D01*
X57929315Y-60964378D01*
X57944930Y-60946443D01*
X57962474Y-60926220D01*
X57982024Y-60903618D01*
X58003658Y-60878549D01*
X58027452Y-60850924D01*
X58053486Y-60820654D01*
X58081836Y-60787650D01*
X58112579Y-60751824D01*
X58128825Y-60732880D01*
X58168956Y-60686077D01*
X58206642Y-60642126D01*
X58241965Y-60600935D01*
X58275004Y-60562409D01*
X58305840Y-60526458D01*
X58334553Y-60492988D01*
X58361223Y-60461907D01*
X58385931Y-60433122D01*
X58408755Y-60406541D01*
X58429777Y-60382071D01*
X58449076Y-60359620D01*
X58466733Y-60339095D01*
X58482828Y-60320404D01*
X58497441Y-60303453D01*
X58510652Y-60288151D01*
X58522541Y-60274405D01*
X58533188Y-60262122D01*
X58542674Y-60251210D01*
X58551078Y-60241576D01*
X58558481Y-60233128D01*
X58564964Y-60225773D01*
X58570605Y-60219418D01*
X58575485Y-60213972D01*
X58579684Y-60209341D01*
X58583283Y-60205433D01*
X58586362Y-60202155D01*
X58589000Y-60199415D01*
X58591278Y-60197120D01*
X58593275Y-60195178D01*
X58595073Y-60193496D01*
X58596751Y-60191982D01*
X58598381Y-60190550D01*
X58611639Y-60179699D01*
X58626500Y-60168701D01*
X58641954Y-60158234D01*
X58656989Y-60148973D01*
X58670592Y-60141595D01*
X58674072Y-60139930D01*
X58688372Y-60133907D01*
X58704090Y-60128280D01*
X58720474Y-60123235D01*
X58736774Y-60118959D01*
X58752239Y-60115640D01*
X58766118Y-60113464D01*
X58777660Y-60112619D01*
X58782961Y-60112809D01*
X58789397Y-60113427D01*
X58789885Y-60620942D01*
X58790374Y-61128458D01*
X59263465Y-61128458D01*
X59263465Y-58871542D01*
X58790374Y-58871542D01*
X58789885Y-59379057D01*
X58789397Y-59886572D01*
X58775824Y-59885995D01*
X58754367Y-59883493D01*
X58731239Y-59877833D01*
X58706779Y-59869174D01*
X58681327Y-59857672D01*
X58655226Y-59843485D01*
X58628814Y-59826770D01*
X58602432Y-59807686D01*
X58596473Y-59803032D01*
X58593770Y-59800609D01*
X58588436Y-59795554D01*
X58580583Y-59787976D01*
X58570322Y-59777986D01*
X58557764Y-59765693D01*
X58543020Y-59751209D01*
X58526201Y-59734642D01*
X58507419Y-59716104D01*
X58486785Y-59695703D01*
X58464409Y-59673551D01*
X58440403Y-59649757D01*
X58414878Y-59624432D01*
X58387946Y-59597686D01*
X58359716Y-59569628D01*
X58330301Y-59540369D01*
X58299812Y-59510018D01*
X58268359Y-59478687D01*
X58236054Y-59446485D01*
X58203008Y-59413522D01*
X58169332Y-59379908D01*
X58165061Y-59375643D01*
X58122326Y-59332982D01*
X58081559Y-59292312D01*
X58042805Y-59253677D01*
X58006109Y-59217122D01*
X57971516Y-59182691D01*
X57939071Y-59150429D01*
X57908820Y-59120381D01*
X57880807Y-59092591D01*
X57855077Y-59067103D01*
X57831675Y-59043963D01*
X57810647Y-59023215D01*
X57792037Y-59004903D01*
X57775891Y-58989072D01*
X57762253Y-58975767D01*
X57751168Y-58965032D01*
X57742682Y-58956912D01*
X57736840Y-58951451D01*
X57733686Y-58948694D01*
X57733649Y-58948665D01*
X57705183Y-58928537D01*
X57675889Y-58911087D01*
X57646386Y-58896646D01*
X57617291Y-58885545D01*
X57613435Y-58884322D01*
X57607438Y-58882458D01*
X57601996Y-58880784D01*
X57596878Y-58879290D01*
X57591855Y-58877966D01*
X57586696Y-58876802D01*
X57581171Y-58875788D01*
X57575051Y-58874912D01*
X57568105Y-58874166D01*
X57560103Y-58873539D01*
X57550815Y-58873020D01*
X57540012Y-58872599D01*
X57527462Y-58872266D01*
X57512936Y-58872011D01*
X57496204Y-58871824D01*
X57477036Y-58871693D01*
X57455201Y-58871610D01*
X57430470Y-58871564D01*
X57402613Y-58871543D01*
X57371399Y-58871540D01*
X57336599Y-58871542D01*
X57096712Y-58871542D01*
X57660804Y-59435636D01*
X57710133Y-59484970D01*
X57756773Y-59531626D01*
X57800784Y-59575663D01*
X57842224Y-59617141D01*
X57881153Y-59656120D01*
X57917628Y-59692658D01*
X57951710Y-59726814D01*
X57983457Y-59758649D01*
X58012927Y-59788221D01*
X58040179Y-59815590D01*
X58065273Y-59840815D01*
X58088267Y-59863955D01*
X58109220Y-59885069D01*
X58128191Y-59904218D01*
X58145239Y-59921460D01*
X58160422Y-59936854D01*
X58173799Y-59950460D01*
X58185429Y-59962338D01*
X58195371Y-59972545D01*
X58203685Y-59981143D01*
X58210427Y-59988190D01*
X58215659Y-59993745D01*
X58219437Y-59997867D01*
X58221822Y-60000617D01*
X58222871Y-60002053D01*
X58222922Y-60002289D01*
X58221225Y-60004378D01*
X58217170Y-60009306D01*
X58210867Y-60016942D01*
X58202425Y-60027154D01*
X58191952Y-60039813D01*
X58179557Y-60054786D01*
X58165349Y-60071942D01*
X58149437Y-60091152D01*
X58131928Y-60112282D01*
X58112933Y-60135203D01*
X58092559Y-60159784D01*
X58070916Y-60185893D01*
X58048112Y-60213399D01*
X58024256Y-60242171D01*
X57999457Y-60272078D01*
X57973823Y-60302989D01*
X57947463Y-60334774D01*
X57920485Y-60367300D01*
X57893000Y-60400437D01*
X57865115Y-60434055D01*
X57836938Y-60468020D01*
X57808580Y-60502204D01*
X57780148Y-60536474D01*
X57751751Y-60570700D01*
X57723499Y-60604750D01*
X57695499Y-60638494D01*
X57667860Y-60671800D01*
X57640692Y-60704538D01*
X57614103Y-60736576D01*
X57588201Y-60767783D01*
X57563095Y-60798028D01*
X57538895Y-60827181D01*
X57515709Y-60855109D01*
X57493645Y-60881683D01*
X57472812Y-60906770D01*
X57453319Y-60930240D01*
X57435276Y-60951963D01*
X57418789Y-60971805D01*
X57403969Y-60989638D01*
X57390924Y-61005329D01*
X57379763Y-61018748D01*
X57370594Y-61029763D01*
X57363527Y-61038244D01*
X57358669Y-61044059D01*
X57356130Y-61047078D01*
X57355775Y-61047486D01*
X57350677Y-61052797D01*
X57335294Y-61041277D01*
X57302553Y-61014475D01*
X57272984Y-60985473D01*
X57246573Y-60954247D01*
X57223304Y-60920772D01*
X57203163Y-60885023D01*
X57186135Y-60846978D01*
X57172205Y-60806610D01*
X57161358Y-60763897D01*
X57159315Y-60753829D01*
X57155074Y-60731946D01*
X57153866Y-60005816D01*
X57153762Y-59942425D01*
X57153667Y-59882791D01*
X57153579Y-59826793D01*
X57153495Y-59774308D01*
X57153415Y-59725217D01*
X57153335Y-59679398D01*
X57153256Y-59636730D01*
X57153173Y-59597092D01*
X57153087Y-59560362D01*
X57152995Y-59526419D01*
X57152894Y-59495143D01*
X57152785Y-59466411D01*
X57152663Y-59440104D01*
X57152529Y-59416099D01*
X57152379Y-59394276D01*
X57152212Y-59374513D01*
X57152027Y-59356690D01*
X57151821Y-59340684D01*
X57151593Y-59326376D01*
X57151533Y-59323312D01*
X56702137Y-59323312D01*
X56702137Y-59749877D01*
X55346824Y-59749877D01*
X55346824Y-59323312D01*
X56702137Y-59323312D01*
X57151533Y-59323312D01*
X57151340Y-59313643D01*
X57151062Y-59302364D01*
X57150755Y-59292419D01*
X57150419Y-59283687D01*
X57150052Y-59276045D01*
X57149651Y-59269373D01*
X57149215Y-59263550D01*
X57148742Y-59258455D01*
X57148231Y-59253966D01*
X57147678Y-59249962D01*
X57147084Y-59246323D01*
X57146445Y-59242926D01*
X57145760Y-59239651D01*
X57145027Y-59236377D01*
X57144245Y-59232982D01*
X57143411Y-59229345D01*
X57142524Y-59225346D01*
X57142120Y-59223458D01*
X57135350Y-59196904D01*
X57126141Y-59169060D01*
X57114988Y-59141170D01*
X57102386Y-59114479D01*
X57089341Y-59091060D01*
X57065534Y-59055517D01*
X57039184Y-59022885D01*
X57010368Y-58993216D01*
X56979160Y-58966559D01*
X56945637Y-58942965D01*
X56909874Y-58922485D01*
X56871947Y-58905169D01*
X56831930Y-58891068D01*
X56789900Y-58880233D01*
X56768061Y-58876040D01*
X56766595Y-58875808D01*
X56764905Y-58875588D01*
X56762902Y-58875377D01*
X56760497Y-58875176D01*
X56757601Y-58874985D01*
X56754124Y-58874802D01*
X56749980Y-58874629D01*
X56745077Y-58874464D01*
X56739329Y-58874308D01*
X56732645Y-58874160D01*
X56724937Y-58874020D01*
X56716116Y-58873887D01*
X56706093Y-58873761D01*
X56694780Y-58873643D01*
X56682087Y-58873531D01*
X56667926Y-58873426D01*
X56652208Y-58873326D01*
X56634843Y-58873233D01*
X56615744Y-58873145D01*
X56594822Y-58873063D01*
X56571986Y-58872986D01*
X56547150Y-58872913D01*
X56520223Y-58872845D01*
X56491117Y-58872781D01*
X56459743Y-58872722D01*
X56426012Y-58872665D01*
X56389835Y-58872613D01*
X56351124Y-58872563D01*
X56309790Y-58872516D01*
X56265744Y-58872472D01*
X56218896Y-58872430D01*
X56169159Y-58872390D01*
X56116443Y-58872352D01*
X56060659Y-58872315D01*
X56001719Y-58872280D01*
X55939534Y-58872245D01*
X55874014Y-58872211D01*
X55805072Y-58872177D01*
X55732618Y-58872144D01*
X55656563Y-58872110D01*
X55576818Y-58872076D01*
X55493296Y-58872041D01*
X55483024Y-58872036D01*
X54218345Y-58871513D01*
X54218840Y-59040699D01*
G36*
X51737029Y-59796875D02*
X51737071Y-59868499D01*
X51737112Y-59936350D01*
X51737153Y-60000532D01*
X51737193Y-60061149D01*
X51737234Y-60118305D01*
X51737276Y-60172106D01*
X51737319Y-60222654D01*
X51737364Y-60270056D01*
X51737410Y-60314414D01*
X51737460Y-60355834D01*
X51737512Y-60394419D01*
X51737568Y-60430275D01*
X51737628Y-60463505D01*
X51737692Y-60494214D01*
X51737761Y-60522506D01*
X51737835Y-60548486D01*
X51737915Y-60572257D01*
X51738001Y-60593925D01*
X51738093Y-60613594D01*
X51738193Y-60631367D01*
X51738299Y-60647350D01*
X51738414Y-60661646D01*
X51738537Y-60674361D01*
X51738668Y-60685598D01*
X51738809Y-60695462D01*
X51738959Y-60704057D01*
X51739119Y-60711487D01*
X51739290Y-60717857D01*
X51739471Y-60723272D01*
X51739664Y-60727835D01*
X51739869Y-60731651D01*
X51740086Y-60734824D01*
X51740315Y-60737459D01*
X51740558Y-60739660D01*
X51740813Y-60741532D01*
X51740986Y-60742610D01*
X51749983Y-60785565D01*
X51762180Y-60826341D01*
X51777600Y-60864982D01*
X51796265Y-60901533D01*
X51818199Y-60936039D01*
X51843425Y-60968543D01*
X51871964Y-60999090D01*
X51873492Y-61000580D01*
X51904511Y-61028220D01*
X51937179Y-61052467D01*
X51971640Y-61073392D01*
X52008037Y-61091065D01*
X52046511Y-61105558D01*
X52087205Y-61116940D01*
X52122382Y-61124012D01*
X52123862Y-61124239D01*
X52125594Y-61124457D01*
X52127667Y-61124665D01*
X52130169Y-61124863D01*
X52133190Y-61125052D01*
X52136818Y-61125231D01*
X52141142Y-61125402D01*
X52146250Y-61125565D01*
X52152232Y-61125719D01*
X52159176Y-61125865D01*
X52167171Y-61126004D01*
X52176307Y-61126135D01*
X52186671Y-61126259D01*
X52198352Y-61126376D01*
X52211440Y-61126486D01*
X52226023Y-61126590D01*
X52242189Y-61126688D01*
X52260029Y-61126780D01*
X52279630Y-61126867D01*
X52301081Y-61126949D01*
X52324471Y-61127025D01*
X52349889Y-61127097D01*
X52377424Y-61127164D01*
X52407165Y-61127228D01*
X52439200Y-61127287D01*
X52473618Y-61127343D01*
X52510507Y-61127395D01*
X52549958Y-61127445D01*
X52592058Y-61127491D01*
X52636896Y-61127535D01*
X52684562Y-61127577D01*
X52735143Y-61127617D01*
X52788729Y-61127655D01*
X52845409Y-61127692D01*
X52905271Y-61127728D01*
X52968404Y-61127763D01*
X53034897Y-61127797D01*
X53104838Y-61127831D01*
X53178317Y-61127865D01*
X53255423Y-61127899D01*
X53336244Y-61127933D01*
X53406439Y-61127963D01*
X54670137Y-61128487D01*
X54670137Y-59323312D01*
X54218371Y-59323312D01*
X54217397Y-61068882D01*
X54194130Y-61053318D01*
X54160427Y-61028481D01*
X54129446Y-61000938D01*
X54101308Y-60970864D01*
X54076137Y-60938430D01*
X54054055Y-60903810D01*
X54035183Y-60867178D01*
X54019646Y-60828706D01*
X54008022Y-60790365D01*
X54006864Y-60785978D01*
X54005774Y-60782044D01*
X54004751Y-60778444D01*
X54003791Y-60775055D01*
X54002893Y-60771759D01*
X54002055Y-60768433D01*
X54001274Y-60764958D01*
X54000548Y-60761213D01*
X53999874Y-60757077D01*
X53999252Y-60752429D01*
X53998678Y-60747149D01*
X53998149Y-60741117D01*
X53997665Y-60734211D01*
X53997223Y-60726311D01*
X53996820Y-60717297D01*
X53996454Y-60707047D01*
X53996124Y-60695441D01*
X53995826Y-60682359D01*
X53995559Y-60667679D01*
X53995321Y-60651282D01*
X53995108Y-60633046D01*
X53994920Y-60612851D01*
X53994753Y-60590576D01*
X53994606Y-60566101D01*
X53994476Y-60539305D01*
X53994362Y-60510068D01*
X53994260Y-60478268D01*
X53994169Y-60443785D01*
X53994087Y-60406498D01*
X53994010Y-60366288D01*
X53993938Y-60323032D01*
X53993868Y-60276612D01*
X53993797Y-60226905D01*
X53993723Y-60173791D01*
X53993645Y-60117150D01*
X53993560Y-60056861D01*
X53993474Y-59999030D01*
X53993379Y-59935935D01*
X53993287Y-59876599D01*
X53993198Y-59820902D01*
X53993113Y-59768727D01*
X53993028Y-59719955D01*
X53992945Y-59674465D01*
X53992863Y-59632141D01*
X53992780Y-59592862D01*
X53992696Y-59556509D01*
X53992610Y-59522965D01*
X53992521Y-59492110D01*
X53992429Y-59463824D01*
X53992333Y-59437990D01*
X53992233Y-59414488D01*
X53992126Y-59393200D01*
X53992014Y-59374006D01*
X53991894Y-59356788D01*
X53991767Y-59341427D01*
X53991632Y-59327803D01*
X53991578Y-59323312D01*
X53541679Y-59323312D01*
X53541679Y-60676687D01*
X52188305Y-60676687D01*
X52188305Y-59323312D01*
X53541679Y-59323312D01*
X53991578Y-59323312D01*
X53991487Y-59315799D01*
X53991332Y-59305294D01*
X53991167Y-59296171D01*
X53990990Y-59288311D01*
X53990801Y-59281593D01*
X53990600Y-59275901D01*
X53990384Y-59271113D01*
X53990155Y-59267113D01*
X53989910Y-59263781D01*
X53989650Y-59260998D01*
X53989373Y-59258644D01*
X53989079Y-59256602D01*
X53988889Y-59255450D01*
X53979800Y-59212754D01*
X53967559Y-59172290D01*
X53952124Y-59133976D01*
X53933455Y-59097729D01*
X53911511Y-59063468D01*
X53886251Y-59031110D01*
X53866982Y-59009968D01*
X53841222Y-58985072D01*
X53815033Y-58963333D01*
X53787481Y-58944061D01*
X53757634Y-58926568D01*
X53745720Y-58920356D01*
X53719650Y-58908046D01*
X53693991Y-58897821D01*
X53667643Y-58889322D01*
X53639509Y-58882189D01*
X53613420Y-58876940D01*
X53589183Y-58872544D01*
X52662839Y-58872021D01*
X51736494Y-58871499D01*
X51737029Y-59796875D01*
X51737029Y-59796875D01*
G37*
X51737029Y-59796875D02*
X51737071Y-59868499D01*
X51737112Y-59936350D01*
X51737153Y-60000532D01*
X51737193Y-60061149D01*
X51737234Y-60118305D01*
X51737276Y-60172106D01*
X51737319Y-60222654D01*
X51737364Y-60270056D01*
X51737410Y-60314414D01*
X51737460Y-60355834D01*
X51737512Y-60394419D01*
X51737568Y-60430275D01*
X51737628Y-60463505D01*
X51737692Y-60494214D01*
X51737761Y-60522506D01*
X51737835Y-60548486D01*
X51737915Y-60572257D01*
X51738001Y-60593925D01*
X51738093Y-60613594D01*
X51738193Y-60631367D01*
X51738299Y-60647350D01*
X51738414Y-60661646D01*
X51738537Y-60674361D01*
X51738668Y-60685598D01*
X51738809Y-60695462D01*
X51738959Y-60704057D01*
X51739119Y-60711487D01*
X51739290Y-60717857D01*
X51739471Y-60723272D01*
X51739664Y-60727835D01*
X51739869Y-60731651D01*
X51740086Y-60734824D01*
X51740315Y-60737459D01*
X51740558Y-60739660D01*
X51740813Y-60741532D01*
X51740986Y-60742610D01*
X51749983Y-60785565D01*
X51762180Y-60826341D01*
X51777600Y-60864982D01*
X51796265Y-60901533D01*
X51818199Y-60936039D01*
X51843425Y-60968543D01*
X51871964Y-60999090D01*
X51873492Y-61000580D01*
X51904511Y-61028220D01*
X51937179Y-61052467D01*
X51971640Y-61073392D01*
X52008037Y-61091065D01*
X52046511Y-61105558D01*
X52087205Y-61116940D01*
X52122382Y-61124012D01*
X52123862Y-61124239D01*
X52125594Y-61124457D01*
X52127667Y-61124665D01*
X52130169Y-61124863D01*
X52133190Y-61125052D01*
X52136818Y-61125231D01*
X52141142Y-61125402D01*
X52146250Y-61125565D01*
X52152232Y-61125719D01*
X52159176Y-61125865D01*
X52167171Y-61126004D01*
X52176307Y-61126135D01*
X52186671Y-61126259D01*
X52198352Y-61126376D01*
X52211440Y-61126486D01*
X52226023Y-61126590D01*
X52242189Y-61126688D01*
X52260029Y-61126780D01*
X52279630Y-61126867D01*
X52301081Y-61126949D01*
X52324471Y-61127025D01*
X52349889Y-61127097D01*
X52377424Y-61127164D01*
X52407165Y-61127228D01*
X52439200Y-61127287D01*
X52473618Y-61127343D01*
X52510507Y-61127395D01*
X52549958Y-61127445D01*
X52592058Y-61127491D01*
X52636896Y-61127535D01*
X52684562Y-61127577D01*
X52735143Y-61127617D01*
X52788729Y-61127655D01*
X52845409Y-61127692D01*
X52905271Y-61127728D01*
X52968404Y-61127763D01*
X53034897Y-61127797D01*
X53104838Y-61127831D01*
X53178317Y-61127865D01*
X53255423Y-61127899D01*
X53336244Y-61127933D01*
X53406439Y-61127963D01*
X54670137Y-61128487D01*
X54670137Y-59323312D01*
X54218371Y-59323312D01*
X54217397Y-61068882D01*
X54194130Y-61053318D01*
X54160427Y-61028481D01*
X54129446Y-61000938D01*
X54101308Y-60970864D01*
X54076137Y-60938430D01*
X54054055Y-60903810D01*
X54035183Y-60867178D01*
X54019646Y-60828706D01*
X54008022Y-60790365D01*
X54006864Y-60785978D01*
X54005774Y-60782044D01*
X54004751Y-60778444D01*
X54003791Y-60775055D01*
X54002893Y-60771759D01*
X54002055Y-60768433D01*
X54001274Y-60764958D01*
X54000548Y-60761213D01*
X53999874Y-60757077D01*
X53999252Y-60752429D01*
X53998678Y-60747149D01*
X53998149Y-60741117D01*
X53997665Y-60734211D01*
X53997223Y-60726311D01*
X53996820Y-60717297D01*
X53996454Y-60707047D01*
X53996124Y-60695441D01*
X53995826Y-60682359D01*
X53995559Y-60667679D01*
X53995321Y-60651282D01*
X53995108Y-60633046D01*
X53994920Y-60612851D01*
X53994753Y-60590576D01*
X53994606Y-60566101D01*
X53994476Y-60539305D01*
X53994362Y-60510068D01*
X53994260Y-60478268D01*
X53994169Y-60443785D01*
X53994087Y-60406498D01*
X53994010Y-60366288D01*
X53993938Y-60323032D01*
X53993868Y-60276612D01*
X53993797Y-60226905D01*
X53993723Y-60173791D01*
X53993645Y-60117150D01*
X53993560Y-60056861D01*
X53993474Y-59999030D01*
X53993379Y-59935935D01*
X53993287Y-59876599D01*
X53993198Y-59820902D01*
X53993113Y-59768727D01*
X53993028Y-59719955D01*
X53992945Y-59674465D01*
X53992863Y-59632141D01*
X53992780Y-59592862D01*
X53992696Y-59556509D01*
X53992610Y-59522965D01*
X53992521Y-59492110D01*
X53992429Y-59463824D01*
X53992333Y-59437990D01*
X53992233Y-59414488D01*
X53992126Y-59393200D01*
X53992014Y-59374006D01*
X53991894Y-59356788D01*
X53991767Y-59341427D01*
X53991632Y-59327803D01*
X53991578Y-59323312D01*
X53541679Y-59323312D01*
X53541679Y-60676687D01*
X52188305Y-60676687D01*
X52188305Y-59323312D01*
X53541679Y-59323312D01*
X53991578Y-59323312D01*
X53991487Y-59315799D01*
X53991332Y-59305294D01*
X53991167Y-59296171D01*
X53990990Y-59288311D01*
X53990801Y-59281593D01*
X53990600Y-59275901D01*
X53990384Y-59271113D01*
X53990155Y-59267113D01*
X53989910Y-59263781D01*
X53989650Y-59260998D01*
X53989373Y-59258644D01*
X53989079Y-59256602D01*
X53988889Y-59255450D01*
X53979800Y-59212754D01*
X53967559Y-59172290D01*
X53952124Y-59133976D01*
X53933455Y-59097729D01*
X53911511Y-59063468D01*
X53886251Y-59031110D01*
X53866982Y-59009968D01*
X53841222Y-58985072D01*
X53815033Y-58963333D01*
X53787481Y-58944061D01*
X53757634Y-58926568D01*
X53745720Y-58920356D01*
X53719650Y-58908046D01*
X53693991Y-58897821D01*
X53667643Y-58889322D01*
X53639509Y-58882189D01*
X53613420Y-58876940D01*
X53589183Y-58872544D01*
X52662839Y-58872021D01*
X51736494Y-58871499D01*
X51737029Y-59796875D01*
D14*
G36*
X60737300Y-74487300D02*
X59762700Y-74487300D01*
X59762700Y-73512700D01*
X60737300Y-73512700D01*
X60737300Y-74487300D01*
X60737300Y-74487300D01*
G37*
X60737300Y-74487300D02*
X59762700Y-74487300D01*
X59762700Y-73512700D01*
X60737300Y-73512700D01*
X60737300Y-74487300D01*
G36*
X65237300Y-71000000D02*
X65238301Y-71004941D01*
X65241145Y-71009103D01*
X65245384Y-71011831D01*
X65250000Y-71012700D01*
X66237300Y-71012700D01*
X66237300Y-71500000D01*
X66238301Y-71504941D01*
X66241145Y-71509103D01*
X66245384Y-71511831D01*
X66250000Y-71512700D01*
X66737300Y-71512700D01*
X66737300Y-72500000D01*
X66738301Y-72504941D01*
X66741145Y-72509103D01*
X66745384Y-72511831D01*
X66750000Y-72512700D01*
X67237300Y-72512700D01*
X67237300Y-74987300D01*
X66750000Y-74987300D01*
X66745059Y-74988301D01*
X66740897Y-74991145D01*
X66738169Y-74995384D01*
X66737300Y-75000000D01*
X66737300Y-75987300D01*
X66250000Y-75987300D01*
X66245059Y-75988301D01*
X66240897Y-75991145D01*
X66238169Y-75995384D01*
X66237300Y-76000000D01*
X66237300Y-76487300D01*
X65250000Y-76487300D01*
X65245059Y-76488301D01*
X65240897Y-76491145D01*
X65238169Y-76495384D01*
X65237300Y-76500000D01*
X65237300Y-76987300D01*
X62762700Y-76987300D01*
X62762700Y-76500000D01*
X62761699Y-76495059D01*
X62758855Y-76490897D01*
X62754616Y-76488169D01*
X62750000Y-76487300D01*
X61762700Y-76487300D01*
X61762700Y-76000000D01*
X61761699Y-75995059D01*
X61758855Y-75990897D01*
X61754616Y-75988169D01*
X61750000Y-75987300D01*
X61262700Y-75987300D01*
X61262700Y-75012700D01*
X62250000Y-75012700D01*
X62254941Y-75011699D01*
X62259103Y-75008855D01*
X62261831Y-75004616D01*
X62262700Y-75000000D01*
X62262700Y-74512700D01*
X63750000Y-74512700D01*
X63754941Y-74511699D01*
X63759103Y-74508855D01*
X63761831Y-74504616D01*
X63762700Y-74500000D01*
X63762700Y-74012700D01*
X64750000Y-74012700D01*
X64754941Y-74011699D01*
X64759103Y-74008855D01*
X64761831Y-74004616D01*
X64762700Y-74000000D01*
X64762700Y-73500000D01*
X64761699Y-73495059D01*
X64758855Y-73490897D01*
X64754616Y-73488169D01*
X64750000Y-73487300D01*
X63762700Y-73487300D01*
X63762700Y-73000000D01*
X63761699Y-72995059D01*
X63758855Y-72990897D01*
X63754616Y-72988169D01*
X63750000Y-72987300D01*
X62262700Y-72987300D01*
X62262700Y-72500000D01*
X62261699Y-72495059D01*
X62258855Y-72490897D01*
X62254616Y-72488169D01*
X62250000Y-72487300D01*
X61262700Y-72487300D01*
X61262700Y-71512700D01*
X61750000Y-71512700D01*
X61754941Y-71511699D01*
X61759103Y-71508855D01*
X61761831Y-71504616D01*
X61762700Y-71500000D01*
X61762700Y-71012700D01*
X62750000Y-71012700D01*
X62754941Y-71011699D01*
X62759103Y-71008855D01*
X62761831Y-71004616D01*
X62762700Y-71000000D01*
X62762700Y-70512700D01*
X65237300Y-70512700D01*
X65237300Y-71000000D01*
X65237300Y-71000000D01*
G37*
X65237300Y-71000000D02*
X65238301Y-71004941D01*
X65241145Y-71009103D01*
X65245384Y-71011831D01*
X65250000Y-71012700D01*
X66237300Y-71012700D01*
X66237300Y-71500000D01*
X66238301Y-71504941D01*
X66241145Y-71509103D01*
X66245384Y-71511831D01*
X66250000Y-71512700D01*
X66737300Y-71512700D01*
X66737300Y-72500000D01*
X66738301Y-72504941D01*
X66741145Y-72509103D01*
X66745384Y-72511831D01*
X66750000Y-72512700D01*
X67237300Y-72512700D01*
X67237300Y-74987300D01*
X66750000Y-74987300D01*
X66745059Y-74988301D01*
X66740897Y-74991145D01*
X66738169Y-74995384D01*
X66737300Y-75000000D01*
X66737300Y-75987300D01*
X66250000Y-75987300D01*
X66245059Y-75988301D01*
X66240897Y-75991145D01*
X66238169Y-75995384D01*
X66237300Y-76000000D01*
X66237300Y-76487300D01*
X65250000Y-76487300D01*
X65245059Y-76488301D01*
X65240897Y-76491145D01*
X65238169Y-76495384D01*
X65237300Y-76500000D01*
X65237300Y-76987300D01*
X62762700Y-76987300D01*
X62762700Y-76500000D01*
X62761699Y-76495059D01*
X62758855Y-76490897D01*
X62754616Y-76488169D01*
X62750000Y-76487300D01*
X61762700Y-76487300D01*
X61762700Y-76000000D01*
X61761699Y-75995059D01*
X61758855Y-75990897D01*
X61754616Y-75988169D01*
X61750000Y-75987300D01*
X61262700Y-75987300D01*
X61262700Y-75012700D01*
X62250000Y-75012700D01*
X62254941Y-75011699D01*
X62259103Y-75008855D01*
X62261831Y-75004616D01*
X62262700Y-75000000D01*
X62262700Y-74512700D01*
X63750000Y-74512700D01*
X63754941Y-74511699D01*
X63759103Y-74508855D01*
X63761831Y-74504616D01*
X63762700Y-74500000D01*
X63762700Y-74012700D01*
X64750000Y-74012700D01*
X64754941Y-74011699D01*
X64759103Y-74008855D01*
X64761831Y-74004616D01*
X64762700Y-74000000D01*
X64762700Y-73500000D01*
X64761699Y-73495059D01*
X64758855Y-73490897D01*
X64754616Y-73488169D01*
X64750000Y-73487300D01*
X63762700Y-73487300D01*
X63762700Y-73000000D01*
X63761699Y-72995059D01*
X63758855Y-72990897D01*
X63754616Y-72988169D01*
X63750000Y-72987300D01*
X62262700Y-72987300D01*
X62262700Y-72500000D01*
X62261699Y-72495059D01*
X62258855Y-72490897D01*
X62254616Y-72488169D01*
X62250000Y-72487300D01*
X61262700Y-72487300D01*
X61262700Y-71512700D01*
X61750000Y-71512700D01*
X61754941Y-71511699D01*
X61759103Y-71508855D01*
X61761831Y-71504616D01*
X61762700Y-71500000D01*
X61762700Y-71012700D01*
X62750000Y-71012700D01*
X62754941Y-71011699D01*
X62759103Y-71008855D01*
X62761831Y-71004616D01*
X62762700Y-71000000D01*
X62762700Y-70512700D01*
X65237300Y-70512700D01*
X65237300Y-71000000D01*
M02*
