%
M48
M72
T01C0.0121
T02C0.0197
T03C0.0236
T04C0.0315
T05C0.0320
T06C0.0354
T07C0.0360
T08C0.0400
T09C0.0900
T10C0.1260
%
T01
X8656Y21511
X9837Y22790
X12052Y19001
X12396Y19001
X13627Y17967
X14611Y16540
X14611Y13440
X12052Y11963
X11461Y10143
X11904Y9355
X12249Y6107
X10526Y4778
X6048Y3597
X5605Y3597
X4326Y3597
X9690Y13735
X11117Y17967
X14168Y20625
X14660Y20772
X16383Y20969
X13282Y22790
T02
X4326Y4434
X11511Y8026
X13184Y7288
X13873Y7387
T03
X16530Y9650
T04
X1914Y23233
X1914Y21855
X1914Y20477
X1914Y19099
X1914Y17721
X1914Y16343
X1914Y14965
X1914Y13587
X1914Y12209
X1914Y10831
X1914Y9454
X1914Y8076
X1471Y2465
X2849Y2465
X4227Y2465
X5605Y2465
X6983Y2465
X8361Y2465
X9739Y2465
X11117Y2465
X12495Y2465
X13873Y2465
X15251Y2465
X16629Y2465
X18204Y2465
X19581Y2465
X19778Y25694
X18400Y25694
X17022Y25694
X15644Y25694
X14267Y25694
X12889Y25694
X11511Y25694
X10133Y25694
X8755Y25694
X7377Y25694
X5999Y25694
X4621Y25694
T05
X10610Y20576
X12510Y20576
T06
X20467Y23331
X20467Y22347
X20467Y21363
X20467Y20379
X20467Y19394
X20467Y18410
X20467Y17426
X20467Y16442
X20467Y15457
X20467Y14473
X20467Y13489
X20467Y12505
X20467Y11520
T07
X18113Y8076
X18893Y8076
X18893Y7091
X18113Y7091
T08
X15137Y22650
X15137Y21650
X16137Y21650
X17137Y21650
X17137Y22650
X16137Y22650
X9156Y9083
X9156Y8083
X9156Y7083
X9156Y6083
X8156Y6083
X8156Y7083
X8156Y8083
X8156Y9083
T09
X19963Y9953
X19963Y5213
T10
X1963Y25694
X1963Y5615
X22436Y2859
X22436Y25694
M30
